M48
; DRILL file KiCad 10.0.0 date 2026-09-24T23:09:07
; FORMAT={-:-/ absolute / metric / decimal}
; #@! TF.CreationDate,2026-09-24T23:09:07-07:00
; #@! TF.GenerationSoftware,Kicad,Pcbnew,10.0.0
; #@! TF.FileFunction,Plated,1,8,PTH
FMAT,2
METRIC
; #@! TA.AperFunction,Plated,PTH,ViaDrill
T1C0.300
; #@! TA.AperFunction,Plated,PTH,ViaDrill
T2C0.400
; #@! TA.AperFunction,Plated,PTH,ViaDrill
T3C0.500
; #@! TA.AperFunction,Plated,PTH,ComponentDrill
T4C1.050
; #@! TA.AperFunction,Plated,PTH,ComponentDrill
T5C1.100
; #@! TA.AperFunction,Plated,PTH,ComponentDrill
T6C2.000
; #@! TA.AperFunction,Plated,PTH,ComponentDrill
T7C4.300
%
G90
G05
T1
X34.75Y-65.05
X40.65Y-99.35
X42.05Y-97.75
X42.35Y-98.55
X45.15Y-61.55
X46.05Y-59.25
X46.15Y-53.85
X48.05Y-45.75
X48.05Y-96.45
X48.05Y-102.15
X48.55Y-95.95
X48.95Y-55.35
X49.25Y-45.75
X49.65Y-99.85
X49.85Y-107.95
X49.95Y-42.55
X51.75Y-102.85
X52.25Y-63.05
X54.05Y-45.75
X54.15Y-66.55
X55.25Y-54.95
X55.55Y-100.45
X56.05Y-52.75
X56.15Y-91.95
X56.35Y-93.45
X56.55Y-77.55
X56.55Y-86.15
X56.65Y-56.75
X56.65Y-60.15
X56.65Y-73.35
X56.95Y-45.75
X57.05Y-62.85
X57.15Y-75.55
X57.65Y-51.95
X57.65Y-70.85
X57.65Y-104.55
X57.65Y-110.05
X57.85Y-67.75
X58.05Y-59.35
X58.15Y-50.15
X59.05Y-70.45
X60.15Y-90.15
X60.35Y-45.75
X60.75Y-59.35
X60.95Y-92.95
X63.05Y-93.05
X64.05Y-59.65
X64.35Y-110.35
X64.55Y-71.25
X64.55Y-73.95
X64.65Y-45.75
X64.95Y-109.75
X65.05Y-34.05
X65.25Y-104.05
X65.55Y-73.45
X66.05Y-41.35
X67.45Y-48.25
X67.55Y-114.95
X68.05Y-57.85
X68.15Y-114.15
X68.65Y-52.75
X68.65Y-58.65
X69.75Y-113.55
X70.25Y-38.75
X70.35Y-114.15
X70.95Y-71.25
X71.25Y-38.75
X71.65Y-71.75
X71.95Y-40.25
X71.95Y-70.65
X72.15Y-38.25
X72.15Y-72.45
X72.25Y-73.35
X72.45Y-90.35
X72.55Y-58.35
X72.75Y-89.25
X73.45Y-78.95
X74.45Y-99.05
X74.65Y-58.65
X74.75Y-43.85
X74.85Y-43.05
X74.95Y-33.05
X75.05Y-60.55
X75.05Y-70.75
X75.1Y-63.3
X75.1Y-63.9
X75.35Y-45.95
X76.35Y-35.15
X76.45Y-33.15
X76.65Y-71.75
X76.95Y-42.15
X76.95Y-88.75
X77.25Y-72.85
X77.55Y-78.65
X77.75Y-34.95
X78.25Y-73.05
X78.25Y-91.85
X78.35Y-95.15
X78.45Y-80.15
X79.35Y-102.55
X79.55Y-92.55
X79.95Y-90.45
X80.25Y-91.25
X80.25Y-94.65
X80.95Y-48.25
X80.95Y-58.15
X80.95Y-76.35
X80.95Y-78.55
X80.95Y-82.55
X81.25Y-79.65
X81.45Y-39.75
X81.85Y-88.55
X82.05Y-76.45
X82.05Y-82.35
X83.05Y-103.85
X85.35Y-92.55
X90.05Y-67.15
X90.55Y-84.75
X91.15Y-66.35
X98.65Y-51.85
X100.15Y-66.65
X101.65Y-88.05
T2
X31.0Y-79.4
X31.0Y-80.05
X31.0Y-80.7
X31.875Y-79.4
X31.875Y-80.05
X31.875Y-80.7
X32.75Y-79.4
X32.75Y-80.05
X32.75Y-80.7
X33.25Y-62.85
X33.5Y-69.45
X33.625Y-79.4
X33.625Y-80.05
X33.625Y-80.7
X33.85Y-67.55
X34.2Y-69.45
X34.5Y-79.4
X34.5Y-80.05
X34.5Y-80.7
X35.45Y-54.15
X36.3Y-63.85
X37.0Y-63.85
X38.6Y-55.5
X38.6Y-56.867
X38.6Y-58.233
X38.6Y-59.6
X39.4Y-79.4
X39.4Y-80.05
X39.4Y-80.7
X39.867Y-55.5
X39.867Y-56.867
X39.867Y-58.233
X39.867Y-59.6
X40.1Y-96.05
X40.275Y-79.4
X40.275Y-80.05
X40.275Y-80.7
X40.833Y-96.05
X40.9Y-60.6
X40.9Y-61.3
X40.9Y-62.0
X40.9Y-62.7
X41.133Y-55.5
X41.133Y-56.867
X41.133Y-58.233
X41.133Y-59.6
X41.15Y-79.4
X41.15Y-80.05
X41.15Y-80.7
X41.567Y-96.05
X41.6Y-60.6
X41.6Y-61.3
X41.6Y-62.0
X41.6Y-62.7
X42.025Y-79.4
X42.025Y-80.05
X42.025Y-80.7
X42.3Y-60.6
X42.3Y-61.3
X42.3Y-62.0
X42.3Y-62.7
X42.3Y-96.05
X42.4Y-55.5
X42.4Y-56.867
X42.4Y-58.233
X42.4Y-59.6
X42.9Y-79.4
X42.9Y-80.05
X42.9Y-80.7
X43.2Y-67.0
X43.2Y-68.36
X43.2Y-69.72
X43.2Y-71.08
X43.2Y-72.44
X43.2Y-73.8
X44.15Y-107.75
X44.533Y-67.0
X44.533Y-68.36
X44.533Y-69.72
X44.533Y-71.08
X44.533Y-72.44
X44.533Y-73.8
X45.867Y-67.0
X45.867Y-68.36
X45.867Y-69.72
X45.867Y-71.08
X45.867Y-72.44
X45.867Y-73.8
X47.2Y-67.0
X47.2Y-68.36
X47.2Y-69.72
X47.2Y-71.08
X47.2Y-72.44
X47.2Y-73.8
X48.6Y-80.5
X48.6Y-81.375
X48.6Y-82.25
X48.6Y-83.125
X48.6Y-84.0
X48.6Y-92.4
X48.75Y-97.85
X48.8Y-67.1
X48.8Y-67.975
X48.8Y-68.85
X48.8Y-69.725
X48.8Y-70.6
X48.8Y-75.5
X48.8Y-76.375
X48.8Y-77.25
X48.8Y-78.125
X48.8Y-79.0
X49.25Y-80.5
X49.25Y-81.375
X49.25Y-82.25
X49.25Y-83.125
X49.25Y-84.0
X49.25Y-92.4
X49.45Y-57.25
X49.45Y-67.1
X49.45Y-67.975
X49.45Y-68.85
X49.45Y-69.725
X49.45Y-70.6
X49.45Y-75.5
X49.45Y-76.375
X49.45Y-77.25
X49.45Y-78.125
X49.45Y-79.0
X49.9Y-80.5
X49.9Y-81.375
X49.9Y-82.25
X49.9Y-83.125
X49.9Y-84.0
X49.9Y-92.4
X50.1Y-63.45
X50.1Y-67.1
X50.1Y-67.975
X50.1Y-68.85
X50.1Y-69.725
X50.1Y-70.6
X50.1Y-75.5
X50.1Y-76.375
X50.1Y-77.25
X50.1Y-78.125
X50.1Y-79.0
X51.3Y-66.9
X51.3Y-67.82
X51.3Y-68.74
X51.3Y-69.66
X51.3Y-70.58
X51.3Y-71.5
X51.45Y-43.35
X52.15Y-66.9
X52.15Y-67.82
X52.15Y-68.74
X52.15Y-69.66
X52.15Y-70.58
X52.15Y-71.5
X53.0Y-66.9
X53.0Y-67.82
X53.0Y-68.74
X53.0Y-69.66
X53.0Y-70.58
X53.0Y-71.5
X53.05Y-90.85
X53.75Y-52.75
X54.85Y-56.25
X55.55Y-68.75
X56.45Y-87.65
X56.65Y-55.25
X57.35Y-58.25
X57.95Y-53.65
X57.95Y-55.25
X58.45Y-68.75
X58.45Y-73.55
X58.5Y-64.65
X58.5Y-65.45
X58.5Y-66.25
X59.3Y-49.0
X59.35Y-64.65
X59.35Y-65.45
X59.35Y-66.25
X60.15Y-49.0
X60.2Y-64.65
X60.2Y-65.45
X60.2Y-66.25
X60.35Y-31.45
X60.35Y-33.25
X60.95Y-47.05
X61.0Y-49.0
X61.0Y-49.888
X61.0Y-50.775
X61.0Y-51.663
X61.0Y-52.55
X61.0Y-53.438
X61.0Y-54.325
X61.0Y-55.212
X61.0Y-56.1
X61.05Y-64.65
X61.05Y-65.45
X61.05Y-66.25
X61.06Y-94.9
X61.06Y-95.633
X61.06Y-96.367
X61.06Y-97.1
X61.2Y-109.55
X61.45Y-58.35
X61.85Y-49.0
X61.85Y-49.888
X61.85Y-50.775
X61.85Y-51.663
X61.85Y-52.55
X61.85Y-53.438
X61.85Y-54.325
X61.85Y-55.212
X61.85Y-56.1
X61.9Y-64.65
X61.9Y-65.45
X61.9Y-66.25
X61.933Y-109.55
X62.25Y-35.55
X62.25Y-67.55
X62.65Y-47.65
X62.667Y-109.55
X62.7Y-49.0
X62.7Y-49.888
X62.7Y-50.775
X62.7Y-51.663
X62.7Y-52.55
X62.7Y-53.438
X62.7Y-54.325
X62.7Y-55.212
X62.7Y-56.1
X63.4Y-109.55
X63.45Y-62.65
X63.55Y-49.0
X63.55Y-49.888
X63.55Y-50.775
X63.55Y-51.663
X63.55Y-52.55
X63.55Y-53.438
X63.55Y-54.325
X63.55Y-55.212
X63.55Y-56.1
X63.75Y-58.45
X63.95Y-90.25
X64.4Y-49.0
X64.4Y-49.888
X64.4Y-50.775
X64.4Y-51.663
X64.4Y-52.55
X64.4Y-53.438
X64.4Y-54.325
X64.4Y-55.212
X64.4Y-56.1
X64.95Y-58.85
X65.65Y-45.35
X66.75Y-50.25
X66.9Y-64.65
X66.9Y-65.45
X66.9Y-66.25
X67.5Y-45.5
X67.75Y-56.45
X67.75Y-64.65
X67.75Y-65.45
X67.75Y-66.25
X68.6Y-64.65
X68.6Y-65.45
X68.6Y-66.25
X69.45Y-64.65
X69.45Y-65.45
X69.45Y-66.25
X69.9Y-47.2
X69.92Y-55.0
X69.92Y-59.1
X70.3Y-64.65
X70.3Y-65.45
X70.3Y-66.25
X70.65Y-47.2
X70.65Y-55.0
X70.65Y-59.1
X71.4Y-55.0
X72.05Y-79.05
X72.1Y-86.0
X72.1Y-86.8
X72.1Y-87.6
X72.7Y-47.3
X72.7Y-48.333
X72.7Y-49.367
X72.7Y-50.4
X72.7Y-55.567
X72.975Y-86.0
X72.975Y-86.8
X72.975Y-87.6
X73.2Y-63.2
X73.2Y-64.0
X73.4Y-66.0
X73.4Y-69.0
X73.45Y-60.95
X73.7Y-47.3
X73.7Y-48.333
X73.7Y-49.367
X73.7Y-50.4
X73.7Y-55.567
X73.7Y-56.6
X73.7Y-57.633
X73.7Y-58.667
X73.7Y-59.7
X73.85Y-86.0
X73.85Y-86.8
X73.85Y-87.6
X74.25Y-66.0
X74.25Y-69.0
X74.65Y-34.05
X74.7Y-47.3
X74.7Y-48.333
X74.7Y-49.367
X74.7Y-50.4
X74.7Y-56.6
X74.7Y-57.633
X74.725Y-86.0
X74.725Y-86.8
X74.725Y-87.6
X75.1Y-66.0
X75.1Y-69.0
X75.6Y-86.0
X75.6Y-86.8
X75.6Y-87.6
X75.6Y-97.4
X75.6Y-98.45
X75.65Y-31.45
X75.7Y-47.3
X75.7Y-48.333
X75.7Y-49.367
X75.7Y-50.4
X75.7Y-51.433
X75.7Y-52.467
X75.7Y-53.5
X75.7Y-54.533
X75.7Y-56.6
X75.7Y-57.633
X75.7Y-59.7
X76.35Y-39.45
X76.45Y-97.4
X76.45Y-98.45
X77.3Y-97.4
X77.3Y-98.45
X77.45Y-90.95
X77.65Y-33.45
X78.15Y-97.4
X78.15Y-98.45
X79.0Y-97.4
X79.0Y-98.45
X79.65Y-52.8
X79.65Y-53.6
X79.65Y-54.4
X79.65Y-55.2
X79.8Y-42.7
X79.8Y-43.7
X79.8Y-44.7
X79.8Y-45.7
X79.95Y-73.55
X80.25Y-88.75
X80.5Y-86.0
X80.85Y-42.7
X80.85Y-43.7
X80.85Y-44.7
X80.85Y-45.7
X81.45Y-91.35
X81.9Y-42.7
X81.9Y-43.7
X81.9Y-44.7
X81.9Y-45.7
X81.95Y-94.85
X82.15Y-98.75
X82.15Y-106.85
X82.95Y-42.7
X82.95Y-43.7
X82.95Y-44.7
X82.95Y-45.7
X83.125Y-86.0
X83.125Y-86.8
X83.125Y-87.6
X83.25Y-83.65
X84.0Y-42.7
X84.0Y-43.7
X84.0Y-44.7
X84.0Y-45.7
X84.0Y-86.0
X84.0Y-86.8
X84.0Y-87.6
X84.0Y-97.4
X84.0Y-98.45
X84.1Y-51.4
X84.1Y-52.2
X84.1Y-53.0
X84.1Y-53.8
X84.1Y-54.6
X84.85Y-97.4
X84.85Y-98.45
X85.0Y-82.65
X85.0Y-83.4
X85.05Y-42.7
X85.05Y-43.7
X85.05Y-44.7
X85.05Y-45.7
X85.55Y-51.4
X85.55Y-52.2
X85.55Y-53.0
X85.55Y-53.8
X85.55Y-54.6
X85.7Y-97.4
X85.7Y-98.45
X85.867Y-82.65
X85.867Y-83.4
X86.1Y-42.7
X86.1Y-43.7
X86.1Y-44.7
X86.1Y-45.7
X86.55Y-97.4
X86.55Y-98.45
X86.733Y-82.65
X86.733Y-83.4
X86.9Y-67.5
X86.9Y-68.375
X86.9Y-69.25
X86.9Y-70.125
X86.9Y-71.0
X86.9Y-75.9
X86.9Y-76.775
X86.9Y-77.65
X86.9Y-78.525
X86.9Y-79.4
X87.15Y-42.7
X87.15Y-43.7
X87.15Y-44.7
X87.15Y-45.7
X87.4Y-98.45
X87.6Y-82.65
X87.6Y-83.4
X88.2Y-42.7
X88.2Y-43.7
X88.2Y-44.7
X88.2Y-45.7
X88.467Y-82.65
X88.467Y-83.4
X88.5Y-78.0
X88.5Y-79.267
X88.5Y-80.533
X88.5Y-81.8
X88.9Y-84.64
X89.0Y-93.514
X89.0Y-98.543
X89.25Y-42.7
X89.25Y-43.7
X89.25Y-44.7
X89.25Y-45.7
X89.333Y-82.65
X89.333Y-83.4
X89.85Y-78.0
X89.85Y-79.267
X89.85Y-80.533
X89.85Y-81.8
X90.2Y-82.65
X90.2Y-83.4
X90.3Y-42.7
X90.3Y-43.7
X90.3Y-44.7
X90.3Y-45.7
X90.3Y-91.0
X90.3Y-93.514
X90.3Y-97.286
X90.3Y-98.543
X90.3Y-99.8
X90.95Y-95.3
X90.95Y-96.35
X91.05Y-46.75
X91.2Y-78.0
X91.2Y-79.267
X91.2Y-80.533
X91.2Y-81.8
X91.6Y-91.0
X91.6Y-92.257
X91.6Y-93.514
X91.6Y-94.771
X91.6Y-97.286
X91.6Y-98.543
X91.6Y-99.8
X91.75Y-45.85
X92.2Y-70.3
X92.2Y-71.417
X92.2Y-72.533
X92.2Y-73.65
X92.2Y-74.767
X92.2Y-75.883
X92.2Y-77.0
X92.55Y-78.0
X92.55Y-79.267
X92.55Y-80.533
X92.55Y-81.8
X92.9Y-91.0
X92.9Y-92.257
X92.9Y-93.514
X92.9Y-94.771
X92.9Y-96.029
X92.9Y-97.286
X92.9Y-98.543
X92.9Y-99.8
X93.2Y-70.3
X93.2Y-71.417
X93.2Y-72.533
X93.2Y-73.65
X93.2Y-74.767
X93.2Y-75.883
X93.2Y-77.0
X93.5Y-95.3
X93.5Y-96.35
X93.9Y-78.0
X93.9Y-79.267
X93.9Y-80.533
X93.9Y-81.8
X93.95Y-101.55
X94.2Y-70.3
X94.2Y-71.417
X94.2Y-72.533
X94.2Y-73.65
X94.2Y-74.767
X94.2Y-75.883
X94.2Y-77.0
X94.2Y-86.3
X94.2Y-87.1
X94.2Y-94.771
X94.2Y-96.029
X94.2Y-97.286
X94.2Y-98.543
X94.2Y-99.8
X94.25Y-83.45
X95.04Y-91.2
X95.04Y-92.267
X95.04Y-94.4
X95.05Y-67.35
X95.5Y-93.514
X95.5Y-96.029
X95.5Y-97.286
X95.5Y-98.543
X95.5Y-99.8
X95.55Y-102.3
X95.55Y-103.15
X95.55Y-104.0
X95.55Y-104.85
X95.55Y-105.7
X95.55Y-110.7
X95.55Y-111.55
X95.55Y-112.4
X95.55Y-113.25
X95.55Y-114.1
X96.08Y-91.2
X96.08Y-92.267
X96.08Y-94.4
X96.8Y-94.771
X96.8Y-96.029
X96.8Y-97.286
X96.8Y-98.543
X96.8Y-99.8
X96.8Y-102.3
X96.8Y-103.15
X96.8Y-104.0
X96.8Y-104.85
X96.8Y-105.7
X96.8Y-110.7
X96.8Y-111.55
X96.8Y-112.4
X96.8Y-113.25
X96.8Y-114.1
X97.12Y-92.267
X97.12Y-93.333
X97.768Y-85.86
X97.8Y-78.3
X97.8Y-79.543
X97.8Y-87.0
X98.16Y-91.2
X98.16Y-92.267
X98.16Y-93.333
X98.4Y-95.3
X98.4Y-96.35
X98.94Y-78.3
X98.94Y-79.543
X98.94Y-87.0
X98.95Y-43.55
X98.966Y-85.968
X99.2Y-91.2
X99.2Y-92.267
X99.2Y-93.333
X99.275Y-95.3
X99.275Y-96.35
X100.08Y-78.3
X100.08Y-79.543
X100.08Y-85.757
X100.08Y-87.0
X100.121Y-80.719
X100.15Y-95.3
X100.15Y-96.35
X101.025Y-95.3
X101.025Y-96.35
X101.22Y-78.3
X101.22Y-79.543
X101.22Y-80.786
X101.22Y-82.029
X101.22Y-84.514
X101.22Y-85.757
X101.22Y-87.0
X101.463Y-83.283
X101.9Y-95.3
X101.9Y-96.35
X102.05Y-93.65
X102.36Y-78.3
X102.36Y-79.543
X102.36Y-80.786
X102.36Y-82.029
X102.36Y-83.271
X102.36Y-84.514
X102.36Y-85.757
X102.36Y-87.0
X102.8Y-53.8
X102.8Y-55.7
X102.8Y-57.6
X102.8Y-59.5
X102.8Y-61.4
T3
X31.2Y-59.8
X31.2Y-60.667
X31.2Y-61.533
X31.2Y-62.4
X32.2Y-59.8
X32.2Y-60.667
X32.2Y-62.4
X33.2Y-59.8
X34.2Y-59.8
X34.2Y-60.667
X34.2Y-62.4
X35.2Y-59.8
X35.2Y-60.667
X48.6Y-61.0
X48.6Y-61.85
X48.6Y-62.7
X48.6Y-63.55
X59.35Y-37.0
X59.35Y-37.85
X59.35Y-38.7
X59.35Y-39.55
X59.35Y-40.4
X59.35Y-41.25
X59.35Y-42.1
X59.35Y-42.95
X59.35Y-43.8
X60.2Y-37.0
X60.2Y-37.85
X60.2Y-38.7
X60.2Y-39.55
X60.2Y-40.4
X60.2Y-41.25
X60.2Y-42.1
X60.2Y-42.95
X60.2Y-43.8
X61.05Y-37.0
X61.05Y-37.85
X61.05Y-38.7
X61.05Y-39.55
X61.05Y-40.4
X61.05Y-41.25
X61.05Y-42.1
X61.05Y-42.95
X61.05Y-43.8
X61.9Y-41.25
X61.9Y-42.95
X62.6Y-38.7
X62.6Y-39.55
X62.6Y-40.4
X62.6Y-42.1
X62.6Y-43.8
X68.8Y-32.3
X68.8Y-33.15
X68.8Y-34.0
X68.8Y-34.85
X68.8Y-35.7
X68.8Y-36.55
X68.8Y-40.7
X68.8Y-41.55
X68.8Y-42.4
X68.8Y-43.25
X68.8Y-44.1
X68.8Y-44.95
X68.8Y-45.8
X69.65Y-32.3
X69.65Y-33.15
X69.65Y-34.0
X69.65Y-34.85
X69.65Y-35.7
X69.65Y-36.55
X69.65Y-40.7
X69.65Y-41.55
X69.65Y-42.4
X69.65Y-43.25
X69.65Y-44.1
X69.65Y-44.95
X69.65Y-45.8
X70.5Y-32.3
X70.5Y-33.15
X70.5Y-34.0
X70.5Y-34.85
X70.5Y-35.7
X70.5Y-36.55
X70.5Y-37.4
X70.5Y-40.7
X70.5Y-41.55
X70.5Y-42.4
X70.5Y-43.25
X70.5Y-44.1
X70.5Y-44.95
X70.5Y-45.8
X71.35Y-32.3
X71.35Y-33.15
X71.35Y-34.0
X71.35Y-34.85
X71.35Y-35.7
X71.35Y-36.55
X71.35Y-37.4
X71.35Y-41.55
X71.35Y-42.4
X71.35Y-43.25
X71.35Y-44.1
X72.22Y-43.25
X72.25Y-41.55
X72.25Y-42.4
X72.25Y-44.1
X82.3Y-60.45
X82.3Y-61.2
X82.3Y-61.95
X91.2Y-86.4
X91.25Y-83.45
X91.3Y-60.4
X91.3Y-61.2
X91.3Y-62.0
X92.0Y-86.4
X92.1Y-83.45
X92.8Y-86.4
X92.95Y-83.45
T4
X66.937Y-74.158
X66.937Y-76.698
X66.937Y-79.238
X66.937Y-81.778
X66.937Y-84.318
X66.937Y-86.858
X66.937Y-89.398
X66.937Y-91.938
X66.937Y-94.478
X66.937Y-97.018
X66.937Y-99.558
X66.937Y-102.098
X66.937Y-104.638
X66.937Y-107.178
X66.937Y-109.718
X69.477Y-74.158
X69.477Y-76.698
X69.477Y-79.238
X69.477Y-81.778
X69.477Y-84.318
X69.477Y-86.858
X69.477Y-89.398
X69.477Y-91.938
X69.477Y-94.478
X69.477Y-97.018
X69.477Y-99.558
X69.477Y-102.098
X69.477Y-104.638
X69.477Y-107.178
X69.477Y-109.718
T5
X36.132Y-87.149
X38.672Y-87.149
X39.075Y-65.076
X41.212Y-87.149
X41.615Y-65.076
X44.155Y-65.076
X46.695Y-65.076
X49.235Y-65.076
X51.775Y-65.076
X52.157Y-96.015
X52.157Y-98.555
X52.157Y-101.095
X57.231Y-100.647
X59.771Y-100.647
X62.311Y-100.647
X77.466Y-56.836
X77.466Y-59.376
X77.466Y-61.916
X77.466Y-64.456
X77.466Y-66.996
X77.466Y-69.536
X77.865Y-45.981
X77.865Y-48.521
X77.865Y-51.061
X85.989Y-88.994
X88.529Y-88.994
X91.069Y-88.994
X93.609Y-88.994
X96.149Y-88.994
X98.689Y-88.994
T6
X32.805Y-111.568
X39.305Y-111.568
X44.416Y-112.935
X50.916Y-112.935
X56.074Y-113.185
X62.574Y-113.185
T7
X98.503Y-73.933
X98.616Y-83.139
M30
