G04 #@! TF.GenerationSoftware,KiCad,Pcbnew,10.0.0*
G04 #@! TF.CreationDate,2026-09-30T10:21:01-07:00*
G04 #@! TF.ProjectId,BOOST_control_RC2,424f4f53-545f-4636-9f6e-74726f6c5f52,rev?*
G04 #@! TF.SameCoordinates,Original*
G04 #@! TF.FileFunction,Soldermask,Top*
G04 #@! TF.FilePolarity,Negative*
%FSLAX46Y46*%
G04 Gerber Fmt 4.6, Leading zero omitted, Abs format (unit mm)*
G04 Created by KiCad (PCBNEW 10.0.0) date 2026-09-30 10:21:01*
%MOMM*%
%LPD*%
G01*
G04 APERTURE LIST*
G04 Aperture macros list*
%AMRoundRect*
0 Rectangle with rounded corners*
0 $1 Rounding radius*
0 $2 $3 $4 $5 $6 $7 $8 $9 X,Y pos of 4 corners*
0 Add a 4 corners polygon primitive as box body*
4,1,4,$2,$3,$4,$5,$6,$7,$8,$9,$2,$3,0*
0 Add four circle primitives for the rounded corners*
1,1,$1+$1,$2,$3*
1,1,$1+$1,$4,$5*
1,1,$1+$1,$6,$7*
1,1,$1+$1,$8,$9*
0 Add four rect primitives between the rounded corners*
20,1,$1+$1,$2,$3,$4,$5,0*
20,1,$1+$1,$4,$5,$6,$7,0*
20,1,$1+$1,$6,$7,$8,$9,0*
20,1,$1+$1,$8,$9,$2,$3,0*%
G04 Aperture macros list end*
%ADD10RoundRect,0.200000X0.200000X0.275000X-0.200000X0.275000X-0.200000X-0.275000X0.200000X-0.275000X0*%
%ADD11RoundRect,0.225000X-0.250000X0.225000X-0.250000X-0.225000X0.250000X-0.225000X0.250000X0.225000X0*%
%ADD12RoundRect,0.150000X-0.512500X-0.150000X0.512500X-0.150000X0.512500X0.150000X-0.512500X0.150000X0*%
%ADD13RoundRect,0.150000X-0.825000X-0.150000X0.825000X-0.150000X0.825000X0.150000X-0.825000X0.150000X0*%
%ADD14RoundRect,0.200000X-0.200000X-0.275000X0.200000X-0.275000X0.200000X0.275000X-0.200000X0.275000X0*%
%ADD15RoundRect,0.150000X0.150000X-0.825000X0.150000X0.825000X-0.150000X0.825000X-0.150000X-0.825000X0*%
%ADD16RoundRect,0.225000X0.225000X0.250000X-0.225000X0.250000X-0.225000X-0.250000X0.225000X-0.250000X0*%
%ADD17RoundRect,0.250000X0.450000X-0.262500X0.450000X0.262500X-0.450000X0.262500X-0.450000X-0.262500X0*%
%ADD18RoundRect,0.250000X-0.262500X-0.450000X0.262500X-0.450000X0.262500X0.450000X-0.262500X0.450000X0*%
%ADD19RoundRect,0.200000X0.275000X-0.200000X0.275000X0.200000X-0.275000X0.200000X-0.275000X-0.200000X0*%
%ADD20RoundRect,0.200000X-0.275000X0.200000X-0.275000X-0.200000X0.275000X-0.200000X0.275000X0.200000X0*%
%ADD21RoundRect,0.225000X-0.375000X0.225000X-0.375000X-0.225000X0.375000X-0.225000X0.375000X0.225000X0*%
%ADD22RoundRect,0.225000X0.250000X-0.225000X0.250000X0.225000X-0.250000X0.225000X-0.250000X-0.225000X0*%
%ADD23RoundRect,0.150000X-0.150000X0.825000X-0.150000X-0.825000X0.150000X-0.825000X0.150000X0.825000X0*%
%ADD24RoundRect,0.225000X-0.225000X-0.375000X0.225000X-0.375000X0.225000X0.375000X-0.225000X0.375000X0*%
%ADD25RoundRect,0.225000X-0.225000X-0.250000X0.225000X-0.250000X0.225000X0.250000X-0.225000X0.250000X0*%
%ADD26RoundRect,0.112500X-0.187500X-0.112500X0.187500X-0.112500X0.187500X0.112500X-0.187500X0.112500X0*%
%ADD27C,3.200000*%
%ADD28RoundRect,0.225000X0.375000X-0.225000X0.375000X0.225000X-0.375000X0.225000X-0.375000X-0.225000X0*%
%ADD29RoundRect,0.150000X0.150000X-0.512500X0.150000X0.512500X-0.150000X0.512500X-0.150000X-0.512500X0*%
%ADD30RoundRect,0.250000X0.475000X-0.250000X0.475000X0.250000X-0.475000X0.250000X-0.475000X-0.250000X0*%
%ADD31RoundRect,0.250000X-0.450000X0.262500X-0.450000X-0.262500X0.450000X-0.262500X0.450000X0.262500X0*%
%ADD32RoundRect,0.250000X0.262500X0.450000X-0.262500X0.450000X-0.262500X-0.450000X0.262500X-0.450000X0*%
%ADD33RoundRect,0.150000X-0.150000X0.512500X-0.150000X-0.512500X0.150000X-0.512500X0.150000X0.512500X0*%
%ADD34RoundRect,0.150000X0.825000X0.150000X-0.825000X0.150000X-0.825000X-0.150000X0.825000X-0.150000X0*%
%ADD35O,2.800000X1.400000*%
%ADD36R,2.000000X2.000000*%
%ADD37C,2.000000*%
%ADD38R,1.700000X1.700000*%
%ADD39C,1.700000*%
G04 APERTURE END LIST*
D10*
X83523600Y-92687500D03*
X81873600Y-92687500D03*
D11*
X74279700Y-96293400D03*
X74279700Y-97843400D03*
X64105800Y-105705200D03*
X64105800Y-107255200D03*
D10*
X77463300Y-80033800D03*
X75813300Y-80033800D03*
X75975000Y-99558400D03*
X74325000Y-99558400D03*
D12*
X61850800Y-89828000D03*
X61850800Y-90778000D03*
X61850800Y-91728000D03*
X64125800Y-91728000D03*
X64125800Y-89828000D03*
D13*
X73147900Y-101160600D03*
X73147900Y-102430600D03*
X73147900Y-103700600D03*
X73147900Y-104970600D03*
X73147900Y-106240600D03*
X73147900Y-107510600D03*
X73147900Y-108780600D03*
X73147900Y-110050600D03*
X78097900Y-110050600D03*
X78097900Y-108780600D03*
X78097900Y-107510600D03*
X78097900Y-106240600D03*
X78097900Y-104970600D03*
X78097900Y-103700600D03*
X78097900Y-102430600D03*
X78097900Y-101160600D03*
D14*
X76830100Y-71458400D03*
X78480100Y-71458400D03*
D11*
X47634000Y-102581400D03*
X47634000Y-104131400D03*
D15*
X54006400Y-86282200D03*
X55276400Y-86282200D03*
X56546400Y-86282200D03*
X57816400Y-86282200D03*
X59086400Y-86282200D03*
X60356400Y-86282200D03*
X61626400Y-86282200D03*
X61626400Y-81332200D03*
X60356400Y-81332200D03*
X59086400Y-81332200D03*
X57816400Y-81332200D03*
X56546400Y-81332200D03*
X55276400Y-81332200D03*
X54006400Y-81332200D03*
D16*
X73603300Y-80177500D03*
X72053300Y-80177500D03*
D17*
X63443300Y-87928600D03*
X63443300Y-86103600D03*
D18*
X81225500Y-94457900D03*
X83050500Y-94457900D03*
X73037900Y-113408700D03*
X74862900Y-113408700D03*
D19*
X78031500Y-113687600D03*
X78031500Y-112037600D03*
D10*
X50138700Y-105664000D03*
X48488700Y-105664000D03*
D20*
X52021500Y-72799900D03*
X52021500Y-74449900D03*
D21*
X52760600Y-75912900D03*
X52760600Y-79212900D03*
D11*
X79531900Y-89834500D03*
X79531900Y-91384500D03*
D14*
X83050400Y-90918000D03*
X84700400Y-90918000D03*
D19*
X52401100Y-85737300D03*
X52401100Y-84087300D03*
D22*
X50731300Y-78404500D03*
X50731300Y-76854500D03*
D20*
X58781600Y-104530000D03*
X58781600Y-106180000D03*
D14*
X72039200Y-92394400D03*
X73689200Y-92394400D03*
D23*
X87808400Y-96819700D03*
X86538400Y-96819700D03*
X85268400Y-96819700D03*
X83998400Y-96819700D03*
X82728400Y-96819700D03*
X81458400Y-96819700D03*
X80188400Y-96819700D03*
X80188400Y-101769700D03*
X81458400Y-101769700D03*
X82728400Y-101769700D03*
X83998400Y-101769700D03*
X85268400Y-101769700D03*
X86538400Y-101769700D03*
X87808400Y-101769700D03*
D20*
X80316700Y-111666700D03*
X80316700Y-113316700D03*
D24*
X86179000Y-91101000D03*
X89479000Y-91101000D03*
D20*
X80344400Y-108165100D03*
X80344400Y-109815100D03*
D15*
X73395600Y-87177800D03*
X74665600Y-87177800D03*
X75935600Y-87177800D03*
X77205600Y-87177800D03*
X78475600Y-87177800D03*
X79745600Y-87177800D03*
X81015600Y-87177800D03*
X82285600Y-87177800D03*
X82285600Y-82227800D03*
X81015600Y-82227800D03*
X79745600Y-82227800D03*
X78475600Y-82227800D03*
X77205600Y-82227800D03*
X75935600Y-82227800D03*
X74665600Y-82227800D03*
X73395600Y-82227800D03*
D14*
X53610200Y-89967800D03*
X55260200Y-89967800D03*
D24*
X46916700Y-80358000D03*
X50216700Y-80358000D03*
D25*
X51993900Y-88331700D03*
X53543900Y-88331700D03*
D12*
X47141100Y-85533200D03*
X47141100Y-86483200D03*
X47141100Y-87433200D03*
X49416100Y-87433200D03*
X49416100Y-85533200D03*
D26*
X67317800Y-71303100D03*
X69417800Y-71303100D03*
D22*
X89410300Y-101760600D03*
X89410300Y-100210600D03*
D20*
X49768100Y-107403400D03*
X49768100Y-109053400D03*
D27*
X54456685Y-106463745D03*
D14*
X48577900Y-82331500D03*
X50227900Y-82331500D03*
X76000300Y-94477900D03*
X77650300Y-94477900D03*
D19*
X47100700Y-84034700D03*
X47100700Y-82384700D03*
D28*
X53998000Y-74322200D03*
X53998000Y-71022200D03*
D11*
X72286100Y-96382800D03*
X72286100Y-97932800D03*
D10*
X75421300Y-71386000D03*
X73771300Y-71386000D03*
D19*
X58462400Y-89952800D03*
X58462400Y-88302800D03*
X79962100Y-74100100D03*
X79962100Y-72450100D03*
X72507700Y-90906300D03*
X72507700Y-89256300D03*
D20*
X76329100Y-95976100D03*
X76329100Y-97626100D03*
D14*
X73260600Y-111635200D03*
X74910600Y-111635200D03*
D11*
X89445200Y-107472700D03*
X89445200Y-109022700D03*
D14*
X84568000Y-94358500D03*
X86218000Y-94358500D03*
D11*
X46964100Y-89583000D03*
X46964100Y-91133000D03*
D29*
X48546200Y-91524500D03*
X49496200Y-91524500D03*
X50446200Y-91524500D03*
X50446200Y-89249500D03*
X48546200Y-89249500D03*
D30*
X79628000Y-79443800D03*
X79628000Y-77543800D03*
D20*
X52411700Y-80848700D03*
X52411700Y-82498700D03*
D19*
X55970500Y-73665400D03*
X55970500Y-72015400D03*
D22*
X56844700Y-91709400D03*
X56844700Y-90159400D03*
D21*
X55154100Y-75914000D03*
X55154100Y-79214000D03*
D27*
X75070812Y-75750733D03*
D22*
X89027100Y-79035000D03*
X89027100Y-77485000D03*
D11*
X89400500Y-96253300D03*
X89400500Y-97803300D03*
D27*
X60675290Y-76513695D03*
D14*
X53018200Y-91712400D03*
X54668200Y-91712400D03*
D13*
X84419900Y-81459400D03*
X84419900Y-82729400D03*
X84419900Y-83999400D03*
X84419900Y-85269400D03*
X84419900Y-86539400D03*
X84419900Y-87809400D03*
X84419900Y-89079400D03*
X89369900Y-89079400D03*
X89369900Y-87809400D03*
X89369900Y-86539400D03*
X89369900Y-85269400D03*
X89369900Y-83999400D03*
X89369900Y-82729400D03*
X89369900Y-81459400D03*
D16*
X50187800Y-83941800D03*
X48637800Y-83941800D03*
D10*
X59096500Y-72102200D03*
X57446500Y-72102200D03*
D25*
X58371100Y-91544800D03*
X59921100Y-91544800D03*
D20*
X49316800Y-102530400D03*
X49316800Y-104180400D03*
D31*
X81343400Y-89273900D03*
X81343400Y-91098900D03*
D10*
X71493600Y-112339000D03*
X69843600Y-112339000D03*
X82840100Y-104961500D03*
X81190100Y-104961500D03*
D22*
X89844300Y-75889100D03*
X89844300Y-74339100D03*
D32*
X60628700Y-102832900D03*
X58803700Y-102832900D03*
X74176000Y-94481300D03*
X72351000Y-94481300D03*
D14*
X60930000Y-104605800D03*
X62580000Y-104605800D03*
D10*
X72368300Y-71376400D03*
X70718300Y-71376400D03*
D20*
X64310800Y-102547500D03*
X64310800Y-104197500D03*
D19*
X78444000Y-97933600D03*
X78444000Y-96283600D03*
D27*
X85121167Y-109507071D03*
D20*
X79535200Y-92857600D03*
X79535200Y-94507600D03*
D10*
X71473700Y-113891900D03*
X69823700Y-113891900D03*
D33*
X77957200Y-90307100D03*
X77007200Y-90307100D03*
X76057200Y-90307100D03*
X76057200Y-92582100D03*
X77957200Y-92582100D03*
D34*
X86962500Y-79820300D03*
X86962500Y-78550300D03*
X86962500Y-77280300D03*
X86962500Y-76010300D03*
X86962500Y-74740300D03*
X86962500Y-73470300D03*
X86962500Y-72200300D03*
X82012500Y-72200300D03*
X82012500Y-73470300D03*
X82012500Y-74740300D03*
X82012500Y-76010300D03*
X82012500Y-77280300D03*
X82012500Y-78550300D03*
X82012500Y-79820300D03*
D19*
X76473900Y-113400000D03*
X76473900Y-111750000D03*
D35*
X48165000Y-93470000D03*
X48165000Y-100870000D03*
D36*
X51065000Y-95900000D03*
D37*
X52335000Y-98440000D03*
X53605000Y-95900000D03*
X54875000Y-98440000D03*
X56145000Y-95900000D03*
X57415000Y-98440000D03*
X58685000Y-95900000D03*
X59955000Y-98440000D03*
X61225000Y-95900000D03*
X62495000Y-98440000D03*
X63765000Y-95900000D03*
D22*
X46949000Y-78390500D03*
X46949000Y-76840500D03*
D38*
X69476545Y-74158008D03*
D39*
X66936545Y-74158008D03*
X69476545Y-76698008D03*
X66936545Y-76698008D03*
X69476545Y-79238008D03*
X66936545Y-79238008D03*
X69476545Y-81778008D03*
X66936545Y-81778008D03*
X69476545Y-84318008D03*
X66936545Y-84318008D03*
X69476545Y-86858008D03*
X66936545Y-86858008D03*
X69476545Y-89398008D03*
X66936545Y-89398008D03*
X69476545Y-91938008D03*
X66936545Y-91938008D03*
X69476545Y-94478008D03*
X66936545Y-94478008D03*
X69476545Y-97018008D03*
X66936545Y-97018008D03*
X69476545Y-99558008D03*
X66936545Y-99558008D03*
X69476545Y-102098008D03*
X66936545Y-102098008D03*
X69476545Y-104638008D03*
X66936545Y-104638008D03*
X69476545Y-107178008D03*
X66936545Y-107178008D03*
X69476545Y-109718008D03*
X66936545Y-109718008D03*
M02*
