G04 #@! TF.GenerationSoftware,KiCad,Pcbnew,10.0.0*
G04 #@! TF.CreationDate,2026-09-30T10:21:01-07:00*
G04 #@! TF.ProjectId,BOOST_control_RC2,424f4f53-545f-4636-9f6e-74726f6c5f52,rev?*
G04 #@! TF.SameCoordinates,Original*
G04 #@! TF.FileFunction,Soldermask,Bot*
G04 #@! TF.FilePolarity,Negative*
%FSLAX46Y46*%
G04 Gerber Fmt 4.6, Leading zero omitted, Abs format (unit mm)*
G04 Created by KiCad (PCBNEW 10.0.0) date 2026-09-30 10:21:01*
%MOMM*%
%LPD*%
G01*
G04 APERTURE LIST*
G04 Aperture macros list*
%AMRoundRect*
0 Rectangle with rounded corners*
0 $1 Rounding radius*
0 $2 $3 $4 $5 $6 $7 $8 $9 X,Y pos of 4 corners*
0 Add a 4 corners polygon primitive as box body*
4,1,4,$2,$3,$4,$5,$6,$7,$8,$9,$2,$3,0*
0 Add four circle primitives for the rounded corners*
1,1,$1+$1,$2,$3*
1,1,$1+$1,$4,$5*
1,1,$1+$1,$6,$7*
1,1,$1+$1,$8,$9*
0 Add four rect primitives between the rounded corners*
20,1,$1+$1,$2,$3,$4,$5,0*
20,1,$1+$1,$4,$5,$6,$7,0*
20,1,$1+$1,$6,$7,$8,$9,0*
20,1,$1+$1,$8,$9,$2,$3,0*%
G04 Aperture macros list end*
%ADD10C,3.200000*%
%ADD11O,2.800000X1.400000*%
%ADD12R,2.000000X2.000000*%
%ADD13C,2.000000*%
%ADD14RoundRect,0.150000X-0.825000X-0.150000X0.825000X-0.150000X0.825000X0.150000X-0.825000X0.150000X0*%
%ADD15RoundRect,0.250000X-0.262500X-0.450000X0.262500X-0.450000X0.262500X0.450000X-0.262500X0.450000X0*%
%ADD16RoundRect,0.250000X0.450000X-0.262500X0.450000X0.262500X-0.450000X0.262500X-0.450000X-0.262500X0*%
%ADD17RoundRect,0.225000X0.225000X0.375000X-0.225000X0.375000X-0.225000X-0.375000X0.225000X-0.375000X0*%
%ADD18RoundRect,0.225000X0.225000X0.250000X-0.225000X0.250000X-0.225000X-0.250000X0.225000X-0.250000X0*%
%ADD19RoundRect,0.200000X-0.275000X0.200000X-0.275000X-0.200000X0.275000X-0.200000X0.275000X0.200000X0*%
%ADD20RoundRect,0.225000X0.250000X-0.225000X0.250000X0.225000X-0.250000X0.225000X-0.250000X-0.225000X0*%
%ADD21RoundRect,0.150000X-0.512500X-0.150000X0.512500X-0.150000X0.512500X0.150000X-0.512500X0.150000X0*%
%ADD22RoundRect,0.200000X0.275000X-0.200000X0.275000X0.200000X-0.275000X0.200000X-0.275000X-0.200000X0*%
%ADD23RoundRect,0.112500X-0.112500X0.187500X-0.112500X-0.187500X0.112500X-0.187500X0.112500X0.187500X0*%
%ADD24RoundRect,0.200000X-0.200000X-0.275000X0.200000X-0.275000X0.200000X0.275000X-0.200000X0.275000X0*%
%ADD25RoundRect,0.225000X-0.225000X-0.250000X0.225000X-0.250000X0.225000X0.250000X-0.225000X0.250000X0*%
%ADD26RoundRect,0.250000X0.262500X0.450000X-0.262500X0.450000X-0.262500X-0.450000X0.262500X-0.450000X0*%
%ADD27RoundRect,0.150000X0.512500X0.150000X-0.512500X0.150000X-0.512500X-0.150000X0.512500X-0.150000X0*%
%ADD28RoundRect,0.250000X0.650000X-0.325000X0.650000X0.325000X-0.650000X0.325000X-0.650000X-0.325000X0*%
%ADD29RoundRect,0.200000X0.200000X0.275000X-0.200000X0.275000X-0.200000X-0.275000X0.200000X-0.275000X0*%
%ADD30RoundRect,0.150000X0.150000X-0.512500X0.150000X0.512500X-0.150000X0.512500X-0.150000X-0.512500X0*%
%ADD31RoundRect,0.225000X-0.225000X-0.375000X0.225000X-0.375000X0.225000X0.375000X-0.225000X0.375000X0*%
%ADD32RoundRect,0.225000X-0.250000X0.225000X-0.250000X-0.225000X0.250000X-0.225000X0.250000X0.225000X0*%
%ADD33RoundRect,0.150000X0.587500X0.150000X-0.587500X0.150000X-0.587500X-0.150000X0.587500X-0.150000X0*%
%ADD34RoundRect,0.225000X-0.375000X0.225000X-0.375000X-0.225000X0.375000X-0.225000X0.375000X0.225000X0*%
%ADD35RoundRect,0.250000X-0.475000X0.250000X-0.475000X-0.250000X0.475000X-0.250000X0.475000X0.250000X0*%
%ADD36RoundRect,0.150000X-0.150000X0.512500X-0.150000X-0.512500X0.150000X-0.512500X0.150000X0.512500X0*%
%ADD37RoundRect,0.250000X-0.650000X0.325000X-0.650000X-0.325000X0.650000X-0.325000X0.650000X0.325000X0*%
%ADD38RoundRect,0.100000X-0.100000X0.637500X-0.100000X-0.637500X0.100000X-0.637500X0.100000X0.637500X0*%
%ADD39RoundRect,0.250000X0.325000X0.650000X-0.325000X0.650000X-0.325000X-0.650000X0.325000X-0.650000X0*%
%ADD40RoundRect,0.150000X0.825000X0.150000X-0.825000X0.150000X-0.825000X-0.150000X0.825000X-0.150000X0*%
%ADD41R,1.700000X1.700000*%
%ADD42C,1.700000*%
G04 APERTURE END LIST*
D10*
X54456685Y-106463745D03*
X75070812Y-75750733D03*
X60675290Y-76513695D03*
X85121167Y-109507071D03*
D11*
X48165000Y-93470000D03*
X48165000Y-100870000D03*
D12*
X51065000Y-95900000D03*
D13*
X52335000Y-98440000D03*
X53605000Y-95900000D03*
X54875000Y-98440000D03*
X56145000Y-95900000D03*
X57415000Y-98440000D03*
X58685000Y-95900000D03*
X59955000Y-98440000D03*
X61225000Y-95900000D03*
X62495000Y-98440000D03*
X63765000Y-95900000D03*
D14*
X83431500Y-95054700D03*
X83431500Y-93784700D03*
X83431500Y-92514700D03*
X83431500Y-91244700D03*
X83431500Y-89974700D03*
X83431500Y-88704700D03*
X83431500Y-87434700D03*
X88381500Y-87434700D03*
X88381500Y-88704700D03*
X88381500Y-89974700D03*
X88381500Y-91244700D03*
X88381500Y-92514700D03*
X88381500Y-93784700D03*
X88381500Y-95054700D03*
D15*
X77830700Y-95164400D03*
X79655700Y-95164400D03*
D16*
X72628400Y-91220100D03*
X72628400Y-89395100D03*
D17*
X62365000Y-71811500D03*
X59065000Y-71811500D03*
D18*
X89889700Y-75734500D03*
X88339700Y-75734500D03*
X63794100Y-88400200D03*
X62244100Y-88400200D03*
D19*
X79189500Y-99290500D03*
X79189500Y-100940500D03*
D20*
X89016500Y-74154500D03*
X89016500Y-72604500D03*
D18*
X73723300Y-106766600D03*
X72173300Y-106766600D03*
D21*
X72259300Y-105195100D03*
X72259300Y-104245100D03*
X72259300Y-103295100D03*
X74534300Y-103295100D03*
X74534300Y-105195100D03*
D22*
X53217400Y-91519100D03*
X53217400Y-89869100D03*
D23*
X75916900Y-95496600D03*
X75916900Y-97596600D03*
D18*
X76161200Y-89305800D03*
X74611200Y-89305800D03*
D24*
X62601200Y-104151300D03*
X64251200Y-104151300D03*
X62526400Y-91710500D03*
X64176400Y-91710500D03*
D18*
X58426300Y-102594600D03*
X56876300Y-102594600D03*
D20*
X78965500Y-79742800D03*
X78965500Y-78192800D03*
D18*
X71696300Y-113526200D03*
X70146300Y-113526200D03*
X76257100Y-93985900D03*
X74707100Y-93985900D03*
D25*
X78510300Y-89448900D03*
X80060300Y-89448900D03*
D17*
X68644299Y-112738600D03*
X65344299Y-112738600D03*
D26*
X72785700Y-71310200D03*
X70960700Y-71310200D03*
D19*
X51514800Y-85237400D03*
X51514800Y-86887400D03*
X72825400Y-92749200D03*
X72825400Y-94399200D03*
D24*
X60056200Y-102601300D03*
X61706200Y-102601300D03*
D21*
X74963800Y-113570100D03*
X74963800Y-112620100D03*
X74963800Y-111670100D03*
X77238800Y-111670100D03*
X77238800Y-113570100D03*
D27*
X88525500Y-83216200D03*
X88525500Y-84166200D03*
X88525500Y-85116200D03*
X86250500Y-85116200D03*
X86250500Y-83216200D03*
D28*
X89372800Y-102759900D03*
X89372800Y-99809900D03*
D24*
X79133900Y-102423500D03*
X80783900Y-102423500D03*
D29*
X76297300Y-92435000D03*
X74647300Y-92435000D03*
D30*
X78188000Y-106454300D03*
X77238000Y-106454300D03*
X76288000Y-106454300D03*
X76288000Y-104179300D03*
X78188000Y-104179300D03*
X79966200Y-87713500D03*
X79016200Y-87713500D03*
X78066200Y-87713500D03*
X78066200Y-85438500D03*
X79966200Y-85438500D03*
D31*
X80996100Y-71474600D03*
X84296100Y-71474600D03*
D25*
X62705700Y-105742100D03*
X64255700Y-105742100D03*
D32*
X89503900Y-96638400D03*
X89503900Y-98188400D03*
D24*
X50022700Y-91746800D03*
X51672700Y-91746800D03*
D25*
X59589300Y-104469200D03*
X61139300Y-104469200D03*
D33*
X49383700Y-86037900D03*
X49383700Y-87937900D03*
X47508700Y-86987900D03*
D34*
X49712300Y-107253600D03*
X49712300Y-110553600D03*
D29*
X79753800Y-93391700D03*
X78103800Y-93391700D03*
D19*
X47027000Y-79748300D03*
X47027000Y-81398300D03*
D25*
X74675800Y-90883800D03*
X76225800Y-90883800D03*
X67826900Y-71551800D03*
X69376900Y-71551800D03*
D27*
X74531800Y-99804200D03*
X74531800Y-100754200D03*
X74531800Y-101704200D03*
X72256800Y-101704200D03*
X72256800Y-99804200D03*
D19*
X48011200Y-82839400D03*
X48011200Y-84489400D03*
D15*
X75212400Y-71219500D03*
X77037400Y-71219500D03*
D22*
X81261300Y-94965000D03*
X81261300Y-93315000D03*
D18*
X87861600Y-104405100D03*
X86311600Y-104405100D03*
D35*
X89291300Y-77675000D03*
X89291300Y-79575000D03*
D18*
X53213100Y-71168700D03*
X51663100Y-71168700D03*
D22*
X80740300Y-100940800D03*
X80740300Y-99290800D03*
D20*
X49350300Y-73743800D03*
X49350300Y-72193800D03*
D19*
X73227200Y-111015600D03*
X73227200Y-112665600D03*
D20*
X72245400Y-98055100D03*
X72245400Y-96505100D03*
D29*
X82105700Y-113140800D03*
X80455700Y-113140800D03*
D32*
X78975200Y-112311000D03*
X78975200Y-113861000D03*
D19*
X80517800Y-78069000D03*
X80517800Y-79719000D03*
D25*
X80855200Y-81194400D03*
X82405200Y-81194400D03*
D23*
X51433900Y-88193600D03*
X51433900Y-90293600D03*
D24*
X88281000Y-71067200D03*
X89931000Y-71067200D03*
D25*
X61855800Y-89953400D03*
X63405800Y-89953400D03*
D36*
X74528500Y-81270700D03*
X75478500Y-81270700D03*
X76428500Y-81270700D03*
X76428500Y-83545700D03*
X74528500Y-83545700D03*
D37*
X48442500Y-102686500D03*
X48442500Y-105636500D03*
D38*
X54623100Y-85754900D03*
X55273100Y-85754900D03*
X55923100Y-85754900D03*
X56573100Y-85754900D03*
X57223100Y-85754900D03*
X57873100Y-85754900D03*
X58523100Y-85754900D03*
X59173100Y-85754900D03*
X59823100Y-85754900D03*
X60473100Y-85754900D03*
X60473100Y-91479900D03*
X59823100Y-91479900D03*
X59173100Y-91479900D03*
X58523100Y-91479900D03*
X57873100Y-91479900D03*
X57223100Y-91479900D03*
X56573100Y-91479900D03*
X55923100Y-91479900D03*
X55273100Y-91479900D03*
X54623100Y-91479900D03*
D32*
X74074300Y-96492600D03*
X74074300Y-98042600D03*
D31*
X52338000Y-73350100D03*
X55638000Y-73350100D03*
D39*
X80823100Y-91420000D03*
X77873100Y-91420000D03*
D29*
X49731400Y-89643900D03*
X48081400Y-89643900D03*
D20*
X63436700Y-85838400D03*
X63436700Y-84288400D03*
D40*
X55213800Y-75414700D03*
X55213800Y-76684700D03*
X55213800Y-77954700D03*
X55213800Y-79224700D03*
X55213800Y-80494700D03*
X55213800Y-81764700D03*
X55213800Y-83034700D03*
X50263800Y-83034700D03*
X50263800Y-81764700D03*
X50263800Y-80494700D03*
X50263800Y-79224700D03*
X50263800Y-77954700D03*
X50263800Y-76684700D03*
X50263800Y-75414700D03*
D29*
X84457400Y-103822700D03*
X82807400Y-103822700D03*
D19*
X80528500Y-110015200D03*
X80528500Y-111665200D03*
D24*
X72295500Y-108362700D03*
X73945500Y-108362700D03*
D32*
X57159600Y-72029700D03*
X57159600Y-73579700D03*
D41*
X69476545Y-74158008D03*
D42*
X66936545Y-74158008D03*
X69476545Y-76698008D03*
X66936545Y-76698008D03*
X69476545Y-79238008D03*
X66936545Y-79238008D03*
X69476545Y-81778008D03*
X66936545Y-81778008D03*
X69476545Y-84318008D03*
X66936545Y-84318008D03*
X69476545Y-86858008D03*
X66936545Y-86858008D03*
X69476545Y-89398008D03*
X66936545Y-89398008D03*
X69476545Y-91938008D03*
X66936545Y-91938008D03*
X69476545Y-94478008D03*
X66936545Y-94478008D03*
X69476545Y-97018008D03*
X66936545Y-97018008D03*
X69476545Y-99558008D03*
X66936545Y-99558008D03*
X69476545Y-102098008D03*
X66936545Y-102098008D03*
X69476545Y-104638008D03*
X66936545Y-104638008D03*
X69476545Y-107178008D03*
X66936545Y-107178008D03*
X69476545Y-109718008D03*
X66936545Y-109718008D03*
D19*
X50561100Y-102518000D03*
X50561100Y-104168000D03*
D22*
X48217000Y-78343700D03*
X48217000Y-76693700D03*
D20*
X80062300Y-107077200D03*
X80062300Y-105527200D03*
D32*
X72071700Y-79249500D03*
X72071700Y-80799500D03*
D22*
X79455600Y-74147900D03*
X79455600Y-72497900D03*
D25*
X79800200Y-103980400D03*
X81350200Y-103980400D03*
M02*
