G04 #@! TF.GenerationSoftware,KiCad,Pcbnew,10.0.0*
G04 #@! TF.CreationDate,2026-09-24T18:08:18-07:00*
G04 #@! TF.ProjectId,BOOST_power_RC1,424f4f53-545f-4706-9f77-65725f524331,rev?*
G04 #@! TF.SameCoordinates,Original*
G04 #@! TF.FileFunction,Legend,Top*
G04 #@! TF.FilePolarity,Positive*
%FSLAX46Y46*%
G04 Gerber Fmt 4.6, Leading zero omitted, Abs format (unit mm)*
G04 Created by KiCad (PCBNEW 10.0.0) date 2026-09-24 18:08:18*
%MOMM*%
%LPD*%
G01*
G04 APERTURE LIST*
G04 Aperture macros list*
%AMRoundRect*
0 Rectangle with rounded corners*
0 $1 Rounding radius*
0 $2 $3 $4 $5 $6 $7 $8 $9 X,Y pos of 4 corners*
0 Add a 4 corners polygon primitive as box body*
4,1,4,$2,$3,$4,$5,$6,$7,$8,$9,$2,$3,0*
0 Add four circle primitives for the rounded corners*
1,1,$1+$1,$2,$3*
1,1,$1+$1,$4,$5*
1,1,$1+$1,$6,$7*
1,1,$1+$1,$8,$9*
0 Add four rect primitives between the rounded corners*
20,1,$1+$1,$2,$3,$4,$5,0*
20,1,$1+$1,$4,$5,$6,$7,0*
20,1,$1+$1,$6,$7,$8,$9,0*
20,1,$1+$1,$8,$9,$2,$3,0*%
%AMFreePoly0*
4,1,9,3.862500,-0.866500,0.737500,-0.866500,0.737500,-0.450000,-0.737500,-0.450000,-0.737500,0.450000,0.737500,0.450000,0.737500,0.866500,3.862500,0.866500,3.862500,-0.866500,3.862500,-0.866500,$1*%
G04 Aperture macros list end*
%ADD10C,0.375000*%
%ADD11C,0.374999*%
%ADD12C,0.150000*%
%ADD13C,0.120000*%
%ADD14C,0.127000*%
%ADD15C,0.200000*%
%ADD16RoundRect,0.250000X1.950000X1.000000X-1.950000X1.000000X-1.950000X-1.000000X1.950000X-1.000000X0*%
%ADD17RoundRect,0.200000X0.275000X-0.200000X0.275000X0.200000X-0.275000X0.200000X-0.275000X-0.200000X0*%
%ADD18C,3.200000*%
%ADD19RoundRect,0.225000X0.250000X-0.225000X0.250000X0.225000X-0.250000X0.225000X-0.250000X-0.225000X0*%
%ADD20RoundRect,0.150000X-0.512500X-0.150000X0.512500X-0.150000X0.512500X0.150000X-0.512500X0.150000X0*%
%ADD21RoundRect,0.225000X-0.225000X-0.250000X0.225000X-0.250000X0.225000X0.250000X-0.225000X0.250000X0*%
%ADD22RoundRect,0.250000X1.100000X-0.325000X1.100000X0.325000X-1.100000X0.325000X-1.100000X-0.325000X0*%
%ADD23C,4.700000*%
%ADD24C,7.000000*%
%ADD25RoundRect,0.250000X-1.000000X1.950000X-1.000000X-1.950000X1.000000X-1.950000X1.000000X1.950000X0*%
%ADD26RoundRect,0.250000X-0.362500X-1.425000X0.362500X-1.425000X0.362500X1.425000X-0.362500X1.425000X0*%
%ADD27RoundRect,0.250000X-0.325000X-1.100000X0.325000X-1.100000X0.325000X1.100000X-0.325000X1.100000X0*%
%ADD28R,1.700000X1.700000*%
%ADD29C,1.700000*%
%ADD30R,4.000000X4.000000*%
%ADD31RoundRect,0.250000X-0.250000X-0.475000X0.250000X-0.475000X0.250000X0.475000X-0.250000X0.475000X0*%
%ADD32RoundRect,0.250000X1.000000X-1.950000X1.000000X1.950000X-1.000000X1.950000X-1.000000X-1.950000X0*%
%ADD33R,1.800000X1.200000*%
%ADD34R,5.600000X5.000000*%
%ADD35R,0.900000X4.750000*%
%ADD36R,2.100000X0.800000*%
%ADD37RoundRect,0.150000X0.150000X-0.825000X0.150000X0.825000X-0.150000X0.825000X-0.150000X-0.825000X0*%
%ADD38RoundRect,0.225000X0.225000X-0.425000X0.225000X0.425000X-0.225000X0.425000X-0.225000X-0.425000X0*%
%ADD39FreePoly0,90.000000*%
%ADD40RoundRect,0.200000X-0.200000X-0.275000X0.200000X-0.275000X0.200000X0.275000X-0.200000X0.275000X0*%
%ADD41RoundRect,0.250000X0.475000X-0.250000X0.475000X0.250000X-0.475000X0.250000X-0.475000X-0.250000X0*%
%ADD42RoundRect,0.250000X-1.425000X0.362500X-1.425000X-0.362500X1.425000X-0.362500X1.425000X0.362500X0*%
%ADD43RoundRect,0.250000X0.300000X-2.050000X0.300000X2.050000X-0.300000X2.050000X-0.300000X-2.050000X0*%
%ADD44RoundRect,0.250002X5.149998X-4.449998X5.149998X4.449998X-5.149998X4.449998X-5.149998X-4.449998X0*%
%ADD45RoundRect,0.250000X-1.950000X-1.000000X1.950000X-1.000000X1.950000X1.000000X-1.950000X1.000000X0*%
%ADD46RoundRect,0.250000X-0.262500X-0.450000X0.262500X-0.450000X0.262500X0.450000X-0.262500X0.450000X0*%
%ADD47RoundRect,0.150000X0.150000X-0.512500X0.150000X0.512500X-0.150000X0.512500X-0.150000X-0.512500X0*%
%ADD48RoundRect,0.102000X3.000000X-4.000000X3.000000X4.000000X-3.000000X4.000000X-3.000000X-4.000000X0*%
%ADD49RoundRect,0.102000X3.500000X-3.000000X3.500000X3.000000X-3.500000X3.000000X-3.500000X-3.000000X0*%
%ADD50RoundRect,0.225000X-0.425000X-0.225000X0.425000X-0.225000X0.425000X0.225000X-0.425000X0.225000X0*%
%ADD51FreePoly0,0.000000*%
%ADD52RoundRect,0.250000X1.045000X-0.785000X1.045000X0.785000X-1.045000X0.785000X-1.045000X-0.785000X0*%
%ADD53RoundRect,0.250000X0.450000X-0.262500X0.450000X0.262500X-0.450000X0.262500X-0.450000X-0.262500X0*%
%ADD54C,2.900000*%
%ADD55R,2.000000X1.905000*%
%ADD56O,2.000000X1.905000*%
%ADD57R,1.905000X2.000000*%
%ADD58O,1.905000X2.000000*%
G04 APERTURE END LIST*
D10*
X33519694Y-87148591D02*
G75*
G02*
X33144694Y-87148591I-187500J0D01*
G01*
X33144694Y-87148591D02*
G75*
G02*
X33519694Y-87148591I187500J0D01*
G01*
D11*
X38312748Y-66875885D02*
G75*
G02*
X37937750Y-66875885I-187499J0D01*
G01*
X37937750Y-66875885D02*
G75*
G02*
X38312748Y-66875885I187499J0D01*
G01*
D10*
X52912749Y-66875885D02*
G75*
G02*
X52537749Y-66875885I-187500J0D01*
G01*
X52537749Y-66875885D02*
G75*
G02*
X52912749Y-66875885I187500J0D01*
G01*
X53994250Y-102045446D02*
G75*
G02*
X53619250Y-102045446I-187500J0D01*
G01*
X53619250Y-102045446D02*
G75*
G02*
X53994250Y-102045446I187500J0D01*
G01*
D11*
X56468280Y-98847025D02*
G75*
G02*
X56093282Y-98847025I-187499J0D01*
G01*
X56093282Y-98847025D02*
G75*
G02*
X56468280Y-98847025I187499J0D01*
G01*
X76402891Y-44880530D02*
G75*
G02*
X76027893Y-44880530I-187499J0D01*
G01*
X76027893Y-44880530D02*
G75*
G02*
X76402891Y-44880530I187499J0D01*
G01*
D10*
X79303566Y-55735731D02*
G75*
G02*
X78928566Y-55735731I-187500J0D01*
G01*
X78928566Y-55735731D02*
G75*
G02*
X79303566Y-55735731I187500J0D01*
G01*
X79303566Y-70485731D02*
G75*
G02*
X78928566Y-70485731I-187500J0D01*
G01*
X78928566Y-70485731D02*
G75*
G02*
X79303566Y-70485731I187500J0D01*
G01*
X86176839Y-87394174D02*
G75*
G02*
X85801839Y-87394174I-187500J0D01*
G01*
X85801839Y-87394174D02*
G75*
G02*
X86176839Y-87394174I187500J0D01*
G01*
X98876839Y-87394174D02*
G75*
G02*
X98501839Y-87394174I-187500J0D01*
G01*
X98501839Y-87394174D02*
G75*
G02*
X98876839Y-87394174I187500J0D01*
G01*
D12*
X34794098Y-86651029D02*
X34698860Y-86603410D01*
X34698860Y-86603410D02*
X34556003Y-86603410D01*
X34556003Y-86603410D02*
X34413146Y-86651029D01*
X34413146Y-86651029D02*
X34317908Y-86746267D01*
X34317908Y-86746267D02*
X34270289Y-86841505D01*
X34270289Y-86841505D02*
X34222670Y-87031981D01*
X34222670Y-87031981D02*
X34222670Y-87174838D01*
X34222670Y-87174838D02*
X34270289Y-87365314D01*
X34270289Y-87365314D02*
X34317908Y-87460552D01*
X34317908Y-87460552D02*
X34413146Y-87555791D01*
X34413146Y-87555791D02*
X34556003Y-87603410D01*
X34556003Y-87603410D02*
X34651241Y-87603410D01*
X34651241Y-87603410D02*
X34794098Y-87555791D01*
X34794098Y-87555791D02*
X34841717Y-87508171D01*
X34841717Y-87508171D02*
X34841717Y-87174838D01*
X34841717Y-87174838D02*
X34651241Y-87174838D01*
X39337153Y-66378324D02*
X39241915Y-66330705D01*
X39241915Y-66330705D02*
X39099058Y-66330705D01*
X39099058Y-66330705D02*
X38956201Y-66378324D01*
X38956201Y-66378324D02*
X38860963Y-66473562D01*
X38860963Y-66473562D02*
X38813344Y-66568800D01*
X38813344Y-66568800D02*
X38765725Y-66759276D01*
X38765725Y-66759276D02*
X38765725Y-66902133D01*
X38765725Y-66902133D02*
X38813344Y-67092609D01*
X38813344Y-67092609D02*
X38860963Y-67187847D01*
X38860963Y-67187847D02*
X38956201Y-67283086D01*
X38956201Y-67283086D02*
X39099058Y-67330705D01*
X39099058Y-67330705D02*
X39194296Y-67330705D01*
X39194296Y-67330705D02*
X39337153Y-67283086D01*
X39337153Y-67283086D02*
X39384772Y-67235466D01*
X39384772Y-67235466D02*
X39384772Y-66902133D01*
X39384772Y-66902133D02*
X39194296Y-66902133D01*
X41353344Y-67330705D02*
X41353344Y-66330705D01*
X41353344Y-66330705D02*
X41591439Y-66330705D01*
X41591439Y-66330705D02*
X41734296Y-66378324D01*
X41734296Y-66378324D02*
X41829534Y-66473562D01*
X41829534Y-66473562D02*
X41877153Y-66568800D01*
X41877153Y-66568800D02*
X41924772Y-66759276D01*
X41924772Y-66759276D02*
X41924772Y-66902133D01*
X41924772Y-66902133D02*
X41877153Y-67092609D01*
X41877153Y-67092609D02*
X41829534Y-67187847D01*
X41829534Y-67187847D02*
X41734296Y-67283086D01*
X41734296Y-67283086D02*
X41591439Y-67330705D01*
X41591439Y-67330705D02*
X41353344Y-67330705D01*
X42526480Y-87555791D02*
X42669337Y-87603410D01*
X42669337Y-87603410D02*
X42907432Y-87603410D01*
X42907432Y-87603410D02*
X43002670Y-87555791D01*
X43002670Y-87555791D02*
X43050289Y-87508171D01*
X43050289Y-87508171D02*
X43097908Y-87412933D01*
X43097908Y-87412933D02*
X43097908Y-87317695D01*
X43097908Y-87317695D02*
X43050289Y-87222457D01*
X43050289Y-87222457D02*
X43002670Y-87174838D01*
X43002670Y-87174838D02*
X42907432Y-87127219D01*
X42907432Y-87127219D02*
X42716956Y-87079600D01*
X42716956Y-87079600D02*
X42621718Y-87031981D01*
X42621718Y-87031981D02*
X42574099Y-86984362D01*
X42574099Y-86984362D02*
X42526480Y-86889124D01*
X42526480Y-86889124D02*
X42526480Y-86793886D01*
X42526480Y-86793886D02*
X42574099Y-86698648D01*
X42574099Y-86698648D02*
X42621718Y-86651029D01*
X42621718Y-86651029D02*
X42716956Y-86603410D01*
X42716956Y-86603410D02*
X42955051Y-86603410D01*
X42955051Y-86603410D02*
X43097908Y-86651029D01*
X43869535Y-67283086D02*
X44012392Y-67330705D01*
X44012392Y-67330705D02*
X44250487Y-67330705D01*
X44250487Y-67330705D02*
X44345725Y-67283086D01*
X44345725Y-67283086D02*
X44393344Y-67235466D01*
X44393344Y-67235466D02*
X44440963Y-67140228D01*
X44440963Y-67140228D02*
X44440963Y-67044990D01*
X44440963Y-67044990D02*
X44393344Y-66949752D01*
X44393344Y-66949752D02*
X44345725Y-66902133D01*
X44345725Y-66902133D02*
X44250487Y-66854514D01*
X44250487Y-66854514D02*
X44060011Y-66806895D01*
X44060011Y-66806895D02*
X43964773Y-66759276D01*
X43964773Y-66759276D02*
X43917154Y-66711657D01*
X43917154Y-66711657D02*
X43869535Y-66616419D01*
X43869535Y-66616419D02*
X43869535Y-66521181D01*
X43869535Y-66521181D02*
X43917154Y-66425943D01*
X43917154Y-66425943D02*
X43964773Y-66378324D01*
X43964773Y-66378324D02*
X44060011Y-66330705D01*
X44060011Y-66330705D02*
X44298106Y-66330705D01*
X44298106Y-66330705D02*
X44440963Y-66378324D01*
X52037153Y-66378324D02*
X51941915Y-66330705D01*
X51941915Y-66330705D02*
X51799058Y-66330705D01*
X51799058Y-66330705D02*
X51656201Y-66378324D01*
X51656201Y-66378324D02*
X51560963Y-66473562D01*
X51560963Y-66473562D02*
X51513344Y-66568800D01*
X51513344Y-66568800D02*
X51465725Y-66759276D01*
X51465725Y-66759276D02*
X51465725Y-66902133D01*
X51465725Y-66902133D02*
X51513344Y-67092609D01*
X51513344Y-67092609D02*
X51560963Y-67187847D01*
X51560963Y-67187847D02*
X51656201Y-67283086D01*
X51656201Y-67283086D02*
X51799058Y-67330705D01*
X51799058Y-67330705D02*
X51894296Y-67330705D01*
X51894296Y-67330705D02*
X52037153Y-67283086D01*
X52037153Y-67283086D02*
X52084772Y-67235466D01*
X52084772Y-67235466D02*
X52084772Y-66902133D01*
X52084772Y-66902133D02*
X51894296Y-66902133D01*
X53521036Y-96422646D02*
X53663893Y-96470265D01*
X53663893Y-96470265D02*
X53901988Y-96470265D01*
X53901988Y-96470265D02*
X53997226Y-96422646D01*
X53997226Y-96422646D02*
X54044845Y-96375026D01*
X54044845Y-96375026D02*
X54092464Y-96279788D01*
X54092464Y-96279788D02*
X54092464Y-96184550D01*
X54092464Y-96184550D02*
X54044845Y-96089312D01*
X54044845Y-96089312D02*
X53997226Y-96041693D01*
X53997226Y-96041693D02*
X53901988Y-95994074D01*
X53901988Y-95994074D02*
X53711512Y-95946455D01*
X53711512Y-95946455D02*
X53616274Y-95898836D01*
X53616274Y-95898836D02*
X53568655Y-95851217D01*
X53568655Y-95851217D02*
X53521036Y-95755979D01*
X53521036Y-95755979D02*
X53521036Y-95660741D01*
X53521036Y-95660741D02*
X53568655Y-95565503D01*
X53568655Y-95565503D02*
X53616274Y-95517884D01*
X53616274Y-95517884D02*
X53711512Y-95470265D01*
X53711512Y-95470265D02*
X53949607Y-95470265D01*
X53949607Y-95470265D02*
X54092464Y-95517884D01*
X53544845Y-99010265D02*
X53544845Y-98010265D01*
X53544845Y-98010265D02*
X53782940Y-98010265D01*
X53782940Y-98010265D02*
X53925797Y-98057884D01*
X53925797Y-98057884D02*
X54021035Y-98153122D01*
X54021035Y-98153122D02*
X54068654Y-98248360D01*
X54068654Y-98248360D02*
X54116273Y-98438836D01*
X54116273Y-98438836D02*
X54116273Y-98581693D01*
X54116273Y-98581693D02*
X54068654Y-98772169D01*
X54068654Y-98772169D02*
X54021035Y-98867407D01*
X54021035Y-98867407D02*
X53925797Y-98962646D01*
X53925797Y-98962646D02*
X53782940Y-99010265D01*
X53782940Y-99010265D02*
X53544845Y-99010265D01*
X54068654Y-100597884D02*
X53973416Y-100550265D01*
X53973416Y-100550265D02*
X53830559Y-100550265D01*
X53830559Y-100550265D02*
X53687702Y-100597884D01*
X53687702Y-100597884D02*
X53592464Y-100693122D01*
X53592464Y-100693122D02*
X53544845Y-100788360D01*
X53544845Y-100788360D02*
X53497226Y-100978836D01*
X53497226Y-100978836D02*
X53497226Y-101121693D01*
X53497226Y-101121693D02*
X53544845Y-101312169D01*
X53544845Y-101312169D02*
X53592464Y-101407407D01*
X53592464Y-101407407D02*
X53687702Y-101502646D01*
X53687702Y-101502646D02*
X53830559Y-101550265D01*
X53830559Y-101550265D02*
X53925797Y-101550265D01*
X53925797Y-101550265D02*
X54068654Y-101502646D01*
X54068654Y-101502646D02*
X54116273Y-101455026D01*
X54116273Y-101455026D02*
X54116273Y-101121693D01*
X54116273Y-101121693D02*
X53925797Y-101121693D01*
X57492685Y-98349463D02*
X57397447Y-98301844D01*
X57397447Y-98301844D02*
X57254590Y-98301844D01*
X57254590Y-98301844D02*
X57111733Y-98349463D01*
X57111733Y-98349463D02*
X57016495Y-98444701D01*
X57016495Y-98444701D02*
X56968876Y-98539939D01*
X56968876Y-98539939D02*
X56921257Y-98730415D01*
X56921257Y-98730415D02*
X56921257Y-98873272D01*
X56921257Y-98873272D02*
X56968876Y-99063748D01*
X56968876Y-99063748D02*
X57016495Y-99158986D01*
X57016495Y-99158986D02*
X57111733Y-99254225D01*
X57111733Y-99254225D02*
X57254590Y-99301844D01*
X57254590Y-99301844D02*
X57349828Y-99301844D01*
X57349828Y-99301844D02*
X57492685Y-99254225D01*
X57492685Y-99254225D02*
X57540304Y-99206605D01*
X57540304Y-99206605D02*
X57540304Y-98873272D01*
X57540304Y-98873272D02*
X57349828Y-98873272D01*
X59508876Y-99301844D02*
X59508876Y-98301844D01*
X59508876Y-98301844D02*
X59746971Y-98301844D01*
X59746971Y-98301844D02*
X59889828Y-98349463D01*
X59889828Y-98349463D02*
X59985066Y-98444701D01*
X59985066Y-98444701D02*
X60032685Y-98539939D01*
X60032685Y-98539939D02*
X60080304Y-98730415D01*
X60080304Y-98730415D02*
X60080304Y-98873272D01*
X60080304Y-98873272D02*
X60032685Y-99063748D01*
X60032685Y-99063748D02*
X59985066Y-99158986D01*
X59985066Y-99158986D02*
X59889828Y-99254225D01*
X59889828Y-99254225D02*
X59746971Y-99301844D01*
X59746971Y-99301844D02*
X59508876Y-99301844D01*
X62025067Y-99254225D02*
X62167924Y-99301844D01*
X62167924Y-99301844D02*
X62406019Y-99301844D01*
X62406019Y-99301844D02*
X62501257Y-99254225D01*
X62501257Y-99254225D02*
X62548876Y-99206605D01*
X62548876Y-99206605D02*
X62596495Y-99111367D01*
X62596495Y-99111367D02*
X62596495Y-99016129D01*
X62596495Y-99016129D02*
X62548876Y-98920891D01*
X62548876Y-98920891D02*
X62501257Y-98873272D01*
X62501257Y-98873272D02*
X62406019Y-98825653D01*
X62406019Y-98825653D02*
X62215543Y-98778034D01*
X62215543Y-98778034D02*
X62120305Y-98730415D01*
X62120305Y-98730415D02*
X62072686Y-98682796D01*
X62072686Y-98682796D02*
X62025067Y-98587558D01*
X62025067Y-98587558D02*
X62025067Y-98492320D01*
X62025067Y-98492320D02*
X62072686Y-98397082D01*
X62072686Y-98397082D02*
X62120305Y-98349463D01*
X62120305Y-98349463D02*
X62215543Y-98301844D01*
X62215543Y-98301844D02*
X62453638Y-98301844D01*
X62453638Y-98301844D02*
X62596495Y-98349463D01*
X76477296Y-45482968D02*
X76382058Y-45435349D01*
X76382058Y-45435349D02*
X76239201Y-45435349D01*
X76239201Y-45435349D02*
X76096344Y-45482968D01*
X76096344Y-45482968D02*
X76001106Y-45578206D01*
X76001106Y-45578206D02*
X75953487Y-45673444D01*
X75953487Y-45673444D02*
X75905868Y-45863920D01*
X75905868Y-45863920D02*
X75905868Y-46006777D01*
X75905868Y-46006777D02*
X75953487Y-46197253D01*
X75953487Y-46197253D02*
X76001106Y-46292491D01*
X76001106Y-46292491D02*
X76096344Y-46387730D01*
X76096344Y-46387730D02*
X76239201Y-46435349D01*
X76239201Y-46435349D02*
X76334439Y-46435349D01*
X76334439Y-46435349D02*
X76477296Y-46387730D01*
X76477296Y-46387730D02*
X76524915Y-46340110D01*
X76524915Y-46340110D02*
X76524915Y-46006777D01*
X76524915Y-46006777D02*
X76334439Y-46006777D01*
X79377970Y-56338169D02*
X79282732Y-56290550D01*
X79282732Y-56290550D02*
X79139875Y-56290550D01*
X79139875Y-56290550D02*
X78997018Y-56338169D01*
X78997018Y-56338169D02*
X78901780Y-56433407D01*
X78901780Y-56433407D02*
X78854161Y-56528645D01*
X78854161Y-56528645D02*
X78806542Y-56719121D01*
X78806542Y-56719121D02*
X78806542Y-56861978D01*
X78806542Y-56861978D02*
X78854161Y-57052454D01*
X78854161Y-57052454D02*
X78901780Y-57147692D01*
X78901780Y-57147692D02*
X78997018Y-57242931D01*
X78997018Y-57242931D02*
X79139875Y-57290550D01*
X79139875Y-57290550D02*
X79235113Y-57290550D01*
X79235113Y-57290550D02*
X79377970Y-57242931D01*
X79377970Y-57242931D02*
X79425589Y-57195311D01*
X79425589Y-57195311D02*
X79425589Y-56861978D01*
X79425589Y-56861978D02*
X79235113Y-56861978D01*
X78830352Y-64862931D02*
X78973209Y-64910550D01*
X78973209Y-64910550D02*
X79211304Y-64910550D01*
X79211304Y-64910550D02*
X79306542Y-64862931D01*
X79306542Y-64862931D02*
X79354161Y-64815311D01*
X79354161Y-64815311D02*
X79401780Y-64720073D01*
X79401780Y-64720073D02*
X79401780Y-64624835D01*
X79401780Y-64624835D02*
X79354161Y-64529597D01*
X79354161Y-64529597D02*
X79306542Y-64481978D01*
X79306542Y-64481978D02*
X79211304Y-64434359D01*
X79211304Y-64434359D02*
X79020828Y-64386740D01*
X79020828Y-64386740D02*
X78925590Y-64339121D01*
X78925590Y-64339121D02*
X78877971Y-64291502D01*
X78877971Y-64291502D02*
X78830352Y-64196264D01*
X78830352Y-64196264D02*
X78830352Y-64101026D01*
X78830352Y-64101026D02*
X78877971Y-64005788D01*
X78877971Y-64005788D02*
X78925590Y-63958169D01*
X78925590Y-63958169D02*
X79020828Y-63910550D01*
X79020828Y-63910550D02*
X79258923Y-63910550D01*
X79258923Y-63910550D02*
X79401780Y-63958169D01*
X78854161Y-67450550D02*
X78854161Y-66450550D01*
X78854161Y-66450550D02*
X79092256Y-66450550D01*
X79092256Y-66450550D02*
X79235113Y-66498169D01*
X79235113Y-66498169D02*
X79330351Y-66593407D01*
X79330351Y-66593407D02*
X79377970Y-66688645D01*
X79377970Y-66688645D02*
X79425589Y-66879121D01*
X79425589Y-66879121D02*
X79425589Y-67021978D01*
X79425589Y-67021978D02*
X79377970Y-67212454D01*
X79377970Y-67212454D02*
X79330351Y-67307692D01*
X79330351Y-67307692D02*
X79235113Y-67402931D01*
X79235113Y-67402931D02*
X79092256Y-67450550D01*
X79092256Y-67450550D02*
X78854161Y-67450550D01*
X79377970Y-69038169D02*
X79282732Y-68990550D01*
X79282732Y-68990550D02*
X79139875Y-68990550D01*
X79139875Y-68990550D02*
X78997018Y-69038169D01*
X78997018Y-69038169D02*
X78901780Y-69133407D01*
X78901780Y-69133407D02*
X78854161Y-69228645D01*
X78854161Y-69228645D02*
X78806542Y-69419121D01*
X78806542Y-69419121D02*
X78806542Y-69561978D01*
X78806542Y-69561978D02*
X78854161Y-69752454D01*
X78854161Y-69752454D02*
X78901780Y-69847692D01*
X78901780Y-69847692D02*
X78997018Y-69942931D01*
X78997018Y-69942931D02*
X79139875Y-69990550D01*
X79139875Y-69990550D02*
X79235113Y-69990550D01*
X79235113Y-69990550D02*
X79377970Y-69942931D01*
X79377970Y-69942931D02*
X79425589Y-69895311D01*
X79425589Y-69895311D02*
X79425589Y-69561978D01*
X79425589Y-69561978D02*
X79235113Y-69561978D01*
X84651243Y-88496612D02*
X84556005Y-88448993D01*
X84556005Y-88448993D02*
X84413148Y-88448993D01*
X84413148Y-88448993D02*
X84270291Y-88496612D01*
X84270291Y-88496612D02*
X84175053Y-88591850D01*
X84175053Y-88591850D02*
X84127434Y-88687088D01*
X84127434Y-88687088D02*
X84079815Y-88877564D01*
X84079815Y-88877564D02*
X84079815Y-89020421D01*
X84079815Y-89020421D02*
X84127434Y-89210897D01*
X84127434Y-89210897D02*
X84175053Y-89306135D01*
X84175053Y-89306135D02*
X84270291Y-89401374D01*
X84270291Y-89401374D02*
X84413148Y-89448993D01*
X84413148Y-89448993D02*
X84508386Y-89448993D01*
X84508386Y-89448993D02*
X84651243Y-89401374D01*
X84651243Y-89401374D02*
X84698862Y-89353754D01*
X84698862Y-89353754D02*
X84698862Y-89020421D01*
X84698862Y-89020421D02*
X84508386Y-89020421D01*
X99951243Y-86796612D02*
X99856005Y-86748993D01*
X99856005Y-86748993D02*
X99713148Y-86748993D01*
X99713148Y-86748993D02*
X99570291Y-86796612D01*
X99570291Y-86796612D02*
X99475053Y-86891850D01*
X99475053Y-86891850D02*
X99427434Y-86987088D01*
X99427434Y-86987088D02*
X99379815Y-87177564D01*
X99379815Y-87177564D02*
X99379815Y-87320421D01*
X99379815Y-87320421D02*
X99427434Y-87510897D01*
X99427434Y-87510897D02*
X99475053Y-87606135D01*
X99475053Y-87606135D02*
X99570291Y-87701374D01*
X99570291Y-87701374D02*
X99713148Y-87748993D01*
X99713148Y-87748993D02*
X99808386Y-87748993D01*
X99808386Y-87748993D02*
X99951243Y-87701374D01*
X99951243Y-87701374D02*
X99998862Y-87653754D01*
X99998862Y-87653754D02*
X99998862Y-87320421D01*
X99998862Y-87320421D02*
X99808386Y-87320421D01*
X80854839Y-104576158D02*
X80807220Y-104623778D01*
X80807220Y-104623778D02*
X80664363Y-104671397D01*
X80664363Y-104671397D02*
X80569125Y-104671397D01*
X80569125Y-104671397D02*
X80426268Y-104623778D01*
X80426268Y-104623778D02*
X80331030Y-104528539D01*
X80331030Y-104528539D02*
X80283411Y-104433301D01*
X80283411Y-104433301D02*
X80235792Y-104242825D01*
X80235792Y-104242825D02*
X80235792Y-104099968D01*
X80235792Y-104099968D02*
X80283411Y-103909492D01*
X80283411Y-103909492D02*
X80331030Y-103814254D01*
X80331030Y-103814254D02*
X80426268Y-103719016D01*
X80426268Y-103719016D02*
X80569125Y-103671397D01*
X80569125Y-103671397D02*
X80664363Y-103671397D01*
X80664363Y-103671397D02*
X80807220Y-103719016D01*
X80807220Y-103719016D02*
X80854839Y-103766635D01*
X81188173Y-103671397D02*
X81854839Y-103671397D01*
X81854839Y-103671397D02*
X81426268Y-104671397D01*
X82140554Y-103671397D02*
X82807220Y-103671397D01*
X82807220Y-103671397D02*
X82378649Y-104671397D01*
X79720630Y-76512637D02*
X78720630Y-76512637D01*
X79196820Y-76512637D02*
X79196820Y-75941209D01*
X79720630Y-75941209D02*
X78720630Y-75941209D01*
X78720630Y-75036447D02*
X78720630Y-75226923D01*
X78720630Y-75226923D02*
X78768249Y-75322161D01*
X78768249Y-75322161D02*
X78815868Y-75369780D01*
X78815868Y-75369780D02*
X78958725Y-75465018D01*
X78958725Y-75465018D02*
X79149201Y-75512637D01*
X79149201Y-75512637D02*
X79530153Y-75512637D01*
X79530153Y-75512637D02*
X79625391Y-75465018D01*
X79625391Y-75465018D02*
X79673011Y-75417399D01*
X79673011Y-75417399D02*
X79720630Y-75322161D01*
X79720630Y-75322161D02*
X79720630Y-75131685D01*
X79720630Y-75131685D02*
X79673011Y-75036447D01*
X79673011Y-75036447D02*
X79625391Y-74988828D01*
X79625391Y-74988828D02*
X79530153Y-74941209D01*
X79530153Y-74941209D02*
X79292058Y-74941209D01*
X79292058Y-74941209D02*
X79196820Y-74988828D01*
X79196820Y-74988828D02*
X79149201Y-75036447D01*
X79149201Y-75036447D02*
X79101582Y-75131685D01*
X79101582Y-75131685D02*
X79101582Y-75322161D01*
X79101582Y-75322161D02*
X79149201Y-75417399D01*
X79149201Y-75417399D02*
X79196820Y-75465018D01*
X79196820Y-75465018D02*
X79292058Y-75512637D01*
X74623742Y-114260700D02*
X74671362Y-114308319D01*
X74671362Y-114308319D02*
X74718981Y-114451176D01*
X74718981Y-114451176D02*
X74718981Y-114546414D01*
X74718981Y-114546414D02*
X74671362Y-114689271D01*
X74671362Y-114689271D02*
X74576123Y-114784509D01*
X74576123Y-114784509D02*
X74480885Y-114832128D01*
X74480885Y-114832128D02*
X74290409Y-114879747D01*
X74290409Y-114879747D02*
X74147552Y-114879747D01*
X74147552Y-114879747D02*
X73957076Y-114832128D01*
X73957076Y-114832128D02*
X73861838Y-114784509D01*
X73861838Y-114784509D02*
X73766600Y-114689271D01*
X73766600Y-114689271D02*
X73718981Y-114546414D01*
X73718981Y-114546414D02*
X73718981Y-114451176D01*
X73718981Y-114451176D02*
X73766600Y-114308319D01*
X73766600Y-114308319D02*
X73814219Y-114260700D01*
X74052314Y-113403557D02*
X74718981Y-113403557D01*
X73671362Y-113641652D02*
X74385647Y-113879747D01*
X74385647Y-113879747D02*
X74385647Y-113260700D01*
X74718981Y-112355938D02*
X74718981Y-112927366D01*
X74718981Y-112641652D02*
X73718981Y-112641652D01*
X73718981Y-112641652D02*
X73861838Y-112736890D01*
X73861838Y-112736890D02*
X73957076Y-112832128D01*
X73957076Y-112832128D02*
X74004695Y-112927366D01*
X51507652Y-106257002D02*
X51555272Y-106304621D01*
X51555272Y-106304621D02*
X51602891Y-106447478D01*
X51602891Y-106447478D02*
X51602891Y-106542716D01*
X51602891Y-106542716D02*
X51555272Y-106685573D01*
X51555272Y-106685573D02*
X51460033Y-106780811D01*
X51460033Y-106780811D02*
X51364795Y-106828430D01*
X51364795Y-106828430D02*
X51174319Y-106876049D01*
X51174319Y-106876049D02*
X51031462Y-106876049D01*
X51031462Y-106876049D02*
X50840986Y-106828430D01*
X50840986Y-106828430D02*
X50745748Y-106780811D01*
X50745748Y-106780811D02*
X50650510Y-106685573D01*
X50650510Y-106685573D02*
X50602891Y-106542716D01*
X50602891Y-106542716D02*
X50602891Y-106447478D01*
X50602891Y-106447478D02*
X50650510Y-106304621D01*
X50650510Y-106304621D02*
X50698129Y-106257002D01*
X50602891Y-105923668D02*
X50602891Y-105257002D01*
X50602891Y-105257002D02*
X51602891Y-105685573D01*
X92773528Y-82323600D02*
X93487813Y-82323600D01*
X93487813Y-82323600D02*
X93630670Y-82371219D01*
X93630670Y-82371219D02*
X93725909Y-82466457D01*
X93725909Y-82466457D02*
X93773528Y-82609314D01*
X93773528Y-82609314D02*
X93773528Y-82704552D01*
X93773528Y-81323600D02*
X93773528Y-81895028D01*
X93773528Y-81609314D02*
X92773528Y-81609314D01*
X92773528Y-81609314D02*
X92916385Y-81704552D01*
X92916385Y-81704552D02*
X93011623Y-81799790D01*
X93011623Y-81799790D02*
X93059242Y-81895028D01*
X102838540Y-108819851D02*
X102886160Y-108867470D01*
X102886160Y-108867470D02*
X102933779Y-109010327D01*
X102933779Y-109010327D02*
X102933779Y-109105565D01*
X102933779Y-109105565D02*
X102886160Y-109248422D01*
X102886160Y-109248422D02*
X102790921Y-109343660D01*
X102790921Y-109343660D02*
X102695683Y-109391279D01*
X102695683Y-109391279D02*
X102505207Y-109438898D01*
X102505207Y-109438898D02*
X102362350Y-109438898D01*
X102362350Y-109438898D02*
X102171874Y-109391279D01*
X102171874Y-109391279D02*
X102076636Y-109343660D01*
X102076636Y-109343660D02*
X101981398Y-109248422D01*
X101981398Y-109248422D02*
X101933779Y-109105565D01*
X101933779Y-109105565D02*
X101933779Y-109010327D01*
X101933779Y-109010327D02*
X101981398Y-108867470D01*
X101981398Y-108867470D02*
X102029017Y-108819851D01*
X101933779Y-108486517D02*
X101933779Y-107819851D01*
X101933779Y-107819851D02*
X102933779Y-108248422D01*
X101933779Y-106962708D02*
X101933779Y-107438898D01*
X101933779Y-107438898D02*
X102409969Y-107486517D01*
X102409969Y-107486517D02*
X102362350Y-107438898D01*
X102362350Y-107438898D02*
X102314731Y-107343660D01*
X102314731Y-107343660D02*
X102314731Y-107105565D01*
X102314731Y-107105565D02*
X102362350Y-107010327D01*
X102362350Y-107010327D02*
X102409969Y-106962708D01*
X102409969Y-106962708D02*
X102505207Y-106915089D01*
X102505207Y-106915089D02*
X102743302Y-106915089D01*
X102743302Y-106915089D02*
X102838540Y-106962708D01*
X102838540Y-106962708D02*
X102886160Y-107010327D01*
X102886160Y-107010327D02*
X102933779Y-107105565D01*
X102933779Y-107105565D02*
X102933779Y-107343660D01*
X102933779Y-107343660D02*
X102886160Y-107438898D01*
X102886160Y-107438898D02*
X102838540Y-107486517D01*
X71446364Y-92747531D02*
X72160649Y-92747531D01*
X72160649Y-92747531D02*
X72303506Y-92795150D01*
X72303506Y-92795150D02*
X72398745Y-92890388D01*
X72398745Y-92890388D02*
X72446364Y-93033245D01*
X72446364Y-93033245D02*
X72446364Y-93128483D01*
X72446364Y-91747531D02*
X72446364Y-92318959D01*
X72446364Y-92033245D02*
X71446364Y-92033245D01*
X71446364Y-92033245D02*
X71589221Y-92128483D01*
X71589221Y-92128483D02*
X71684459Y-92223721D01*
X71684459Y-92223721D02*
X71732078Y-92318959D01*
X71446364Y-91128483D02*
X71446364Y-91033245D01*
X71446364Y-91033245D02*
X71493983Y-90938007D01*
X71493983Y-90938007D02*
X71541602Y-90890388D01*
X71541602Y-90890388D02*
X71636840Y-90842769D01*
X71636840Y-90842769D02*
X71827316Y-90795150D01*
X71827316Y-90795150D02*
X72065411Y-90795150D01*
X72065411Y-90795150D02*
X72255887Y-90842769D01*
X72255887Y-90842769D02*
X72351125Y-90890388D01*
X72351125Y-90890388D02*
X72398745Y-90938007D01*
X72398745Y-90938007D02*
X72446364Y-91033245D01*
X72446364Y-91033245D02*
X72446364Y-91128483D01*
X72446364Y-91128483D02*
X72398745Y-91223721D01*
X72398745Y-91223721D02*
X72351125Y-91271340D01*
X72351125Y-91271340D02*
X72255887Y-91318959D01*
X72255887Y-91318959D02*
X72065411Y-91366578D01*
X72065411Y-91366578D02*
X71827316Y-91366578D01*
X71827316Y-91366578D02*
X71636840Y-91318959D01*
X71636840Y-91318959D02*
X71541602Y-91271340D01*
X71541602Y-91271340D02*
X71493983Y-91223721D01*
X71493983Y-91223721D02*
X71446364Y-91128483D01*
X81425986Y-110268975D02*
X80425986Y-110268975D01*
X80902176Y-110268975D02*
X80902176Y-109697547D01*
X81425986Y-109697547D02*
X80425986Y-109697547D01*
X80854557Y-109078499D02*
X80806938Y-109173737D01*
X80806938Y-109173737D02*
X80759319Y-109221356D01*
X80759319Y-109221356D02*
X80664081Y-109268975D01*
X80664081Y-109268975D02*
X80616462Y-109268975D01*
X80616462Y-109268975D02*
X80521224Y-109221356D01*
X80521224Y-109221356D02*
X80473605Y-109173737D01*
X80473605Y-109173737D02*
X80425986Y-109078499D01*
X80425986Y-109078499D02*
X80425986Y-108888023D01*
X80425986Y-108888023D02*
X80473605Y-108792785D01*
X80473605Y-108792785D02*
X80521224Y-108745166D01*
X80521224Y-108745166D02*
X80616462Y-108697547D01*
X80616462Y-108697547D02*
X80664081Y-108697547D01*
X80664081Y-108697547D02*
X80759319Y-108745166D01*
X80759319Y-108745166D02*
X80806938Y-108792785D01*
X80806938Y-108792785D02*
X80854557Y-108888023D01*
X80854557Y-108888023D02*
X80854557Y-109078499D01*
X80854557Y-109078499D02*
X80902176Y-109173737D01*
X80902176Y-109173737D02*
X80949795Y-109221356D01*
X80949795Y-109221356D02*
X81045033Y-109268975D01*
X81045033Y-109268975D02*
X81235509Y-109268975D01*
X81235509Y-109268975D02*
X81330747Y-109221356D01*
X81330747Y-109221356D02*
X81378367Y-109173737D01*
X81378367Y-109173737D02*
X81425986Y-109078499D01*
X81425986Y-109078499D02*
X81425986Y-108888023D01*
X81425986Y-108888023D02*
X81378367Y-108792785D01*
X81378367Y-108792785D02*
X81330747Y-108745166D01*
X81330747Y-108745166D02*
X81235509Y-108697547D01*
X81235509Y-108697547D02*
X81045033Y-108697547D01*
X81045033Y-108697547D02*
X80949795Y-108745166D01*
X80949795Y-108745166D02*
X80902176Y-108792785D01*
X80902176Y-108792785D02*
X80854557Y-108888023D01*
X32471368Y-107777740D02*
X32471368Y-108492025D01*
X32471368Y-108492025D02*
X32423749Y-108634882D01*
X32423749Y-108634882D02*
X32328511Y-108730121D01*
X32328511Y-108730121D02*
X32185654Y-108777740D01*
X32185654Y-108777740D02*
X32090416Y-108777740D01*
X33090416Y-108206311D02*
X32995178Y-108158692D01*
X32995178Y-108158692D02*
X32947559Y-108111073D01*
X32947559Y-108111073D02*
X32899940Y-108015835D01*
X32899940Y-108015835D02*
X32899940Y-107968216D01*
X32899940Y-107968216D02*
X32947559Y-107872978D01*
X32947559Y-107872978D02*
X32995178Y-107825359D01*
X32995178Y-107825359D02*
X33090416Y-107777740D01*
X33090416Y-107777740D02*
X33280892Y-107777740D01*
X33280892Y-107777740D02*
X33376130Y-107825359D01*
X33376130Y-107825359D02*
X33423749Y-107872978D01*
X33423749Y-107872978D02*
X33471368Y-107968216D01*
X33471368Y-107968216D02*
X33471368Y-108015835D01*
X33471368Y-108015835D02*
X33423749Y-108111073D01*
X33423749Y-108111073D02*
X33376130Y-108158692D01*
X33376130Y-108158692D02*
X33280892Y-108206311D01*
X33280892Y-108206311D02*
X33090416Y-108206311D01*
X33090416Y-108206311D02*
X32995178Y-108253930D01*
X32995178Y-108253930D02*
X32947559Y-108301549D01*
X32947559Y-108301549D02*
X32899940Y-108396787D01*
X32899940Y-108396787D02*
X32899940Y-108587263D01*
X32899940Y-108587263D02*
X32947559Y-108682501D01*
X32947559Y-108682501D02*
X32995178Y-108730121D01*
X32995178Y-108730121D02*
X33090416Y-108777740D01*
X33090416Y-108777740D02*
X33280892Y-108777740D01*
X33280892Y-108777740D02*
X33376130Y-108730121D01*
X33376130Y-108730121D02*
X33423749Y-108682501D01*
X33423749Y-108682501D02*
X33471368Y-108587263D01*
X33471368Y-108587263D02*
X33471368Y-108396787D01*
X33471368Y-108396787D02*
X33423749Y-108301549D01*
X33423749Y-108301549D02*
X33376130Y-108253930D01*
X33376130Y-108253930D02*
X33280892Y-108206311D01*
X43487679Y-73675004D02*
X43535299Y-73722623D01*
X43535299Y-73722623D02*
X43582918Y-73865480D01*
X43582918Y-73865480D02*
X43582918Y-73960718D01*
X43582918Y-73960718D02*
X43535299Y-74103575D01*
X43535299Y-74103575D02*
X43440060Y-74198813D01*
X43440060Y-74198813D02*
X43344822Y-74246432D01*
X43344822Y-74246432D02*
X43154346Y-74294051D01*
X43154346Y-74294051D02*
X43011489Y-74294051D01*
X43011489Y-74294051D02*
X42821013Y-74246432D01*
X42821013Y-74246432D02*
X42725775Y-74198813D01*
X42725775Y-74198813D02*
X42630537Y-74103575D01*
X42630537Y-74103575D02*
X42582918Y-73960718D01*
X42582918Y-73960718D02*
X42582918Y-73865480D01*
X42582918Y-73865480D02*
X42630537Y-73722623D01*
X42630537Y-73722623D02*
X42678156Y-73675004D01*
X42582918Y-73341670D02*
X42582918Y-72675004D01*
X42582918Y-72675004D02*
X43582918Y-73103575D01*
X43011489Y-72151194D02*
X42963870Y-72246432D01*
X42963870Y-72246432D02*
X42916251Y-72294051D01*
X42916251Y-72294051D02*
X42821013Y-72341670D01*
X42821013Y-72341670D02*
X42773394Y-72341670D01*
X42773394Y-72341670D02*
X42678156Y-72294051D01*
X42678156Y-72294051D02*
X42630537Y-72246432D01*
X42630537Y-72246432D02*
X42582918Y-72151194D01*
X42582918Y-72151194D02*
X42582918Y-71960718D01*
X42582918Y-71960718D02*
X42630537Y-71865480D01*
X42630537Y-71865480D02*
X42678156Y-71817861D01*
X42678156Y-71817861D02*
X42773394Y-71770242D01*
X42773394Y-71770242D02*
X42821013Y-71770242D01*
X42821013Y-71770242D02*
X42916251Y-71817861D01*
X42916251Y-71817861D02*
X42963870Y-71865480D01*
X42963870Y-71865480D02*
X43011489Y-71960718D01*
X43011489Y-71960718D02*
X43011489Y-72151194D01*
X43011489Y-72151194D02*
X43059108Y-72246432D01*
X43059108Y-72246432D02*
X43106727Y-72294051D01*
X43106727Y-72294051D02*
X43201965Y-72341670D01*
X43201965Y-72341670D02*
X43392441Y-72341670D01*
X43392441Y-72341670D02*
X43487679Y-72294051D01*
X43487679Y-72294051D02*
X43535299Y-72246432D01*
X43535299Y-72246432D02*
X43582918Y-72151194D01*
X43582918Y-72151194D02*
X43582918Y-71960718D01*
X43582918Y-71960718D02*
X43535299Y-71865480D01*
X43535299Y-71865480D02*
X43487679Y-71817861D01*
X43487679Y-71817861D02*
X43392441Y-71770242D01*
X43392441Y-71770242D02*
X43201965Y-71770242D01*
X43201965Y-71770242D02*
X43106727Y-71817861D01*
X43106727Y-71817861D02*
X43059108Y-71865480D01*
X43059108Y-71865480D02*
X43011489Y-71960718D01*
X75346634Y-33466519D02*
X74870443Y-33799852D01*
X75346634Y-34037947D02*
X74346634Y-34037947D01*
X74346634Y-34037947D02*
X74346634Y-33656995D01*
X74346634Y-33656995D02*
X74394253Y-33561757D01*
X74394253Y-33561757D02*
X74441872Y-33514138D01*
X74441872Y-33514138D02*
X74537110Y-33466519D01*
X74537110Y-33466519D02*
X74679967Y-33466519D01*
X74679967Y-33466519D02*
X74775205Y-33514138D01*
X74775205Y-33514138D02*
X74822824Y-33561757D01*
X74822824Y-33561757D02*
X74870443Y-33656995D01*
X74870443Y-33656995D02*
X74870443Y-34037947D01*
X75346634Y-32514138D02*
X75346634Y-33085566D01*
X75346634Y-32799852D02*
X74346634Y-32799852D01*
X74346634Y-32799852D02*
X74489491Y-32895090D01*
X74489491Y-32895090D02*
X74584729Y-32990328D01*
X74584729Y-32990328D02*
X74632348Y-33085566D01*
X38971368Y-107777740D02*
X38971368Y-108492025D01*
X38971368Y-108492025D02*
X38923749Y-108634882D01*
X38923749Y-108634882D02*
X38828511Y-108730121D01*
X38828511Y-108730121D02*
X38685654Y-108777740D01*
X38685654Y-108777740D02*
X38590416Y-108777740D01*
X39352321Y-107777740D02*
X40018987Y-107777740D01*
X40018987Y-107777740D02*
X39590416Y-108777740D01*
X77418031Y-80858266D02*
X77370412Y-80905886D01*
X77370412Y-80905886D02*
X77227555Y-80953505D01*
X77227555Y-80953505D02*
X77132317Y-80953505D01*
X77132317Y-80953505D02*
X76989460Y-80905886D01*
X76989460Y-80905886D02*
X76894222Y-80810647D01*
X76894222Y-80810647D02*
X76846603Y-80715409D01*
X76846603Y-80715409D02*
X76798984Y-80524933D01*
X76798984Y-80524933D02*
X76798984Y-80382076D01*
X76798984Y-80382076D02*
X76846603Y-80191600D01*
X76846603Y-80191600D02*
X76894222Y-80096362D01*
X76894222Y-80096362D02*
X76989460Y-80001124D01*
X76989460Y-80001124D02*
X77132317Y-79953505D01*
X77132317Y-79953505D02*
X77227555Y-79953505D01*
X77227555Y-79953505D02*
X77370412Y-80001124D01*
X77370412Y-80001124D02*
X77418031Y-80048743D01*
X77751365Y-79953505D02*
X78418031Y-79953505D01*
X78418031Y-79953505D02*
X77989460Y-80953505D01*
X78989460Y-79953505D02*
X79084698Y-79953505D01*
X79084698Y-79953505D02*
X79179936Y-80001124D01*
X79179936Y-80001124D02*
X79227555Y-80048743D01*
X79227555Y-80048743D02*
X79275174Y-80143981D01*
X79275174Y-80143981D02*
X79322793Y-80334457D01*
X79322793Y-80334457D02*
X79322793Y-80572552D01*
X79322793Y-80572552D02*
X79275174Y-80763028D01*
X79275174Y-80763028D02*
X79227555Y-80858266D01*
X79227555Y-80858266D02*
X79179936Y-80905886D01*
X79179936Y-80905886D02*
X79084698Y-80953505D01*
X79084698Y-80953505D02*
X78989460Y-80953505D01*
X78989460Y-80953505D02*
X78894222Y-80905886D01*
X78894222Y-80905886D02*
X78846603Y-80858266D01*
X78846603Y-80858266D02*
X78798984Y-80763028D01*
X78798984Y-80763028D02*
X78751365Y-80572552D01*
X78751365Y-80572552D02*
X78751365Y-80334457D01*
X78751365Y-80334457D02*
X78798984Y-80143981D01*
X78798984Y-80143981D02*
X78846603Y-80048743D01*
X78846603Y-80048743D02*
X78894222Y-80001124D01*
X78894222Y-80001124D02*
X78989460Y-79953505D01*
X63774150Y-72114457D02*
X63726531Y-72162077D01*
X63726531Y-72162077D02*
X63583674Y-72209696D01*
X63583674Y-72209696D02*
X63488436Y-72209696D01*
X63488436Y-72209696D02*
X63345579Y-72162077D01*
X63345579Y-72162077D02*
X63250341Y-72066838D01*
X63250341Y-72066838D02*
X63202722Y-71971600D01*
X63202722Y-71971600D02*
X63155103Y-71781124D01*
X63155103Y-71781124D02*
X63155103Y-71638267D01*
X63155103Y-71638267D02*
X63202722Y-71447791D01*
X63202722Y-71447791D02*
X63250341Y-71352553D01*
X63250341Y-71352553D02*
X63345579Y-71257315D01*
X63345579Y-71257315D02*
X63488436Y-71209696D01*
X63488436Y-71209696D02*
X63583674Y-71209696D01*
X63583674Y-71209696D02*
X63726531Y-71257315D01*
X63726531Y-71257315D02*
X63774150Y-71304934D01*
X64345579Y-71638267D02*
X64250341Y-71590648D01*
X64250341Y-71590648D02*
X64202722Y-71543029D01*
X64202722Y-71543029D02*
X64155103Y-71447791D01*
X64155103Y-71447791D02*
X64155103Y-71400172D01*
X64155103Y-71400172D02*
X64202722Y-71304934D01*
X64202722Y-71304934D02*
X64250341Y-71257315D01*
X64250341Y-71257315D02*
X64345579Y-71209696D01*
X64345579Y-71209696D02*
X64536055Y-71209696D01*
X64536055Y-71209696D02*
X64631293Y-71257315D01*
X64631293Y-71257315D02*
X64678912Y-71304934D01*
X64678912Y-71304934D02*
X64726531Y-71400172D01*
X64726531Y-71400172D02*
X64726531Y-71447791D01*
X64726531Y-71447791D02*
X64678912Y-71543029D01*
X64678912Y-71543029D02*
X64631293Y-71590648D01*
X64631293Y-71590648D02*
X64536055Y-71638267D01*
X64536055Y-71638267D02*
X64345579Y-71638267D01*
X64345579Y-71638267D02*
X64250341Y-71685886D01*
X64250341Y-71685886D02*
X64202722Y-71733505D01*
X64202722Y-71733505D02*
X64155103Y-71828743D01*
X64155103Y-71828743D02*
X64155103Y-72019219D01*
X64155103Y-72019219D02*
X64202722Y-72114457D01*
X64202722Y-72114457D02*
X64250341Y-72162077D01*
X64250341Y-72162077D02*
X64345579Y-72209696D01*
X64345579Y-72209696D02*
X64536055Y-72209696D01*
X64536055Y-72209696D02*
X64631293Y-72162077D01*
X64631293Y-72162077D02*
X64678912Y-72114457D01*
X64678912Y-72114457D02*
X64726531Y-72019219D01*
X64726531Y-72019219D02*
X64726531Y-71828743D01*
X64726531Y-71828743D02*
X64678912Y-71733505D01*
X64678912Y-71733505D02*
X64631293Y-71685886D01*
X64631293Y-71685886D02*
X64536055Y-71638267D01*
X65297960Y-71638267D02*
X65202722Y-71590648D01*
X65202722Y-71590648D02*
X65155103Y-71543029D01*
X65155103Y-71543029D02*
X65107484Y-71447791D01*
X65107484Y-71447791D02*
X65107484Y-71400172D01*
X65107484Y-71400172D02*
X65155103Y-71304934D01*
X65155103Y-71304934D02*
X65202722Y-71257315D01*
X65202722Y-71257315D02*
X65297960Y-71209696D01*
X65297960Y-71209696D02*
X65488436Y-71209696D01*
X65488436Y-71209696D02*
X65583674Y-71257315D01*
X65583674Y-71257315D02*
X65631293Y-71304934D01*
X65631293Y-71304934D02*
X65678912Y-71400172D01*
X65678912Y-71400172D02*
X65678912Y-71447791D01*
X65678912Y-71447791D02*
X65631293Y-71543029D01*
X65631293Y-71543029D02*
X65583674Y-71590648D01*
X65583674Y-71590648D02*
X65488436Y-71638267D01*
X65488436Y-71638267D02*
X65297960Y-71638267D01*
X65297960Y-71638267D02*
X65202722Y-71685886D01*
X65202722Y-71685886D02*
X65155103Y-71733505D01*
X65155103Y-71733505D02*
X65107484Y-71828743D01*
X65107484Y-71828743D02*
X65107484Y-72019219D01*
X65107484Y-72019219D02*
X65155103Y-72114457D01*
X65155103Y-72114457D02*
X65202722Y-72162077D01*
X65202722Y-72162077D02*
X65297960Y-72209696D01*
X65297960Y-72209696D02*
X65488436Y-72209696D01*
X65488436Y-72209696D02*
X65583674Y-72162077D01*
X65583674Y-72162077D02*
X65631293Y-72114457D01*
X65631293Y-72114457D02*
X65678912Y-72019219D01*
X65678912Y-72019219D02*
X65678912Y-71828743D01*
X65678912Y-71828743D02*
X65631293Y-71733505D01*
X65631293Y-71733505D02*
X65583674Y-71685886D01*
X65583674Y-71685886D02*
X65488436Y-71638267D01*
X46670888Y-102467989D02*
X46718508Y-102515608D01*
X46718508Y-102515608D02*
X46766127Y-102658465D01*
X46766127Y-102658465D02*
X46766127Y-102753703D01*
X46766127Y-102753703D02*
X46718508Y-102896560D01*
X46718508Y-102896560D02*
X46623269Y-102991798D01*
X46623269Y-102991798D02*
X46528031Y-103039417D01*
X46528031Y-103039417D02*
X46337555Y-103087036D01*
X46337555Y-103087036D02*
X46194698Y-103087036D01*
X46194698Y-103087036D02*
X46004222Y-103039417D01*
X46004222Y-103039417D02*
X45908984Y-102991798D01*
X45908984Y-102991798D02*
X45813746Y-102896560D01*
X45813746Y-102896560D02*
X45766127Y-102753703D01*
X45766127Y-102753703D02*
X45766127Y-102658465D01*
X45766127Y-102658465D02*
X45813746Y-102515608D01*
X45813746Y-102515608D02*
X45861365Y-102467989D01*
X46099460Y-101610846D02*
X46766127Y-101610846D01*
X45718508Y-101848941D02*
X46432793Y-102087036D01*
X46432793Y-102087036D02*
X46432793Y-101467989D01*
X45766127Y-100610846D02*
X45766127Y-101087036D01*
X45766127Y-101087036D02*
X46242317Y-101134655D01*
X46242317Y-101134655D02*
X46194698Y-101087036D01*
X46194698Y-101087036D02*
X46147079Y-100991798D01*
X46147079Y-100991798D02*
X46147079Y-100753703D01*
X46147079Y-100753703D02*
X46194698Y-100658465D01*
X46194698Y-100658465D02*
X46242317Y-100610846D01*
X46242317Y-100610846D02*
X46337555Y-100563227D01*
X46337555Y-100563227D02*
X46575650Y-100563227D01*
X46575650Y-100563227D02*
X46670888Y-100610846D01*
X46670888Y-100610846D02*
X46718508Y-100658465D01*
X46718508Y-100658465D02*
X46766127Y-100753703D01*
X46766127Y-100753703D02*
X46766127Y-100991798D01*
X46766127Y-100991798D02*
X46718508Y-101087036D01*
X46718508Y-101087036D02*
X46670888Y-101134655D01*
X55864902Y-87068586D02*
X55912522Y-87116205D01*
X55912522Y-87116205D02*
X55960141Y-87259062D01*
X55960141Y-87259062D02*
X55960141Y-87354300D01*
X55960141Y-87354300D02*
X55912522Y-87497157D01*
X55912522Y-87497157D02*
X55817283Y-87592395D01*
X55817283Y-87592395D02*
X55722045Y-87640014D01*
X55722045Y-87640014D02*
X55531569Y-87687633D01*
X55531569Y-87687633D02*
X55388712Y-87687633D01*
X55388712Y-87687633D02*
X55198236Y-87640014D01*
X55198236Y-87640014D02*
X55102998Y-87592395D01*
X55102998Y-87592395D02*
X55007760Y-87497157D01*
X55007760Y-87497157D02*
X54960141Y-87354300D01*
X54960141Y-87354300D02*
X54960141Y-87259062D01*
X54960141Y-87259062D02*
X55007760Y-87116205D01*
X55007760Y-87116205D02*
X55055379Y-87068586D01*
X55388712Y-86497157D02*
X55341093Y-86592395D01*
X55341093Y-86592395D02*
X55293474Y-86640014D01*
X55293474Y-86640014D02*
X55198236Y-86687633D01*
X55198236Y-86687633D02*
X55150617Y-86687633D01*
X55150617Y-86687633D02*
X55055379Y-86640014D01*
X55055379Y-86640014D02*
X55007760Y-86592395D01*
X55007760Y-86592395D02*
X54960141Y-86497157D01*
X54960141Y-86497157D02*
X54960141Y-86306681D01*
X54960141Y-86306681D02*
X55007760Y-86211443D01*
X55007760Y-86211443D02*
X55055379Y-86163824D01*
X55055379Y-86163824D02*
X55150617Y-86116205D01*
X55150617Y-86116205D02*
X55198236Y-86116205D01*
X55198236Y-86116205D02*
X55293474Y-86163824D01*
X55293474Y-86163824D02*
X55341093Y-86211443D01*
X55341093Y-86211443D02*
X55388712Y-86306681D01*
X55388712Y-86306681D02*
X55388712Y-86497157D01*
X55388712Y-86497157D02*
X55436331Y-86592395D01*
X55436331Y-86592395D02*
X55483950Y-86640014D01*
X55483950Y-86640014D02*
X55579188Y-86687633D01*
X55579188Y-86687633D02*
X55769664Y-86687633D01*
X55769664Y-86687633D02*
X55864902Y-86640014D01*
X55864902Y-86640014D02*
X55912522Y-86592395D01*
X55912522Y-86592395D02*
X55960141Y-86497157D01*
X55960141Y-86497157D02*
X55960141Y-86306681D01*
X55960141Y-86306681D02*
X55912522Y-86211443D01*
X55912522Y-86211443D02*
X55864902Y-86163824D01*
X55864902Y-86163824D02*
X55769664Y-86116205D01*
X55769664Y-86116205D02*
X55579188Y-86116205D01*
X55579188Y-86116205D02*
X55483950Y-86163824D01*
X55483950Y-86163824D02*
X55436331Y-86211443D01*
X55436331Y-86211443D02*
X55388712Y-86306681D01*
X54960141Y-85782871D02*
X54960141Y-85116205D01*
X54960141Y-85116205D02*
X55960141Y-85544776D01*
X29912842Y-59276747D02*
X29912842Y-59752937D01*
X29912842Y-59752937D02*
X28912842Y-59752937D01*
X29912842Y-58419604D02*
X29912842Y-58991032D01*
X29912842Y-58705318D02*
X28912842Y-58705318D01*
X28912842Y-58705318D02*
X29055699Y-58800556D01*
X29055699Y-58800556D02*
X29150937Y-58895794D01*
X29150937Y-58895794D02*
X29198556Y-58991032D01*
X36631894Y-102635605D02*
X36584275Y-102683225D01*
X36584275Y-102683225D02*
X36441418Y-102730844D01*
X36441418Y-102730844D02*
X36346180Y-102730844D01*
X36346180Y-102730844D02*
X36203323Y-102683225D01*
X36203323Y-102683225D02*
X36108085Y-102587986D01*
X36108085Y-102587986D02*
X36060466Y-102492748D01*
X36060466Y-102492748D02*
X36012847Y-102302272D01*
X36012847Y-102302272D02*
X36012847Y-102159415D01*
X36012847Y-102159415D02*
X36060466Y-101968939D01*
X36060466Y-101968939D02*
X36108085Y-101873701D01*
X36108085Y-101873701D02*
X36203323Y-101778463D01*
X36203323Y-101778463D02*
X36346180Y-101730844D01*
X36346180Y-101730844D02*
X36441418Y-101730844D01*
X36441418Y-101730844D02*
X36584275Y-101778463D01*
X36584275Y-101778463D02*
X36631894Y-101826082D01*
X37536656Y-101730844D02*
X37060466Y-101730844D01*
X37060466Y-101730844D02*
X37012847Y-102207034D01*
X37012847Y-102207034D02*
X37060466Y-102159415D01*
X37060466Y-102159415D02*
X37155704Y-102111796D01*
X37155704Y-102111796D02*
X37393799Y-102111796D01*
X37393799Y-102111796D02*
X37489037Y-102159415D01*
X37489037Y-102159415D02*
X37536656Y-102207034D01*
X37536656Y-102207034D02*
X37584275Y-102302272D01*
X37584275Y-102302272D02*
X37584275Y-102540367D01*
X37584275Y-102540367D02*
X37536656Y-102635605D01*
X37536656Y-102635605D02*
X37489037Y-102683225D01*
X37489037Y-102683225D02*
X37393799Y-102730844D01*
X37393799Y-102730844D02*
X37155704Y-102730844D01*
X37155704Y-102730844D02*
X37060466Y-102683225D01*
X37060466Y-102683225D02*
X37012847Y-102635605D01*
X38489037Y-101730844D02*
X38012847Y-101730844D01*
X38012847Y-101730844D02*
X37965228Y-102207034D01*
X37965228Y-102207034D02*
X38012847Y-102159415D01*
X38012847Y-102159415D02*
X38108085Y-102111796D01*
X38108085Y-102111796D02*
X38346180Y-102111796D01*
X38346180Y-102111796D02*
X38441418Y-102159415D01*
X38441418Y-102159415D02*
X38489037Y-102207034D01*
X38489037Y-102207034D02*
X38536656Y-102302272D01*
X38536656Y-102302272D02*
X38536656Y-102540367D01*
X38536656Y-102540367D02*
X38489037Y-102635605D01*
X38489037Y-102635605D02*
X38441418Y-102683225D01*
X38441418Y-102683225D02*
X38346180Y-102730844D01*
X38346180Y-102730844D02*
X38108085Y-102730844D01*
X38108085Y-102730844D02*
X38012847Y-102683225D01*
X38012847Y-102683225D02*
X37965228Y-102635605D01*
X91973065Y-102434536D02*
X91925446Y-102482156D01*
X91925446Y-102482156D02*
X91782589Y-102529775D01*
X91782589Y-102529775D02*
X91687351Y-102529775D01*
X91687351Y-102529775D02*
X91544494Y-102482156D01*
X91544494Y-102482156D02*
X91449256Y-102386917D01*
X91449256Y-102386917D02*
X91401637Y-102291679D01*
X91401637Y-102291679D02*
X91354018Y-102101203D01*
X91354018Y-102101203D02*
X91354018Y-101958346D01*
X91354018Y-101958346D02*
X91401637Y-101767870D01*
X91401637Y-101767870D02*
X91449256Y-101672632D01*
X91449256Y-101672632D02*
X91544494Y-101577394D01*
X91544494Y-101577394D02*
X91687351Y-101529775D01*
X91687351Y-101529775D02*
X91782589Y-101529775D01*
X91782589Y-101529775D02*
X91925446Y-101577394D01*
X91925446Y-101577394D02*
X91973065Y-101625013D01*
X92306399Y-101529775D02*
X92973065Y-101529775D01*
X92973065Y-101529775D02*
X92544494Y-102529775D01*
X93782589Y-101863108D02*
X93782589Y-102529775D01*
X93544494Y-101482156D02*
X93306399Y-102196441D01*
X93306399Y-102196441D02*
X93925446Y-102196441D01*
X57659837Y-109844541D02*
X57659837Y-110558826D01*
X57659837Y-110558826D02*
X57612218Y-110701683D01*
X57612218Y-110701683D02*
X57516980Y-110796922D01*
X57516980Y-110796922D02*
X57374123Y-110844541D01*
X57374123Y-110844541D02*
X57278885Y-110844541D01*
X58564599Y-110177874D02*
X58564599Y-110844541D01*
X58326504Y-109796922D02*
X58088409Y-110511207D01*
X58088409Y-110511207D02*
X58707456Y-110511207D01*
X58784067Y-113518134D02*
X59498352Y-113518134D01*
X59498352Y-113518134D02*
X59641209Y-113565753D01*
X59641209Y-113565753D02*
X59736448Y-113660991D01*
X59736448Y-113660991D02*
X59784067Y-113803848D01*
X59784067Y-113803848D02*
X59784067Y-113899086D01*
X58784067Y-112565753D02*
X58784067Y-113041943D01*
X58784067Y-113041943D02*
X59260257Y-113089562D01*
X59260257Y-113089562D02*
X59212638Y-113041943D01*
X59212638Y-113041943D02*
X59165019Y-112946705D01*
X59165019Y-112946705D02*
X59165019Y-112708610D01*
X59165019Y-112708610D02*
X59212638Y-112613372D01*
X59212638Y-112613372D02*
X59260257Y-112565753D01*
X59260257Y-112565753D02*
X59355495Y-112518134D01*
X59355495Y-112518134D02*
X59593590Y-112518134D01*
X59593590Y-112518134D02*
X59688828Y-112565753D01*
X59688828Y-112565753D02*
X59736448Y-112613372D01*
X59736448Y-112613372D02*
X59784067Y-112708610D01*
X59784067Y-112708610D02*
X59784067Y-112946705D01*
X59784067Y-112946705D02*
X59736448Y-113041943D01*
X59736448Y-113041943D02*
X59688828Y-113089562D01*
X82068778Y-32687390D02*
X82021159Y-32735010D01*
X82021159Y-32735010D02*
X81878302Y-32782629D01*
X81878302Y-32782629D02*
X81783064Y-32782629D01*
X81783064Y-32782629D02*
X81640207Y-32735010D01*
X81640207Y-32735010D02*
X81544969Y-32639771D01*
X81544969Y-32639771D02*
X81497350Y-32544533D01*
X81497350Y-32544533D02*
X81449731Y-32354057D01*
X81449731Y-32354057D02*
X81449731Y-32211200D01*
X81449731Y-32211200D02*
X81497350Y-32020724D01*
X81497350Y-32020724D02*
X81544969Y-31925486D01*
X81544969Y-31925486D02*
X81640207Y-31830248D01*
X81640207Y-31830248D02*
X81783064Y-31782629D01*
X81783064Y-31782629D02*
X81878302Y-31782629D01*
X81878302Y-31782629D02*
X82021159Y-31830248D01*
X82021159Y-31830248D02*
X82068778Y-31877867D01*
X82402112Y-31782629D02*
X83021159Y-31782629D01*
X83021159Y-31782629D02*
X82687826Y-32163581D01*
X82687826Y-32163581D02*
X82830683Y-32163581D01*
X82830683Y-32163581D02*
X82925921Y-32211200D01*
X82925921Y-32211200D02*
X82973540Y-32258819D01*
X82973540Y-32258819D02*
X83021159Y-32354057D01*
X83021159Y-32354057D02*
X83021159Y-32592152D01*
X83021159Y-32592152D02*
X82973540Y-32687390D01*
X82973540Y-32687390D02*
X82925921Y-32735010D01*
X82925921Y-32735010D02*
X82830683Y-32782629D01*
X82830683Y-32782629D02*
X82544969Y-32782629D01*
X82544969Y-32782629D02*
X82449731Y-32735010D01*
X82449731Y-32735010D02*
X82402112Y-32687390D01*
X83640207Y-31782629D02*
X83735445Y-31782629D01*
X83735445Y-31782629D02*
X83830683Y-31830248D01*
X83830683Y-31830248D02*
X83878302Y-31877867D01*
X83878302Y-31877867D02*
X83925921Y-31973105D01*
X83925921Y-31973105D02*
X83973540Y-32163581D01*
X83973540Y-32163581D02*
X83973540Y-32401676D01*
X83973540Y-32401676D02*
X83925921Y-32592152D01*
X83925921Y-32592152D02*
X83878302Y-32687390D01*
X83878302Y-32687390D02*
X83830683Y-32735010D01*
X83830683Y-32735010D02*
X83735445Y-32782629D01*
X83735445Y-32782629D02*
X83640207Y-32782629D01*
X83640207Y-32782629D02*
X83544969Y-32735010D01*
X83544969Y-32735010D02*
X83497350Y-32687390D01*
X83497350Y-32687390D02*
X83449731Y-32592152D01*
X83449731Y-32592152D02*
X83402112Y-32401676D01*
X83402112Y-32401676D02*
X83402112Y-32163581D01*
X83402112Y-32163581D02*
X83449731Y-31973105D01*
X83449731Y-31973105D02*
X83497350Y-31877867D01*
X83497350Y-31877867D02*
X83544969Y-31830248D01*
X83544969Y-31830248D02*
X83640207Y-31782629D01*
X75168934Y-46199821D02*
X75216554Y-46247440D01*
X75216554Y-46247440D02*
X75264173Y-46390297D01*
X75264173Y-46390297D02*
X75264173Y-46485535D01*
X75264173Y-46485535D02*
X75216554Y-46628392D01*
X75216554Y-46628392D02*
X75121315Y-46723630D01*
X75121315Y-46723630D02*
X75026077Y-46771249D01*
X75026077Y-46771249D02*
X74835601Y-46818868D01*
X74835601Y-46818868D02*
X74692744Y-46818868D01*
X74692744Y-46818868D02*
X74502268Y-46771249D01*
X74502268Y-46771249D02*
X74407030Y-46723630D01*
X74407030Y-46723630D02*
X74311792Y-46628392D01*
X74311792Y-46628392D02*
X74264173Y-46485535D01*
X74264173Y-46485535D02*
X74264173Y-46390297D01*
X74264173Y-46390297D02*
X74311792Y-46247440D01*
X74311792Y-46247440D02*
X74359411Y-46199821D01*
X74692744Y-45628392D02*
X74645125Y-45723630D01*
X74645125Y-45723630D02*
X74597506Y-45771249D01*
X74597506Y-45771249D02*
X74502268Y-45818868D01*
X74502268Y-45818868D02*
X74454649Y-45818868D01*
X74454649Y-45818868D02*
X74359411Y-45771249D01*
X74359411Y-45771249D02*
X74311792Y-45723630D01*
X74311792Y-45723630D02*
X74264173Y-45628392D01*
X74264173Y-45628392D02*
X74264173Y-45437916D01*
X74264173Y-45437916D02*
X74311792Y-45342678D01*
X74311792Y-45342678D02*
X74359411Y-45295059D01*
X74359411Y-45295059D02*
X74454649Y-45247440D01*
X74454649Y-45247440D02*
X74502268Y-45247440D01*
X74502268Y-45247440D02*
X74597506Y-45295059D01*
X74597506Y-45295059D02*
X74645125Y-45342678D01*
X74645125Y-45342678D02*
X74692744Y-45437916D01*
X74692744Y-45437916D02*
X74692744Y-45628392D01*
X74692744Y-45628392D02*
X74740363Y-45723630D01*
X74740363Y-45723630D02*
X74787982Y-45771249D01*
X74787982Y-45771249D02*
X74883220Y-45818868D01*
X74883220Y-45818868D02*
X75073696Y-45818868D01*
X75073696Y-45818868D02*
X75168934Y-45771249D01*
X75168934Y-45771249D02*
X75216554Y-45723630D01*
X75216554Y-45723630D02*
X75264173Y-45628392D01*
X75264173Y-45628392D02*
X75264173Y-45437916D01*
X75264173Y-45437916D02*
X75216554Y-45342678D01*
X75216554Y-45342678D02*
X75168934Y-45295059D01*
X75168934Y-45295059D02*
X75073696Y-45247440D01*
X75073696Y-45247440D02*
X74883220Y-45247440D01*
X74883220Y-45247440D02*
X74787982Y-45295059D01*
X74787982Y-45295059D02*
X74740363Y-45342678D01*
X74740363Y-45342678D02*
X74692744Y-45437916D01*
X74264173Y-44390297D02*
X74264173Y-44580773D01*
X74264173Y-44580773D02*
X74311792Y-44676011D01*
X74311792Y-44676011D02*
X74359411Y-44723630D01*
X74359411Y-44723630D02*
X74502268Y-44818868D01*
X74502268Y-44818868D02*
X74692744Y-44866487D01*
X74692744Y-44866487D02*
X75073696Y-44866487D01*
X75073696Y-44866487D02*
X75168934Y-44818868D01*
X75168934Y-44818868D02*
X75216554Y-44771249D01*
X75216554Y-44771249D02*
X75264173Y-44676011D01*
X75264173Y-44676011D02*
X75264173Y-44485535D01*
X75264173Y-44485535D02*
X75216554Y-44390297D01*
X75216554Y-44390297D02*
X75168934Y-44342678D01*
X75168934Y-44342678D02*
X75073696Y-44295059D01*
X75073696Y-44295059D02*
X74835601Y-44295059D01*
X74835601Y-44295059D02*
X74740363Y-44342678D01*
X74740363Y-44342678D02*
X74692744Y-44390297D01*
X74692744Y-44390297D02*
X74645125Y-44485535D01*
X74645125Y-44485535D02*
X74645125Y-44676011D01*
X74645125Y-44676011D02*
X74692744Y-44771249D01*
X74692744Y-44771249D02*
X74740363Y-44818868D01*
X74740363Y-44818868D02*
X74835601Y-44866487D01*
X44082694Y-109144541D02*
X44082694Y-109858826D01*
X44082694Y-109858826D02*
X44035075Y-110001683D01*
X44035075Y-110001683D02*
X43939837Y-110096922D01*
X43939837Y-110096922D02*
X43796980Y-110144541D01*
X43796980Y-110144541D02*
X43701742Y-110144541D01*
X44463647Y-109144541D02*
X45082694Y-109144541D01*
X45082694Y-109144541D02*
X44749361Y-109525493D01*
X44749361Y-109525493D02*
X44892218Y-109525493D01*
X44892218Y-109525493D02*
X44987456Y-109573112D01*
X44987456Y-109573112D02*
X45035075Y-109620731D01*
X45035075Y-109620731D02*
X45082694Y-109715969D01*
X45082694Y-109715969D02*
X45082694Y-109954064D01*
X45082694Y-109954064D02*
X45035075Y-110049302D01*
X45035075Y-110049302D02*
X44987456Y-110096922D01*
X44987456Y-110096922D02*
X44892218Y-110144541D01*
X44892218Y-110144541D02*
X44606504Y-110144541D01*
X44606504Y-110144541D02*
X44511266Y-110096922D01*
X44511266Y-110096922D02*
X44463647Y-110049302D01*
X42114914Y-103317537D02*
X42162534Y-103365156D01*
X42162534Y-103365156D02*
X42210153Y-103508013D01*
X42210153Y-103508013D02*
X42210153Y-103603251D01*
X42210153Y-103603251D02*
X42162534Y-103746108D01*
X42162534Y-103746108D02*
X42067295Y-103841346D01*
X42067295Y-103841346D02*
X41972057Y-103888965D01*
X41972057Y-103888965D02*
X41781581Y-103936584D01*
X41781581Y-103936584D02*
X41638724Y-103936584D01*
X41638724Y-103936584D02*
X41448248Y-103888965D01*
X41448248Y-103888965D02*
X41353010Y-103841346D01*
X41353010Y-103841346D02*
X41257772Y-103746108D01*
X41257772Y-103746108D02*
X41210153Y-103603251D01*
X41210153Y-103603251D02*
X41210153Y-103508013D01*
X41210153Y-103508013D02*
X41257772Y-103365156D01*
X41257772Y-103365156D02*
X41305391Y-103317537D01*
X41543486Y-102460394D02*
X42210153Y-102460394D01*
X41162534Y-102698489D02*
X41876819Y-102936584D01*
X41876819Y-102936584D02*
X41876819Y-102317537D01*
X41543486Y-101508013D02*
X42210153Y-101508013D01*
X41162534Y-101746108D02*
X41876819Y-101984203D01*
X41876819Y-101984203D02*
X41876819Y-101365156D01*
X59913385Y-81118514D02*
X59913385Y-80118514D01*
X59913385Y-80594704D02*
X60484813Y-80594704D01*
X60484813Y-81118514D02*
X60484813Y-80118514D01*
X61437194Y-80118514D02*
X60961004Y-80118514D01*
X60961004Y-80118514D02*
X60913385Y-80594704D01*
X60913385Y-80594704D02*
X60961004Y-80547085D01*
X60961004Y-80547085D02*
X61056242Y-80499466D01*
X61056242Y-80499466D02*
X61294337Y-80499466D01*
X61294337Y-80499466D02*
X61389575Y-80547085D01*
X61389575Y-80547085D02*
X61437194Y-80594704D01*
X61437194Y-80594704D02*
X61484813Y-80689942D01*
X61484813Y-80689942D02*
X61484813Y-80928037D01*
X61484813Y-80928037D02*
X61437194Y-81023275D01*
X61437194Y-81023275D02*
X61389575Y-81070895D01*
X61389575Y-81070895D02*
X61294337Y-81118514D01*
X61294337Y-81118514D02*
X61056242Y-81118514D01*
X61056242Y-81118514D02*
X60961004Y-81070895D01*
X60961004Y-81070895D02*
X60913385Y-81023275D01*
X59061504Y-107225649D02*
X58061504Y-107225649D01*
X58537694Y-107225649D02*
X58537694Y-106654221D01*
X59061504Y-106654221D02*
X58061504Y-106654221D01*
X58061504Y-106273268D02*
X58061504Y-105606602D01*
X58061504Y-105606602D02*
X59061504Y-106035173D01*
X92660804Y-74266149D02*
X93375089Y-74266149D01*
X93375089Y-74266149D02*
X93517946Y-74313768D01*
X93517946Y-74313768D02*
X93613185Y-74409006D01*
X93613185Y-74409006D02*
X93660804Y-74551863D01*
X93660804Y-74551863D02*
X93660804Y-74647101D01*
X92756042Y-73837577D02*
X92708423Y-73789958D01*
X92708423Y-73789958D02*
X92660804Y-73694720D01*
X92660804Y-73694720D02*
X92660804Y-73456625D01*
X92660804Y-73456625D02*
X92708423Y-73361387D01*
X92708423Y-73361387D02*
X92756042Y-73313768D01*
X92756042Y-73313768D02*
X92851280Y-73266149D01*
X92851280Y-73266149D02*
X92946518Y-73266149D01*
X92946518Y-73266149D02*
X93089375Y-73313768D01*
X93089375Y-73313768D02*
X93660804Y-73885196D01*
X93660804Y-73885196D02*
X93660804Y-73266149D01*
X36322455Y-74156849D02*
X36274836Y-74204469D01*
X36274836Y-74204469D02*
X36131979Y-74252088D01*
X36131979Y-74252088D02*
X36036741Y-74252088D01*
X36036741Y-74252088D02*
X35893884Y-74204469D01*
X35893884Y-74204469D02*
X35798646Y-74109230D01*
X35798646Y-74109230D02*
X35751027Y-74013992D01*
X35751027Y-74013992D02*
X35703408Y-73823516D01*
X35703408Y-73823516D02*
X35703408Y-73680659D01*
X35703408Y-73680659D02*
X35751027Y-73490183D01*
X35751027Y-73490183D02*
X35798646Y-73394945D01*
X35798646Y-73394945D02*
X35893884Y-73299707D01*
X35893884Y-73299707D02*
X36036741Y-73252088D01*
X36036741Y-73252088D02*
X36131979Y-73252088D01*
X36131979Y-73252088D02*
X36274836Y-73299707D01*
X36274836Y-73299707D02*
X36322455Y-73347326D01*
X36655789Y-73252088D02*
X37322455Y-73252088D01*
X37322455Y-73252088D02*
X36893884Y-74252088D01*
X38227217Y-74252088D02*
X37655789Y-74252088D01*
X37941503Y-74252088D02*
X37941503Y-73252088D01*
X37941503Y-73252088D02*
X37846265Y-73394945D01*
X37846265Y-73394945D02*
X37751027Y-73490183D01*
X37751027Y-73490183D02*
X37655789Y-73537802D01*
X55529067Y-109740991D02*
X56243352Y-109740991D01*
X56243352Y-109740991D02*
X56386209Y-109788610D01*
X56386209Y-109788610D02*
X56481448Y-109883848D01*
X56481448Y-109883848D02*
X56529067Y-110026705D01*
X56529067Y-110026705D02*
X56529067Y-110121943D01*
X55529067Y-108836229D02*
X55529067Y-109026705D01*
X55529067Y-109026705D02*
X55576686Y-109121943D01*
X55576686Y-109121943D02*
X55624305Y-109169562D01*
X55624305Y-109169562D02*
X55767162Y-109264800D01*
X55767162Y-109264800D02*
X55957638Y-109312419D01*
X55957638Y-109312419D02*
X56338590Y-109312419D01*
X56338590Y-109312419D02*
X56433828Y-109264800D01*
X56433828Y-109264800D02*
X56481448Y-109217181D01*
X56481448Y-109217181D02*
X56529067Y-109121943D01*
X56529067Y-109121943D02*
X56529067Y-108931467D01*
X56529067Y-108931467D02*
X56481448Y-108836229D01*
X56481448Y-108836229D02*
X56433828Y-108788610D01*
X56433828Y-108788610D02*
X56338590Y-108740991D01*
X56338590Y-108740991D02*
X56100495Y-108740991D01*
X56100495Y-108740991D02*
X56005257Y-108788610D01*
X56005257Y-108788610D02*
X55957638Y-108836229D01*
X55957638Y-108836229D02*
X55910019Y-108931467D01*
X55910019Y-108931467D02*
X55910019Y-109121943D01*
X55910019Y-109121943D02*
X55957638Y-109217181D01*
X55957638Y-109217181D02*
X56005257Y-109264800D01*
X56005257Y-109264800D02*
X56100495Y-109312419D01*
D13*
X76137697Y-92556578D02*
X76137697Y-96406578D01*
X76137697Y-103276578D02*
X76137697Y-99426578D01*
X85793260Y-92556578D02*
X76137697Y-92556578D01*
X85793260Y-103276578D02*
X76137697Y-103276578D01*
X86857697Y-93621015D02*
X85793260Y-92556578D01*
X86857697Y-93621015D02*
X86857697Y-96406578D01*
X86857697Y-102212141D02*
X85793260Y-103276578D01*
X86857697Y-102212141D02*
X86857697Y-99426578D01*
X87722697Y-101301578D02*
X87722697Y-100051578D01*
X88347697Y-100676578D02*
X87097697Y-100676578D01*
X54458281Y-100884283D02*
X54458281Y-100409767D01*
X55503281Y-100884283D02*
X55503281Y-100409767D01*
X72279162Y-113758424D02*
X72279162Y-113477264D01*
X73299162Y-113758424D02*
X73299162Y-113477264D01*
X66847597Y-112110415D02*
X68667597Y-112110415D01*
X66847597Y-112160415D02*
X66847597Y-112110415D01*
X66847597Y-115230415D02*
X66847597Y-115180415D01*
X68667597Y-112110415D02*
X68667597Y-112160415D01*
X68667597Y-113280415D02*
X68667597Y-114060415D01*
X68667597Y-115180415D02*
X68667597Y-115230415D01*
X68667597Y-115230415D02*
X66847597Y-115230415D01*
X66307597Y-112160415D02*
X66067597Y-111830415D01*
X66547597Y-111830415D01*
X66307597Y-112160415D01*
G36*
X66307597Y-112160415D02*
G01*
X66067597Y-111830415D01*
X66547597Y-111830415D01*
X66307597Y-112160415D01*
G37*
X63136095Y-30900641D02*
X63417255Y-30900641D01*
X63136095Y-31920641D02*
X63417255Y-31920641D01*
X47443072Y-106801588D02*
X47443072Y-105379084D01*
X50163072Y-106801588D02*
X50163072Y-105379084D01*
X90818960Y-103881431D02*
X90818960Y-113536994D01*
X90818960Y-113536994D02*
X94668960Y-113536994D01*
X91883397Y-102816994D02*
X90818960Y-103881431D01*
X91883397Y-102816994D02*
X94668960Y-102816994D01*
X98938960Y-101326994D02*
X98938960Y-102576994D01*
X99563960Y-101951994D02*
X98313960Y-101951994D01*
X100474523Y-102816994D02*
X97688960Y-102816994D01*
X100474523Y-102816994D02*
X101538960Y-103881431D01*
X101538960Y-103881431D02*
X101538960Y-113536994D01*
X101538960Y-113536994D02*
X97688960Y-113536994D01*
X55919686Y-94305446D02*
X60273814Y-94305446D01*
X55919686Y-97725446D02*
X60273814Y-97725446D01*
X63143703Y-57644319D02*
X63424863Y-57644319D01*
X63143703Y-58664319D02*
X63424863Y-58664319D01*
X34408886Y-63463847D02*
X35831390Y-63463847D01*
X34408886Y-66183847D02*
X35831390Y-66183847D01*
X65606545Y-72828008D02*
X65606545Y-111048008D01*
X65606545Y-72828008D02*
X68206545Y-72828008D01*
X65606545Y-111048008D02*
X70806545Y-111048008D01*
X68206545Y-72828008D02*
X68206545Y-75428008D01*
X68206545Y-75428008D02*
X70806545Y-75428008D01*
X69476545Y-72828008D02*
X70806545Y-72828008D01*
X70806545Y-72828008D02*
X70806545Y-74158008D01*
X70806545Y-75428008D02*
X70806545Y-111048008D01*
X76084652Y-30893827D02*
X76365812Y-30893827D01*
X76084652Y-31913827D02*
X76365812Y-31913827D01*
X72896079Y-68215395D02*
X72896079Y-66792891D01*
X75616079Y-68215395D02*
X75616079Y-66792891D01*
X30604702Y-109367921D02*
X35004702Y-109367921D01*
X30604702Y-113767921D02*
X30604702Y-109367921D01*
X35004702Y-109367921D02*
X35004702Y-113767921D01*
X35004702Y-113767921D02*
X30604702Y-113767921D01*
X90723475Y-85639562D02*
X90723475Y-84217058D01*
X93443475Y-85639562D02*
X93443475Y-84217058D01*
X100042383Y-47985112D02*
X100564887Y-47985112D01*
X100042383Y-49455112D02*
X100564887Y-49455112D01*
X61730854Y-32898492D02*
X63153358Y-32898492D01*
X61730854Y-35618492D02*
X63153358Y-35618492D01*
X44068099Y-67672147D02*
X47918099Y-67672147D01*
X44068099Y-77327710D02*
X44068099Y-67672147D01*
X45132536Y-78392147D02*
X44068099Y-77327710D01*
X45132536Y-78392147D02*
X47918099Y-78392147D01*
X46043099Y-79257147D02*
X47293099Y-79257147D01*
X46668099Y-79882147D02*
X46668099Y-78632147D01*
X53723662Y-78392147D02*
X50938099Y-78392147D01*
X53723662Y-78392147D02*
X54788099Y-77327710D01*
X54788099Y-67672147D02*
X50938099Y-67672147D01*
X54788099Y-77327710D02*
X54788099Y-67672147D01*
X73891065Y-62857562D02*
X74413569Y-62857562D01*
X73891065Y-64327562D02*
X74413569Y-64327562D01*
X74446268Y-36247001D02*
X74541268Y-36247001D01*
X74446268Y-40367001D02*
X74446268Y-36247001D01*
X74541268Y-40367001D02*
X74446268Y-40367001D01*
X79471268Y-36247001D02*
X79566268Y-36247001D01*
X79566268Y-36247001D02*
X79566268Y-40367001D01*
X79566268Y-40367001D02*
X79471268Y-40367001D01*
X74536268Y-40907001D02*
X74206268Y-41147001D01*
X74206268Y-40667001D01*
X74536268Y-40907001D01*
G36*
X74536268Y-40907001D02*
G01*
X74206268Y-41147001D01*
X74206268Y-40667001D01*
X74536268Y-40907001D01*
G37*
X59919718Y-91260338D02*
X59919718Y-88680338D01*
X60899718Y-88680338D02*
X59919718Y-88680338D01*
X63659718Y-88680338D02*
X64639718Y-88680338D01*
X64639718Y-88680338D02*
X64639718Y-91400338D01*
X60069718Y-91810338D02*
X59739718Y-92050338D01*
X59739718Y-91570338D01*
X60069718Y-91810338D01*
G36*
X60069718Y-91810338D02*
G01*
X59739718Y-92050338D01*
X59739718Y-91570338D01*
X60069718Y-91810338D01*
G37*
X76527148Y-43213518D02*
X77001664Y-43213518D01*
X76527148Y-44258518D02*
X77001664Y-44258518D01*
X33101512Y-68763689D02*
X33101512Y-68241185D01*
X34571512Y-68763689D02*
X34571512Y-68241185D01*
X60600781Y-104409961D02*
X60600781Y-108764089D01*
X64020781Y-104409961D02*
X64020781Y-108764089D01*
X92813843Y-62528373D02*
X92813843Y-63893373D01*
X92813843Y-63893373D02*
X94623843Y-63893373D01*
X103213843Y-62528373D02*
X103213843Y-63893373D01*
X103213843Y-63893373D02*
X101403843Y-63893373D01*
X94663843Y-66718373D02*
X94193843Y-67058373D01*
X94193843Y-66378373D01*
X94663843Y-66718373D01*
G36*
X94663843Y-66718373D02*
G01*
X94193843Y-67058373D01*
X94193843Y-66378373D01*
X94663843Y-66718373D01*
G37*
X37104702Y-109367921D02*
X41504702Y-109367921D01*
X37104702Y-113767921D02*
X37104702Y-109367921D01*
X41504702Y-109367921D02*
X41504702Y-113767921D01*
X41504702Y-113767921D02*
X37104702Y-113767921D01*
X71210889Y-84038686D02*
X72460889Y-84038686D01*
X71835889Y-83413686D02*
X71835889Y-84663686D01*
X72700889Y-82503123D02*
X72700889Y-85288686D01*
X72700889Y-82503123D02*
X73765326Y-81438686D01*
X72700889Y-91094249D02*
X72700889Y-88308686D01*
X72700889Y-91094249D02*
X73765326Y-92158686D01*
X73765326Y-81438686D02*
X83420889Y-81438686D01*
X73765326Y-92158686D02*
X83420889Y-92158686D01*
X83420889Y-81438686D02*
X83420889Y-85288686D01*
X83420889Y-92158686D02*
X83420889Y-88308686D01*
X101452081Y-88471674D02*
X101926597Y-88471674D01*
X101452081Y-89516674D02*
X101926597Y-89516674D01*
X80755934Y-68097159D02*
X84605934Y-68097159D01*
X80755934Y-77752722D02*
X80755934Y-68097159D01*
X81820371Y-78817159D02*
X80755934Y-77752722D01*
X81820371Y-78817159D02*
X84605934Y-78817159D01*
X82730934Y-79682159D02*
X83980934Y-79682159D01*
X83355934Y-80307159D02*
X83355934Y-79057159D01*
X90411497Y-78817159D02*
X87625934Y-78817159D01*
X90411497Y-78817159D02*
X91475934Y-77752722D01*
X91475934Y-68097159D02*
X87625934Y-68097159D01*
X91475934Y-77752722D02*
X91475934Y-68097159D01*
X92332470Y-42852763D02*
X92786598Y-42852763D01*
X92332470Y-44322763D02*
X92786598Y-44322763D01*
X59057008Y-60094877D02*
X59057008Y-63944877D01*
X59057008Y-70814877D02*
X59057008Y-66964877D01*
X68712571Y-60094877D02*
X59057008Y-60094877D01*
X68712571Y-70814877D02*
X59057008Y-70814877D01*
X69777008Y-61159314D02*
X68712571Y-60094877D01*
X69777008Y-61159314D02*
X69777008Y-63944877D01*
X69777008Y-69750440D02*
X68712571Y-70814877D01*
X69777008Y-69750440D02*
X69777008Y-66964877D01*
X70642008Y-68839877D02*
X70642008Y-67589877D01*
X71267008Y-68214877D02*
X70017008Y-68214877D01*
X47267814Y-96931118D02*
X47317814Y-96931118D01*
X47267814Y-98751118D02*
X47267814Y-96931118D01*
X47317814Y-98751118D02*
X47267814Y-98751118D01*
X48437814Y-96931118D02*
X49217814Y-96931118D01*
X50337814Y-96931118D02*
X50387814Y-96931118D01*
X50387814Y-96931118D02*
X50387814Y-98751118D01*
X50387814Y-98751118D02*
X50337814Y-98751118D01*
X47317814Y-99291118D02*
X46987814Y-99531118D01*
X46987814Y-99051118D01*
X47317814Y-99291118D01*
G36*
X47317814Y-99291118D02*
G01*
X46987814Y-99531118D01*
X46987814Y-99051118D01*
X47317814Y-99291118D01*
G37*
X74041205Y-60484764D02*
X74515721Y-60484764D01*
X74041205Y-61529764D02*
X74515721Y-61529764D01*
X47231308Y-101965712D02*
X47231308Y-101684552D01*
X48251308Y-101965712D02*
X48251308Y-101684552D01*
X99368283Y-43262072D02*
X100790787Y-43262072D01*
X99368283Y-45982072D02*
X100790787Y-45982072D01*
X43845322Y-82130166D02*
X43845322Y-91785729D01*
X43845322Y-91785729D02*
X47695322Y-91785729D01*
X44909759Y-81065729D02*
X43845322Y-82130166D01*
X44909759Y-81065729D02*
X47695322Y-81065729D01*
X51965322Y-79575729D02*
X51965322Y-80825729D01*
X52590322Y-80200729D02*
X51340322Y-80200729D01*
X53500885Y-81065729D02*
X50715322Y-81065729D01*
X53500885Y-81065729D02*
X54565322Y-82130166D01*
X54565322Y-82130166D02*
X54565322Y-91785729D01*
X54565322Y-91785729D02*
X50715322Y-91785729D01*
D14*
X33343023Y-30535081D02*
X55843023Y-30535081D01*
X33343023Y-43215081D02*
X33343023Y-30535081D01*
X33343023Y-49855081D02*
X33343023Y-62535081D01*
X33343023Y-62535081D02*
X55843023Y-62535081D01*
X55843023Y-62535081D02*
X55843023Y-30535081D01*
D15*
X61943023Y-57035081D02*
G75*
G02*
X61743023Y-57035081I-100000J0D01*
G01*
X61743023Y-57035081D02*
G75*
G02*
X61943023Y-57035081I100000J0D01*
G01*
D13*
X78566830Y-58436774D02*
X79816830Y-58436774D01*
X79191830Y-57811774D02*
X79191830Y-59061774D01*
X80056830Y-56901211D02*
X80056830Y-59686774D01*
X80056830Y-56901211D02*
X81121267Y-55836774D01*
X80056830Y-65492337D02*
X80056830Y-62706774D01*
X80056830Y-65492337D02*
X81121267Y-66556774D01*
X81121267Y-55836774D02*
X90776830Y-55836774D01*
X81121267Y-66556774D02*
X90776830Y-66556774D01*
X90776830Y-55836774D02*
X90776830Y-59686774D01*
X90776830Y-66556774D02*
X90776830Y-62706774D01*
X35914752Y-106032277D02*
X35914752Y-104609773D01*
X38634752Y-106032277D02*
X38634752Y-104609773D01*
X79470847Y-44661170D02*
X79470847Y-54316733D01*
X79470847Y-54316733D02*
X83320847Y-54316733D01*
X80535284Y-43596733D02*
X79470847Y-44661170D01*
X80535284Y-43596733D02*
X83320847Y-43596733D01*
X87590847Y-42106733D02*
X87590847Y-43356733D01*
X88215847Y-42731733D02*
X86965847Y-42731733D01*
X89126410Y-43596733D02*
X86340847Y-43596733D01*
X89126410Y-43596733D02*
X90190847Y-44661170D01*
X90190847Y-44661170D02*
X90190847Y-54316733D01*
X90190847Y-54316733D02*
X86340847Y-54316733D01*
X43199660Y-103702458D02*
X45779660Y-103702458D01*
X45779660Y-104682458D02*
X45779660Y-103702458D01*
X45779660Y-107442458D02*
X45779660Y-108422458D01*
X45779660Y-108422458D02*
X43059660Y-108422458D01*
X42649660Y-103852458D02*
X42409660Y-103522458D01*
X42889660Y-103522458D01*
X42649660Y-103852458D01*
G36*
X42649660Y-103852458D02*
G01*
X42409660Y-103522458D01*
X42889660Y-103522458D01*
X42649660Y-103852458D01*
G37*
X89113423Y-93069956D02*
X90363423Y-93069956D01*
X89738423Y-92444956D02*
X89738423Y-93694956D01*
X90603423Y-91534393D02*
X90603423Y-94319956D01*
X90603423Y-91534393D02*
X91667860Y-90469956D01*
X90603423Y-100125519D02*
X90603423Y-97339956D01*
X90603423Y-100125519D02*
X91667860Y-101189956D01*
X91667860Y-90469956D02*
X101323423Y-90469956D01*
X91667860Y-101189956D02*
X101323423Y-101189956D01*
X101323423Y-90469956D02*
X101323423Y-94319956D01*
X101323423Y-101189956D02*
X101323423Y-97339956D01*
X99539876Y-50501661D02*
X100062380Y-50501661D01*
X99539876Y-51971661D02*
X100062380Y-51971661D01*
X48716028Y-110734722D02*
X53116028Y-110734722D01*
X48716028Y-115134722D02*
X48716028Y-110734722D01*
X53116028Y-110734722D02*
X53116028Y-115134722D01*
X53116028Y-115134722D02*
X48716028Y-115134722D01*
X70412277Y-113837233D02*
X70412277Y-113556073D01*
X71432277Y-113837233D02*
X71432277Y-113556073D01*
X39484660Y-104823710D02*
X39484660Y-104301206D01*
X40954660Y-104823710D02*
X40954660Y-104301206D01*
X32363294Y-105525867D02*
X32363294Y-104103363D01*
X35083294Y-105525867D02*
X35083294Y-104103363D01*
X60374248Y-110984801D02*
X64774248Y-110984801D01*
X60374248Y-115384801D02*
X60374248Y-110984801D01*
X64774248Y-110984801D02*
X64774248Y-115384801D01*
X64774248Y-115384801D02*
X60374248Y-115384801D01*
X80451636Y-33832810D02*
X80451636Y-41897810D01*
X80451636Y-41897810D02*
X84971636Y-41897810D01*
X84971636Y-41897810D02*
X84971636Y-33832810D01*
X65290604Y-47791964D02*
X69140604Y-47791964D01*
X65290604Y-57447527D02*
X65290604Y-47791964D01*
X66355041Y-58511964D02*
X65290604Y-57447527D01*
X66355041Y-58511964D02*
X69140604Y-58511964D01*
X67265604Y-59376964D02*
X68515604Y-59376964D01*
X67890604Y-60001964D02*
X67890604Y-58751964D01*
X74946167Y-58511964D02*
X72160604Y-58511964D01*
X74946167Y-58511964D02*
X76010604Y-57447527D01*
X76010604Y-47791964D02*
X72160604Y-47791964D01*
X76010604Y-57447527D02*
X76010604Y-47791964D01*
X42216028Y-110734722D02*
X46616028Y-110734722D01*
X42216028Y-115134722D02*
X42216028Y-110734722D01*
X46616028Y-110734722D02*
X46616028Y-115134722D01*
X46616028Y-115134722D02*
X42216028Y-115134722D01*
X41594754Y-98437377D02*
X41644754Y-98437377D01*
X41594754Y-100257377D02*
X41594754Y-98437377D01*
X41644754Y-100257377D02*
X41594754Y-100257377D01*
X42764754Y-98437377D02*
X43544754Y-98437377D01*
X44664754Y-98437377D02*
X44714754Y-98437377D01*
X44714754Y-98437377D02*
X44714754Y-100257377D01*
X44714754Y-100257377D02*
X44664754Y-100257377D01*
X41644754Y-100797377D02*
X41314754Y-101037377D01*
X41314754Y-100557377D01*
X41644754Y-100797377D01*
G36*
X41644754Y-100797377D02*
G01*
X41314754Y-101037377D01*
X41314754Y-100557377D01*
X41644754Y-100797377D01*
G37*
X86620344Y-90816054D02*
X87094860Y-90816054D01*
X86620344Y-91861054D02*
X87094860Y-91861054D01*
X76874057Y-32901809D02*
X77155217Y-32901809D01*
X76874057Y-33921809D02*
X77155217Y-33921809D01*
X85637138Y-85742234D02*
X85637138Y-85288106D01*
X87107138Y-85742234D02*
X87107138Y-85288106D01*
X54537991Y-64553387D02*
X55012507Y-64553387D01*
X54537991Y-65598387D02*
X55012507Y-65598387D01*
X44089755Y-101970930D02*
X44370915Y-101970930D01*
X44089755Y-102990930D02*
X44370915Y-102990930D01*
X36763199Y-88970471D02*
X37237715Y-88970471D01*
X36763199Y-90015471D02*
X37237715Y-90015471D01*
X39502194Y-90911527D02*
X39502194Y-95265655D01*
X42922194Y-90911527D02*
X42922194Y-95265655D01*
X39835201Y-99086706D02*
X39835201Y-98805546D01*
X40855201Y-99086706D02*
X40855201Y-98805546D01*
X31605313Y-74682269D02*
X31605313Y-78532269D01*
X31605313Y-85402269D02*
X31605313Y-81552269D01*
X41260876Y-74682269D02*
X31605313Y-74682269D01*
X41260876Y-85402269D02*
X31605313Y-85402269D01*
X42325313Y-75746706D02*
X41260876Y-74682269D01*
X42325313Y-75746706D02*
X42325313Y-78532269D01*
X42325313Y-84337832D02*
X41260876Y-85402269D01*
X42325313Y-84337832D02*
X42325313Y-81552269D01*
X43190313Y-83427269D02*
X43190313Y-82177269D01*
X43815313Y-82802269D02*
X42565313Y-82802269D01*
X45508261Y-97580447D02*
X45508261Y-97299287D01*
X46528261Y-97580447D02*
X46528261Y-97299287D01*
X56328785Y-91697285D02*
X56328785Y-90274781D01*
X59048785Y-91697285D02*
X59048785Y-90274781D01*
X56798831Y-33694166D02*
X56798831Y-32271662D01*
X59518831Y-33694166D02*
X59518831Y-32271662D01*
X88175722Y-85849192D02*
X88175722Y-85326688D01*
X89645722Y-85849192D02*
X89645722Y-85326688D01*
X73509702Y-70485729D02*
X73984218Y-70485729D01*
X73509702Y-71530729D02*
X73984218Y-71530729D01*
X53874248Y-110984801D02*
X58274248Y-110984801D01*
X53874248Y-115384801D02*
X53874248Y-110984801D01*
X58274248Y-110984801D02*
X58274248Y-115384801D01*
X58274248Y-115384801D02*
X53874248Y-115384801D01*
X49248901Y-102081112D02*
X49248901Y-101606596D01*
X50293901Y-102081112D02*
X50293901Y-101606596D01*
%LPC*%
D16*
X85697697Y-97916578D03*
X77297697Y-97916578D03*
D17*
X54980781Y-101472025D03*
X54980781Y-99822025D03*
D18*
X75070812Y-75750733D03*
D19*
X72789162Y-114392844D03*
X72789162Y-112842844D03*
D20*
X66620097Y-112720415D03*
X66620097Y-113670415D03*
X66620097Y-114620415D03*
X68895097Y-114620415D03*
X68895097Y-112720415D03*
D21*
X62501675Y-31410641D03*
X64051675Y-31410641D03*
D22*
X48803072Y-107565336D03*
X48803072Y-104615336D03*
D23*
X98616207Y-83139330D03*
D24*
X98616207Y-83139330D03*
D25*
X96178960Y-103976994D03*
X96178960Y-112376994D03*
D26*
X55134250Y-96015446D03*
X61059250Y-96015446D03*
D21*
X62509283Y-58154319D03*
X64059283Y-58154319D03*
D27*
X33645138Y-64823847D03*
X36595138Y-64823847D03*
D28*
X69476545Y-74158008D03*
D29*
X66936545Y-74158008D03*
X69476545Y-76698008D03*
X66936545Y-76698008D03*
X69476545Y-79238008D03*
X66936545Y-79238008D03*
X69476545Y-81778008D03*
X66936545Y-81778008D03*
X69476545Y-84318008D03*
X66936545Y-84318008D03*
X69476545Y-86858008D03*
X66936545Y-86858008D03*
X69476545Y-89398008D03*
X66936545Y-89398008D03*
X69476545Y-91938008D03*
X66936545Y-91938008D03*
X69476545Y-94478008D03*
X66936545Y-94478008D03*
X69476545Y-97018008D03*
X66936545Y-97018008D03*
X69476545Y-99558008D03*
X66936545Y-99558008D03*
X69476545Y-102098008D03*
X66936545Y-102098008D03*
X69476545Y-104638008D03*
X66936545Y-104638008D03*
X69476545Y-107178008D03*
X66936545Y-107178008D03*
X69476545Y-109718008D03*
X66936545Y-109718008D03*
D21*
X75450232Y-31403827D03*
X77000232Y-31403827D03*
D22*
X74256079Y-68979143D03*
X74256079Y-66029143D03*
D18*
X85121167Y-109507071D03*
D30*
X32804702Y-111567921D03*
D22*
X92083475Y-86403310D03*
X92083475Y-83453310D03*
D31*
X99353635Y-48720112D03*
X101253635Y-48720112D03*
D27*
X60967106Y-34258492D03*
X63917106Y-34258492D03*
D32*
X49428099Y-77232147D03*
X49428099Y-68832147D03*
D33*
X67496815Y-45521104D03*
D34*
X71096815Y-43621104D03*
D35*
X67046815Y-41746104D03*
D36*
X66446815Y-39771104D03*
X66446815Y-38071104D03*
D35*
X67046815Y-36096104D03*
D34*
X71096815Y-34221104D03*
D33*
X67496815Y-32321104D03*
D31*
X73202317Y-63592562D03*
X75102317Y-63592562D03*
D37*
X75101268Y-40782001D03*
X76371268Y-40782001D03*
X77641268Y-40782001D03*
X78911268Y-40782001D03*
X78911268Y-35832001D03*
X77641268Y-35832001D03*
X76371268Y-35832001D03*
X75101268Y-35832001D03*
D38*
X60779718Y-91990338D03*
D39*
X62279718Y-91902838D03*
D38*
X63779718Y-91990338D03*
D40*
X75939406Y-43736018D03*
X77589406Y-43736018D03*
D41*
X33836512Y-69452437D03*
X33836512Y-67552437D03*
D42*
X62310781Y-103624525D03*
X62310781Y-109549525D03*
D43*
X95473843Y-66718373D03*
X98013843Y-66718373D03*
D44*
X98013843Y-57568373D03*
D43*
X100553843Y-66718373D03*
D30*
X39304702Y-111567921D03*
D45*
X73860889Y-86798686D03*
X82260889Y-86798686D03*
D40*
X100864339Y-88994174D03*
X102514339Y-88994174D03*
D32*
X86115934Y-77657159D03*
X86115934Y-69257159D03*
D46*
X91647034Y-43587763D03*
X93472034Y-43587763D03*
D16*
X68617008Y-65454877D03*
X60217008Y-65454877D03*
D47*
X47877814Y-98978618D03*
X48827814Y-98978618D03*
X49777814Y-98978618D03*
X49777814Y-96703618D03*
X47877814Y-96703618D03*
D40*
X73453463Y-61007264D03*
X75103463Y-61007264D03*
D19*
X47741308Y-102600132D03*
X47741308Y-101050132D03*
D27*
X98604535Y-44622072D03*
X101554535Y-44622072D03*
D25*
X49205322Y-82225729D03*
X49205322Y-90625729D03*
D48*
X61843023Y-52535081D03*
X61843023Y-40535081D03*
D49*
X34093023Y-46535081D03*
D45*
X81216830Y-61196774D03*
X89616830Y-61196774D03*
D22*
X37274752Y-106796025D03*
X37274752Y-103846025D03*
D25*
X84830847Y-44756733D03*
X84830847Y-53156733D03*
D50*
X42469660Y-104562458D03*
D51*
X42557160Y-106062458D03*
D50*
X42469660Y-107562458D03*
D45*
X91763423Y-95829956D03*
X100163423Y-95829956D03*
D31*
X98851128Y-51236661D03*
X100751128Y-51236661D03*
D30*
X50916028Y-112934722D03*
D19*
X70922277Y-114471653D03*
X70922277Y-112921653D03*
D41*
X40219660Y-105512458D03*
X40219660Y-103612458D03*
D22*
X33723294Y-106289615D03*
X33723294Y-103339615D03*
D30*
X62574248Y-113184801D03*
D52*
X82711636Y-40602810D03*
X82711636Y-34362810D03*
D32*
X70650604Y-57351964D03*
X70650604Y-48951964D03*
D30*
X44416028Y-112934722D03*
D47*
X42204754Y-100484877D03*
X43154754Y-100484877D03*
X44104754Y-100484877D03*
X44104754Y-98209877D03*
X42204754Y-98209877D03*
D40*
X86032602Y-91338554D03*
X87682602Y-91338554D03*
D21*
X76239637Y-33411809D03*
X77789637Y-33411809D03*
D53*
X86372138Y-86427670D03*
X86372138Y-84602670D03*
D40*
X53950249Y-65075887D03*
X55600249Y-65075887D03*
D21*
X43455335Y-102480930D03*
X45005335Y-102480930D03*
D40*
X36175457Y-89492971D03*
X37825457Y-89492971D03*
D42*
X41212194Y-90126091D03*
X41212194Y-96051091D03*
D18*
X60675290Y-76513695D03*
X54456685Y-106463745D03*
D23*
X98503483Y-73932817D03*
D24*
X98503483Y-73932817D03*
D19*
X40345201Y-99721126D03*
X40345201Y-98171126D03*
D16*
X41165313Y-80042269D03*
X32765313Y-80042269D03*
D19*
X46018261Y-98214867D03*
X46018261Y-96664867D03*
D22*
X57688785Y-92461033D03*
X57688785Y-89511033D03*
X58158831Y-34457914D03*
X58158831Y-31507914D03*
D41*
X88910722Y-86537940D03*
X88910722Y-84637940D03*
D40*
X72921960Y-71008229D03*
X74571960Y-71008229D03*
D30*
X56074248Y-113184801D03*
D17*
X49771401Y-102668854D03*
X49771401Y-101018854D03*
D54*
X35496750Y-98555446D03*
D55*
X52156750Y-101095446D03*
D56*
X52156750Y-98555446D03*
X52156750Y-96015446D03*
D55*
X77466066Y-56835731D03*
D56*
X77466066Y-59375731D03*
X77466066Y-61915731D03*
D54*
X94525392Y-48520530D03*
D55*
X77865392Y-45980530D03*
D56*
X77865392Y-48520530D03*
X77865392Y-51060530D03*
D55*
X77466066Y-69535731D03*
D56*
X77466066Y-66995731D03*
X77466066Y-64455731D03*
D57*
X39075249Y-65075887D03*
D58*
X41615249Y-65075887D03*
X44155249Y-65075887D03*
D57*
X85989339Y-88994174D03*
D58*
X88529339Y-88994174D03*
X91069339Y-88994174D03*
D54*
X59770781Y-83987025D03*
D57*
X57230781Y-100647025D03*
D58*
X59770781Y-100647025D03*
X62310781Y-100647025D03*
D54*
X38672194Y-70488591D03*
D57*
X36132194Y-87148591D03*
D58*
X38672194Y-87148591D03*
X41212194Y-87148591D03*
D57*
X98689339Y-88994174D03*
D58*
X96149339Y-88994174D03*
X93609339Y-88994174D03*
D57*
X51775249Y-65075887D03*
D58*
X49235249Y-65075887D03*
X46695249Y-65075887D03*
%LPD*%
M02*
