G04 #@! TF.GenerationSoftware,KiCad,Pcbnew,10.0.0*
G04 #@! TF.CreationDate,2026-09-24T18:08:18-07:00*
G04 #@! TF.ProjectId,BOOST_power_RC1,424f4f53-545f-4706-9f77-65725f524331,rev?*
G04 #@! TF.SameCoordinates,Original*
G04 #@! TF.FileFunction,Legend,Bot*
G04 #@! TF.FilePolarity,Positive*
%FSLAX46Y46*%
G04 Gerber Fmt 4.6, Leading zero omitted, Abs format (unit mm)*
G04 Created by KiCad (PCBNEW 10.0.0) date 2026-09-24 18:08:18*
%MOMM*%
%LPD*%
G01*
G04 APERTURE LIST*
G04 Aperture macros list*
%AMRoundRect*
0 Rectangle with rounded corners*
0 $1 Rounding radius*
0 $2 $3 $4 $5 $6 $7 $8 $9 X,Y pos of 4 corners*
0 Add a 4 corners polygon primitive as box body*
4,1,4,$2,$3,$4,$5,$6,$7,$8,$9,$2,$3,0*
0 Add four circle primitives for the rounded corners*
1,1,$1+$1,$2,$3*
1,1,$1+$1,$4,$5*
1,1,$1+$1,$6,$7*
1,1,$1+$1,$8,$9*
0 Add four rect primitives between the rounded corners*
20,1,$1+$1,$2,$3,$4,$5,0*
20,1,$1+$1,$4,$5,$6,$7,0*
20,1,$1+$1,$6,$7,$8,$9,0*
20,1,$1+$1,$8,$9,$2,$3,0*%
G04 Aperture macros list end*
%ADD10C,0.150000*%
%ADD11C,0.120000*%
%ADD12C,3.200000*%
%ADD13C,4.700000*%
%ADD14C,7.000000*%
%ADD15R,1.700000X1.700000*%
%ADD16C,1.700000*%
%ADD17R,4.000000X4.000000*%
%ADD18RoundRect,0.250000X0.450000X-0.262500X0.450000X0.262500X-0.450000X0.262500X-0.450000X-0.262500X0*%
%ADD19RoundRect,0.225000X-0.225000X-0.375000X0.225000X-0.375000X0.225000X0.375000X-0.225000X0.375000X0*%
%ADD20RoundRect,0.250000X-0.325000X-0.650000X0.325000X-0.650000X0.325000X0.650000X-0.325000X0.650000X0*%
%ADD21RoundRect,0.150000X-0.150000X0.875000X-0.150000X-0.875000X0.150000X-0.875000X0.150000X0.875000X0*%
%ADD22RoundRect,0.200000X0.275000X-0.200000X0.275000X0.200000X-0.275000X0.200000X-0.275000X-0.200000X0*%
%ADD23RoundRect,0.250000X-0.262500X-0.450000X0.262500X-0.450000X0.262500X0.450000X-0.262500X0.450000X0*%
%ADD24RoundRect,0.225000X0.375000X-0.225000X0.375000X0.225000X-0.375000X0.225000X-0.375000X-0.225000X0*%
%ADD25RoundRect,0.250000X0.475000X-0.250000X0.475000X0.250000X-0.475000X0.250000X-0.475000X-0.250000X0*%
%ADD26C,2.900000*%
%ADD27R,2.000000X1.905000*%
%ADD28O,2.000000X1.905000*%
%ADD29RoundRect,0.150000X0.150000X-0.875000X0.150000X0.875000X-0.150000X0.875000X-0.150000X-0.875000X0*%
%ADD30RoundRect,0.200000X-0.200000X-0.275000X0.200000X-0.275000X0.200000X0.275000X-0.200000X0.275000X0*%
%ADD31RoundRect,0.225000X0.250000X-0.225000X0.250000X0.225000X-0.250000X0.225000X-0.250000X-0.225000X0*%
%ADD32RoundRect,0.150000X-0.875000X-0.150000X0.875000X-0.150000X0.875000X0.150000X-0.875000X0.150000X0*%
%ADD33RoundRect,0.225000X0.225000X0.250000X-0.225000X0.250000X-0.225000X-0.250000X0.225000X-0.250000X0*%
%ADD34R,1.905000X2.000000*%
%ADD35O,1.905000X2.000000*%
%ADD36RoundRect,0.250000X1.400000X1.000000X-1.400000X1.000000X-1.400000X-1.000000X1.400000X-1.000000X0*%
%ADD37RoundRect,0.250000X-0.250000X-0.475000X0.250000X-0.475000X0.250000X0.475000X-0.250000X0.475000X0*%
%ADD38RoundRect,0.250000X0.325000X0.650000X-0.325000X0.650000X-0.325000X-0.650000X0.325000X-0.650000X0*%
%ADD39RoundRect,0.225000X-0.225000X-0.250000X0.225000X-0.250000X0.225000X0.250000X-0.225000X0.250000X0*%
%ADD40RoundRect,0.250000X0.650000X-0.325000X0.650000X0.325000X-0.650000X0.325000X-0.650000X-0.325000X0*%
G04 APERTURE END LIST*
D10*
X35870289Y-88451029D02*
X35965527Y-88403410D01*
X35965527Y-88403410D02*
X36108384Y-88403410D01*
X36108384Y-88403410D02*
X36251241Y-88451029D01*
X36251241Y-88451029D02*
X36346479Y-88546267D01*
X36346479Y-88546267D02*
X36394098Y-88641505D01*
X36394098Y-88641505D02*
X36441717Y-88831981D01*
X36441717Y-88831981D02*
X36441717Y-88974838D01*
X36441717Y-88974838D02*
X36394098Y-89165314D01*
X36394098Y-89165314D02*
X36346479Y-89260552D01*
X36346479Y-89260552D02*
X36251241Y-89355791D01*
X36251241Y-89355791D02*
X36108384Y-89403410D01*
X36108384Y-89403410D02*
X36013146Y-89403410D01*
X36013146Y-89403410D02*
X35870289Y-89355791D01*
X35870289Y-89355791D02*
X35822670Y-89308171D01*
X35822670Y-89308171D02*
X35822670Y-88974838D01*
X35822670Y-88974838D02*
X36013146Y-88974838D01*
X42486479Y-68333410D02*
X41915051Y-68333410D01*
X42200765Y-69333410D02*
X42200765Y-68333410D01*
X41629336Y-69047695D02*
X41153146Y-69047695D01*
X41724574Y-69333410D02*
X41391241Y-68333410D01*
X41391241Y-68333410D02*
X41057908Y-69333410D01*
X40391241Y-68809600D02*
X40248384Y-68857219D01*
X40248384Y-68857219D02*
X40200765Y-68904838D01*
X40200765Y-68904838D02*
X40153146Y-69000076D01*
X40153146Y-69000076D02*
X40153146Y-69142933D01*
X40153146Y-69142933D02*
X40200765Y-69238171D01*
X40200765Y-69238171D02*
X40248384Y-69285791D01*
X40248384Y-69285791D02*
X40343622Y-69333410D01*
X40343622Y-69333410D02*
X40724574Y-69333410D01*
X40724574Y-69333410D02*
X40724574Y-68333410D01*
X40724574Y-68333410D02*
X40391241Y-68333410D01*
X40391241Y-68333410D02*
X40296003Y-68381029D01*
X40296003Y-68381029D02*
X40248384Y-68428648D01*
X40248384Y-68428648D02*
X40200765Y-68523886D01*
X40200765Y-68523886D02*
X40200765Y-68619124D01*
X40200765Y-68619124D02*
X40248384Y-68714362D01*
X40248384Y-68714362D02*
X40296003Y-68761981D01*
X40296003Y-68761981D02*
X40391241Y-68809600D01*
X40391241Y-68809600D02*
X40724574Y-68809600D01*
X42829534Y-46260706D02*
X42258106Y-46260706D01*
X42543820Y-47260706D02*
X42543820Y-46260706D01*
X41972391Y-46974991D02*
X41496201Y-46974991D01*
X42067629Y-47260706D02*
X41734296Y-46260706D01*
X41734296Y-46260706D02*
X41400963Y-47260706D01*
X40734296Y-46736896D02*
X40591439Y-46784515D01*
X40591439Y-46784515D02*
X40543820Y-46832134D01*
X40543820Y-46832134D02*
X40496201Y-46927372D01*
X40496201Y-46927372D02*
X40496201Y-47070229D01*
X40496201Y-47070229D02*
X40543820Y-47165467D01*
X40543820Y-47165467D02*
X40591439Y-47213087D01*
X40591439Y-47213087D02*
X40686677Y-47260706D01*
X40686677Y-47260706D02*
X41067629Y-47260706D01*
X41067629Y-47260706D02*
X41067629Y-46260706D01*
X41067629Y-46260706D02*
X40734296Y-46260706D01*
X40734296Y-46260706D02*
X40639058Y-46308325D01*
X40639058Y-46308325D02*
X40591439Y-46355944D01*
X40591439Y-46355944D02*
X40543820Y-46451182D01*
X40543820Y-46451182D02*
X40543820Y-46546420D01*
X40543820Y-46546420D02*
X40591439Y-46641658D01*
X40591439Y-46641658D02*
X40639058Y-46689277D01*
X40639058Y-46689277D02*
X40734296Y-46736896D01*
X40734296Y-46736896D02*
X41067629Y-46736896D01*
X50449534Y-82800706D02*
X49878106Y-82800706D01*
X50163820Y-83800706D02*
X50163820Y-82800706D01*
X49592391Y-83514991D02*
X49116201Y-83514991D01*
X49687629Y-83800706D02*
X49354296Y-82800706D01*
X49354296Y-82800706D02*
X49020963Y-83800706D01*
X48354296Y-83276896D02*
X48211439Y-83324515D01*
X48211439Y-83324515D02*
X48163820Y-83372134D01*
X48163820Y-83372134D02*
X48116201Y-83467372D01*
X48116201Y-83467372D02*
X48116201Y-83610229D01*
X48116201Y-83610229D02*
X48163820Y-83705467D01*
X48163820Y-83705467D02*
X48211439Y-83753087D01*
X48211439Y-83753087D02*
X48306677Y-83800706D01*
X48306677Y-83800706D02*
X48687629Y-83800706D01*
X48687629Y-83800706D02*
X48687629Y-82800706D01*
X48687629Y-82800706D02*
X48354296Y-82800706D01*
X48354296Y-82800706D02*
X48259058Y-82848325D01*
X48259058Y-82848325D02*
X48211439Y-82895944D01*
X48211439Y-82895944D02*
X48163820Y-82991182D01*
X48163820Y-82991182D02*
X48163820Y-83086420D01*
X48163820Y-83086420D02*
X48211439Y-83181658D01*
X48211439Y-83181658D02*
X48259058Y-83229277D01*
X48259058Y-83229277D02*
X48354296Y-83276896D01*
X48354296Y-83276896D02*
X48687629Y-83276896D01*
X63585066Y-81831844D02*
X63013638Y-81831844D01*
X63299352Y-82831844D02*
X63299352Y-81831844D01*
X62727923Y-82546129D02*
X62251733Y-82546129D01*
X62823161Y-82831844D02*
X62489828Y-81831844D01*
X62489828Y-81831844D02*
X62156495Y-82831844D01*
X61489828Y-82308034D02*
X61346971Y-82355653D01*
X61346971Y-82355653D02*
X61299352Y-82403272D01*
X61299352Y-82403272D02*
X61251733Y-82498510D01*
X61251733Y-82498510D02*
X61251733Y-82641367D01*
X61251733Y-82641367D02*
X61299352Y-82736605D01*
X61299352Y-82736605D02*
X61346971Y-82784225D01*
X61346971Y-82784225D02*
X61442209Y-82831844D01*
X61442209Y-82831844D02*
X61823161Y-82831844D01*
X61823161Y-82831844D02*
X61823161Y-81831844D01*
X61823161Y-81831844D02*
X61489828Y-81831844D01*
X61489828Y-81831844D02*
X61394590Y-81879463D01*
X61394590Y-81879463D02*
X61346971Y-81927082D01*
X61346971Y-81927082D02*
X61299352Y-82022320D01*
X61299352Y-82022320D02*
X61299352Y-82117558D01*
X61299352Y-82117558D02*
X61346971Y-82212796D01*
X61346971Y-82212796D02*
X61394590Y-82260415D01*
X61394590Y-82260415D02*
X61489828Y-82308034D01*
X61489828Y-82308034D02*
X61823161Y-82308034D01*
X85727434Y-90296612D02*
X85822672Y-90248993D01*
X85822672Y-90248993D02*
X85965529Y-90248993D01*
X85965529Y-90248993D02*
X86108386Y-90296612D01*
X86108386Y-90296612D02*
X86203624Y-90391850D01*
X86203624Y-90391850D02*
X86251243Y-90487088D01*
X86251243Y-90487088D02*
X86298862Y-90677564D01*
X86298862Y-90677564D02*
X86298862Y-90820421D01*
X86298862Y-90820421D02*
X86251243Y-91010897D01*
X86251243Y-91010897D02*
X86203624Y-91106135D01*
X86203624Y-91106135D02*
X86108386Y-91201374D01*
X86108386Y-91201374D02*
X85965529Y-91248993D01*
X85965529Y-91248993D02*
X85870291Y-91248993D01*
X85870291Y-91248993D02*
X85727434Y-91201374D01*
X85727434Y-91201374D02*
X85679815Y-91153754D01*
X85679815Y-91153754D02*
X85679815Y-90820421D01*
X85679815Y-90820421D02*
X85870291Y-90820421D01*
X89743624Y-70178992D02*
X89172196Y-70178992D01*
X89457910Y-71178992D02*
X89457910Y-70178992D01*
X88886481Y-70893277D02*
X88410291Y-70893277D01*
X88981719Y-71178992D02*
X88648386Y-70178992D01*
X88648386Y-70178992D02*
X88315053Y-71178992D01*
X87648386Y-70655182D02*
X87505529Y-70702801D01*
X87505529Y-70702801D02*
X87457910Y-70750420D01*
X87457910Y-70750420D02*
X87410291Y-70845658D01*
X87410291Y-70845658D02*
X87410291Y-70988515D01*
X87410291Y-70988515D02*
X87457910Y-71083753D01*
X87457910Y-71083753D02*
X87505529Y-71131373D01*
X87505529Y-71131373D02*
X87600767Y-71178992D01*
X87600767Y-71178992D02*
X87981719Y-71178992D01*
X87981719Y-71178992D02*
X87981719Y-70178992D01*
X87981719Y-70178992D02*
X87648386Y-70178992D01*
X87648386Y-70178992D02*
X87553148Y-70226611D01*
X87553148Y-70226611D02*
X87505529Y-70274230D01*
X87505529Y-70274230D02*
X87457910Y-70369468D01*
X87457910Y-70369468D02*
X87457910Y-70464706D01*
X87457910Y-70464706D02*
X87505529Y-70559944D01*
X87505529Y-70559944D02*
X87553148Y-70607563D01*
X87553148Y-70607563D02*
X87648386Y-70655182D01*
X87648386Y-70655182D02*
X87981719Y-70655182D01*
X97363624Y-106718993D02*
X96792196Y-106718993D01*
X97077910Y-107718993D02*
X97077910Y-106718993D01*
X96506481Y-107433278D02*
X96030291Y-107433278D01*
X96601719Y-107718993D02*
X96268386Y-106718993D01*
X96268386Y-106718993D02*
X95935053Y-107718993D01*
X95268386Y-107195183D02*
X95125529Y-107242802D01*
X95125529Y-107242802D02*
X95077910Y-107290421D01*
X95077910Y-107290421D02*
X95030291Y-107385659D01*
X95030291Y-107385659D02*
X95030291Y-107528516D01*
X95030291Y-107528516D02*
X95077910Y-107623754D01*
X95077910Y-107623754D02*
X95125529Y-107671374D01*
X95125529Y-107671374D02*
X95220767Y-107718993D01*
X95220767Y-107718993D02*
X95601719Y-107718993D01*
X95601719Y-107718993D02*
X95601719Y-106718993D01*
X95601719Y-106718993D02*
X95268386Y-106718993D01*
X95268386Y-106718993D02*
X95173148Y-106766612D01*
X95173148Y-106766612D02*
X95125529Y-106814231D01*
X95125529Y-106814231D02*
X95077910Y-106909469D01*
X95077910Y-106909469D02*
X95077910Y-107004707D01*
X95077910Y-107004707D02*
X95125529Y-107099945D01*
X95125529Y-107099945D02*
X95173148Y-107147564D01*
X95173148Y-107147564D02*
X95268386Y-107195183D01*
X95268386Y-107195183D02*
X95601719Y-107195183D01*
X33341569Y-94741160D02*
X33341569Y-95312588D01*
X34341569Y-95026874D02*
X33341569Y-95026874D01*
X34055854Y-95598303D02*
X34055854Y-96074493D01*
X34341569Y-95503065D02*
X33341569Y-95836398D01*
X33341569Y-95836398D02*
X34341569Y-96169731D01*
X33817759Y-96836398D02*
X33865378Y-96979255D01*
X33865378Y-96979255D02*
X33912997Y-97026874D01*
X33912997Y-97026874D02*
X34008235Y-97074493D01*
X34008235Y-97074493D02*
X34151092Y-97074493D01*
X34151092Y-97074493D02*
X34246330Y-97026874D01*
X34246330Y-97026874D02*
X34293950Y-96979255D01*
X34293950Y-96979255D02*
X34341569Y-96884017D01*
X34341569Y-96884017D02*
X34341569Y-96503065D01*
X34341569Y-96503065D02*
X33341569Y-96503065D01*
X33341569Y-96503065D02*
X33341569Y-96836398D01*
X33341569Y-96836398D02*
X33389188Y-96931636D01*
X33389188Y-96931636D02*
X33436807Y-96979255D01*
X33436807Y-96979255D02*
X33532045Y-97026874D01*
X33532045Y-97026874D02*
X33627283Y-97026874D01*
X33627283Y-97026874D02*
X33722521Y-96979255D01*
X33722521Y-96979255D02*
X33770140Y-96931636D01*
X33770140Y-96931636D02*
X33817759Y-96836398D01*
X33817759Y-96836398D02*
X33817759Y-96503065D01*
X58650885Y-65781445D02*
X58650885Y-66352873D01*
X59650885Y-66067159D02*
X58650885Y-66067159D01*
X59365170Y-66638588D02*
X59365170Y-67114778D01*
X59650885Y-66543350D02*
X58650885Y-66876683D01*
X58650885Y-66876683D02*
X59650885Y-67210016D01*
X59127075Y-67876683D02*
X59174694Y-68019540D01*
X59174694Y-68019540D02*
X59222313Y-68067159D01*
X59222313Y-68067159D02*
X59317551Y-68114778D01*
X59317551Y-68114778D02*
X59460408Y-68114778D01*
X59460408Y-68114778D02*
X59555646Y-68067159D01*
X59555646Y-68067159D02*
X59603266Y-68019540D01*
X59603266Y-68019540D02*
X59650885Y-67924302D01*
X59650885Y-67924302D02*
X59650885Y-67543350D01*
X59650885Y-67543350D02*
X58650885Y-67543350D01*
X58650885Y-67543350D02*
X58650885Y-67876683D01*
X58650885Y-67876683D02*
X58698504Y-67971921D01*
X58698504Y-67971921D02*
X58746123Y-68019540D01*
X58746123Y-68019540D02*
X58841361Y-68067159D01*
X58841361Y-68067159D02*
X58936599Y-68067159D01*
X58936599Y-68067159D02*
X59031837Y-68019540D01*
X59031837Y-68019540D02*
X59079456Y-67971921D01*
X59079456Y-67971921D02*
X59127075Y-67876683D01*
X59127075Y-67876683D02*
X59127075Y-67543350D01*
X95190885Y-58161445D02*
X95190885Y-58732873D01*
X96190885Y-58447159D02*
X95190885Y-58447159D01*
X95905170Y-59018588D02*
X95905170Y-59494778D01*
X96190885Y-58923350D02*
X95190885Y-59256683D01*
X95190885Y-59256683D02*
X96190885Y-59590016D01*
X95667075Y-60256683D02*
X95714694Y-60399540D01*
X95714694Y-60399540D02*
X95762313Y-60447159D01*
X95762313Y-60447159D02*
X95857551Y-60494778D01*
X95857551Y-60494778D02*
X96000408Y-60494778D01*
X96000408Y-60494778D02*
X96095646Y-60447159D01*
X96095646Y-60447159D02*
X96143266Y-60399540D01*
X96143266Y-60399540D02*
X96190885Y-60304302D01*
X96190885Y-60304302D02*
X96190885Y-59923350D01*
X96190885Y-59923350D02*
X95190885Y-59923350D01*
X95190885Y-59923350D02*
X95190885Y-60256683D01*
X95190885Y-60256683D02*
X95238504Y-60351921D01*
X95238504Y-60351921D02*
X95286123Y-60399540D01*
X95286123Y-60399540D02*
X95381361Y-60447159D01*
X95381361Y-60447159D02*
X95476599Y-60447159D01*
X95476599Y-60447159D02*
X95571837Y-60399540D01*
X95571837Y-60399540D02*
X95619456Y-60351921D01*
X95619456Y-60351921D02*
X95667075Y-60256683D01*
X95667075Y-60256683D02*
X95667075Y-59923350D01*
X95590211Y-44706244D02*
X95590211Y-45277672D01*
X96590211Y-44991958D02*
X95590211Y-44991958D01*
X96304496Y-45563387D02*
X96304496Y-46039577D01*
X96590211Y-45468149D02*
X95590211Y-45801482D01*
X95590211Y-45801482D02*
X96590211Y-46134815D01*
X96066401Y-46801482D02*
X96114020Y-46944339D01*
X96114020Y-46944339D02*
X96161639Y-46991958D01*
X96161639Y-46991958D02*
X96256877Y-47039577D01*
X96256877Y-47039577D02*
X96399734Y-47039577D01*
X96399734Y-47039577D02*
X96494972Y-46991958D01*
X96494972Y-46991958D02*
X96542592Y-46944339D01*
X96542592Y-46944339D02*
X96590211Y-46849101D01*
X96590211Y-46849101D02*
X96590211Y-46468149D01*
X96590211Y-46468149D02*
X95590211Y-46468149D01*
X95590211Y-46468149D02*
X95590211Y-46801482D01*
X95590211Y-46801482D02*
X95637830Y-46896720D01*
X95637830Y-46896720D02*
X95685449Y-46944339D01*
X95685449Y-46944339D02*
X95780687Y-46991958D01*
X95780687Y-46991958D02*
X95875925Y-46991958D01*
X95875925Y-46991958D02*
X95971163Y-46944339D01*
X95971163Y-46944339D02*
X96018782Y-46896720D01*
X96018782Y-46896720D02*
X96066401Y-46801482D01*
X96066401Y-46801482D02*
X96066401Y-46468149D01*
X54561569Y-97269732D02*
X53561569Y-97269732D01*
X53561569Y-97269732D02*
X54275854Y-97603065D01*
X54275854Y-97603065D02*
X53561569Y-97936398D01*
X53561569Y-97936398D02*
X54561569Y-97936398D01*
X54561569Y-98936398D02*
X54561569Y-98364970D01*
X54561569Y-98650684D02*
X53561569Y-98650684D01*
X53561569Y-98650684D02*
X53704426Y-98555446D01*
X53704426Y-98555446D02*
X53799664Y-98460208D01*
X53799664Y-98460208D02*
X53847283Y-98364970D01*
X53561569Y-99555446D02*
X53561569Y-99650684D01*
X53561569Y-99650684D02*
X53609188Y-99745922D01*
X53609188Y-99745922D02*
X53656807Y-99793541D01*
X53656807Y-99793541D02*
X53752045Y-99841160D01*
X53752045Y-99841160D02*
X53942521Y-99888779D01*
X53942521Y-99888779D02*
X54180616Y-99888779D01*
X54180616Y-99888779D02*
X54371092Y-99841160D01*
X54371092Y-99841160D02*
X54466330Y-99793541D01*
X54466330Y-99793541D02*
X54513950Y-99745922D01*
X54513950Y-99745922D02*
X54561569Y-99650684D01*
X54561569Y-99650684D02*
X54561569Y-99555446D01*
X54561569Y-99555446D02*
X54513950Y-99460208D01*
X54513950Y-99460208D02*
X54466330Y-99412589D01*
X54466330Y-99412589D02*
X54371092Y-99364970D01*
X54371092Y-99364970D02*
X54180616Y-99317351D01*
X54180616Y-99317351D02*
X53942521Y-99317351D01*
X53942521Y-99317351D02*
X53752045Y-99364970D01*
X53752045Y-99364970D02*
X53656807Y-99412589D01*
X53656807Y-99412589D02*
X53609188Y-99460208D01*
X53609188Y-99460208D02*
X53561569Y-99555446D01*
X84874339Y-65825550D02*
X84874339Y-64825550D01*
X84874339Y-64825550D02*
X84541006Y-65539835D01*
X84541006Y-65539835D02*
X84207673Y-64825550D01*
X84207673Y-64825550D02*
X84207673Y-65825550D01*
X83826720Y-64825550D02*
X83160054Y-64825550D01*
X83160054Y-64825550D02*
X83588625Y-65825550D01*
X85273665Y-42980349D02*
X85273665Y-41980349D01*
X85273665Y-41980349D02*
X84940332Y-42694634D01*
X84940332Y-42694634D02*
X84606999Y-41980349D01*
X84606999Y-41980349D02*
X84606999Y-42980349D01*
X83606999Y-42980349D02*
X84178427Y-42980349D01*
X83892713Y-42980349D02*
X83892713Y-41980349D01*
X83892713Y-41980349D02*
X83987951Y-42123206D01*
X83987951Y-42123206D02*
X84083189Y-42218444D01*
X84083189Y-42218444D02*
X84178427Y-42266063D01*
X69045589Y-61455549D02*
X69045589Y-60455549D01*
X69045589Y-60455549D02*
X68712256Y-61169834D01*
X68712256Y-61169834D02*
X68378923Y-60455549D01*
X68378923Y-60455549D02*
X68378923Y-61455549D01*
X67950351Y-60550787D02*
X67902732Y-60503168D01*
X67902732Y-60503168D02*
X67807494Y-60455549D01*
X67807494Y-60455549D02*
X67569399Y-60455549D01*
X67569399Y-60455549D02*
X67474161Y-60503168D01*
X67474161Y-60503168D02*
X67426542Y-60550787D01*
X67426542Y-60550787D02*
X67378923Y-60646025D01*
X67378923Y-60646025D02*
X67378923Y-60741263D01*
X67378923Y-60741263D02*
X67426542Y-60884120D01*
X67426542Y-60884120D02*
X67997970Y-61455549D01*
X67997970Y-61455549D02*
X67378923Y-61455549D01*
X36075067Y-55036363D02*
X35075067Y-55036363D01*
X35075067Y-55036363D02*
X35789352Y-55369696D01*
X35789352Y-55369696D02*
X35075067Y-55703029D01*
X35075067Y-55703029D02*
X36075067Y-55703029D01*
X35075067Y-56083982D02*
X35075067Y-56703029D01*
X35075067Y-56703029D02*
X35456019Y-56369696D01*
X35456019Y-56369696D02*
X35456019Y-56512553D01*
X35456019Y-56512553D02*
X35503638Y-56607791D01*
X35503638Y-56607791D02*
X35551257Y-56655410D01*
X35551257Y-56655410D02*
X35646495Y-56703029D01*
X35646495Y-56703029D02*
X35884590Y-56703029D01*
X35884590Y-56703029D02*
X35979828Y-56655410D01*
X35979828Y-56655410D02*
X36027448Y-56607791D01*
X36027448Y-56607791D02*
X36075067Y-56512553D01*
X36075067Y-56512553D02*
X36075067Y-56226839D01*
X36075067Y-56226839D02*
X36027448Y-56131601D01*
X36027448Y-56131601D02*
X35979828Y-56083982D01*
X94979158Y-78954650D02*
X93979158Y-78954650D01*
X93979158Y-78954650D02*
X94693443Y-79287983D01*
X94693443Y-79287983D02*
X93979158Y-79621316D01*
X93979158Y-79621316D02*
X94979158Y-79621316D01*
X93979158Y-80573697D02*
X93979158Y-80097507D01*
X93979158Y-80097507D02*
X94455348Y-80049888D01*
X94455348Y-80049888D02*
X94407729Y-80097507D01*
X94407729Y-80097507D02*
X94360110Y-80192745D01*
X94360110Y-80192745D02*
X94360110Y-80430840D01*
X94360110Y-80430840D02*
X94407729Y-80526078D01*
X94407729Y-80526078D02*
X94455348Y-80573697D01*
X94455348Y-80573697D02*
X94550586Y-80621316D01*
X94550586Y-80621316D02*
X94788681Y-80621316D01*
X94788681Y-80621316D02*
X94883919Y-80573697D01*
X94883919Y-80573697D02*
X94931539Y-80526078D01*
X94931539Y-80526078D02*
X94979158Y-80430840D01*
X94979158Y-80430840D02*
X94979158Y-80192745D01*
X94979158Y-80192745D02*
X94931539Y-80097507D01*
X94931539Y-80097507D02*
X94883919Y-80049888D01*
X60580304Y-103051844D02*
X60580304Y-102051844D01*
X60580304Y-102051844D02*
X60246971Y-102766129D01*
X60246971Y-102766129D02*
X59913638Y-102051844D01*
X59913638Y-102051844D02*
X59913638Y-103051844D01*
X59294590Y-102480415D02*
X59389828Y-102432796D01*
X59389828Y-102432796D02*
X59437447Y-102385177D01*
X59437447Y-102385177D02*
X59485066Y-102289939D01*
X59485066Y-102289939D02*
X59485066Y-102242320D01*
X59485066Y-102242320D02*
X59437447Y-102147082D01*
X59437447Y-102147082D02*
X59389828Y-102099463D01*
X59389828Y-102099463D02*
X59294590Y-102051844D01*
X59294590Y-102051844D02*
X59104114Y-102051844D01*
X59104114Y-102051844D02*
X59008876Y-102099463D01*
X59008876Y-102099463D02*
X58961257Y-102147082D01*
X58961257Y-102147082D02*
X58913638Y-102242320D01*
X58913638Y-102242320D02*
X58913638Y-102289939D01*
X58913638Y-102289939D02*
X58961257Y-102385177D01*
X58961257Y-102385177D02*
X59008876Y-102432796D01*
X59008876Y-102432796D02*
X59104114Y-102480415D01*
X59104114Y-102480415D02*
X59294590Y-102480415D01*
X59294590Y-102480415D02*
X59389828Y-102528034D01*
X59389828Y-102528034D02*
X59437447Y-102575653D01*
X59437447Y-102575653D02*
X59485066Y-102670891D01*
X59485066Y-102670891D02*
X59485066Y-102861367D01*
X59485066Y-102861367D02*
X59437447Y-102956605D01*
X59437447Y-102956605D02*
X59389828Y-103004225D01*
X59389828Y-103004225D02*
X59294590Y-103051844D01*
X59294590Y-103051844D02*
X59104114Y-103051844D01*
X59104114Y-103051844D02*
X59008876Y-103004225D01*
X59008876Y-103004225D02*
X58961257Y-102956605D01*
X58961257Y-102956605D02*
X58913638Y-102861367D01*
X58913638Y-102861367D02*
X58913638Y-102670891D01*
X58913638Y-102670891D02*
X58961257Y-102575653D01*
X58961257Y-102575653D02*
X59008876Y-102528034D01*
X59008876Y-102528034D02*
X59104114Y-102480415D01*
X39481717Y-89553410D02*
X39481717Y-88553410D01*
X39481717Y-88553410D02*
X39148384Y-89267695D01*
X39148384Y-89267695D02*
X38815051Y-88553410D01*
X38815051Y-88553410D02*
X38815051Y-89553410D01*
X38291241Y-89553410D02*
X38100765Y-89553410D01*
X38100765Y-89553410D02*
X38005527Y-89505791D01*
X38005527Y-89505791D02*
X37957908Y-89458171D01*
X37957908Y-89458171D02*
X37862670Y-89315314D01*
X37862670Y-89315314D02*
X37815051Y-89124838D01*
X37815051Y-89124838D02*
X37815051Y-88743886D01*
X37815051Y-88743886D02*
X37862670Y-88648648D01*
X37862670Y-88648648D02*
X37910289Y-88601029D01*
X37910289Y-88601029D02*
X38005527Y-88553410D01*
X38005527Y-88553410D02*
X38196003Y-88553410D01*
X38196003Y-88553410D02*
X38291241Y-88601029D01*
X38291241Y-88601029D02*
X38338860Y-88648648D01*
X38338860Y-88648648D02*
X38386479Y-88743886D01*
X38386479Y-88743886D02*
X38386479Y-88981981D01*
X38386479Y-88981981D02*
X38338860Y-89077219D01*
X38338860Y-89077219D02*
X38291241Y-89124838D01*
X38291241Y-89124838D02*
X38196003Y-89172457D01*
X38196003Y-89172457D02*
X38005527Y-89172457D01*
X38005527Y-89172457D02*
X37910289Y-89124838D01*
X37910289Y-89124838D02*
X37862670Y-89077219D01*
X37862670Y-89077219D02*
X37815051Y-88981981D01*
X96958862Y-87498993D02*
X96958862Y-86498993D01*
X96958862Y-86498993D02*
X96625529Y-87213278D01*
X96625529Y-87213278D02*
X96292196Y-86498993D01*
X96292196Y-86498993D02*
X96292196Y-87498993D01*
X95387434Y-86832326D02*
X95387434Y-87498993D01*
X95625529Y-86451374D02*
X95863624Y-87165659D01*
X95863624Y-87165659D02*
X95244577Y-87165659D01*
X55685068Y-76127613D02*
X54685068Y-76127613D01*
X54685068Y-76127613D02*
X55399353Y-76460946D01*
X55399353Y-76460946D02*
X54685068Y-76794279D01*
X54685068Y-76794279D02*
X55685068Y-76794279D01*
X54685068Y-77699041D02*
X54685068Y-77508565D01*
X54685068Y-77508565D02*
X54732687Y-77413327D01*
X54732687Y-77413327D02*
X54780306Y-77365708D01*
X54780306Y-77365708D02*
X54923163Y-77270470D01*
X54923163Y-77270470D02*
X55113639Y-77222851D01*
X55113639Y-77222851D02*
X55494591Y-77222851D01*
X55494591Y-77222851D02*
X55589829Y-77270470D01*
X55589829Y-77270470D02*
X55637449Y-77318089D01*
X55637449Y-77318089D02*
X55685068Y-77413327D01*
X55685068Y-77413327D02*
X55685068Y-77603803D01*
X55685068Y-77603803D02*
X55637449Y-77699041D01*
X55637449Y-77699041D02*
X55589829Y-77746660D01*
X55589829Y-77746660D02*
X55494591Y-77794279D01*
X55494591Y-77794279D02*
X55256496Y-77794279D01*
X55256496Y-77794279D02*
X55161258Y-77746660D01*
X55161258Y-77746660D02*
X55113639Y-77699041D01*
X55113639Y-77699041D02*
X55066020Y-77603803D01*
X55066020Y-77603803D02*
X55066020Y-77413327D01*
X55066020Y-77413327D02*
X55113639Y-77318089D01*
X55113639Y-77318089D02*
X55161258Y-77270470D01*
X55161258Y-77270470D02*
X55256496Y-77222851D01*
D11*
X81261188Y-84809669D02*
X81261188Y-84355541D01*
X82731188Y-84809669D02*
X82731188Y-84355541D01*
X92094628Y-65442132D02*
X96104628Y-65442132D01*
X92094628Y-67442132D02*
X92094628Y-65442132D01*
X92094628Y-67442132D02*
X96104628Y-67442132D01*
X52333748Y-57485000D02*
X53756252Y-57485000D01*
X52333748Y-59305000D02*
X53756252Y-59305000D01*
X47064740Y-45875506D02*
X47064740Y-53595506D01*
X47064740Y-53595506D02*
X47319740Y-53595506D01*
X47319740Y-45875506D02*
X47064740Y-45875506D01*
X57329740Y-53595506D02*
X57584740Y-53595506D01*
X57584740Y-45875506D02*
X57329740Y-45875506D01*
X57584740Y-53595506D02*
X57584740Y-45875506D01*
X47314740Y-45085506D02*
X46844740Y-45425506D01*
X46844740Y-44745506D01*
X47314740Y-45085506D01*
G36*
X47314740Y-45085506D02*
G01*
X46844740Y-45425506D01*
X46844740Y-44745506D01*
X47314740Y-45085506D01*
G37*
X32635390Y-62623376D02*
X32635390Y-62148860D01*
X33680390Y-62623376D02*
X33680390Y-62148860D01*
X54798185Y-64340887D02*
X55252313Y-64340887D01*
X54798185Y-65810887D02*
X55252313Y-65810887D01*
X86953592Y-65245795D02*
X90963592Y-65245795D01*
X86953592Y-67245795D02*
X86953592Y-65245795D01*
X86953592Y-67245795D02*
X90963592Y-67245795D01*
X88423449Y-95736614D02*
X88423449Y-91726614D01*
X90423449Y-95736614D02*
X88423449Y-95736614D01*
X90423449Y-95736614D02*
X90423449Y-91726614D01*
X55606826Y-58390564D02*
X55606826Y-57868060D01*
X57076826Y-58390564D02*
X57076826Y-57868060D01*
X75738881Y-35823050D02*
X75738881Y-35348534D01*
X76783881Y-35823050D02*
X76783881Y-35348534D01*
X75290000Y-40856252D02*
X75290000Y-40333748D01*
X76760000Y-40856252D02*
X76760000Y-40333748D01*
X79755006Y-88988933D02*
X83765006Y-88988933D01*
X79755006Y-90988933D02*
X79755006Y-88988933D01*
X79755006Y-90988933D02*
X83765006Y-90988933D01*
X32586750Y-93585446D02*
X32586750Y-93445446D01*
X32586750Y-94305446D02*
X32586750Y-93945446D01*
X32586750Y-95025446D02*
X32586750Y-94665446D01*
X32586750Y-95745446D02*
X32586750Y-95385446D01*
X32586750Y-96465446D02*
X32586750Y-96105446D01*
X32586750Y-97185446D02*
X32586750Y-96825446D01*
X32586750Y-97905446D02*
X32586750Y-97545446D01*
X32586750Y-98625446D02*
X32586750Y-98265446D01*
X32586750Y-99345446D02*
X32586750Y-98985446D01*
X32586750Y-100065446D02*
X32586750Y-99705446D01*
X32586750Y-100785446D02*
X32586750Y-100425446D01*
X32586750Y-101505446D02*
X32586750Y-101145446D01*
X32586750Y-102225446D02*
X32586750Y-101865446D01*
X32586750Y-102945446D02*
X32586750Y-102585446D01*
X32586750Y-103665446D02*
X32586750Y-103305446D01*
X32986750Y-93445446D02*
X32626750Y-93445446D01*
X32986750Y-103665446D02*
X32626750Y-103665446D01*
X33706750Y-93445446D02*
X33346750Y-93445446D01*
X33706750Y-103665446D02*
X33346750Y-103665446D01*
X34426750Y-93445446D02*
X34066750Y-93445446D01*
X34426750Y-103665446D02*
X34066750Y-103665446D01*
X35146750Y-93445446D02*
X34786750Y-93445446D01*
X35146750Y-103665446D02*
X34786750Y-103665446D01*
X35866750Y-93445446D02*
X35506750Y-93445446D01*
X35866750Y-103665446D02*
X35506750Y-103665446D01*
X36586750Y-93445446D02*
X36226750Y-93445446D01*
X36586750Y-103665446D02*
X36226750Y-103665446D01*
X37306750Y-93445446D02*
X36946750Y-93445446D01*
X37306750Y-103665446D02*
X36946750Y-103665446D01*
X38026750Y-93445446D02*
X37666750Y-93445446D01*
X38026750Y-103665446D02*
X37666750Y-103665446D01*
X38746750Y-93445446D02*
X38386750Y-93445446D01*
X38746750Y-103665446D02*
X38386750Y-103665446D01*
X38986750Y-103665446D02*
X38986750Y-93445446D01*
X48456750Y-93445446D02*
X38986750Y-93445446D01*
X48456750Y-95530446D02*
X50896750Y-95530446D01*
X48456750Y-96500446D02*
X50896750Y-96500446D01*
X48456750Y-98070446D02*
X50896750Y-98070446D01*
X48456750Y-99040446D02*
X50896750Y-99040446D01*
X48456750Y-100610446D02*
X50896750Y-100610446D01*
X48456750Y-101580446D02*
X50896750Y-101580446D01*
X48456750Y-103665446D02*
X38986750Y-103665446D01*
X48456750Y-103665446D02*
X48456750Y-93445446D01*
X75942748Y-93785742D02*
X75942748Y-101505742D01*
X75942748Y-101505742D02*
X76197748Y-101505742D01*
X76197748Y-93785742D02*
X75942748Y-93785742D01*
X86207748Y-101505742D02*
X86462748Y-101505742D01*
X86462748Y-93785742D02*
X86207748Y-93785742D01*
X86462748Y-101505742D02*
X86462748Y-93785742D01*
X86682748Y-102635742D02*
X86212748Y-102295742D01*
X86682748Y-101955742D01*
X86682748Y-102635742D01*
G36*
X86682748Y-102635742D02*
G01*
X86212748Y-102295742D01*
X86682748Y-101955742D01*
X86682748Y-102635742D01*
G37*
X80356737Y-72587942D02*
X80831253Y-72587942D01*
X80356737Y-73632942D02*
X80831253Y-73632942D01*
X81166066Y-54265731D02*
X81166066Y-64485731D01*
X81166066Y-54265731D02*
X90636066Y-54265731D01*
X81166066Y-56350731D02*
X78726066Y-56350731D01*
X81166066Y-57320731D02*
X78726066Y-57320731D01*
X81166066Y-58890731D02*
X78726066Y-58890731D01*
X81166066Y-59860731D02*
X78726066Y-59860731D01*
X81166066Y-61430731D02*
X78726066Y-61430731D01*
X81166066Y-62400731D02*
X78726066Y-62400731D01*
X81166066Y-64485731D02*
X90636066Y-64485731D01*
X90636066Y-54265731D02*
X90636066Y-64485731D01*
X90876066Y-54265731D02*
X91236066Y-54265731D01*
X90876066Y-64485731D02*
X91236066Y-64485731D01*
X91596066Y-54265731D02*
X91956066Y-54265731D01*
X91596066Y-64485731D02*
X91956066Y-64485731D01*
X92316066Y-54265731D02*
X92676066Y-54265731D01*
X92316066Y-64485731D02*
X92676066Y-64485731D01*
X93036066Y-54265731D02*
X93396066Y-54265731D01*
X93036066Y-64485731D02*
X93396066Y-64485731D01*
X93756066Y-54265731D02*
X94116066Y-54265731D01*
X93756066Y-64485731D02*
X94116066Y-64485731D01*
X94476066Y-54265731D02*
X94836066Y-54265731D01*
X94476066Y-64485731D02*
X94836066Y-64485731D01*
X95196066Y-54265731D02*
X95556066Y-54265731D01*
X95196066Y-64485731D02*
X95556066Y-64485731D01*
X95916066Y-54265731D02*
X96276066Y-54265731D01*
X95916066Y-64485731D02*
X96276066Y-64485731D01*
X96636066Y-54265731D02*
X96996066Y-54265731D01*
X96636066Y-64485731D02*
X96996066Y-64485731D01*
X97036066Y-54265731D02*
X97036066Y-54625731D01*
X97036066Y-54985731D02*
X97036066Y-55345731D01*
X97036066Y-55705731D02*
X97036066Y-56065731D01*
X97036066Y-56425731D02*
X97036066Y-56785731D01*
X97036066Y-57145731D02*
X97036066Y-57505731D01*
X97036066Y-57865731D02*
X97036066Y-58225731D01*
X97036066Y-58585731D02*
X97036066Y-58945731D01*
X97036066Y-59305731D02*
X97036066Y-59665731D01*
X97036066Y-60025731D02*
X97036066Y-60385731D01*
X97036066Y-60745731D02*
X97036066Y-61105731D01*
X97036066Y-61465731D02*
X97036066Y-61825731D01*
X97036066Y-62185731D02*
X97036066Y-62545731D01*
X97036066Y-62905731D02*
X97036066Y-63265731D01*
X97036066Y-63625731D02*
X97036066Y-63985731D01*
X97036066Y-64345731D02*
X97036066Y-64485731D01*
X101452081Y-88471674D02*
X101926597Y-88471674D01*
X101452081Y-89516674D02*
X101926597Y-89516674D01*
X70010000Y-57040580D02*
X70010000Y-56759420D01*
X71030000Y-57040580D02*
X71030000Y-56759420D01*
X76885755Y-42600509D02*
X77339883Y-42600509D01*
X76885755Y-44070509D02*
X77339883Y-44070509D01*
X65251381Y-33500792D02*
X65251381Y-33755792D01*
X65251381Y-43765792D02*
X65251381Y-44020792D01*
X65251381Y-44020792D02*
X72971381Y-44020792D01*
X72971381Y-33500792D02*
X65251381Y-33500792D01*
X72971381Y-33755792D02*
X72971381Y-33500792D01*
X72971381Y-44020792D02*
X72971381Y-43765792D01*
X64801381Y-44240792D02*
X64121381Y-44240792D01*
X64461381Y-43770792D01*
X64801381Y-44240792D01*
G36*
X64801381Y-44240792D02*
G01*
X64121381Y-44240792D01*
X64461381Y-43770792D01*
X64801381Y-44240792D01*
G37*
X79216066Y-71895731D02*
X79216066Y-67885731D01*
X81216066Y-71895731D02*
X79216066Y-71895731D01*
X81216066Y-71895731D02*
X81216066Y-67885731D01*
X81565392Y-43410530D02*
X81565392Y-53630530D01*
X81565392Y-43410530D02*
X91035392Y-43410530D01*
X81565392Y-45495530D02*
X79125392Y-45495530D01*
X81565392Y-46465530D02*
X79125392Y-46465530D01*
X81565392Y-48035530D02*
X79125392Y-48035530D01*
X81565392Y-49005530D02*
X79125392Y-49005530D01*
X81565392Y-50575530D02*
X79125392Y-50575530D01*
X81565392Y-51545530D02*
X79125392Y-51545530D01*
X81565392Y-53630530D02*
X91035392Y-53630530D01*
X91035392Y-43410530D02*
X91035392Y-53630530D01*
X91275392Y-43410530D02*
X91635392Y-43410530D01*
X91275392Y-53630530D02*
X91635392Y-53630530D01*
X91995392Y-43410530D02*
X92355392Y-43410530D01*
X91995392Y-53630530D02*
X92355392Y-53630530D01*
X92715392Y-43410530D02*
X93075392Y-43410530D01*
X92715392Y-53630530D02*
X93075392Y-53630530D01*
X93435392Y-43410530D02*
X93795392Y-43410530D01*
X93435392Y-53630530D02*
X93795392Y-53630530D01*
X94155392Y-43410530D02*
X94515392Y-43410530D01*
X94155392Y-53630530D02*
X94515392Y-53630530D01*
X94875392Y-43410530D02*
X95235392Y-43410530D01*
X94875392Y-53630530D02*
X95235392Y-53630530D01*
X95595392Y-43410530D02*
X95955392Y-43410530D01*
X95595392Y-53630530D02*
X95955392Y-53630530D01*
X96315392Y-43410530D02*
X96675392Y-43410530D01*
X96315392Y-53630530D02*
X96675392Y-53630530D01*
X97035392Y-43410530D02*
X97395392Y-43410530D01*
X97035392Y-53630530D02*
X97395392Y-53630530D01*
X97435392Y-43410530D02*
X97435392Y-43770530D01*
X97435392Y-44130530D02*
X97435392Y-44490530D01*
X97435392Y-44850530D02*
X97435392Y-45210530D01*
X97435392Y-45570530D02*
X97435392Y-45930530D01*
X97435392Y-46290530D02*
X97435392Y-46650530D01*
X97435392Y-47010530D02*
X97435392Y-47370530D01*
X97435392Y-47730530D02*
X97435392Y-48090530D01*
X97435392Y-48450530D02*
X97435392Y-48810530D01*
X97435392Y-49170530D02*
X97435392Y-49530530D01*
X97435392Y-49890530D02*
X97435392Y-50250530D01*
X97435392Y-50610530D02*
X97435392Y-50970530D01*
X97435392Y-51330530D02*
X97435392Y-51690530D01*
X97435392Y-52050530D02*
X97435392Y-52410530D01*
X97435392Y-52770530D02*
X97435392Y-53130530D01*
X97435392Y-53490530D02*
X97435392Y-53630530D01*
X57896066Y-62025731D02*
X57896066Y-61885731D01*
X57896066Y-62745731D02*
X57896066Y-62385731D01*
X57896066Y-63465731D02*
X57896066Y-63105731D01*
X57896066Y-64185731D02*
X57896066Y-63825731D01*
X57896066Y-64905731D02*
X57896066Y-64545731D01*
X57896066Y-65625731D02*
X57896066Y-65265731D01*
X57896066Y-66345731D02*
X57896066Y-65985731D01*
X57896066Y-67065731D02*
X57896066Y-66705731D01*
X57896066Y-67785731D02*
X57896066Y-67425731D01*
X57896066Y-68505731D02*
X57896066Y-68145731D01*
X57896066Y-69225731D02*
X57896066Y-68865731D01*
X57896066Y-69945731D02*
X57896066Y-69585731D01*
X57896066Y-70665731D02*
X57896066Y-70305731D01*
X57896066Y-71385731D02*
X57896066Y-71025731D01*
X57896066Y-72105731D02*
X57896066Y-71745731D01*
X58296066Y-61885731D02*
X57936066Y-61885731D01*
X58296066Y-72105731D02*
X57936066Y-72105731D01*
X59016066Y-61885731D02*
X58656066Y-61885731D01*
X59016066Y-72105731D02*
X58656066Y-72105731D01*
X59736066Y-61885731D02*
X59376066Y-61885731D01*
X59736066Y-72105731D02*
X59376066Y-72105731D01*
X60456066Y-61885731D02*
X60096066Y-61885731D01*
X60456066Y-72105731D02*
X60096066Y-72105731D01*
X61176066Y-61885731D02*
X60816066Y-61885731D01*
X61176066Y-72105731D02*
X60816066Y-72105731D01*
X61896066Y-61885731D02*
X61536066Y-61885731D01*
X61896066Y-72105731D02*
X61536066Y-72105731D01*
X62616066Y-61885731D02*
X62256066Y-61885731D01*
X62616066Y-72105731D02*
X62256066Y-72105731D01*
X63336066Y-61885731D02*
X62976066Y-61885731D01*
X63336066Y-72105731D02*
X62976066Y-72105731D01*
X64056066Y-61885731D02*
X63696066Y-61885731D01*
X64056066Y-72105731D02*
X63696066Y-72105731D01*
X64296066Y-72105731D02*
X64296066Y-61885731D01*
X73766066Y-61885731D02*
X64296066Y-61885731D01*
X73766066Y-63970731D02*
X76206066Y-63970731D01*
X73766066Y-64940731D02*
X76206066Y-64940731D01*
X73766066Y-66510731D02*
X76206066Y-66510731D01*
X73766066Y-67480731D02*
X76206066Y-67480731D01*
X73766066Y-69050731D02*
X76206066Y-69050731D01*
X73766066Y-70020731D02*
X76206066Y-70020731D01*
X73766066Y-72105731D02*
X64296066Y-72105731D01*
X73766066Y-72105731D02*
X73766066Y-61885731D01*
X80492362Y-79116365D02*
X80492362Y-75106365D01*
X82492362Y-79116365D02*
X80492362Y-79116365D01*
X82492362Y-79116365D02*
X82492362Y-75106365D01*
X78215580Y-90365000D02*
X77934420Y-90365000D01*
X78215580Y-91385000D02*
X77934420Y-91385000D01*
X36505249Y-45505887D02*
X36865249Y-45505887D01*
X36505249Y-45905887D02*
X36505249Y-45545887D01*
X36505249Y-46625887D02*
X36505249Y-46265887D01*
X36505249Y-47345887D02*
X36505249Y-46985887D01*
X36505249Y-48065887D02*
X36505249Y-47705887D01*
X36505249Y-48785887D02*
X36505249Y-48425887D01*
X36505249Y-49505887D02*
X36505249Y-49145887D01*
X36505249Y-50225887D02*
X36505249Y-49865887D01*
X36505249Y-50945887D02*
X36505249Y-50585887D01*
X36505249Y-51665887D02*
X36505249Y-51305887D01*
X36505249Y-51905887D02*
X46725249Y-51905887D01*
X36505249Y-61375887D02*
X36505249Y-51905887D01*
X36505249Y-61375887D02*
X46725249Y-61375887D01*
X37225249Y-45505887D02*
X37585249Y-45505887D01*
X37945249Y-45505887D02*
X38305249Y-45505887D01*
X38590249Y-61375887D02*
X38590249Y-63815887D01*
X38665249Y-45505887D02*
X39025249Y-45505887D01*
X39385249Y-45505887D02*
X39745249Y-45505887D01*
X39560249Y-61375887D02*
X39560249Y-63815887D01*
X40105249Y-45505887D02*
X40465249Y-45505887D01*
X40825249Y-45505887D02*
X41185249Y-45505887D01*
X41130249Y-61375887D02*
X41130249Y-63815887D01*
X41545249Y-45505887D02*
X41905249Y-45505887D01*
X42100249Y-61375887D02*
X42100249Y-63815887D01*
X42265249Y-45505887D02*
X42625249Y-45505887D01*
X42985249Y-45505887D02*
X43345249Y-45505887D01*
X43670249Y-61375887D02*
X43670249Y-63815887D01*
X43705249Y-45505887D02*
X44065249Y-45505887D01*
X44425249Y-45505887D02*
X44785249Y-45505887D01*
X44640249Y-61375887D02*
X44640249Y-63815887D01*
X45145249Y-45505887D02*
X45505249Y-45505887D01*
X45865249Y-45505887D02*
X46225249Y-45505887D01*
X46585249Y-45505887D02*
X46725249Y-45505887D01*
X46725249Y-45905887D02*
X46725249Y-45545887D01*
X46725249Y-46625887D02*
X46725249Y-46265887D01*
X46725249Y-47345887D02*
X46725249Y-46985887D01*
X46725249Y-48065887D02*
X46725249Y-47705887D01*
X46725249Y-48785887D02*
X46725249Y-48425887D01*
X46725249Y-49505887D02*
X46725249Y-49145887D01*
X46725249Y-50225887D02*
X46725249Y-49865887D01*
X46725249Y-50945887D02*
X46725249Y-50585887D01*
X46725249Y-51665887D02*
X46725249Y-51305887D01*
X46725249Y-61375887D02*
X46725249Y-51905887D01*
X69907242Y-44702298D02*
X69907242Y-53212298D01*
X76407242Y-44702298D02*
X69907242Y-44702298D01*
X76407242Y-44702298D02*
X76407242Y-53212298D01*
X71536158Y-57821363D02*
X71536158Y-57367235D01*
X73006158Y-57821363D02*
X73006158Y-57367235D01*
X61865000Y-36865580D02*
X61865000Y-36584420D01*
X62885000Y-36865580D02*
X62885000Y-36584420D01*
X83419339Y-69424174D02*
X83779339Y-69424174D01*
X83419339Y-69824174D02*
X83419339Y-69464174D01*
X83419339Y-70544174D02*
X83419339Y-70184174D01*
X83419339Y-71264174D02*
X83419339Y-70904174D01*
X83419339Y-71984174D02*
X83419339Y-71624174D01*
X83419339Y-72704174D02*
X83419339Y-72344174D01*
X83419339Y-73424174D02*
X83419339Y-73064174D01*
X83419339Y-74144174D02*
X83419339Y-73784174D01*
X83419339Y-74864174D02*
X83419339Y-74504174D01*
X83419339Y-75584174D02*
X83419339Y-75224174D01*
X83419339Y-75824174D02*
X93639339Y-75824174D01*
X83419339Y-85294174D02*
X83419339Y-75824174D01*
X83419339Y-85294174D02*
X93639339Y-85294174D01*
X84139339Y-69424174D02*
X84499339Y-69424174D01*
X84859339Y-69424174D02*
X85219339Y-69424174D01*
X85504339Y-85294174D02*
X85504339Y-87734174D01*
X85579339Y-69424174D02*
X85939339Y-69424174D01*
X86299339Y-69424174D02*
X86659339Y-69424174D01*
X86474339Y-85294174D02*
X86474339Y-87734174D01*
X87019339Y-69424174D02*
X87379339Y-69424174D01*
X87739339Y-69424174D02*
X88099339Y-69424174D01*
X88044339Y-85294174D02*
X88044339Y-87734174D01*
X88459339Y-69424174D02*
X88819339Y-69424174D01*
X89014339Y-85294174D02*
X89014339Y-87734174D01*
X89179339Y-69424174D02*
X89539339Y-69424174D01*
X89899339Y-69424174D02*
X90259339Y-69424174D01*
X90584339Y-85294174D02*
X90584339Y-87734174D01*
X90619339Y-69424174D02*
X90979339Y-69424174D01*
X91339339Y-69424174D02*
X91699339Y-69424174D01*
X91554339Y-85294174D02*
X91554339Y-87734174D01*
X92059339Y-69424174D02*
X92419339Y-69424174D01*
X92779339Y-69424174D02*
X93139339Y-69424174D01*
X93499339Y-69424174D02*
X93639339Y-69424174D01*
X93639339Y-69824174D02*
X93639339Y-69464174D01*
X93639339Y-70544174D02*
X93639339Y-70184174D01*
X93639339Y-71264174D02*
X93639339Y-70904174D01*
X93639339Y-71984174D02*
X93639339Y-71624174D01*
X93639339Y-72704174D02*
X93639339Y-72344174D01*
X93639339Y-73424174D02*
X93639339Y-73064174D01*
X93639339Y-74144174D02*
X93639339Y-73784174D01*
X93639339Y-74864174D02*
X93639339Y-74504174D01*
X93639339Y-75584174D02*
X93639339Y-75224174D01*
X93639339Y-85294174D02*
X93639339Y-75824174D01*
X59922976Y-49225708D02*
X59922976Y-49480708D01*
X59922976Y-59490708D02*
X59922976Y-59745708D01*
X59922976Y-59745708D02*
X67642976Y-59745708D01*
X67642976Y-49225708D02*
X59922976Y-49225708D01*
X67642976Y-49480708D02*
X67642976Y-49225708D01*
X67642976Y-59745708D02*
X67642976Y-59490708D01*
X59472976Y-59965708D02*
X58792976Y-59965708D01*
X59132976Y-59495708D01*
X59472976Y-59965708D01*
G36*
X59472976Y-59965708D02*
G01*
X58792976Y-59965708D01*
X59132976Y-59495708D01*
X59472976Y-59965708D01*
G37*
X82183748Y-103890000D02*
X82706252Y-103890000D01*
X82183748Y-105360000D02*
X82706252Y-105360000D01*
X73762890Y-59701042D02*
X73762890Y-55691042D01*
X75762890Y-59701042D02*
X73762890Y-59701042D01*
X75762890Y-59701042D02*
X75762890Y-55691042D01*
X54660781Y-81077025D02*
X55020781Y-81077025D01*
X54660781Y-81477025D02*
X54660781Y-81117025D01*
X54660781Y-82197025D02*
X54660781Y-81837025D01*
X54660781Y-82917025D02*
X54660781Y-82557025D01*
X54660781Y-83637025D02*
X54660781Y-83277025D01*
X54660781Y-84357025D02*
X54660781Y-83997025D01*
X54660781Y-85077025D02*
X54660781Y-84717025D01*
X54660781Y-85797025D02*
X54660781Y-85437025D01*
X54660781Y-86517025D02*
X54660781Y-86157025D01*
X54660781Y-87237025D02*
X54660781Y-86877025D01*
X54660781Y-87477025D02*
X64880781Y-87477025D01*
X54660781Y-96947025D02*
X54660781Y-87477025D01*
X54660781Y-96947025D02*
X64880781Y-96947025D01*
X55380781Y-81077025D02*
X55740781Y-81077025D01*
X56100781Y-81077025D02*
X56460781Y-81077025D01*
X56745781Y-96947025D02*
X56745781Y-99387025D01*
X56820781Y-81077025D02*
X57180781Y-81077025D01*
X57540781Y-81077025D02*
X57900781Y-81077025D01*
X57715781Y-96947025D02*
X57715781Y-99387025D01*
X58260781Y-81077025D02*
X58620781Y-81077025D01*
X58980781Y-81077025D02*
X59340781Y-81077025D01*
X59285781Y-96947025D02*
X59285781Y-99387025D01*
X59700781Y-81077025D02*
X60060781Y-81077025D01*
X60255781Y-96947025D02*
X60255781Y-99387025D01*
X60420781Y-81077025D02*
X60780781Y-81077025D01*
X61140781Y-81077025D02*
X61500781Y-81077025D01*
X61825781Y-96947025D02*
X61825781Y-99387025D01*
X61860781Y-81077025D02*
X62220781Y-81077025D01*
X62580781Y-81077025D02*
X62940781Y-81077025D01*
X62795781Y-96947025D02*
X62795781Y-99387025D01*
X63300781Y-81077025D02*
X63660781Y-81077025D01*
X64020781Y-81077025D02*
X64380781Y-81077025D01*
X64740781Y-81077025D02*
X64880781Y-81077025D01*
X64880781Y-81477025D02*
X64880781Y-81117025D01*
X64880781Y-82197025D02*
X64880781Y-81837025D01*
X64880781Y-82917025D02*
X64880781Y-82557025D01*
X64880781Y-83637025D02*
X64880781Y-83277025D01*
X64880781Y-84357025D02*
X64880781Y-83997025D01*
X64880781Y-85077025D02*
X64880781Y-84717025D01*
X64880781Y-85797025D02*
X64880781Y-85437025D01*
X64880781Y-86517025D02*
X64880781Y-86157025D01*
X64880781Y-87237025D02*
X64880781Y-86877025D01*
X64880781Y-96947025D02*
X64880781Y-87477025D01*
X64406252Y-46535000D02*
X62983748Y-46535000D01*
X64406252Y-48355000D02*
X62983748Y-48355000D01*
X53684420Y-55965000D02*
X53965580Y-55965000D01*
X53684420Y-56985000D02*
X53965580Y-56985000D01*
X33562194Y-67578591D02*
X33922194Y-67578591D01*
X33562194Y-67978591D02*
X33562194Y-67618591D01*
X33562194Y-68698591D02*
X33562194Y-68338591D01*
X33562194Y-69418591D02*
X33562194Y-69058591D01*
X33562194Y-70138591D02*
X33562194Y-69778591D01*
X33562194Y-70858591D02*
X33562194Y-70498591D01*
X33562194Y-71578591D02*
X33562194Y-71218591D01*
X33562194Y-72298591D02*
X33562194Y-71938591D01*
X33562194Y-73018591D02*
X33562194Y-72658591D01*
X33562194Y-73738591D02*
X33562194Y-73378591D01*
X33562194Y-73978591D02*
X43782194Y-73978591D01*
X33562194Y-83448591D02*
X33562194Y-73978591D01*
X33562194Y-83448591D02*
X43782194Y-83448591D01*
X34282194Y-67578591D02*
X34642194Y-67578591D01*
X35002194Y-67578591D02*
X35362194Y-67578591D01*
X35647194Y-83448591D02*
X35647194Y-85888591D01*
X35722194Y-67578591D02*
X36082194Y-67578591D01*
X36442194Y-67578591D02*
X36802194Y-67578591D01*
X36617194Y-83448591D02*
X36617194Y-85888591D01*
X37162194Y-67578591D02*
X37522194Y-67578591D01*
X37882194Y-67578591D02*
X38242194Y-67578591D01*
X38187194Y-83448591D02*
X38187194Y-85888591D01*
X38602194Y-67578591D02*
X38962194Y-67578591D01*
X39157194Y-83448591D02*
X39157194Y-85888591D01*
X39322194Y-67578591D02*
X39682194Y-67578591D01*
X40042194Y-67578591D02*
X40402194Y-67578591D01*
X40727194Y-83448591D02*
X40727194Y-85888591D01*
X40762194Y-67578591D02*
X41122194Y-67578591D01*
X41482194Y-67578591D02*
X41842194Y-67578591D01*
X41697194Y-83448591D02*
X41697194Y-85888591D01*
X42202194Y-67578591D02*
X42562194Y-67578591D01*
X42922194Y-67578591D02*
X43282194Y-67578591D01*
X43642194Y-67578591D02*
X43782194Y-67578591D01*
X43782194Y-67978591D02*
X43782194Y-67618591D01*
X43782194Y-68698591D02*
X43782194Y-68338591D01*
X43782194Y-69418591D02*
X43782194Y-69058591D01*
X43782194Y-70138591D02*
X43782194Y-69778591D01*
X43782194Y-70858591D02*
X43782194Y-70498591D01*
X43782194Y-71578591D02*
X43782194Y-71218591D01*
X43782194Y-72298591D02*
X43782194Y-71938591D01*
X43782194Y-73018591D02*
X43782194Y-72658591D01*
X43782194Y-73738591D02*
X43782194Y-73378591D01*
X43782194Y-83448591D02*
X43782194Y-73978591D01*
X34594508Y-62687345D02*
X34594508Y-62212829D01*
X35639508Y-62687345D02*
X35639508Y-62212829D01*
X67489329Y-46854237D02*
X67943457Y-46854237D01*
X67489329Y-48324237D02*
X67943457Y-48324237D01*
X50884420Y-42465000D02*
X51165580Y-42465000D01*
X50884420Y-43485000D02*
X51165580Y-43485000D01*
X32746790Y-64577220D02*
X36756790Y-64577220D01*
X32746790Y-66577220D02*
X32746790Y-64577220D01*
X32746790Y-66577220D02*
X36756790Y-66577220D01*
X91039339Y-92694174D02*
X91039339Y-102164174D01*
X91039339Y-102404174D02*
X91039339Y-102764174D01*
X91039339Y-103124174D02*
X91039339Y-103484174D01*
X91039339Y-103844174D02*
X91039339Y-104204174D01*
X91039339Y-104564174D02*
X91039339Y-104924174D01*
X91039339Y-105284174D02*
X91039339Y-105644174D01*
X91039339Y-106004174D02*
X91039339Y-106364174D01*
X91039339Y-106724174D02*
X91039339Y-107084174D01*
X91039339Y-107444174D02*
X91039339Y-107804174D01*
X91039339Y-108164174D02*
X91039339Y-108524174D01*
X91179339Y-108564174D02*
X91039339Y-108564174D01*
X91899339Y-108564174D02*
X91539339Y-108564174D01*
X92619339Y-108564174D02*
X92259339Y-108564174D01*
X93124339Y-92694174D02*
X93124339Y-90254174D01*
X93339339Y-108564174D02*
X92979339Y-108564174D01*
X94059339Y-108564174D02*
X93699339Y-108564174D01*
X94094339Y-92694174D02*
X94094339Y-90254174D01*
X94779339Y-108564174D02*
X94419339Y-108564174D01*
X95499339Y-108564174D02*
X95139339Y-108564174D01*
X95664339Y-92694174D02*
X95664339Y-90254174D01*
X96219339Y-108564174D02*
X95859339Y-108564174D01*
X96634339Y-92694174D02*
X96634339Y-90254174D01*
X96939339Y-108564174D02*
X96579339Y-108564174D01*
X97659339Y-108564174D02*
X97299339Y-108564174D01*
X98204339Y-92694174D02*
X98204339Y-90254174D01*
X98379339Y-108564174D02*
X98019339Y-108564174D01*
X99099339Y-108564174D02*
X98739339Y-108564174D01*
X99174339Y-92694174D02*
X99174339Y-90254174D01*
X99819339Y-108564174D02*
X99459339Y-108564174D01*
X100539339Y-108564174D02*
X100179339Y-108564174D01*
X101259339Y-92694174D02*
X91039339Y-92694174D01*
X101259339Y-92694174D02*
X101259339Y-102164174D01*
X101259339Y-102164174D02*
X91039339Y-102164174D01*
X101259339Y-102404174D02*
X101259339Y-102764174D01*
X101259339Y-103124174D02*
X101259339Y-103484174D01*
X101259339Y-103844174D02*
X101259339Y-104204174D01*
X101259339Y-104564174D02*
X101259339Y-104924174D01*
X101259339Y-105284174D02*
X101259339Y-105644174D01*
X101259339Y-106004174D02*
X101259339Y-106364174D01*
X101259339Y-106724174D02*
X101259339Y-107084174D01*
X101259339Y-107444174D02*
X101259339Y-107804174D01*
X101259339Y-108164174D02*
X101259339Y-108524174D01*
X101259339Y-108564174D02*
X100899339Y-108564174D01*
X44125249Y-68775887D02*
X44125249Y-78245887D01*
X44125249Y-78485887D02*
X44125249Y-78845887D01*
X44125249Y-79205887D02*
X44125249Y-79565887D01*
X44125249Y-79925887D02*
X44125249Y-80285887D01*
X44125249Y-80645887D02*
X44125249Y-81005887D01*
X44125249Y-81365887D02*
X44125249Y-81725887D01*
X44125249Y-82085887D02*
X44125249Y-82445887D01*
X44125249Y-82805887D02*
X44125249Y-83165887D01*
X44125249Y-83525887D02*
X44125249Y-83885887D01*
X44125249Y-84245887D02*
X44125249Y-84605887D01*
X44265249Y-84645887D02*
X44125249Y-84645887D01*
X44985249Y-84645887D02*
X44625249Y-84645887D01*
X45705249Y-84645887D02*
X45345249Y-84645887D01*
X46210249Y-68775887D02*
X46210249Y-66335887D01*
X46425249Y-84645887D02*
X46065249Y-84645887D01*
X47145249Y-84645887D02*
X46785249Y-84645887D01*
X47180249Y-68775887D02*
X47180249Y-66335887D01*
X47865249Y-84645887D02*
X47505249Y-84645887D01*
X48585249Y-84645887D02*
X48225249Y-84645887D01*
X48750249Y-68775887D02*
X48750249Y-66335887D01*
X49305249Y-84645887D02*
X48945249Y-84645887D01*
X49720249Y-68775887D02*
X49720249Y-66335887D01*
X50025249Y-84645887D02*
X49665249Y-84645887D01*
X50745249Y-84645887D02*
X50385249Y-84645887D01*
X51290249Y-68775887D02*
X51290249Y-66335887D01*
X51465249Y-84645887D02*
X51105249Y-84645887D01*
X52185249Y-84645887D02*
X51825249Y-84645887D01*
X52260249Y-68775887D02*
X52260249Y-66335887D01*
X52905249Y-84645887D02*
X52545249Y-84645887D01*
X53625249Y-84645887D02*
X53265249Y-84645887D01*
X54345249Y-68775887D02*
X44125249Y-68775887D01*
X54345249Y-68775887D02*
X54345249Y-78245887D01*
X54345249Y-78245887D02*
X44125249Y-78245887D01*
X54345249Y-78485887D02*
X54345249Y-78845887D01*
X54345249Y-79205887D02*
X54345249Y-79565887D01*
X54345249Y-79925887D02*
X54345249Y-80285887D01*
X54345249Y-80645887D02*
X54345249Y-81005887D01*
X54345249Y-81365887D02*
X54345249Y-81725887D01*
X54345249Y-82085887D02*
X54345249Y-82445887D01*
X54345249Y-82805887D02*
X54345249Y-83165887D01*
X54345249Y-83525887D02*
X54345249Y-83885887D01*
X54345249Y-84245887D02*
X54345249Y-84605887D01*
X54345249Y-84645887D02*
X53985249Y-84645887D01*
X74135000Y-92056252D02*
X74135000Y-90633748D01*
X75955000Y-92056252D02*
X75955000Y-90633748D01*
X55095194Y-72760909D02*
X55095194Y-72306781D01*
X56565194Y-72760909D02*
X56565194Y-72306781D01*
X49161511Y-61337618D02*
X53171511Y-61337618D01*
X49161511Y-63337618D02*
X49161511Y-61337618D01*
X49161511Y-63337618D02*
X53171511Y-63337618D01*
%LPC*%
D12*
X75070812Y-75750733D03*
D13*
X98616207Y-83139330D03*
D14*
X98616207Y-83139330D03*
D15*
X69476545Y-74158008D03*
D16*
X66936545Y-74158008D03*
X69476545Y-76698008D03*
X66936545Y-76698008D03*
X69476545Y-79238008D03*
X66936545Y-79238008D03*
X69476545Y-81778008D03*
X66936545Y-81778008D03*
X69476545Y-84318008D03*
X66936545Y-84318008D03*
X69476545Y-86858008D03*
X66936545Y-86858008D03*
X69476545Y-89398008D03*
X66936545Y-89398008D03*
X69476545Y-91938008D03*
X66936545Y-91938008D03*
X69476545Y-94478008D03*
X66936545Y-94478008D03*
X69476545Y-97018008D03*
X66936545Y-97018008D03*
X69476545Y-99558008D03*
X66936545Y-99558008D03*
X69476545Y-102098008D03*
X66936545Y-102098008D03*
X69476545Y-104638008D03*
X66936545Y-104638008D03*
X69476545Y-107178008D03*
X66936545Y-107178008D03*
X69476545Y-109718008D03*
X66936545Y-109718008D03*
D12*
X85121167Y-109507071D03*
D17*
X32804702Y-111567921D03*
X39304702Y-111567921D03*
X50916028Y-112934722D03*
X62574248Y-113184801D03*
X44416028Y-112934722D03*
D12*
X60675290Y-76513695D03*
X54456685Y-106463745D03*
D13*
X98503483Y-73932817D03*
D14*
X98503483Y-73932817D03*
D17*
X56074248Y-113184801D03*
D18*
X81996188Y-85495105D03*
X81996188Y-83670105D03*
D19*
X92804628Y-66442132D03*
X96104628Y-66442132D03*
D20*
X51570000Y-58395000D03*
X54520000Y-58395000D03*
D21*
X47879740Y-45085506D03*
X49149740Y-45085506D03*
X50419740Y-45085506D03*
X51689740Y-45085506D03*
X52959740Y-45085506D03*
X54229740Y-45085506D03*
X55499740Y-45085506D03*
X56769740Y-45085506D03*
X56769740Y-54385506D03*
X55499740Y-54385506D03*
X54229740Y-54385506D03*
X52959740Y-54385506D03*
X51689740Y-54385506D03*
X50419740Y-54385506D03*
X49149740Y-54385506D03*
X47879740Y-54385506D03*
D22*
X33157890Y-63211118D03*
X33157890Y-61561118D03*
D23*
X54112749Y-65075887D03*
X55937749Y-65075887D03*
D19*
X87663592Y-66245795D03*
X90963592Y-66245795D03*
D24*
X89423449Y-95026614D03*
X89423449Y-91726614D03*
D25*
X56341826Y-59079312D03*
X56341826Y-57179312D03*
D22*
X76261381Y-36410792D03*
X76261381Y-34760792D03*
D25*
X76025000Y-41545000D03*
X76025000Y-39645000D03*
D19*
X80465006Y-89988933D03*
X83765006Y-89988933D03*
D26*
X35496750Y-98555446D03*
D27*
X52156750Y-101095446D03*
D28*
X52156750Y-98555446D03*
X52156750Y-96015446D03*
D29*
X85647748Y-102295742D03*
X84377748Y-102295742D03*
X83107748Y-102295742D03*
X81837748Y-102295742D03*
X80567748Y-102295742D03*
X79297748Y-102295742D03*
X78027748Y-102295742D03*
X76757748Y-102295742D03*
X76757748Y-92995742D03*
X78027748Y-92995742D03*
X79297748Y-92995742D03*
X80567748Y-92995742D03*
X81837748Y-92995742D03*
X83107748Y-92995742D03*
X84377748Y-92995742D03*
X85647748Y-92995742D03*
D30*
X79768995Y-73110442D03*
X81418995Y-73110442D03*
D27*
X77466066Y-56835731D03*
D28*
X77466066Y-59375731D03*
X77466066Y-61915731D03*
D30*
X100864339Y-88994174D03*
X102514339Y-88994174D03*
D31*
X70520000Y-57675000D03*
X70520000Y-56125000D03*
D23*
X76200319Y-43335509D03*
X78025319Y-43335509D03*
D32*
X64461381Y-43205792D03*
X64461381Y-41935792D03*
X64461381Y-40665792D03*
X64461381Y-39395792D03*
X64461381Y-38125792D03*
X64461381Y-36855792D03*
X64461381Y-35585792D03*
X64461381Y-34315792D03*
X73761381Y-34315792D03*
X73761381Y-35585792D03*
X73761381Y-36855792D03*
X73761381Y-38125792D03*
X73761381Y-39395792D03*
X73761381Y-40665792D03*
X73761381Y-41935792D03*
X73761381Y-43205792D03*
D24*
X80216066Y-71185731D03*
X80216066Y-67885731D03*
D26*
X94525392Y-48520530D03*
D27*
X77865392Y-45980530D03*
D28*
X77865392Y-48520530D03*
X77865392Y-51060530D03*
D27*
X77466066Y-69535731D03*
D28*
X77466066Y-66995731D03*
X77466066Y-64455731D03*
D24*
X81492362Y-78406365D03*
X81492362Y-75106365D03*
D33*
X78850000Y-90875000D03*
X77300000Y-90875000D03*
D34*
X39075249Y-65075887D03*
D35*
X41615249Y-65075887D03*
X44155249Y-65075887D03*
D36*
X73157242Y-46212298D03*
X73157242Y-53012298D03*
D18*
X72271158Y-58506799D03*
X72271158Y-56681799D03*
D31*
X62375000Y-37500000D03*
X62375000Y-35950000D03*
D34*
X85989339Y-88994174D03*
D35*
X88529339Y-88994174D03*
X91069339Y-88994174D03*
D32*
X59132976Y-58930708D03*
X59132976Y-57660708D03*
X59132976Y-56390708D03*
X59132976Y-55120708D03*
X59132976Y-53850708D03*
X59132976Y-52580708D03*
X59132976Y-51310708D03*
X59132976Y-50040708D03*
X68432976Y-50040708D03*
X68432976Y-51310708D03*
X68432976Y-52580708D03*
X68432976Y-53850708D03*
X68432976Y-55120708D03*
X68432976Y-56390708D03*
X68432976Y-57660708D03*
X68432976Y-58930708D03*
D37*
X81495000Y-104625000D03*
X83395000Y-104625000D03*
D24*
X74762890Y-58991042D03*
X74762890Y-55691042D03*
D26*
X59770781Y-83987025D03*
D34*
X57230781Y-100647025D03*
D35*
X59770781Y-100647025D03*
X62310781Y-100647025D03*
D38*
X65170000Y-47445000D03*
X62220000Y-47445000D03*
D39*
X53050000Y-56475000D03*
X54600000Y-56475000D03*
D26*
X38672194Y-70488591D03*
D34*
X36132194Y-87148591D03*
D35*
X38672194Y-87148591D03*
X41212194Y-87148591D03*
D22*
X35117008Y-63275087D03*
X35117008Y-61625087D03*
D23*
X66803893Y-47589237D03*
X68628893Y-47589237D03*
D39*
X50250000Y-42975000D03*
X51800000Y-42975000D03*
D19*
X33456790Y-65577220D03*
X36756790Y-65577220D03*
D34*
X98689339Y-88994174D03*
D35*
X96149339Y-88994174D03*
X93609339Y-88994174D03*
D34*
X51775249Y-65075887D03*
D35*
X49235249Y-65075887D03*
X46695249Y-65075887D03*
D40*
X75045000Y-92820000D03*
X75045000Y-89870000D03*
D18*
X55830194Y-73446345D03*
X55830194Y-71621345D03*
D19*
X49871511Y-62337618D03*
X53171511Y-62337618D03*
%LPD*%
M02*
