G04 #@! TF.GenerationSoftware,KiCad,Pcbnew,10.0.0*
G04 #@! TF.CreationDate,2026-09-24T23:09:22-07:00*
G04 #@! TF.ProjectId,BOOST_control_RC2,424f4f53-545f-4636-9f6e-74726f6c5f52,rev?*
G04 #@! TF.SameCoordinates,Original*
G04 #@! TF.FileFunction,Legend,Top*
G04 #@! TF.FilePolarity,Positive*
%FSLAX46Y46*%
G04 Gerber Fmt 4.6, Leading zero omitted, Abs format (unit mm)*
G04 Created by KiCad (PCBNEW 10.0.0) date 2026-09-24 23:09:22*
%MOMM*%
%LPD*%
G01*
G04 APERTURE LIST*
G04 Aperture macros list*
%AMRoundRect*
0 Rectangle with rounded corners*
0 $1 Rounding radius*
0 $2 $3 $4 $5 $6 $7 $8 $9 X,Y pos of 4 corners*
0 Add a 4 corners polygon primitive as box body*
4,1,4,$2,$3,$4,$5,$6,$7,$8,$9,$2,$3,0*
0 Add four circle primitives for the rounded corners*
1,1,$1+$1,$2,$3*
1,1,$1+$1,$4,$5*
1,1,$1+$1,$6,$7*
1,1,$1+$1,$8,$9*
0 Add four rect primitives between the rounded corners*
20,1,$1+$1,$2,$3,$4,$5,0*
20,1,$1+$1,$4,$5,$6,$7,0*
20,1,$1+$1,$6,$7,$8,$9,0*
20,1,$1+$1,$8,$9,$2,$3,0*%
G04 Aperture macros list end*
%ADD10C,0.150000*%
%ADD11C,0.120000*%
%ADD12C,0.300000*%
%ADD13RoundRect,0.200000X0.200000X0.275000X-0.200000X0.275000X-0.200000X-0.275000X0.200000X-0.275000X0*%
%ADD14RoundRect,0.225000X-0.250000X0.225000X-0.250000X-0.225000X0.250000X-0.225000X0.250000X0.225000X0*%
%ADD15RoundRect,0.150000X-0.512500X-0.150000X0.512500X-0.150000X0.512500X0.150000X-0.512500X0.150000X0*%
%ADD16RoundRect,0.150000X-0.825000X-0.150000X0.825000X-0.150000X0.825000X0.150000X-0.825000X0.150000X0*%
%ADD17RoundRect,0.200000X-0.200000X-0.275000X0.200000X-0.275000X0.200000X0.275000X-0.200000X0.275000X0*%
%ADD18RoundRect,0.150000X0.150000X-0.825000X0.150000X0.825000X-0.150000X0.825000X-0.150000X-0.825000X0*%
%ADD19RoundRect,0.225000X0.225000X0.250000X-0.225000X0.250000X-0.225000X-0.250000X0.225000X-0.250000X0*%
%ADD20RoundRect,0.250000X0.450000X-0.262500X0.450000X0.262500X-0.450000X0.262500X-0.450000X-0.262500X0*%
%ADD21RoundRect,0.250000X-0.262500X-0.450000X0.262500X-0.450000X0.262500X0.450000X-0.262500X0.450000X0*%
%ADD22RoundRect,0.200000X0.275000X-0.200000X0.275000X0.200000X-0.275000X0.200000X-0.275000X-0.200000X0*%
%ADD23RoundRect,0.200000X-0.275000X0.200000X-0.275000X-0.200000X0.275000X-0.200000X0.275000X0.200000X0*%
%ADD24RoundRect,0.225000X-0.375000X0.225000X-0.375000X-0.225000X0.375000X-0.225000X0.375000X0.225000X0*%
%ADD25RoundRect,0.225000X0.250000X-0.225000X0.250000X0.225000X-0.250000X0.225000X-0.250000X-0.225000X0*%
%ADD26RoundRect,0.150000X-0.150000X0.825000X-0.150000X-0.825000X0.150000X-0.825000X0.150000X0.825000X0*%
%ADD27RoundRect,0.225000X-0.225000X-0.375000X0.225000X-0.375000X0.225000X0.375000X-0.225000X0.375000X0*%
%ADD28RoundRect,0.225000X-0.225000X-0.250000X0.225000X-0.250000X0.225000X0.250000X-0.225000X0.250000X0*%
%ADD29RoundRect,0.112500X-0.187500X-0.112500X0.187500X-0.112500X0.187500X0.112500X-0.187500X0.112500X0*%
%ADD30C,3.200000*%
%ADD31RoundRect,0.225000X0.375000X-0.225000X0.375000X0.225000X-0.375000X0.225000X-0.375000X-0.225000X0*%
%ADD32RoundRect,0.150000X0.150000X-0.512500X0.150000X0.512500X-0.150000X0.512500X-0.150000X-0.512500X0*%
%ADD33RoundRect,0.250000X0.475000X-0.250000X0.475000X0.250000X-0.475000X0.250000X-0.475000X-0.250000X0*%
%ADD34RoundRect,0.250000X-0.450000X0.262500X-0.450000X-0.262500X0.450000X-0.262500X0.450000X0.262500X0*%
%ADD35RoundRect,0.250000X0.262500X0.450000X-0.262500X0.450000X-0.262500X-0.450000X0.262500X-0.450000X0*%
%ADD36RoundRect,0.150000X-0.150000X0.512500X-0.150000X-0.512500X0.150000X-0.512500X0.150000X0.512500X0*%
%ADD37RoundRect,0.150000X0.825000X0.150000X-0.825000X0.150000X-0.825000X-0.150000X0.825000X-0.150000X0*%
%ADD38O,2.800000X1.400000*%
%ADD39R,2.000000X2.000000*%
%ADD40C,2.000000*%
%ADD41R,1.700000X1.700000*%
%ADD42C,1.700000*%
G04 APERTURE END LIST*
D10*
X48951314Y-76221469D02*
X48951314Y-75221469D01*
X48951314Y-75221469D02*
X49189409Y-75221469D01*
X49189409Y-75221469D02*
X49332266Y-75269088D01*
X49332266Y-75269088D02*
X49427504Y-75364326D01*
X49427504Y-75364326D02*
X49475123Y-75459564D01*
X49475123Y-75459564D02*
X49522742Y-75650040D01*
X49522742Y-75650040D02*
X49522742Y-75792897D01*
X49522742Y-75792897D02*
X49475123Y-75983373D01*
X49475123Y-75983373D02*
X49427504Y-76078611D01*
X49427504Y-76078611D02*
X49332266Y-76173850D01*
X49332266Y-76173850D02*
X49189409Y-76221469D01*
X49189409Y-76221469D02*
X48951314Y-76221469D01*
X49903695Y-75316707D02*
X49951314Y-75269088D01*
X49951314Y-75269088D02*
X50046552Y-75221469D01*
X50046552Y-75221469D02*
X50284647Y-75221469D01*
X50284647Y-75221469D02*
X50379885Y-75269088D01*
X50379885Y-75269088D02*
X50427504Y-75316707D01*
X50427504Y-75316707D02*
X50475123Y-75411945D01*
X50475123Y-75411945D02*
X50475123Y-75507183D01*
X50475123Y-75507183D02*
X50427504Y-75650040D01*
X50427504Y-75650040D02*
X49856076Y-76221469D01*
X49856076Y-76221469D02*
X50475123Y-76221469D01*
X50808457Y-75221469D02*
X51475123Y-75221469D01*
X51475123Y-75221469D02*
X51046552Y-76221469D01*
X53694780Y-102768564D02*
X53694780Y-101768564D01*
X53694780Y-102244754D02*
X54266208Y-102244754D01*
X54266208Y-102768564D02*
X54266208Y-101768564D01*
X54647161Y-101768564D02*
X55266208Y-101768564D01*
X55266208Y-101768564D02*
X54932875Y-102149516D01*
X54932875Y-102149516D02*
X55075732Y-102149516D01*
X55075732Y-102149516D02*
X55170970Y-102197135D01*
X55170970Y-102197135D02*
X55218589Y-102244754D01*
X55218589Y-102244754D02*
X55266208Y-102339992D01*
X55266208Y-102339992D02*
X55266208Y-102578087D01*
X55266208Y-102578087D02*
X55218589Y-102673325D01*
X55218589Y-102673325D02*
X55170970Y-102720945D01*
X55170970Y-102720945D02*
X55075732Y-102768564D01*
X55075732Y-102768564D02*
X54790018Y-102768564D01*
X54790018Y-102768564D02*
X54694780Y-102720945D01*
X54694780Y-102720945D02*
X54647161Y-102673325D01*
X79720630Y-76512637D02*
X78720630Y-76512637D01*
X79196820Y-76512637D02*
X79196820Y-75941209D01*
X79720630Y-75941209D02*
X78720630Y-75941209D01*
X78815868Y-75512637D02*
X78768249Y-75465018D01*
X78768249Y-75465018D02*
X78720630Y-75369780D01*
X78720630Y-75369780D02*
X78720630Y-75131685D01*
X78720630Y-75131685D02*
X78768249Y-75036447D01*
X78768249Y-75036447D02*
X78815868Y-74988828D01*
X78815868Y-74988828D02*
X78911106Y-74941209D01*
X78911106Y-74941209D02*
X79006344Y-74941209D01*
X79006344Y-74941209D02*
X79149201Y-74988828D01*
X79149201Y-74988828D02*
X79720630Y-75560256D01*
X79720630Y-75560256D02*
X79720630Y-74941209D01*
X59913385Y-72818514D02*
X59913385Y-71818514D01*
X59913385Y-72294704D02*
X60484813Y-72294704D01*
X60484813Y-72818514D02*
X60484813Y-71818514D01*
X61484813Y-72818514D02*
X60913385Y-72818514D01*
X61199099Y-72818514D02*
X61199099Y-71818514D01*
X61199099Y-71818514D02*
X61103861Y-71961371D01*
X61103861Y-71961371D02*
X61008623Y-72056609D01*
X61008623Y-72056609D02*
X60913385Y-72104228D01*
X84359262Y-105811890D02*
X84359262Y-104811890D01*
X84359262Y-105288080D02*
X84930690Y-105288080D01*
X84930690Y-105811890D02*
X84930690Y-104811890D01*
X85835452Y-105145223D02*
X85835452Y-105811890D01*
X85597357Y-104764271D02*
X85359262Y-105478556D01*
X85359262Y-105478556D02*
X85978309Y-105478556D01*
X47831666Y-96624819D02*
X47831666Y-97339104D01*
X47831666Y-97339104D02*
X47784047Y-97481961D01*
X47784047Y-97481961D02*
X47688809Y-97577200D01*
X47688809Y-97577200D02*
X47545952Y-97624819D01*
X47545952Y-97624819D02*
X47450714Y-97624819D01*
X48355476Y-97624819D02*
X48545952Y-97624819D01*
X48545952Y-97624819D02*
X48641190Y-97577200D01*
X48641190Y-97577200D02*
X48688809Y-97529580D01*
X48688809Y-97529580D02*
X48784047Y-97386723D01*
X48784047Y-97386723D02*
X48831666Y-97196247D01*
X48831666Y-97196247D02*
X48831666Y-96815295D01*
X48831666Y-96815295D02*
X48784047Y-96720057D01*
X48784047Y-96720057D02*
X48736428Y-96672438D01*
X48736428Y-96672438D02*
X48641190Y-96624819D01*
X48641190Y-96624819D02*
X48450714Y-96624819D01*
X48450714Y-96624819D02*
X48355476Y-96672438D01*
X48355476Y-96672438D02*
X48307857Y-96720057D01*
X48307857Y-96720057D02*
X48260238Y-96815295D01*
X48260238Y-96815295D02*
X48260238Y-97053390D01*
X48260238Y-97053390D02*
X48307857Y-97148628D01*
X48307857Y-97148628D02*
X48355476Y-97196247D01*
X48355476Y-97196247D02*
X48450714Y-97243866D01*
X48450714Y-97243866D02*
X48641190Y-97243866D01*
X48641190Y-97243866D02*
X48736428Y-97196247D01*
X48736428Y-97196247D02*
X48784047Y-97148628D01*
X48784047Y-97148628D02*
X48831666Y-97053390D01*
X50255476Y-93529819D02*
X50588809Y-94529819D01*
X50588809Y-94529819D02*
X50922142Y-93529819D01*
X51779285Y-94529819D02*
X51207857Y-94529819D01*
X51493571Y-94529819D02*
X51493571Y-93529819D01*
X51493571Y-93529819D02*
X51398333Y-93672676D01*
X51398333Y-93672676D02*
X51303095Y-93767914D01*
X51303095Y-93767914D02*
X51207857Y-93815533D01*
X51525476Y-99719819D02*
X51858809Y-100719819D01*
X51858809Y-100719819D02*
X52192142Y-99719819D01*
X52477857Y-99815057D02*
X52525476Y-99767438D01*
X52525476Y-99767438D02*
X52620714Y-99719819D01*
X52620714Y-99719819D02*
X52858809Y-99719819D01*
X52858809Y-99719819D02*
X52954047Y-99767438D01*
X52954047Y-99767438D02*
X53001666Y-99815057D01*
X53001666Y-99815057D02*
X53049285Y-99910295D01*
X53049285Y-99910295D02*
X53049285Y-100005533D01*
X53049285Y-100005533D02*
X53001666Y-100148390D01*
X53001666Y-100148390D02*
X52430238Y-100719819D01*
X52430238Y-100719819D02*
X53049285Y-100719819D01*
X52795476Y-93529819D02*
X53128809Y-94529819D01*
X53128809Y-94529819D02*
X53462142Y-93529819D01*
X53700238Y-93529819D02*
X54319285Y-93529819D01*
X54319285Y-93529819D02*
X53985952Y-93910771D01*
X53985952Y-93910771D02*
X54128809Y-93910771D01*
X54128809Y-93910771D02*
X54224047Y-93958390D01*
X54224047Y-93958390D02*
X54271666Y-94006009D01*
X54271666Y-94006009D02*
X54319285Y-94101247D01*
X54319285Y-94101247D02*
X54319285Y-94339342D01*
X54319285Y-94339342D02*
X54271666Y-94434580D01*
X54271666Y-94434580D02*
X54224047Y-94482200D01*
X54224047Y-94482200D02*
X54128809Y-94529819D01*
X54128809Y-94529819D02*
X53843095Y-94529819D01*
X53843095Y-94529819D02*
X53747857Y-94482200D01*
X53747857Y-94482200D02*
X53700238Y-94434580D01*
X54398810Y-100719819D02*
X54398810Y-99719819D01*
X55398809Y-100719819D02*
X54827381Y-100719819D01*
X55113095Y-100719819D02*
X55113095Y-99719819D01*
X55113095Y-99719819D02*
X55017857Y-99862676D01*
X55017857Y-99862676D02*
X54922619Y-99957914D01*
X54922619Y-99957914D02*
X54827381Y-100005533D01*
X55668810Y-94529819D02*
X55668810Y-93529819D01*
X56097381Y-93625057D02*
X56145000Y-93577438D01*
X56145000Y-93577438D02*
X56240238Y-93529819D01*
X56240238Y-93529819D02*
X56478333Y-93529819D01*
X56478333Y-93529819D02*
X56573571Y-93577438D01*
X56573571Y-93577438D02*
X56621190Y-93625057D01*
X56621190Y-93625057D02*
X56668809Y-93720295D01*
X56668809Y-93720295D02*
X56668809Y-93815533D01*
X56668809Y-93815533D02*
X56621190Y-93958390D01*
X56621190Y-93958390D02*
X56049762Y-94529819D01*
X56049762Y-94529819D02*
X56668809Y-94529819D01*
X56938810Y-100719819D02*
X56938810Y-99719819D01*
X57319762Y-99719819D02*
X57938809Y-99719819D01*
X57938809Y-99719819D02*
X57605476Y-100100771D01*
X57605476Y-100100771D02*
X57748333Y-100100771D01*
X57748333Y-100100771D02*
X57843571Y-100148390D01*
X57843571Y-100148390D02*
X57891190Y-100196009D01*
X57891190Y-100196009D02*
X57938809Y-100291247D01*
X57938809Y-100291247D02*
X57938809Y-100529342D01*
X57938809Y-100529342D02*
X57891190Y-100624580D01*
X57891190Y-100624580D02*
X57843571Y-100672200D01*
X57843571Y-100672200D02*
X57748333Y-100719819D01*
X57748333Y-100719819D02*
X57462619Y-100719819D01*
X57462619Y-100719819D02*
X57367381Y-100672200D01*
X57367381Y-100672200D02*
X57319762Y-100624580D01*
X57194524Y-94482200D02*
X57337381Y-94529819D01*
X57337381Y-94529819D02*
X57575476Y-94529819D01*
X57575476Y-94529819D02*
X57670714Y-94482200D01*
X57670714Y-94482200D02*
X57718333Y-94434580D01*
X57718333Y-94434580D02*
X57765952Y-94339342D01*
X57765952Y-94339342D02*
X57765952Y-94244104D01*
X57765952Y-94244104D02*
X57718333Y-94148866D01*
X57718333Y-94148866D02*
X57670714Y-94101247D01*
X57670714Y-94101247D02*
X57575476Y-94053628D01*
X57575476Y-94053628D02*
X57385000Y-94006009D01*
X57385000Y-94006009D02*
X57289762Y-93958390D01*
X57289762Y-93958390D02*
X57242143Y-93910771D01*
X57242143Y-93910771D02*
X57194524Y-93815533D01*
X57194524Y-93815533D02*
X57194524Y-93720295D01*
X57194524Y-93720295D02*
X57242143Y-93625057D01*
X57242143Y-93625057D02*
X57289762Y-93577438D01*
X57289762Y-93577438D02*
X57385000Y-93529819D01*
X57385000Y-93529819D02*
X57623095Y-93529819D01*
X57623095Y-93529819D02*
X57765952Y-93577438D01*
X58765952Y-94434580D02*
X58718333Y-94482200D01*
X58718333Y-94482200D02*
X58575476Y-94529819D01*
X58575476Y-94529819D02*
X58480238Y-94529819D01*
X58480238Y-94529819D02*
X58337381Y-94482200D01*
X58337381Y-94482200D02*
X58242143Y-94386961D01*
X58242143Y-94386961D02*
X58194524Y-94291723D01*
X58194524Y-94291723D02*
X58146905Y-94101247D01*
X58146905Y-94101247D02*
X58146905Y-93958390D01*
X58146905Y-93958390D02*
X58194524Y-93767914D01*
X58194524Y-93767914D02*
X58242143Y-93672676D01*
X58242143Y-93672676D02*
X58337381Y-93577438D01*
X58337381Y-93577438D02*
X58480238Y-93529819D01*
X58480238Y-93529819D02*
X58575476Y-93529819D01*
X58575476Y-93529819D02*
X58718333Y-93577438D01*
X58718333Y-93577438D02*
X58765952Y-93625057D01*
X59670714Y-94529819D02*
X59194524Y-94529819D01*
X59194524Y-94529819D02*
X59194524Y-93529819D01*
X58440714Y-100672200D02*
X58583571Y-100719819D01*
X58583571Y-100719819D02*
X58821666Y-100719819D01*
X58821666Y-100719819D02*
X58916904Y-100672200D01*
X58916904Y-100672200D02*
X58964523Y-100624580D01*
X58964523Y-100624580D02*
X59012142Y-100529342D01*
X59012142Y-100529342D02*
X59012142Y-100434104D01*
X59012142Y-100434104D02*
X58964523Y-100338866D01*
X58964523Y-100338866D02*
X58916904Y-100291247D01*
X58916904Y-100291247D02*
X58821666Y-100243628D01*
X58821666Y-100243628D02*
X58631190Y-100196009D01*
X58631190Y-100196009D02*
X58535952Y-100148390D01*
X58535952Y-100148390D02*
X58488333Y-100100771D01*
X58488333Y-100100771D02*
X58440714Y-100005533D01*
X58440714Y-100005533D02*
X58440714Y-99910295D01*
X58440714Y-99910295D02*
X58488333Y-99815057D01*
X58488333Y-99815057D02*
X58535952Y-99767438D01*
X58535952Y-99767438D02*
X58631190Y-99719819D01*
X58631190Y-99719819D02*
X58869285Y-99719819D01*
X58869285Y-99719819D02*
X59012142Y-99767438D01*
X59440714Y-100719819D02*
X59440714Y-99719819D01*
X59440714Y-99719819D02*
X59678809Y-99719819D01*
X59678809Y-99719819D02*
X59821666Y-99767438D01*
X59821666Y-99767438D02*
X59916904Y-99862676D01*
X59916904Y-99862676D02*
X59964523Y-99957914D01*
X59964523Y-99957914D02*
X60012142Y-100148390D01*
X60012142Y-100148390D02*
X60012142Y-100291247D01*
X60012142Y-100291247D02*
X59964523Y-100481723D01*
X59964523Y-100481723D02*
X59916904Y-100576961D01*
X59916904Y-100576961D02*
X59821666Y-100672200D01*
X59821666Y-100672200D02*
X59678809Y-100719819D01*
X59678809Y-100719819D02*
X59440714Y-100719819D01*
X60393095Y-100434104D02*
X60869285Y-100434104D01*
X60297857Y-100719819D02*
X60631190Y-99719819D01*
X60631190Y-99719819D02*
X60964523Y-100719819D01*
X60705952Y-94529819D02*
X60134524Y-94529819D01*
X60420238Y-94529819D02*
X60420238Y-93529819D01*
X60420238Y-93529819D02*
X60325000Y-93672676D01*
X60325000Y-93672676D02*
X60229762Y-93767914D01*
X60229762Y-93767914D02*
X60134524Y-93815533D01*
X61086905Y-93625057D02*
X61134524Y-93577438D01*
X61134524Y-93577438D02*
X61229762Y-93529819D01*
X61229762Y-93529819D02*
X61467857Y-93529819D01*
X61467857Y-93529819D02*
X61563095Y-93577438D01*
X61563095Y-93577438D02*
X61610714Y-93625057D01*
X61610714Y-93625057D02*
X61658333Y-93720295D01*
X61658333Y-93720295D02*
X61658333Y-93815533D01*
X61658333Y-93815533D02*
X61610714Y-93958390D01*
X61610714Y-93958390D02*
X61039286Y-94529819D01*
X61039286Y-94529819D02*
X61658333Y-94529819D01*
X61944048Y-93529819D02*
X62277381Y-94529819D01*
X62277381Y-94529819D02*
X62610714Y-93529819D01*
X62133095Y-99767438D02*
X62037857Y-99719819D01*
X62037857Y-99719819D02*
X61895000Y-99719819D01*
X61895000Y-99719819D02*
X61752143Y-99767438D01*
X61752143Y-99767438D02*
X61656905Y-99862676D01*
X61656905Y-99862676D02*
X61609286Y-99957914D01*
X61609286Y-99957914D02*
X61561667Y-100148390D01*
X61561667Y-100148390D02*
X61561667Y-100291247D01*
X61561667Y-100291247D02*
X61609286Y-100481723D01*
X61609286Y-100481723D02*
X61656905Y-100576961D01*
X61656905Y-100576961D02*
X61752143Y-100672200D01*
X61752143Y-100672200D02*
X61895000Y-100719819D01*
X61895000Y-100719819D02*
X61990238Y-100719819D01*
X61990238Y-100719819D02*
X62133095Y-100672200D01*
X62133095Y-100672200D02*
X62180714Y-100624580D01*
X62180714Y-100624580D02*
X62180714Y-100291247D01*
X62180714Y-100291247D02*
X61990238Y-100291247D01*
X62609286Y-100719819D02*
X62609286Y-99719819D01*
X62609286Y-99719819D02*
X63180714Y-100719819D01*
X63180714Y-100719819D02*
X63180714Y-99719819D01*
X63656905Y-100719819D02*
X63656905Y-99719819D01*
X63656905Y-99719819D02*
X63895000Y-99719819D01*
X63895000Y-99719819D02*
X64037857Y-99767438D01*
X64037857Y-99767438D02*
X64133095Y-99862676D01*
X64133095Y-99862676D02*
X64180714Y-99957914D01*
X64180714Y-99957914D02*
X64228333Y-100148390D01*
X64228333Y-100148390D02*
X64228333Y-100291247D01*
X64228333Y-100291247D02*
X64180714Y-100481723D01*
X64180714Y-100481723D02*
X64133095Y-100576961D01*
X64133095Y-100576961D02*
X64037857Y-100672200D01*
X64037857Y-100672200D02*
X63895000Y-100719819D01*
X63895000Y-100719819D02*
X63656905Y-100719819D01*
X63067381Y-94529819D02*
X63067381Y-93529819D01*
X63543571Y-94529819D02*
X63543571Y-93529819D01*
X63543571Y-93529819D02*
X64114999Y-94529819D01*
X64114999Y-94529819D02*
X64114999Y-93529819D01*
X64591190Y-94529819D02*
X64591190Y-93529819D01*
X64591190Y-94006009D02*
X65162618Y-94006009D01*
X65162618Y-94529819D02*
X65162618Y-93529819D01*
D11*
X82935858Y-92165000D02*
X82461342Y-92165000D01*
X82935858Y-93210000D02*
X82461342Y-93210000D01*
X73769700Y-96927820D02*
X73769700Y-97208980D01*
X74789700Y-96927820D02*
X74789700Y-97208980D01*
X63595800Y-106339620D02*
X63595800Y-106620780D01*
X64615800Y-106339620D02*
X64615800Y-106620780D01*
X76875558Y-79511300D02*
X76401042Y-79511300D01*
X76875558Y-80556300D02*
X76401042Y-80556300D01*
X75387258Y-99035900D02*
X74912742Y-99035900D01*
X75387258Y-100080900D02*
X74912742Y-100080900D01*
X62078300Y-89218000D02*
X63898300Y-89218000D01*
X62078300Y-89268000D02*
X62078300Y-89218000D01*
X62078300Y-92338000D02*
X62078300Y-92288000D01*
X63898300Y-89218000D02*
X63898300Y-89268000D01*
X63898300Y-90388000D02*
X63898300Y-91168000D01*
X63898300Y-92288000D02*
X63898300Y-92338000D01*
X63898300Y-92338000D02*
X62078300Y-92338000D01*
X61538300Y-89268000D02*
X61298300Y-88938000D01*
X61778300Y-88938000D01*
X61538300Y-89268000D01*
G36*
X61538300Y-89268000D02*
G01*
X61298300Y-88938000D01*
X61778300Y-88938000D01*
X61538300Y-89268000D01*
G37*
X73562900Y-100545600D02*
X77682900Y-100545600D01*
X73562900Y-100600600D02*
X73562900Y-100545600D01*
X73562900Y-110665600D02*
X73562900Y-110610600D01*
X77682900Y-100545600D02*
X77682900Y-100600600D01*
X77682900Y-110610600D02*
X77682900Y-110665600D01*
X77682900Y-110665600D02*
X73562900Y-110665600D01*
X73022900Y-100595600D02*
X72782900Y-100265600D01*
X73262900Y-100265600D01*
X73022900Y-100595600D01*
G36*
X73022900Y-100595600D02*
G01*
X72782900Y-100265600D01*
X73262900Y-100265600D01*
X73022900Y-100595600D01*
G37*
X77417842Y-70935900D02*
X77892358Y-70935900D01*
X77417842Y-71980900D02*
X77892358Y-71980900D01*
X47124000Y-103215820D02*
X47124000Y-103496980D01*
X48144000Y-103215820D02*
X48144000Y-103496980D01*
X53381400Y-81747200D02*
X53446400Y-81747200D01*
X53381400Y-85867200D02*
X53381400Y-81747200D01*
X53446400Y-85867200D02*
X53381400Y-85867200D01*
X62186400Y-81747200D02*
X62251400Y-81747200D01*
X62251400Y-81747200D02*
X62251400Y-85867200D01*
X62251400Y-85867200D02*
X62186400Y-85867200D01*
X53446400Y-86407200D02*
X53116400Y-86647200D01*
X53116400Y-86167200D01*
X53446400Y-86407200D01*
G36*
X53446400Y-86407200D02*
G01*
X53116400Y-86647200D01*
X53116400Y-86167200D01*
X53446400Y-86407200D01*
G37*
X72968880Y-79667500D02*
X72687720Y-79667500D01*
X72968880Y-80687500D02*
X72687720Y-80687500D01*
X62708300Y-87243164D02*
X62708300Y-86789036D01*
X64178300Y-87243164D02*
X64178300Y-86789036D01*
X81910936Y-93722900D02*
X82365064Y-93722900D01*
X81910936Y-95192900D02*
X82365064Y-95192900D01*
X73723336Y-112673700D02*
X74177464Y-112673700D01*
X73723336Y-114143700D02*
X74177464Y-114143700D01*
X77509000Y-113099858D02*
X77509000Y-112625342D01*
X78554000Y-113099858D02*
X78554000Y-112625342D01*
X49550958Y-105141500D02*
X49076442Y-105141500D01*
X49550958Y-106186500D02*
X49076442Y-106186500D01*
X51499000Y-73387642D02*
X51499000Y-73862158D01*
X52544000Y-73387642D02*
X52544000Y-73862158D01*
X51760600Y-75202900D02*
X51760600Y-79212900D01*
X53760600Y-75202900D02*
X51760600Y-75202900D01*
X53760600Y-75202900D02*
X53760600Y-79212900D01*
X79021900Y-90468920D02*
X79021900Y-90750080D01*
X80041900Y-90468920D02*
X80041900Y-90750080D01*
X83638142Y-90395500D02*
X84112658Y-90395500D01*
X83638142Y-91440500D02*
X84112658Y-91440500D01*
X51878600Y-85149558D02*
X51878600Y-84675042D01*
X52923600Y-85149558D02*
X52923600Y-84675042D01*
X50221300Y-77770080D02*
X50221300Y-77488920D01*
X51241300Y-77770080D02*
X51241300Y-77488920D01*
X58259100Y-105117742D02*
X58259100Y-105592258D01*
X59304100Y-105117742D02*
X59304100Y-105592258D01*
X72626942Y-91871900D02*
X73101458Y-91871900D01*
X72626942Y-92916900D02*
X73101458Y-92916900D01*
X79563400Y-97234700D02*
X79628400Y-97234700D01*
X79563400Y-101354700D02*
X79563400Y-97234700D01*
X79628400Y-101354700D02*
X79563400Y-101354700D01*
X88368400Y-97234700D02*
X88433400Y-97234700D01*
X88433400Y-97234700D02*
X88433400Y-101354700D01*
X88433400Y-101354700D02*
X88368400Y-101354700D01*
X88698400Y-96934700D02*
X88368400Y-96694700D01*
X88698400Y-96454700D01*
X88698400Y-96934700D01*
G36*
X88698400Y-96934700D02*
G01*
X88368400Y-96694700D01*
X88698400Y-96454700D01*
X88698400Y-96934700D01*
G37*
X79794200Y-112254442D02*
X79794200Y-112728958D01*
X80839200Y-112254442D02*
X80839200Y-112728958D01*
X85469000Y-90101000D02*
X85469000Y-92101000D01*
X85469000Y-90101000D02*
X89479000Y-90101000D01*
X85469000Y-92101000D02*
X89479000Y-92101000D01*
X79821900Y-108752842D02*
X79821900Y-109227358D01*
X80866900Y-108752842D02*
X80866900Y-109227358D01*
X72780600Y-82642800D02*
X72835600Y-82642800D01*
X72780600Y-86762800D02*
X72780600Y-82642800D01*
X72835600Y-86762800D02*
X72780600Y-86762800D01*
X82845600Y-82642800D02*
X82900600Y-82642800D01*
X82900600Y-82642800D02*
X82900600Y-86762800D01*
X82900600Y-86762800D02*
X82845600Y-86762800D01*
X72830600Y-87302800D02*
X72500600Y-87542800D01*
X72500600Y-87062800D01*
X72830600Y-87302800D01*
G36*
X72830600Y-87302800D02*
G01*
X72500600Y-87542800D01*
X72500600Y-87062800D01*
X72830600Y-87302800D01*
G37*
X54197942Y-89445300D02*
X54672458Y-89445300D01*
X54197942Y-90490300D02*
X54672458Y-90490300D01*
X46206700Y-79358000D02*
X46206700Y-81358000D01*
X46206700Y-79358000D02*
X50216700Y-79358000D01*
X46206700Y-81358000D02*
X50216700Y-81358000D01*
X52628320Y-87821700D02*
X52909480Y-87821700D01*
X52628320Y-88841700D02*
X52909480Y-88841700D01*
X47368600Y-84923200D02*
X49188600Y-84923200D01*
X47368600Y-84973200D02*
X47368600Y-84923200D01*
X47368600Y-88043200D02*
X47368600Y-87993200D01*
X49188600Y-84923200D02*
X49188600Y-84973200D01*
X49188600Y-86093200D02*
X49188600Y-86873200D01*
X49188600Y-87993200D02*
X49188600Y-88043200D01*
X49188600Y-88043200D02*
X47368600Y-88043200D01*
X46828600Y-84973200D02*
X46588600Y-84643200D01*
X47068600Y-84643200D01*
X46828600Y-84973200D01*
G36*
X46828600Y-84973200D02*
G01*
X46588600Y-84643200D01*
X47068600Y-84643200D01*
X46828600Y-84973200D01*
G37*
X66757800Y-70453100D02*
X66757800Y-72153100D01*
X66757800Y-70453100D02*
X69417800Y-70453100D01*
X66757800Y-72153100D02*
X69417800Y-72153100D01*
X88900300Y-101126180D02*
X88900300Y-100845020D01*
X89920300Y-101126180D02*
X89920300Y-100845020D01*
X49245600Y-107991142D02*
X49245600Y-108465658D01*
X50290600Y-107991142D02*
X50290600Y-108465658D01*
X49165642Y-81809000D02*
X49640158Y-81809000D01*
X49165642Y-82854000D02*
X49640158Y-82854000D01*
X76588042Y-93955400D02*
X77062558Y-93955400D01*
X76588042Y-95000400D02*
X77062558Y-95000400D01*
X46578200Y-83446958D02*
X46578200Y-82972442D01*
X47623200Y-83446958D02*
X47623200Y-82972442D01*
X52998000Y-75032200D02*
X52998000Y-71022200D01*
X52998000Y-75032200D02*
X54998000Y-75032200D01*
X54998000Y-75032200D02*
X54998000Y-71022200D01*
X71776100Y-97017220D02*
X71776100Y-97298380D01*
X72796100Y-97017220D02*
X72796100Y-97298380D01*
X74833558Y-70863500D02*
X74359042Y-70863500D01*
X74833558Y-71908500D02*
X74359042Y-71908500D01*
X57939900Y-89365058D02*
X57939900Y-88890542D01*
X58984900Y-89365058D02*
X58984900Y-88890542D01*
X79439600Y-73512358D02*
X79439600Y-73037842D01*
X80484600Y-73512358D02*
X80484600Y-73037842D01*
X71985200Y-90318558D02*
X71985200Y-89844042D01*
X73030200Y-90318558D02*
X73030200Y-89844042D01*
X75806600Y-96563842D02*
X75806600Y-97038358D01*
X76851600Y-96563842D02*
X76851600Y-97038358D01*
X73848342Y-111112700D02*
X74322858Y-111112700D01*
X73848342Y-112157700D02*
X74322858Y-112157700D01*
X88935200Y-108107120D02*
X88935200Y-108388280D01*
X89955200Y-108107120D02*
X89955200Y-108388280D01*
X85155742Y-93836000D02*
X85630258Y-93836000D01*
X85155742Y-94881000D02*
X85630258Y-94881000D01*
X46454100Y-90217420D02*
X46454100Y-90498580D01*
X47474100Y-90217420D02*
X47474100Y-90498580D01*
X47936200Y-89477000D02*
X47986200Y-89477000D01*
X47936200Y-91297000D02*
X47936200Y-89477000D01*
X47986200Y-91297000D02*
X47936200Y-91297000D01*
X49106200Y-89477000D02*
X49886200Y-89477000D01*
X51006200Y-89477000D02*
X51056200Y-89477000D01*
X51056200Y-89477000D02*
X51056200Y-91297000D01*
X51056200Y-91297000D02*
X51006200Y-91297000D01*
X47986200Y-91837000D02*
X47656200Y-92077000D01*
X47656200Y-91597000D01*
X47986200Y-91837000D01*
G36*
X47986200Y-91837000D02*
G01*
X47656200Y-92077000D01*
X47656200Y-91597000D01*
X47986200Y-91837000D01*
G37*
X78893000Y-78755052D02*
X78893000Y-78232548D01*
X80363000Y-78755052D02*
X80363000Y-78232548D01*
X51889200Y-81436442D02*
X51889200Y-81910958D01*
X52934200Y-81436442D02*
X52934200Y-81910958D01*
X55448000Y-73077658D02*
X55448000Y-72603142D01*
X56493000Y-73077658D02*
X56493000Y-72603142D01*
X56334700Y-91074980D02*
X56334700Y-90793820D01*
X57354700Y-91074980D02*
X57354700Y-90793820D01*
X54154100Y-75204000D02*
X54154100Y-79214000D01*
X56154100Y-75204000D02*
X54154100Y-75204000D01*
X56154100Y-75204000D02*
X56154100Y-79214000D01*
X88517100Y-78400580D02*
X88517100Y-78119420D01*
X89537100Y-78400580D02*
X89537100Y-78119420D01*
X88890500Y-96887720D02*
X88890500Y-97168880D01*
X89910500Y-96887720D02*
X89910500Y-97168880D01*
X53605942Y-91189900D02*
X54080458Y-91189900D01*
X53605942Y-92234900D02*
X54080458Y-92234900D01*
X84834900Y-80834400D02*
X88954900Y-80834400D01*
X84834900Y-80899400D02*
X84834900Y-80834400D01*
X84834900Y-89704400D02*
X84834900Y-89639400D01*
X88954900Y-80834400D02*
X88954900Y-80899400D01*
X88954900Y-89639400D02*
X88954900Y-89704400D01*
X88954900Y-89704400D02*
X84834900Y-89704400D01*
X84294900Y-80899400D02*
X84054900Y-80569400D01*
X84534900Y-80569400D01*
X84294900Y-80899400D01*
G36*
X84294900Y-80899400D02*
G01*
X84054900Y-80569400D01*
X84534900Y-80569400D01*
X84294900Y-80899400D01*
G37*
X49553380Y-83431800D02*
X49272220Y-83431800D01*
X49553380Y-84451800D02*
X49272220Y-84451800D01*
X58508758Y-71579700D02*
X58034242Y-71579700D01*
X58508758Y-72624700D02*
X58034242Y-72624700D01*
X59005520Y-91034800D02*
X59286680Y-91034800D01*
X59005520Y-92054800D02*
X59286680Y-92054800D01*
X48794300Y-103118142D02*
X48794300Y-103592658D01*
X49839300Y-103118142D02*
X49839300Y-103592658D01*
X80608400Y-89959336D02*
X80608400Y-90413464D01*
X82078400Y-89959336D02*
X82078400Y-90413464D01*
X70905858Y-111816500D02*
X70431342Y-111816500D01*
X70905858Y-112861500D02*
X70431342Y-112861500D01*
X82252358Y-104439000D02*
X81777842Y-104439000D01*
X82252358Y-105484000D02*
X81777842Y-105484000D01*
X89334300Y-75254680D02*
X89334300Y-74973520D01*
X90354300Y-75254680D02*
X90354300Y-74973520D01*
X59943264Y-102097900D02*
X59489136Y-102097900D01*
X59943264Y-103567900D02*
X59489136Y-103567900D01*
X73490564Y-93746300D02*
X73036436Y-93746300D01*
X73490564Y-95216300D02*
X73036436Y-95216300D01*
X61517742Y-104083300D02*
X61992258Y-104083300D01*
X61517742Y-105128300D02*
X61992258Y-105128300D01*
X71780558Y-70853900D02*
X71306042Y-70853900D01*
X71780558Y-71898900D02*
X71306042Y-71898900D01*
X63788300Y-103135242D02*
X63788300Y-103609758D01*
X64833300Y-103135242D02*
X64833300Y-103609758D01*
X77921500Y-97345858D02*
X77921500Y-96871342D01*
X78966500Y-97345858D02*
X78966500Y-96871342D01*
X79012700Y-93445342D02*
X79012700Y-93919858D01*
X80057700Y-93445342D02*
X80057700Y-93919858D01*
X70885958Y-113369400D02*
X70411442Y-113369400D01*
X70885958Y-114414400D02*
X70411442Y-114414400D01*
X75447200Y-90534600D02*
X75497200Y-90534600D01*
X75447200Y-92354600D02*
X75447200Y-90534600D01*
X75497200Y-92354600D02*
X75447200Y-92354600D01*
X77397200Y-92354600D02*
X76617200Y-92354600D01*
X78517200Y-90534600D02*
X78567200Y-90534600D01*
X78567200Y-90534600D02*
X78567200Y-92354600D01*
X78567200Y-92354600D02*
X78517200Y-92354600D01*
X78847200Y-90234600D02*
X78517200Y-89994600D01*
X78847200Y-89754600D01*
X78847200Y-90234600D01*
G36*
X78847200Y-90234600D02*
G01*
X78517200Y-89994600D01*
X78847200Y-89754600D01*
X78847200Y-90234600D01*
G37*
X82427500Y-71575300D02*
X86547500Y-71575300D01*
X82427500Y-71640300D02*
X82427500Y-71575300D01*
X82427500Y-80445300D02*
X82427500Y-80380300D01*
X86547500Y-71575300D02*
X86547500Y-71640300D01*
X86547500Y-80380300D02*
X86547500Y-80445300D01*
X86547500Y-80445300D02*
X82427500Y-80445300D01*
X87327500Y-80710300D02*
X86847500Y-80710300D01*
X87087500Y-80380300D01*
X87327500Y-80710300D01*
G36*
X87327500Y-80710300D02*
G01*
X86847500Y-80710300D01*
X87087500Y-80380300D01*
X87327500Y-80710300D01*
G37*
X75951400Y-112812258D02*
X75951400Y-112337742D01*
X76996400Y-112812258D02*
X76996400Y-112337742D01*
D12*
X49915000Y-97500000D02*
G75*
G02*
X49615000Y-97500000I-150000J0D01*
G01*
X49615000Y-97500000D02*
G75*
G02*
X49915000Y-97500000I150000J0D01*
G01*
D11*
X46439000Y-77756080D02*
X46439000Y-77474920D01*
X47459000Y-77756080D02*
X47459000Y-77474920D01*
%LPC*%
D13*
X83523600Y-92687500D03*
X81873600Y-92687500D03*
D14*
X74279700Y-96293400D03*
X74279700Y-97843400D03*
X64105800Y-105705200D03*
X64105800Y-107255200D03*
D13*
X77463300Y-80033800D03*
X75813300Y-80033800D03*
X75975000Y-99558400D03*
X74325000Y-99558400D03*
D15*
X61850800Y-89828000D03*
X61850800Y-90778000D03*
X61850800Y-91728000D03*
X64125800Y-91728000D03*
X64125800Y-89828000D03*
D16*
X73147900Y-101160600D03*
X73147900Y-102430600D03*
X73147900Y-103700600D03*
X73147900Y-104970600D03*
X73147900Y-106240600D03*
X73147900Y-107510600D03*
X73147900Y-108780600D03*
X73147900Y-110050600D03*
X78097900Y-110050600D03*
X78097900Y-108780600D03*
X78097900Y-107510600D03*
X78097900Y-106240600D03*
X78097900Y-104970600D03*
X78097900Y-103700600D03*
X78097900Y-102430600D03*
X78097900Y-101160600D03*
D17*
X76830100Y-71458400D03*
X78480100Y-71458400D03*
D14*
X47634000Y-102581400D03*
X47634000Y-104131400D03*
D18*
X54006400Y-86282200D03*
X55276400Y-86282200D03*
X56546400Y-86282200D03*
X57816400Y-86282200D03*
X59086400Y-86282200D03*
X60356400Y-86282200D03*
X61626400Y-86282200D03*
X61626400Y-81332200D03*
X60356400Y-81332200D03*
X59086400Y-81332200D03*
X57816400Y-81332200D03*
X56546400Y-81332200D03*
X55276400Y-81332200D03*
X54006400Y-81332200D03*
D19*
X73603300Y-80177500D03*
X72053300Y-80177500D03*
D20*
X63443300Y-87928600D03*
X63443300Y-86103600D03*
D21*
X81225500Y-94457900D03*
X83050500Y-94457900D03*
X73037900Y-113408700D03*
X74862900Y-113408700D03*
D22*
X78031500Y-113687600D03*
X78031500Y-112037600D03*
D13*
X50138700Y-105664000D03*
X48488700Y-105664000D03*
D23*
X52021500Y-72799900D03*
X52021500Y-74449900D03*
D24*
X52760600Y-75912900D03*
X52760600Y-79212900D03*
D14*
X79531900Y-89834500D03*
X79531900Y-91384500D03*
D17*
X83050400Y-90918000D03*
X84700400Y-90918000D03*
D22*
X52401100Y-85737300D03*
X52401100Y-84087300D03*
D25*
X50731300Y-78404500D03*
X50731300Y-76854500D03*
D23*
X58781600Y-104530000D03*
X58781600Y-106180000D03*
D17*
X72039200Y-92394400D03*
X73689200Y-92394400D03*
D26*
X87808400Y-96819700D03*
X86538400Y-96819700D03*
X85268400Y-96819700D03*
X83998400Y-96819700D03*
X82728400Y-96819700D03*
X81458400Y-96819700D03*
X80188400Y-96819700D03*
X80188400Y-101769700D03*
X81458400Y-101769700D03*
X82728400Y-101769700D03*
X83998400Y-101769700D03*
X85268400Y-101769700D03*
X86538400Y-101769700D03*
X87808400Y-101769700D03*
D23*
X80316700Y-111666700D03*
X80316700Y-113316700D03*
D27*
X86179000Y-91101000D03*
X89479000Y-91101000D03*
D23*
X80344400Y-108165100D03*
X80344400Y-109815100D03*
D18*
X73395600Y-87177800D03*
X74665600Y-87177800D03*
X75935600Y-87177800D03*
X77205600Y-87177800D03*
X78475600Y-87177800D03*
X79745600Y-87177800D03*
X81015600Y-87177800D03*
X82285600Y-87177800D03*
X82285600Y-82227800D03*
X81015600Y-82227800D03*
X79745600Y-82227800D03*
X78475600Y-82227800D03*
X77205600Y-82227800D03*
X75935600Y-82227800D03*
X74665600Y-82227800D03*
X73395600Y-82227800D03*
D17*
X53610200Y-89967800D03*
X55260200Y-89967800D03*
D27*
X46916700Y-80358000D03*
X50216700Y-80358000D03*
D28*
X51993900Y-88331700D03*
X53543900Y-88331700D03*
D15*
X47141100Y-85533200D03*
X47141100Y-86483200D03*
X47141100Y-87433200D03*
X49416100Y-87433200D03*
X49416100Y-85533200D03*
D29*
X67317800Y-71303100D03*
X69417800Y-71303100D03*
D25*
X89410300Y-101760600D03*
X89410300Y-100210600D03*
D23*
X49768100Y-107403400D03*
X49768100Y-109053400D03*
D30*
X54456685Y-106463745D03*
D17*
X48577900Y-82331500D03*
X50227900Y-82331500D03*
X76000300Y-94477900D03*
X77650300Y-94477900D03*
D22*
X47100700Y-84034700D03*
X47100700Y-82384700D03*
D31*
X53998000Y-74322200D03*
X53998000Y-71022200D03*
D14*
X72286100Y-96382800D03*
X72286100Y-97932800D03*
D13*
X75421300Y-71386000D03*
X73771300Y-71386000D03*
D22*
X58462400Y-89952800D03*
X58462400Y-88302800D03*
X79962100Y-74100100D03*
X79962100Y-72450100D03*
X72507700Y-90906300D03*
X72507700Y-89256300D03*
D23*
X76329100Y-95976100D03*
X76329100Y-97626100D03*
D17*
X73260600Y-111635200D03*
X74910600Y-111635200D03*
D14*
X89445200Y-107472700D03*
X89445200Y-109022700D03*
D17*
X84568000Y-94358500D03*
X86218000Y-94358500D03*
D14*
X46964100Y-89583000D03*
X46964100Y-91133000D03*
D32*
X48546200Y-91524500D03*
X49496200Y-91524500D03*
X50446200Y-91524500D03*
X50446200Y-89249500D03*
X48546200Y-89249500D03*
D33*
X79628000Y-79443800D03*
X79628000Y-77543800D03*
D23*
X52411700Y-80848700D03*
X52411700Y-82498700D03*
D22*
X55970500Y-73665400D03*
X55970500Y-72015400D03*
D25*
X56844700Y-91709400D03*
X56844700Y-90159400D03*
D24*
X55154100Y-75914000D03*
X55154100Y-79214000D03*
D30*
X75070812Y-75750733D03*
D25*
X89027100Y-79035000D03*
X89027100Y-77485000D03*
D14*
X89400500Y-96253300D03*
X89400500Y-97803300D03*
D30*
X60675290Y-76513695D03*
D17*
X53018200Y-91712400D03*
X54668200Y-91712400D03*
D16*
X84419900Y-81459400D03*
X84419900Y-82729400D03*
X84419900Y-83999400D03*
X84419900Y-85269400D03*
X84419900Y-86539400D03*
X84419900Y-87809400D03*
X84419900Y-89079400D03*
X89369900Y-89079400D03*
X89369900Y-87809400D03*
X89369900Y-86539400D03*
X89369900Y-85269400D03*
X89369900Y-83999400D03*
X89369900Y-82729400D03*
X89369900Y-81459400D03*
D19*
X50187800Y-83941800D03*
X48637800Y-83941800D03*
D13*
X59096500Y-72102200D03*
X57446500Y-72102200D03*
D28*
X58371100Y-91544800D03*
X59921100Y-91544800D03*
D23*
X49316800Y-102530400D03*
X49316800Y-104180400D03*
D34*
X81343400Y-89273900D03*
X81343400Y-91098900D03*
D13*
X71493600Y-112339000D03*
X69843600Y-112339000D03*
X82840100Y-104961500D03*
X81190100Y-104961500D03*
D25*
X89844300Y-75889100D03*
X89844300Y-74339100D03*
D35*
X60628700Y-102832900D03*
X58803700Y-102832900D03*
X74176000Y-94481300D03*
X72351000Y-94481300D03*
D17*
X60930000Y-104605800D03*
X62580000Y-104605800D03*
D13*
X72368300Y-71376400D03*
X70718300Y-71376400D03*
D23*
X64310800Y-102547500D03*
X64310800Y-104197500D03*
D22*
X78444000Y-97933600D03*
X78444000Y-96283600D03*
D30*
X85121167Y-109507071D03*
D23*
X79535200Y-92857600D03*
X79535200Y-94507600D03*
D13*
X71473700Y-113891900D03*
X69823700Y-113891900D03*
D36*
X77957200Y-90307100D03*
X77007200Y-90307100D03*
X76057200Y-90307100D03*
X76057200Y-92582100D03*
X77957200Y-92582100D03*
D37*
X86962500Y-79820300D03*
X86962500Y-78550300D03*
X86962500Y-77280300D03*
X86962500Y-76010300D03*
X86962500Y-74740300D03*
X86962500Y-73470300D03*
X86962500Y-72200300D03*
X82012500Y-72200300D03*
X82012500Y-73470300D03*
X82012500Y-74740300D03*
X82012500Y-76010300D03*
X82012500Y-77280300D03*
X82012500Y-78550300D03*
X82012500Y-79820300D03*
D22*
X76473900Y-113400000D03*
X76473900Y-111750000D03*
D38*
X48165000Y-93470000D03*
X48165000Y-100870000D03*
D39*
X51065000Y-95900000D03*
D40*
X52335000Y-98440000D03*
X53605000Y-95900000D03*
X54875000Y-98440000D03*
X56145000Y-95900000D03*
X57415000Y-98440000D03*
X58685000Y-95900000D03*
X59955000Y-98440000D03*
X61225000Y-95900000D03*
X62495000Y-98440000D03*
X63765000Y-95900000D03*
D25*
X46949000Y-78390500D03*
X46949000Y-76840500D03*
D41*
X69476545Y-74158008D03*
D42*
X66936545Y-74158008D03*
X69476545Y-76698008D03*
X66936545Y-76698008D03*
X69476545Y-79238008D03*
X66936545Y-79238008D03*
X69476545Y-81778008D03*
X66936545Y-81778008D03*
X69476545Y-84318008D03*
X66936545Y-84318008D03*
X69476545Y-86858008D03*
X66936545Y-86858008D03*
X69476545Y-89398008D03*
X66936545Y-89398008D03*
X69476545Y-91938008D03*
X66936545Y-91938008D03*
X69476545Y-94478008D03*
X66936545Y-94478008D03*
X69476545Y-97018008D03*
X66936545Y-97018008D03*
X69476545Y-99558008D03*
X66936545Y-99558008D03*
X69476545Y-102098008D03*
X66936545Y-102098008D03*
X69476545Y-104638008D03*
X66936545Y-104638008D03*
X69476545Y-107178008D03*
X66936545Y-107178008D03*
X69476545Y-109718008D03*
X66936545Y-109718008D03*
%LPD*%
M02*
