%TF.GenerationSoftware,KiCad,Pcbnew,10.0.0*%
%TF.CreationDate,2026-10-02T21:48:23-07:00*%
%TF.ProjectId,BOOST_power_RC2,424f4f53-545f-4706-9f77-65725f524332,rev?*%
%TF.SameCoordinates,Original*%
%TF.FileFunction,Drillmap*%
%TF.FilePolarity,Positive*%
%FSLAX45Y45*%
G04 Gerber Fmt 4.5, Leading zero omitted, Abs format (unit mm)*
G04 Created by KiCad (PCBNEW 10.0.0) date 2026-10-02 21:48:23*
%MOMM*%
%LPD*%
G01*
G04 APERTURE LIST*
%ADD10C,0.100000*%
%ADD11C,0.200000*%
%ADD12C,0.290000*%
%ADD13C,0.320000*%
G04 APERTURE END LIST*
D10*
X3000000Y-3000000D02*
X8600000Y-3000000D01*
X3000000Y-11600000D02*
X3000000Y-3000000D01*
X8600000Y-3000000D02*
X8600000Y-4200000D01*
X8600000Y-4200000D02*
X10400000Y-4200000D01*
X10400000Y-4200000D02*
X10400000Y-11600000D01*
X10400000Y-11600000D02*
X3000000Y-11600000D01*
D11*
D12*
X3404675Y-9710545D02*
X3694675Y-10000545D01*
X3694675Y-9710545D02*
X3404675Y-10000545D01*
X3722219Y-6903859D02*
X4012219Y-7193859D01*
X4012219Y-6903859D02*
X3722219Y-7193859D01*
X5832078Y-8253702D02*
X6122078Y-8543703D01*
X6122078Y-8253702D02*
X5832078Y-8543703D01*
X9307539Y-4707053D02*
X9597539Y-4997053D01*
X9597539Y-4707053D02*
X9307539Y-4997053D01*
D13*
X5605668Y-10646375D02*
G75*
G02*
X5285669Y-10646375I-160000J0D01*
G01*
X5285669Y-10646375D02*
G75*
G02*
X5605668Y-10646375I160000J0D01*
G01*
X6227529Y-7651369D02*
G75*
G02*
X5907529Y-7651369I-160000J0D01*
G01*
X5907529Y-7651369D02*
G75*
G02*
X6227529Y-7651369I160000J0D01*
G01*
X7667081Y-7575073D02*
G75*
G02*
X7347081Y-7575073I-160000J0D01*
G01*
X7347081Y-7575073D02*
G75*
G02*
X7667081Y-7575073I160000J0D01*
G01*
X8672117Y-10950707D02*
G75*
G02*
X8352117Y-10950707I-160000J0D01*
G01*
X8352117Y-10950707D02*
G75*
G02*
X8672117Y-10950707I160000J0D01*
G01*
D11*
X3255777Y-11916484D02*
X3255777Y-11716484D01*
X3255777Y-11716484D02*
X3303396Y-11716484D01*
X3303396Y-11716484D02*
X3331967Y-11726008D01*
X3331967Y-11726008D02*
X3351015Y-11745055D01*
X3351015Y-11745055D02*
X3360539Y-11764103D01*
X3360539Y-11764103D02*
X3370062Y-11802198D01*
X3370062Y-11802198D02*
X3370062Y-11830769D01*
X3370062Y-11830769D02*
X3360539Y-11868865D01*
X3360539Y-11868865D02*
X3351015Y-11887912D01*
X3351015Y-11887912D02*
X3331967Y-11906960D01*
X3331967Y-11906960D02*
X3303396Y-11916484D01*
X3303396Y-11916484D02*
X3255777Y-11916484D01*
X3455777Y-11916484D02*
X3455777Y-11783150D01*
X3455777Y-11821246D02*
X3465301Y-11802198D01*
X3465301Y-11802198D02*
X3474824Y-11792674D01*
X3474824Y-11792674D02*
X3493872Y-11783150D01*
X3493872Y-11783150D02*
X3512920Y-11783150D01*
X3579586Y-11916484D02*
X3579586Y-11783150D01*
X3579586Y-11716484D02*
X3570062Y-11726008D01*
X3570062Y-11726008D02*
X3579586Y-11735531D01*
X3579586Y-11735531D02*
X3589110Y-11726008D01*
X3589110Y-11726008D02*
X3579586Y-11716484D01*
X3579586Y-11716484D02*
X3579586Y-11735531D01*
X3703396Y-11916484D02*
X3684348Y-11906960D01*
X3684348Y-11906960D02*
X3674824Y-11887912D01*
X3674824Y-11887912D02*
X3674824Y-11716484D01*
X3808158Y-11916484D02*
X3789110Y-11906960D01*
X3789110Y-11906960D02*
X3779586Y-11887912D01*
X3779586Y-11887912D02*
X3779586Y-11716484D01*
X4036729Y-11916484D02*
X4036729Y-11716484D01*
X4036729Y-11716484D02*
X4103396Y-11859341D01*
X4103396Y-11859341D02*
X4170062Y-11716484D01*
X4170062Y-11716484D02*
X4170062Y-11916484D01*
X4351015Y-11916484D02*
X4351015Y-11811722D01*
X4351015Y-11811722D02*
X4341491Y-11792674D01*
X4341491Y-11792674D02*
X4322444Y-11783150D01*
X4322444Y-11783150D02*
X4284348Y-11783150D01*
X4284348Y-11783150D02*
X4265301Y-11792674D01*
X4351015Y-11906960D02*
X4331967Y-11916484D01*
X4331967Y-11916484D02*
X4284348Y-11916484D01*
X4284348Y-11916484D02*
X4265301Y-11906960D01*
X4265301Y-11906960D02*
X4255777Y-11887912D01*
X4255777Y-11887912D02*
X4255777Y-11868865D01*
X4255777Y-11868865D02*
X4265301Y-11849817D01*
X4265301Y-11849817D02*
X4284348Y-11840293D01*
X4284348Y-11840293D02*
X4331967Y-11840293D01*
X4331967Y-11840293D02*
X4351015Y-11830769D01*
X4446253Y-11783150D02*
X4446253Y-11983150D01*
X4446253Y-11792674D02*
X4465301Y-11783150D01*
X4465301Y-11783150D02*
X4503396Y-11783150D01*
X4503396Y-11783150D02*
X4522444Y-11792674D01*
X4522444Y-11792674D02*
X4531967Y-11802198D01*
X4531967Y-11802198D02*
X4541491Y-11821246D01*
X4541491Y-11821246D02*
X4541491Y-11878388D01*
X4541491Y-11878388D02*
X4531967Y-11897436D01*
X4531967Y-11897436D02*
X4522444Y-11906960D01*
X4522444Y-11906960D02*
X4503396Y-11916484D01*
X4503396Y-11916484D02*
X4465301Y-11916484D01*
X4465301Y-11916484D02*
X4446253Y-11906960D01*
X4627205Y-11897436D02*
X4636729Y-11906960D01*
X4636729Y-11906960D02*
X4627205Y-11916484D01*
X4627205Y-11916484D02*
X4617682Y-11906960D01*
X4617682Y-11906960D02*
X4627205Y-11897436D01*
X4627205Y-11897436D02*
X4627205Y-11916484D01*
X4627205Y-11792674D02*
X4636729Y-11802198D01*
X4636729Y-11802198D02*
X4627205Y-11811722D01*
X4627205Y-11811722D02*
X4617682Y-11802198D01*
X4617682Y-11802198D02*
X4627205Y-11792674D01*
X4627205Y-11792674D02*
X4627205Y-11811722D01*
X2795000Y-12145000D02*
X2995000Y-12345000D01*
X2995000Y-12145000D02*
X2795000Y-12345000D01*
X3246253Y-12155531D02*
X3255777Y-12146008D01*
X3255777Y-12146008D02*
X3274824Y-12136484D01*
X3274824Y-12136484D02*
X3322443Y-12136484D01*
X3322443Y-12136484D02*
X3341491Y-12146008D01*
X3341491Y-12146008D02*
X3351015Y-12155531D01*
X3351015Y-12155531D02*
X3360539Y-12174579D01*
X3360539Y-12174579D02*
X3360539Y-12193627D01*
X3360539Y-12193627D02*
X3351015Y-12222198D01*
X3351015Y-12222198D02*
X3236729Y-12336484D01*
X3236729Y-12336484D02*
X3360539Y-12336484D01*
X3446253Y-12317436D02*
X3455777Y-12326960D01*
X3455777Y-12326960D02*
X3446253Y-12336484D01*
X3446253Y-12336484D02*
X3436729Y-12326960D01*
X3436729Y-12326960D02*
X3446253Y-12317436D01*
X3446253Y-12317436D02*
X3446253Y-12336484D01*
X3551015Y-12336484D02*
X3589110Y-12336484D01*
X3589110Y-12336484D02*
X3608158Y-12326960D01*
X3608158Y-12326960D02*
X3617682Y-12317436D01*
X3617682Y-12317436D02*
X3636729Y-12288865D01*
X3636729Y-12288865D02*
X3646253Y-12250769D01*
X3646253Y-12250769D02*
X3646253Y-12174579D01*
X3646253Y-12174579D02*
X3636729Y-12155531D01*
X3636729Y-12155531D02*
X3627205Y-12146008D01*
X3627205Y-12146008D02*
X3608158Y-12136484D01*
X3608158Y-12136484D02*
X3570062Y-12136484D01*
X3570062Y-12136484D02*
X3551015Y-12146008D01*
X3551015Y-12146008D02*
X3541491Y-12155531D01*
X3541491Y-12155531D02*
X3531967Y-12174579D01*
X3531967Y-12174579D02*
X3531967Y-12222198D01*
X3531967Y-12222198D02*
X3541491Y-12241246D01*
X3541491Y-12241246D02*
X3551015Y-12250769D01*
X3551015Y-12250769D02*
X3570062Y-12260293D01*
X3570062Y-12260293D02*
X3608158Y-12260293D01*
X3608158Y-12260293D02*
X3627205Y-12250769D01*
X3627205Y-12250769D02*
X3636729Y-12241246D01*
X3636729Y-12241246D02*
X3646253Y-12222198D01*
X3770062Y-12136484D02*
X3789110Y-12136484D01*
X3789110Y-12136484D02*
X3808158Y-12146008D01*
X3808158Y-12146008D02*
X3817682Y-12155531D01*
X3817682Y-12155531D02*
X3827205Y-12174579D01*
X3827205Y-12174579D02*
X3836729Y-12212674D01*
X3836729Y-12212674D02*
X3836729Y-12260293D01*
X3836729Y-12260293D02*
X3827205Y-12298388D01*
X3827205Y-12298388D02*
X3817682Y-12317436D01*
X3817682Y-12317436D02*
X3808158Y-12326960D01*
X3808158Y-12326960D02*
X3789110Y-12336484D01*
X3789110Y-12336484D02*
X3770062Y-12336484D01*
X3770062Y-12336484D02*
X3751015Y-12326960D01*
X3751015Y-12326960D02*
X3741491Y-12317436D01*
X3741491Y-12317436D02*
X3731967Y-12298388D01*
X3731967Y-12298388D02*
X3722443Y-12260293D01*
X3722443Y-12260293D02*
X3722443Y-12212674D01*
X3722443Y-12212674D02*
X3731967Y-12174579D01*
X3731967Y-12174579D02*
X3741491Y-12155531D01*
X3741491Y-12155531D02*
X3751015Y-12146008D01*
X3751015Y-12146008D02*
X3770062Y-12136484D01*
X3960539Y-12136484D02*
X3979586Y-12136484D01*
X3979586Y-12136484D02*
X3998634Y-12146008D01*
X3998634Y-12146008D02*
X4008158Y-12155531D01*
X4008158Y-12155531D02*
X4017682Y-12174579D01*
X4017682Y-12174579D02*
X4027205Y-12212674D01*
X4027205Y-12212674D02*
X4027205Y-12260293D01*
X4027205Y-12260293D02*
X4017682Y-12298388D01*
X4017682Y-12298388D02*
X4008158Y-12317436D01*
X4008158Y-12317436D02*
X3998634Y-12326960D01*
X3998634Y-12326960D02*
X3979586Y-12336484D01*
X3979586Y-12336484D02*
X3960539Y-12336484D01*
X3960539Y-12336484D02*
X3941491Y-12326960D01*
X3941491Y-12326960D02*
X3931967Y-12317436D01*
X3931967Y-12317436D02*
X3922443Y-12298388D01*
X3922443Y-12298388D02*
X3912920Y-12260293D01*
X3912920Y-12260293D02*
X3912920Y-12212674D01*
X3912920Y-12212674D02*
X3922443Y-12174579D01*
X3922443Y-12174579D02*
X3931967Y-12155531D01*
X3931967Y-12155531D02*
X3941491Y-12146008D01*
X3941491Y-12146008D02*
X3960539Y-12136484D01*
X4112920Y-12336484D02*
X4112920Y-12203150D01*
X4112920Y-12222198D02*
X4122443Y-12212674D01*
X4122443Y-12212674D02*
X4141491Y-12203150D01*
X4141491Y-12203150D02*
X4170063Y-12203150D01*
X4170063Y-12203150D02*
X4189110Y-12212674D01*
X4189110Y-12212674D02*
X4198634Y-12231722D01*
X4198634Y-12231722D02*
X4198634Y-12336484D01*
X4198634Y-12231722D02*
X4208158Y-12212674D01*
X4208158Y-12212674D02*
X4227205Y-12203150D01*
X4227205Y-12203150D02*
X4255777Y-12203150D01*
X4255777Y-12203150D02*
X4274825Y-12212674D01*
X4274825Y-12212674D02*
X4284348Y-12231722D01*
X4284348Y-12231722D02*
X4284348Y-12336484D01*
X4379586Y-12336484D02*
X4379586Y-12203150D01*
X4379586Y-12222198D02*
X4389110Y-12212674D01*
X4389110Y-12212674D02*
X4408158Y-12203150D01*
X4408158Y-12203150D02*
X4436729Y-12203150D01*
X4436729Y-12203150D02*
X4455777Y-12212674D01*
X4455777Y-12212674D02*
X4465301Y-12231722D01*
X4465301Y-12231722D02*
X4465301Y-12336484D01*
X4465301Y-12231722D02*
X4474825Y-12212674D01*
X4474825Y-12212674D02*
X4493872Y-12203150D01*
X4493872Y-12203150D02*
X4522444Y-12203150D01*
X4522444Y-12203150D02*
X4541491Y-12212674D01*
X4541491Y-12212674D02*
X4551015Y-12231722D01*
X4551015Y-12231722D02*
X4551015Y-12336484D01*
X4941491Y-12126960D02*
X4770063Y-12384103D01*
X5198634Y-12136484D02*
X5217682Y-12136484D01*
X5217682Y-12136484D02*
X5236729Y-12146008D01*
X5236729Y-12146008D02*
X5246253Y-12155531D01*
X5246253Y-12155531D02*
X5255777Y-12174579D01*
X5255777Y-12174579D02*
X5265301Y-12212674D01*
X5265301Y-12212674D02*
X5265301Y-12260293D01*
X5265301Y-12260293D02*
X5255777Y-12298388D01*
X5255777Y-12298388D02*
X5246253Y-12317436D01*
X5246253Y-12317436D02*
X5236729Y-12326960D01*
X5236729Y-12326960D02*
X5217682Y-12336484D01*
X5217682Y-12336484D02*
X5198634Y-12336484D01*
X5198634Y-12336484D02*
X5179587Y-12326960D01*
X5179587Y-12326960D02*
X5170063Y-12317436D01*
X5170063Y-12317436D02*
X5160539Y-12298388D01*
X5160539Y-12298388D02*
X5151015Y-12260293D01*
X5151015Y-12260293D02*
X5151015Y-12212674D01*
X5151015Y-12212674D02*
X5160539Y-12174579D01*
X5160539Y-12174579D02*
X5170063Y-12155531D01*
X5170063Y-12155531D02*
X5179587Y-12146008D01*
X5179587Y-12146008D02*
X5198634Y-12136484D01*
X5351015Y-12317436D02*
X5360539Y-12326960D01*
X5360539Y-12326960D02*
X5351015Y-12336484D01*
X5351015Y-12336484D02*
X5341491Y-12326960D01*
X5341491Y-12326960D02*
X5351015Y-12317436D01*
X5351015Y-12317436D02*
X5351015Y-12336484D01*
X5551015Y-12336484D02*
X5436729Y-12336484D01*
X5493872Y-12336484D02*
X5493872Y-12136484D01*
X5493872Y-12136484D02*
X5474825Y-12165055D01*
X5474825Y-12165055D02*
X5455777Y-12184103D01*
X5455777Y-12184103D02*
X5436729Y-12193627D01*
X5741491Y-12336484D02*
X5627206Y-12336484D01*
X5684348Y-12336484D02*
X5684348Y-12136484D01*
X5684348Y-12136484D02*
X5665301Y-12165055D01*
X5665301Y-12165055D02*
X5646253Y-12184103D01*
X5646253Y-12184103D02*
X5627206Y-12193627D01*
X5912920Y-12203150D02*
X5912920Y-12336484D01*
X5865301Y-12126960D02*
X5817682Y-12269817D01*
X5817682Y-12269817D02*
X5941491Y-12269817D01*
X6008158Y-12155531D02*
X6017682Y-12146008D01*
X6017682Y-12146008D02*
X6036729Y-12136484D01*
X6036729Y-12136484D02*
X6084348Y-12136484D01*
X6084348Y-12136484D02*
X6103396Y-12146008D01*
X6103396Y-12146008D02*
X6112920Y-12155531D01*
X6112920Y-12155531D02*
X6122444Y-12174579D01*
X6122444Y-12174579D02*
X6122444Y-12193627D01*
X6122444Y-12193627D02*
X6112920Y-12222198D01*
X6112920Y-12222198D02*
X5998634Y-12336484D01*
X5998634Y-12336484D02*
X6122444Y-12336484D01*
X6198634Y-12136484D02*
X6198634Y-12174579D01*
X6274825Y-12136484D02*
X6274825Y-12174579D01*
X6570063Y-12412674D02*
X6560539Y-12403150D01*
X6560539Y-12403150D02*
X6541491Y-12374579D01*
X6541491Y-12374579D02*
X6531968Y-12355531D01*
X6531968Y-12355531D02*
X6522444Y-12326960D01*
X6522444Y-12326960D02*
X6512920Y-12279341D01*
X6512920Y-12279341D02*
X6512920Y-12241246D01*
X6512920Y-12241246D02*
X6522444Y-12193627D01*
X6522444Y-12193627D02*
X6531968Y-12165055D01*
X6531968Y-12165055D02*
X6541491Y-12146008D01*
X6541491Y-12146008D02*
X6560539Y-12117436D01*
X6560539Y-12117436D02*
X6570063Y-12107912D01*
X6731968Y-12203150D02*
X6731968Y-12336484D01*
X6684348Y-12126960D02*
X6636729Y-12269817D01*
X6636729Y-12269817D02*
X6760539Y-12269817D01*
X6989110Y-12336484D02*
X6989110Y-12136484D01*
X7074825Y-12336484D02*
X7074825Y-12231722D01*
X7074825Y-12231722D02*
X7065301Y-12212674D01*
X7065301Y-12212674D02*
X7046253Y-12203150D01*
X7046253Y-12203150D02*
X7017682Y-12203150D01*
X7017682Y-12203150D02*
X6998634Y-12212674D01*
X6998634Y-12212674D02*
X6989110Y-12222198D01*
X7198634Y-12336484D02*
X7179587Y-12326960D01*
X7179587Y-12326960D02*
X7170063Y-12317436D01*
X7170063Y-12317436D02*
X7160539Y-12298388D01*
X7160539Y-12298388D02*
X7160539Y-12241246D01*
X7160539Y-12241246D02*
X7170063Y-12222198D01*
X7170063Y-12222198D02*
X7179587Y-12212674D01*
X7179587Y-12212674D02*
X7198634Y-12203150D01*
X7198634Y-12203150D02*
X7227206Y-12203150D01*
X7227206Y-12203150D02*
X7246253Y-12212674D01*
X7246253Y-12212674D02*
X7255777Y-12222198D01*
X7255777Y-12222198D02*
X7265301Y-12241246D01*
X7265301Y-12241246D02*
X7265301Y-12298388D01*
X7265301Y-12298388D02*
X7255777Y-12317436D01*
X7255777Y-12317436D02*
X7246253Y-12326960D01*
X7246253Y-12326960D02*
X7227206Y-12336484D01*
X7227206Y-12336484D02*
X7198634Y-12336484D01*
X7379587Y-12336484D02*
X7360539Y-12326960D01*
X7360539Y-12326960D02*
X7351015Y-12307912D01*
X7351015Y-12307912D02*
X7351015Y-12136484D01*
X7531968Y-12326960D02*
X7512920Y-12336484D01*
X7512920Y-12336484D02*
X7474825Y-12336484D01*
X7474825Y-12336484D02*
X7455777Y-12326960D01*
X7455777Y-12326960D02*
X7446253Y-12307912D01*
X7446253Y-12307912D02*
X7446253Y-12231722D01*
X7446253Y-12231722D02*
X7455777Y-12212674D01*
X7455777Y-12212674D02*
X7474825Y-12203150D01*
X7474825Y-12203150D02*
X7512920Y-12203150D01*
X7512920Y-12203150D02*
X7531968Y-12212674D01*
X7531968Y-12212674D02*
X7541491Y-12231722D01*
X7541491Y-12231722D02*
X7541491Y-12250769D01*
X7541491Y-12250769D02*
X7446253Y-12269817D01*
X7617682Y-12326960D02*
X7636730Y-12336484D01*
X7636730Y-12336484D02*
X7674825Y-12336484D01*
X7674825Y-12336484D02*
X7693872Y-12326960D01*
X7693872Y-12326960D02*
X7703396Y-12307912D01*
X7703396Y-12307912D02*
X7703396Y-12298388D01*
X7703396Y-12298388D02*
X7693872Y-12279341D01*
X7693872Y-12279341D02*
X7674825Y-12269817D01*
X7674825Y-12269817D02*
X7646253Y-12269817D01*
X7646253Y-12269817D02*
X7627206Y-12260293D01*
X7627206Y-12260293D02*
X7617682Y-12241246D01*
X7617682Y-12241246D02*
X7617682Y-12231722D01*
X7617682Y-12231722D02*
X7627206Y-12212674D01*
X7627206Y-12212674D02*
X7646253Y-12203150D01*
X7646253Y-12203150D02*
X7674825Y-12203150D01*
X7674825Y-12203150D02*
X7693872Y-12212674D01*
X7770063Y-12412674D02*
X7779587Y-12403150D01*
X7779587Y-12403150D02*
X7798634Y-12374579D01*
X7798634Y-12374579D02*
X7808158Y-12355531D01*
X7808158Y-12355531D02*
X7817682Y-12326960D01*
X7817682Y-12326960D02*
X7827206Y-12279341D01*
X7827206Y-12279341D02*
X7827206Y-12241246D01*
X7827206Y-12241246D02*
X7817682Y-12193627D01*
X7817682Y-12193627D02*
X7808158Y-12165055D01*
X7808158Y-12165055D02*
X7798634Y-12146008D01*
X7798634Y-12146008D02*
X7779587Y-12117436D01*
X7779587Y-12117436D02*
X7770063Y-12107912D01*
X8131968Y-12412674D02*
X8122444Y-12403150D01*
X8122444Y-12403150D02*
X8103396Y-12374579D01*
X8103396Y-12374579D02*
X8093872Y-12355531D01*
X8093872Y-12355531D02*
X8084349Y-12326960D01*
X8084349Y-12326960D02*
X8074825Y-12279341D01*
X8074825Y-12279341D02*
X8074825Y-12241246D01*
X8074825Y-12241246D02*
X8084349Y-12193627D01*
X8084349Y-12193627D02*
X8093872Y-12165055D01*
X8093872Y-12165055D02*
X8103396Y-12146008D01*
X8103396Y-12146008D02*
X8122444Y-12117436D01*
X8122444Y-12117436D02*
X8131968Y-12107912D01*
X8208158Y-12203150D02*
X8208158Y-12336484D01*
X8208158Y-12222198D02*
X8217682Y-12212674D01*
X8217682Y-12212674D02*
X8236730Y-12203150D01*
X8236730Y-12203150D02*
X8265301Y-12203150D01*
X8265301Y-12203150D02*
X8284349Y-12212674D01*
X8284349Y-12212674D02*
X8293872Y-12231722D01*
X8293872Y-12231722D02*
X8293872Y-12336484D01*
X8417682Y-12336484D02*
X8398634Y-12326960D01*
X8398634Y-12326960D02*
X8389111Y-12317436D01*
X8389111Y-12317436D02*
X8379587Y-12298388D01*
X8379587Y-12298388D02*
X8379587Y-12241246D01*
X8379587Y-12241246D02*
X8389111Y-12222198D01*
X8389111Y-12222198D02*
X8398634Y-12212674D01*
X8398634Y-12212674D02*
X8417682Y-12203150D01*
X8417682Y-12203150D02*
X8446254Y-12203150D01*
X8446254Y-12203150D02*
X8465301Y-12212674D01*
X8465301Y-12212674D02*
X8474825Y-12222198D01*
X8474825Y-12222198D02*
X8484349Y-12241246D01*
X8484349Y-12241246D02*
X8484349Y-12298388D01*
X8484349Y-12298388D02*
X8474825Y-12317436D01*
X8474825Y-12317436D02*
X8465301Y-12326960D01*
X8465301Y-12326960D02*
X8446254Y-12336484D01*
X8446254Y-12336484D02*
X8417682Y-12336484D01*
X8541492Y-12203150D02*
X8617682Y-12203150D01*
X8570063Y-12136484D02*
X8570063Y-12307912D01*
X8570063Y-12307912D02*
X8579587Y-12326960D01*
X8579587Y-12326960D02*
X8598634Y-12336484D01*
X8598634Y-12336484D02*
X8617682Y-12336484D01*
X8836730Y-12203150D02*
X8836730Y-12403150D01*
X8836730Y-12212674D02*
X8855777Y-12203150D01*
X8855777Y-12203150D02*
X8893873Y-12203150D01*
X8893873Y-12203150D02*
X8912920Y-12212674D01*
X8912920Y-12212674D02*
X8922444Y-12222198D01*
X8922444Y-12222198D02*
X8931968Y-12241246D01*
X8931968Y-12241246D02*
X8931968Y-12298388D01*
X8931968Y-12298388D02*
X8922444Y-12317436D01*
X8922444Y-12317436D02*
X8912920Y-12326960D01*
X8912920Y-12326960D02*
X8893873Y-12336484D01*
X8893873Y-12336484D02*
X8855777Y-12336484D01*
X8855777Y-12336484D02*
X8836730Y-12326960D01*
X9046254Y-12336484D02*
X9027206Y-12326960D01*
X9027206Y-12326960D02*
X9017682Y-12307912D01*
X9017682Y-12307912D02*
X9017682Y-12136484D01*
X9208158Y-12336484D02*
X9208158Y-12231722D01*
X9208158Y-12231722D02*
X9198635Y-12212674D01*
X9198635Y-12212674D02*
X9179587Y-12203150D01*
X9179587Y-12203150D02*
X9141492Y-12203150D01*
X9141492Y-12203150D02*
X9122444Y-12212674D01*
X9208158Y-12326960D02*
X9189111Y-12336484D01*
X9189111Y-12336484D02*
X9141492Y-12336484D01*
X9141492Y-12336484D02*
X9122444Y-12326960D01*
X9122444Y-12326960D02*
X9112920Y-12307912D01*
X9112920Y-12307912D02*
X9112920Y-12288865D01*
X9112920Y-12288865D02*
X9122444Y-12269817D01*
X9122444Y-12269817D02*
X9141492Y-12260293D01*
X9141492Y-12260293D02*
X9189111Y-12260293D01*
X9189111Y-12260293D02*
X9208158Y-12250769D01*
X9274825Y-12203150D02*
X9351015Y-12203150D01*
X9303396Y-12136484D02*
X9303396Y-12307912D01*
X9303396Y-12307912D02*
X9312920Y-12326960D01*
X9312920Y-12326960D02*
X9331968Y-12336484D01*
X9331968Y-12336484D02*
X9351015Y-12336484D01*
X9493873Y-12326960D02*
X9474825Y-12336484D01*
X9474825Y-12336484D02*
X9436730Y-12336484D01*
X9436730Y-12336484D02*
X9417682Y-12326960D01*
X9417682Y-12326960D02*
X9408158Y-12307912D01*
X9408158Y-12307912D02*
X9408158Y-12231722D01*
X9408158Y-12231722D02*
X9417682Y-12212674D01*
X9417682Y-12212674D02*
X9436730Y-12203150D01*
X9436730Y-12203150D02*
X9474825Y-12203150D01*
X9474825Y-12203150D02*
X9493873Y-12212674D01*
X9493873Y-12212674D02*
X9503396Y-12231722D01*
X9503396Y-12231722D02*
X9503396Y-12250769D01*
X9503396Y-12250769D02*
X9408158Y-12269817D01*
X9674825Y-12336484D02*
X9674825Y-12136484D01*
X9674825Y-12326960D02*
X9655777Y-12336484D01*
X9655777Y-12336484D02*
X9617682Y-12336484D01*
X9617682Y-12336484D02*
X9598635Y-12326960D01*
X9598635Y-12326960D02*
X9589111Y-12317436D01*
X9589111Y-12317436D02*
X9579587Y-12298388D01*
X9579587Y-12298388D02*
X9579587Y-12241246D01*
X9579587Y-12241246D02*
X9589111Y-12222198D01*
X9589111Y-12222198D02*
X9598635Y-12212674D01*
X9598635Y-12212674D02*
X9617682Y-12203150D01*
X9617682Y-12203150D02*
X9655777Y-12203150D01*
X9655777Y-12203150D02*
X9674825Y-12212674D01*
X9751016Y-12412674D02*
X9760539Y-12403150D01*
X9760539Y-12403150D02*
X9779587Y-12374579D01*
X9779587Y-12374579D02*
X9789111Y-12355531D01*
X9789111Y-12355531D02*
X9798635Y-12326960D01*
X9798635Y-12326960D02*
X9808158Y-12279341D01*
X9808158Y-12279341D02*
X9808158Y-12241246D01*
X9808158Y-12241246D02*
X9798635Y-12193627D01*
X9798635Y-12193627D02*
X9789111Y-12165055D01*
X9789111Y-12165055D02*
X9779587Y-12146008D01*
X9779587Y-12146008D02*
X9760539Y-12117436D01*
X9760539Y-12117436D02*
X9751016Y-12107912D01*
X2995000Y-12565000D02*
G75*
G02*
X2795000Y-12565000I-100000J0D01*
G01*
X2795000Y-12565000D02*
G75*
G02*
X2995000Y-12565000I100000J0D01*
G01*
X3236729Y-12456484D02*
X3360539Y-12456484D01*
X3360539Y-12456484D02*
X3293872Y-12532674D01*
X3293872Y-12532674D02*
X3322443Y-12532674D01*
X3322443Y-12532674D02*
X3341491Y-12542198D01*
X3341491Y-12542198D02*
X3351015Y-12551722D01*
X3351015Y-12551722D02*
X3360539Y-12570769D01*
X3360539Y-12570769D02*
X3360539Y-12618388D01*
X3360539Y-12618388D02*
X3351015Y-12637436D01*
X3351015Y-12637436D02*
X3341491Y-12646960D01*
X3341491Y-12646960D02*
X3322443Y-12656484D01*
X3322443Y-12656484D02*
X3265301Y-12656484D01*
X3265301Y-12656484D02*
X3246253Y-12646960D01*
X3246253Y-12646960D02*
X3236729Y-12637436D01*
X3446253Y-12637436D02*
X3455777Y-12646960D01*
X3455777Y-12646960D02*
X3446253Y-12656484D01*
X3446253Y-12656484D02*
X3436729Y-12646960D01*
X3436729Y-12646960D02*
X3446253Y-12637436D01*
X3446253Y-12637436D02*
X3446253Y-12656484D01*
X3531967Y-12475531D02*
X3541491Y-12466008D01*
X3541491Y-12466008D02*
X3560539Y-12456484D01*
X3560539Y-12456484D02*
X3608158Y-12456484D01*
X3608158Y-12456484D02*
X3627205Y-12466008D01*
X3627205Y-12466008D02*
X3636729Y-12475531D01*
X3636729Y-12475531D02*
X3646253Y-12494579D01*
X3646253Y-12494579D02*
X3646253Y-12513627D01*
X3646253Y-12513627D02*
X3636729Y-12542198D01*
X3636729Y-12542198D02*
X3522443Y-12656484D01*
X3522443Y-12656484D02*
X3646253Y-12656484D01*
X3770062Y-12456484D02*
X3789110Y-12456484D01*
X3789110Y-12456484D02*
X3808158Y-12466008D01*
X3808158Y-12466008D02*
X3817682Y-12475531D01*
X3817682Y-12475531D02*
X3827205Y-12494579D01*
X3827205Y-12494579D02*
X3836729Y-12532674D01*
X3836729Y-12532674D02*
X3836729Y-12580293D01*
X3836729Y-12580293D02*
X3827205Y-12618388D01*
X3827205Y-12618388D02*
X3817682Y-12637436D01*
X3817682Y-12637436D02*
X3808158Y-12646960D01*
X3808158Y-12646960D02*
X3789110Y-12656484D01*
X3789110Y-12656484D02*
X3770062Y-12656484D01*
X3770062Y-12656484D02*
X3751015Y-12646960D01*
X3751015Y-12646960D02*
X3741491Y-12637436D01*
X3741491Y-12637436D02*
X3731967Y-12618388D01*
X3731967Y-12618388D02*
X3722443Y-12580293D01*
X3722443Y-12580293D02*
X3722443Y-12532674D01*
X3722443Y-12532674D02*
X3731967Y-12494579D01*
X3731967Y-12494579D02*
X3741491Y-12475531D01*
X3741491Y-12475531D02*
X3751015Y-12466008D01*
X3751015Y-12466008D02*
X3770062Y-12456484D01*
X3960539Y-12456484D02*
X3979586Y-12456484D01*
X3979586Y-12456484D02*
X3998634Y-12466008D01*
X3998634Y-12466008D02*
X4008158Y-12475531D01*
X4008158Y-12475531D02*
X4017682Y-12494579D01*
X4017682Y-12494579D02*
X4027205Y-12532674D01*
X4027205Y-12532674D02*
X4027205Y-12580293D01*
X4027205Y-12580293D02*
X4017682Y-12618388D01*
X4017682Y-12618388D02*
X4008158Y-12637436D01*
X4008158Y-12637436D02*
X3998634Y-12646960D01*
X3998634Y-12646960D02*
X3979586Y-12656484D01*
X3979586Y-12656484D02*
X3960539Y-12656484D01*
X3960539Y-12656484D02*
X3941491Y-12646960D01*
X3941491Y-12646960D02*
X3931967Y-12637436D01*
X3931967Y-12637436D02*
X3922443Y-12618388D01*
X3922443Y-12618388D02*
X3912920Y-12580293D01*
X3912920Y-12580293D02*
X3912920Y-12532674D01*
X3912920Y-12532674D02*
X3922443Y-12494579D01*
X3922443Y-12494579D02*
X3931967Y-12475531D01*
X3931967Y-12475531D02*
X3941491Y-12466008D01*
X3941491Y-12466008D02*
X3960539Y-12456484D01*
X4112920Y-12656484D02*
X4112920Y-12523150D01*
X4112920Y-12542198D02*
X4122443Y-12532674D01*
X4122443Y-12532674D02*
X4141491Y-12523150D01*
X4141491Y-12523150D02*
X4170063Y-12523150D01*
X4170063Y-12523150D02*
X4189110Y-12532674D01*
X4189110Y-12532674D02*
X4198634Y-12551722D01*
X4198634Y-12551722D02*
X4198634Y-12656484D01*
X4198634Y-12551722D02*
X4208158Y-12532674D01*
X4208158Y-12532674D02*
X4227205Y-12523150D01*
X4227205Y-12523150D02*
X4255777Y-12523150D01*
X4255777Y-12523150D02*
X4274825Y-12532674D01*
X4274825Y-12532674D02*
X4284348Y-12551722D01*
X4284348Y-12551722D02*
X4284348Y-12656484D01*
X4379586Y-12656484D02*
X4379586Y-12523150D01*
X4379586Y-12542198D02*
X4389110Y-12532674D01*
X4389110Y-12532674D02*
X4408158Y-12523150D01*
X4408158Y-12523150D02*
X4436729Y-12523150D01*
X4436729Y-12523150D02*
X4455777Y-12532674D01*
X4455777Y-12532674D02*
X4465301Y-12551722D01*
X4465301Y-12551722D02*
X4465301Y-12656484D01*
X4465301Y-12551722D02*
X4474825Y-12532674D01*
X4474825Y-12532674D02*
X4493872Y-12523150D01*
X4493872Y-12523150D02*
X4522444Y-12523150D01*
X4522444Y-12523150D02*
X4541491Y-12532674D01*
X4541491Y-12532674D02*
X4551015Y-12551722D01*
X4551015Y-12551722D02*
X4551015Y-12656484D01*
X4941491Y-12446960D02*
X4770063Y-12704103D01*
X5198634Y-12456484D02*
X5217682Y-12456484D01*
X5217682Y-12456484D02*
X5236729Y-12466008D01*
X5236729Y-12466008D02*
X5246253Y-12475531D01*
X5246253Y-12475531D02*
X5255777Y-12494579D01*
X5255777Y-12494579D02*
X5265301Y-12532674D01*
X5265301Y-12532674D02*
X5265301Y-12580293D01*
X5265301Y-12580293D02*
X5255777Y-12618388D01*
X5255777Y-12618388D02*
X5246253Y-12637436D01*
X5246253Y-12637436D02*
X5236729Y-12646960D01*
X5236729Y-12646960D02*
X5217682Y-12656484D01*
X5217682Y-12656484D02*
X5198634Y-12656484D01*
X5198634Y-12656484D02*
X5179587Y-12646960D01*
X5179587Y-12646960D02*
X5170063Y-12637436D01*
X5170063Y-12637436D02*
X5160539Y-12618388D01*
X5160539Y-12618388D02*
X5151015Y-12580293D01*
X5151015Y-12580293D02*
X5151015Y-12532674D01*
X5151015Y-12532674D02*
X5160539Y-12494579D01*
X5160539Y-12494579D02*
X5170063Y-12475531D01*
X5170063Y-12475531D02*
X5179587Y-12466008D01*
X5179587Y-12466008D02*
X5198634Y-12456484D01*
X5351015Y-12637436D02*
X5360539Y-12646960D01*
X5360539Y-12646960D02*
X5351015Y-12656484D01*
X5351015Y-12656484D02*
X5341491Y-12646960D01*
X5341491Y-12646960D02*
X5351015Y-12637436D01*
X5351015Y-12637436D02*
X5351015Y-12656484D01*
X5551015Y-12656484D02*
X5436729Y-12656484D01*
X5493872Y-12656484D02*
X5493872Y-12456484D01*
X5493872Y-12456484D02*
X5474825Y-12485055D01*
X5474825Y-12485055D02*
X5455777Y-12504103D01*
X5455777Y-12504103D02*
X5436729Y-12513627D01*
X5627206Y-12475531D02*
X5636729Y-12466008D01*
X5636729Y-12466008D02*
X5655777Y-12456484D01*
X5655777Y-12456484D02*
X5703396Y-12456484D01*
X5703396Y-12456484D02*
X5722444Y-12466008D01*
X5722444Y-12466008D02*
X5731967Y-12475531D01*
X5731967Y-12475531D02*
X5741491Y-12494579D01*
X5741491Y-12494579D02*
X5741491Y-12513627D01*
X5741491Y-12513627D02*
X5731967Y-12542198D01*
X5731967Y-12542198D02*
X5617682Y-12656484D01*
X5617682Y-12656484D02*
X5741491Y-12656484D01*
X5912920Y-12456484D02*
X5874825Y-12456484D01*
X5874825Y-12456484D02*
X5855777Y-12466008D01*
X5855777Y-12466008D02*
X5846253Y-12475531D01*
X5846253Y-12475531D02*
X5827206Y-12504103D01*
X5827206Y-12504103D02*
X5817682Y-12542198D01*
X5817682Y-12542198D02*
X5817682Y-12618388D01*
X5817682Y-12618388D02*
X5827206Y-12637436D01*
X5827206Y-12637436D02*
X5836729Y-12646960D01*
X5836729Y-12646960D02*
X5855777Y-12656484D01*
X5855777Y-12656484D02*
X5893872Y-12656484D01*
X5893872Y-12656484D02*
X5912920Y-12646960D01*
X5912920Y-12646960D02*
X5922444Y-12637436D01*
X5922444Y-12637436D02*
X5931967Y-12618388D01*
X5931967Y-12618388D02*
X5931967Y-12570769D01*
X5931967Y-12570769D02*
X5922444Y-12551722D01*
X5922444Y-12551722D02*
X5912920Y-12542198D01*
X5912920Y-12542198D02*
X5893872Y-12532674D01*
X5893872Y-12532674D02*
X5855777Y-12532674D01*
X5855777Y-12532674D02*
X5836729Y-12542198D01*
X5836729Y-12542198D02*
X5827206Y-12551722D01*
X5827206Y-12551722D02*
X5817682Y-12570769D01*
X6055777Y-12456484D02*
X6074825Y-12456484D01*
X6074825Y-12456484D02*
X6093872Y-12466008D01*
X6093872Y-12466008D02*
X6103396Y-12475531D01*
X6103396Y-12475531D02*
X6112920Y-12494579D01*
X6112920Y-12494579D02*
X6122444Y-12532674D01*
X6122444Y-12532674D02*
X6122444Y-12580293D01*
X6122444Y-12580293D02*
X6112920Y-12618388D01*
X6112920Y-12618388D02*
X6103396Y-12637436D01*
X6103396Y-12637436D02*
X6093872Y-12646960D01*
X6093872Y-12646960D02*
X6074825Y-12656484D01*
X6074825Y-12656484D02*
X6055777Y-12656484D01*
X6055777Y-12656484D02*
X6036729Y-12646960D01*
X6036729Y-12646960D02*
X6027206Y-12637436D01*
X6027206Y-12637436D02*
X6017682Y-12618388D01*
X6017682Y-12618388D02*
X6008158Y-12580293D01*
X6008158Y-12580293D02*
X6008158Y-12532674D01*
X6008158Y-12532674D02*
X6017682Y-12494579D01*
X6017682Y-12494579D02*
X6027206Y-12475531D01*
X6027206Y-12475531D02*
X6036729Y-12466008D01*
X6036729Y-12466008D02*
X6055777Y-12456484D01*
X6198634Y-12456484D02*
X6198634Y-12494579D01*
X6274825Y-12456484D02*
X6274825Y-12494579D01*
X6570063Y-12732674D02*
X6560539Y-12723150D01*
X6560539Y-12723150D02*
X6541491Y-12694579D01*
X6541491Y-12694579D02*
X6531968Y-12675531D01*
X6531968Y-12675531D02*
X6522444Y-12646960D01*
X6522444Y-12646960D02*
X6512920Y-12599341D01*
X6512920Y-12599341D02*
X6512920Y-12561246D01*
X6512920Y-12561246D02*
X6522444Y-12513627D01*
X6522444Y-12513627D02*
X6531968Y-12485055D01*
X6531968Y-12485055D02*
X6541491Y-12466008D01*
X6541491Y-12466008D02*
X6560539Y-12437436D01*
X6560539Y-12437436D02*
X6570063Y-12427912D01*
X6731968Y-12523150D02*
X6731968Y-12656484D01*
X6684348Y-12446960D02*
X6636729Y-12589817D01*
X6636729Y-12589817D02*
X6760539Y-12589817D01*
X6989110Y-12656484D02*
X6989110Y-12456484D01*
X7074825Y-12656484D02*
X7074825Y-12551722D01*
X7074825Y-12551722D02*
X7065301Y-12532674D01*
X7065301Y-12532674D02*
X7046253Y-12523150D01*
X7046253Y-12523150D02*
X7017682Y-12523150D01*
X7017682Y-12523150D02*
X6998634Y-12532674D01*
X6998634Y-12532674D02*
X6989110Y-12542198D01*
X7198634Y-12656484D02*
X7179587Y-12646960D01*
X7179587Y-12646960D02*
X7170063Y-12637436D01*
X7170063Y-12637436D02*
X7160539Y-12618388D01*
X7160539Y-12618388D02*
X7160539Y-12561246D01*
X7160539Y-12561246D02*
X7170063Y-12542198D01*
X7170063Y-12542198D02*
X7179587Y-12532674D01*
X7179587Y-12532674D02*
X7198634Y-12523150D01*
X7198634Y-12523150D02*
X7227206Y-12523150D01*
X7227206Y-12523150D02*
X7246253Y-12532674D01*
X7246253Y-12532674D02*
X7255777Y-12542198D01*
X7255777Y-12542198D02*
X7265301Y-12561246D01*
X7265301Y-12561246D02*
X7265301Y-12618388D01*
X7265301Y-12618388D02*
X7255777Y-12637436D01*
X7255777Y-12637436D02*
X7246253Y-12646960D01*
X7246253Y-12646960D02*
X7227206Y-12656484D01*
X7227206Y-12656484D02*
X7198634Y-12656484D01*
X7379587Y-12656484D02*
X7360539Y-12646960D01*
X7360539Y-12646960D02*
X7351015Y-12627912D01*
X7351015Y-12627912D02*
X7351015Y-12456484D01*
X7531968Y-12646960D02*
X7512920Y-12656484D01*
X7512920Y-12656484D02*
X7474825Y-12656484D01*
X7474825Y-12656484D02*
X7455777Y-12646960D01*
X7455777Y-12646960D02*
X7446253Y-12627912D01*
X7446253Y-12627912D02*
X7446253Y-12551722D01*
X7446253Y-12551722D02*
X7455777Y-12532674D01*
X7455777Y-12532674D02*
X7474825Y-12523150D01*
X7474825Y-12523150D02*
X7512920Y-12523150D01*
X7512920Y-12523150D02*
X7531968Y-12532674D01*
X7531968Y-12532674D02*
X7541491Y-12551722D01*
X7541491Y-12551722D02*
X7541491Y-12570769D01*
X7541491Y-12570769D02*
X7446253Y-12589817D01*
X7617682Y-12646960D02*
X7636730Y-12656484D01*
X7636730Y-12656484D02*
X7674825Y-12656484D01*
X7674825Y-12656484D02*
X7693872Y-12646960D01*
X7693872Y-12646960D02*
X7703396Y-12627912D01*
X7703396Y-12627912D02*
X7703396Y-12618388D01*
X7703396Y-12618388D02*
X7693872Y-12599341D01*
X7693872Y-12599341D02*
X7674825Y-12589817D01*
X7674825Y-12589817D02*
X7646253Y-12589817D01*
X7646253Y-12589817D02*
X7627206Y-12580293D01*
X7627206Y-12580293D02*
X7617682Y-12561246D01*
X7617682Y-12561246D02*
X7617682Y-12551722D01*
X7617682Y-12551722D02*
X7627206Y-12532674D01*
X7627206Y-12532674D02*
X7646253Y-12523150D01*
X7646253Y-12523150D02*
X7674825Y-12523150D01*
X7674825Y-12523150D02*
X7693872Y-12532674D01*
X7770063Y-12732674D02*
X7779587Y-12723150D01*
X7779587Y-12723150D02*
X7798634Y-12694579D01*
X7798634Y-12694579D02*
X7808158Y-12675531D01*
X7808158Y-12675531D02*
X7817682Y-12646960D01*
X7817682Y-12646960D02*
X7827206Y-12599341D01*
X7827206Y-12599341D02*
X7827206Y-12561246D01*
X7827206Y-12561246D02*
X7817682Y-12513627D01*
X7817682Y-12513627D02*
X7808158Y-12485055D01*
X7808158Y-12485055D02*
X7798634Y-12466008D01*
X7798634Y-12466008D02*
X7779587Y-12437436D01*
X7779587Y-12437436D02*
X7770063Y-12427912D01*
X8131968Y-12732674D02*
X8122444Y-12723150D01*
X8122444Y-12723150D02*
X8103396Y-12694579D01*
X8103396Y-12694579D02*
X8093872Y-12675531D01*
X8093872Y-12675531D02*
X8084349Y-12646960D01*
X8084349Y-12646960D02*
X8074825Y-12599341D01*
X8074825Y-12599341D02*
X8074825Y-12561246D01*
X8074825Y-12561246D02*
X8084349Y-12513627D01*
X8084349Y-12513627D02*
X8093872Y-12485055D01*
X8093872Y-12485055D02*
X8103396Y-12466008D01*
X8103396Y-12466008D02*
X8122444Y-12437436D01*
X8122444Y-12437436D02*
X8131968Y-12427912D01*
X8208158Y-12523150D02*
X8208158Y-12656484D01*
X8208158Y-12542198D02*
X8217682Y-12532674D01*
X8217682Y-12532674D02*
X8236730Y-12523150D01*
X8236730Y-12523150D02*
X8265301Y-12523150D01*
X8265301Y-12523150D02*
X8284349Y-12532674D01*
X8284349Y-12532674D02*
X8293872Y-12551722D01*
X8293872Y-12551722D02*
X8293872Y-12656484D01*
X8417682Y-12656484D02*
X8398634Y-12646960D01*
X8398634Y-12646960D02*
X8389111Y-12637436D01*
X8389111Y-12637436D02*
X8379587Y-12618388D01*
X8379587Y-12618388D02*
X8379587Y-12561246D01*
X8379587Y-12561246D02*
X8389111Y-12542198D01*
X8389111Y-12542198D02*
X8398634Y-12532674D01*
X8398634Y-12532674D02*
X8417682Y-12523150D01*
X8417682Y-12523150D02*
X8446254Y-12523150D01*
X8446254Y-12523150D02*
X8465301Y-12532674D01*
X8465301Y-12532674D02*
X8474825Y-12542198D01*
X8474825Y-12542198D02*
X8484349Y-12561246D01*
X8484349Y-12561246D02*
X8484349Y-12618388D01*
X8484349Y-12618388D02*
X8474825Y-12637436D01*
X8474825Y-12637436D02*
X8465301Y-12646960D01*
X8465301Y-12646960D02*
X8446254Y-12656484D01*
X8446254Y-12656484D02*
X8417682Y-12656484D01*
X8541492Y-12523150D02*
X8617682Y-12523150D01*
X8570063Y-12456484D02*
X8570063Y-12627912D01*
X8570063Y-12627912D02*
X8579587Y-12646960D01*
X8579587Y-12646960D02*
X8598634Y-12656484D01*
X8598634Y-12656484D02*
X8617682Y-12656484D01*
X8836730Y-12523150D02*
X8836730Y-12723150D01*
X8836730Y-12532674D02*
X8855777Y-12523150D01*
X8855777Y-12523150D02*
X8893873Y-12523150D01*
X8893873Y-12523150D02*
X8912920Y-12532674D01*
X8912920Y-12532674D02*
X8922444Y-12542198D01*
X8922444Y-12542198D02*
X8931968Y-12561246D01*
X8931968Y-12561246D02*
X8931968Y-12618388D01*
X8931968Y-12618388D02*
X8922444Y-12637436D01*
X8922444Y-12637436D02*
X8912920Y-12646960D01*
X8912920Y-12646960D02*
X8893873Y-12656484D01*
X8893873Y-12656484D02*
X8855777Y-12656484D01*
X8855777Y-12656484D02*
X8836730Y-12646960D01*
X9046254Y-12656484D02*
X9027206Y-12646960D01*
X9027206Y-12646960D02*
X9017682Y-12627912D01*
X9017682Y-12627912D02*
X9017682Y-12456484D01*
X9208158Y-12656484D02*
X9208158Y-12551722D01*
X9208158Y-12551722D02*
X9198635Y-12532674D01*
X9198635Y-12532674D02*
X9179587Y-12523150D01*
X9179587Y-12523150D02*
X9141492Y-12523150D01*
X9141492Y-12523150D02*
X9122444Y-12532674D01*
X9208158Y-12646960D02*
X9189111Y-12656484D01*
X9189111Y-12656484D02*
X9141492Y-12656484D01*
X9141492Y-12656484D02*
X9122444Y-12646960D01*
X9122444Y-12646960D02*
X9112920Y-12627912D01*
X9112920Y-12627912D02*
X9112920Y-12608865D01*
X9112920Y-12608865D02*
X9122444Y-12589817D01*
X9122444Y-12589817D02*
X9141492Y-12580293D01*
X9141492Y-12580293D02*
X9189111Y-12580293D01*
X9189111Y-12580293D02*
X9208158Y-12570769D01*
X9274825Y-12523150D02*
X9351015Y-12523150D01*
X9303396Y-12456484D02*
X9303396Y-12627912D01*
X9303396Y-12627912D02*
X9312920Y-12646960D01*
X9312920Y-12646960D02*
X9331968Y-12656484D01*
X9331968Y-12656484D02*
X9351015Y-12656484D01*
X9493873Y-12646960D02*
X9474825Y-12656484D01*
X9474825Y-12656484D02*
X9436730Y-12656484D01*
X9436730Y-12656484D02*
X9417682Y-12646960D01*
X9417682Y-12646960D02*
X9408158Y-12627912D01*
X9408158Y-12627912D02*
X9408158Y-12551722D01*
X9408158Y-12551722D02*
X9417682Y-12532674D01*
X9417682Y-12532674D02*
X9436730Y-12523150D01*
X9436730Y-12523150D02*
X9474825Y-12523150D01*
X9474825Y-12523150D02*
X9493873Y-12532674D01*
X9493873Y-12532674D02*
X9503396Y-12551722D01*
X9503396Y-12551722D02*
X9503396Y-12570769D01*
X9503396Y-12570769D02*
X9408158Y-12589817D01*
X9674825Y-12656484D02*
X9674825Y-12456484D01*
X9674825Y-12646960D02*
X9655777Y-12656484D01*
X9655777Y-12656484D02*
X9617682Y-12656484D01*
X9617682Y-12656484D02*
X9598635Y-12646960D01*
X9598635Y-12646960D02*
X9589111Y-12637436D01*
X9589111Y-12637436D02*
X9579587Y-12618388D01*
X9579587Y-12618388D02*
X9579587Y-12561246D01*
X9579587Y-12561246D02*
X9589111Y-12542198D01*
X9589111Y-12542198D02*
X9598635Y-12532674D01*
X9598635Y-12532674D02*
X9617682Y-12523150D01*
X9617682Y-12523150D02*
X9655777Y-12523150D01*
X9655777Y-12523150D02*
X9674825Y-12532674D01*
X9751016Y-12732674D02*
X9760539Y-12723150D01*
X9760539Y-12723150D02*
X9779587Y-12694579D01*
X9779587Y-12694579D02*
X9789111Y-12675531D01*
X9789111Y-12675531D02*
X9798635Y-12646960D01*
X9798635Y-12646960D02*
X9808158Y-12599341D01*
X9808158Y-12599341D02*
X9808158Y-12561246D01*
X9808158Y-12561246D02*
X9798635Y-12513627D01*
X9798635Y-12513627D02*
X9789111Y-12485055D01*
X9789111Y-12485055D02*
X9779587Y-12466008D01*
X9779587Y-12466008D02*
X9760539Y-12437436D01*
X9760539Y-12437436D02*
X9751016Y-12427912D01*
M02*
