%TF.GenerationSoftware,KiCad,Pcbnew,10.0.0*%
%TF.CreationDate,2026-10-01T11:46:00-07:00*%
%TF.ProjectId,BOOST_control_RC2,424f4f53-545f-4636-9f6e-74726f6c5f52,rev?*%
%TF.SameCoordinates,Original*%
%TF.FileFunction,Drillmap*%
%TF.FilePolarity,Positive*%
%FSLAX45Y45*%
G04 Gerber Fmt 4.5, Leading zero omitted, Abs format (unit mm)*
G04 Created by KiCad (PCBNEW 10.0.0) date 2026-10-01 11:46:00*
%MOMM*%
%LPD*%
G01*
G04 APERTURE LIST*
%ADD10C,0.100000*%
%ADD11C,0.200000*%
%ADD12C,0.105000*%
G04 APERTURE END LIST*
D10*
X4589050Y-7002260D02*
X9089050Y-7002260D01*
X4589050Y-11502260D02*
X4589050Y-7002260D01*
X9089050Y-7002260D02*
X9089050Y-11502260D01*
X9089050Y-11502260D02*
X4589050Y-11502260D01*
D11*
D10*
X4642500Y-8627500D02*
X4672500Y-8657500D01*
X4672500Y-8627500D02*
X4642500Y-8657500D01*
X4657500Y-7642500D02*
X4687500Y-7672500D01*
X4687500Y-7642500D02*
X4657500Y-7672500D01*
X4662500Y-7987500D02*
X4692500Y-8017500D01*
X4692500Y-7987500D02*
X4662500Y-8017500D01*
X4662500Y-9072500D02*
X4692500Y-9102500D01*
X4692500Y-9072500D02*
X4662500Y-9102500D01*
X4707500Y-8502500D02*
X4737500Y-8532500D01*
X4737500Y-8502500D02*
X4707500Y-8532500D01*
X4717500Y-7962500D02*
X4747500Y-7992500D01*
X4747500Y-7962500D02*
X4717500Y-7992500D01*
X4722500Y-10372500D02*
X4752500Y-10402500D01*
X4752500Y-10372500D02*
X4722500Y-10402500D01*
X4747500Y-8407500D02*
X4777500Y-8437500D01*
X4777500Y-8407500D02*
X4747500Y-8437500D01*
X4767500Y-9192500D02*
X4797500Y-9222500D01*
X4797500Y-9192500D02*
X4767500Y-9222500D01*
X4847500Y-9147500D02*
X4877500Y-9177500D01*
X4877500Y-9147500D02*
X4847500Y-9177500D01*
X4862500Y-8347500D02*
X4892500Y-8377500D01*
X4892500Y-8347500D02*
X4862500Y-8377500D01*
X4867500Y-8657500D02*
X4897500Y-8687500D01*
X4897500Y-8657500D02*
X4867500Y-8687500D01*
X4882500Y-7842500D02*
X4912500Y-7872500D01*
X4912500Y-7842500D02*
X4882500Y-7872500D01*
X4882500Y-7967500D02*
X4912500Y-7997500D01*
X4912500Y-7967500D02*
X4882500Y-7997500D01*
X4882500Y-8767500D02*
X4912500Y-8797500D01*
X4912500Y-8767500D02*
X4882500Y-8797500D01*
X4892500Y-8852500D02*
X4922500Y-8882500D01*
X4922500Y-8852500D02*
X4892500Y-8882500D01*
X4892500Y-10217500D02*
X4922500Y-10247500D01*
X4922500Y-10217500D02*
X4892500Y-10247500D01*
X4897500Y-7177500D02*
X4927500Y-7207500D01*
X4927500Y-7177500D02*
X4897500Y-7207500D01*
X4897500Y-9917500D02*
X4927500Y-9947500D01*
X4927500Y-9917500D02*
X4897500Y-9947500D01*
X4897500Y-10467500D02*
X4927500Y-10497500D01*
X4927500Y-10467500D02*
X4897500Y-10497500D01*
X4907500Y-7332500D02*
X4937500Y-7362500D01*
X4937500Y-7332500D02*
X4907500Y-7362500D01*
X4927500Y-9067500D02*
X4957500Y-9097500D01*
X4957500Y-9067500D02*
X4927500Y-9097500D01*
X4937500Y-7492500D02*
X4967500Y-7522500D01*
X4967500Y-7492500D02*
X4937500Y-7522500D01*
X4937500Y-10957500D02*
X4967500Y-10987500D01*
X4967500Y-10957500D02*
X4937500Y-10987500D01*
X4947500Y-8917500D02*
X4977500Y-8947500D01*
X4977500Y-8917500D02*
X4947500Y-8947500D01*
X4952500Y-10397500D02*
X4982500Y-10427500D01*
X4982500Y-10397500D02*
X4952500Y-10427500D01*
X4962500Y-8622500D02*
X4992500Y-8652500D01*
X4992500Y-8622500D02*
X4962500Y-8652500D01*
X4972500Y-8512500D02*
X5002500Y-8542500D01*
X5002500Y-8512500D02*
X4972500Y-8542500D01*
X4982500Y-10622500D02*
X5012500Y-10652500D01*
X5012500Y-10622500D02*
X4982500Y-10652500D01*
X4987500Y-8362500D02*
X5017500Y-8392500D01*
X5017500Y-8362500D02*
X4987500Y-8392500D01*
X4992500Y-7752500D02*
X5022500Y-7782500D01*
X5022500Y-7752500D02*
X4992500Y-7782500D01*
X5002500Y-9037500D02*
X5032500Y-9067500D01*
X5032500Y-9037500D02*
X5002500Y-9067500D01*
X5002500Y-9747500D02*
X5032500Y-9777500D01*
X5032500Y-9747500D02*
X5002500Y-9777500D01*
X5037500Y-8707500D02*
X5067500Y-8737500D01*
X5067500Y-8707500D02*
X5037500Y-8737500D01*
X5052500Y-10212500D02*
X5082500Y-10242500D01*
X5082500Y-10212500D02*
X5052500Y-10242500D01*
X5062500Y-9872500D02*
X5092500Y-9902500D01*
X5092500Y-9872500D02*
X5062500Y-9902500D01*
X5062500Y-9942500D02*
X5092500Y-9972500D01*
X5092500Y-9942500D02*
X5062500Y-9972500D01*
X5072500Y-9422500D02*
X5102500Y-9452500D01*
X5102500Y-9422500D02*
X5072500Y-9452500D01*
X5087500Y-10482500D02*
X5117500Y-10512500D01*
X5117500Y-10482500D02*
X5087500Y-10512500D01*
X5102500Y-8767500D02*
X5132500Y-8797500D01*
X5132500Y-8767500D02*
X5102500Y-8797500D01*
X5112500Y-7912500D02*
X5142500Y-7942500D01*
X5142500Y-7912500D02*
X5112500Y-7942500D01*
X5122500Y-7842500D02*
X5152500Y-7872500D01*
X5152500Y-7842500D02*
X5122500Y-7872500D01*
X5137500Y-7072500D02*
X5167500Y-7102500D01*
X5167500Y-7072500D02*
X5137500Y-7102500D01*
X5137500Y-8097500D02*
X5167500Y-8127500D01*
X5167500Y-8097500D02*
X5137500Y-8127500D01*
X5142500Y-7717500D02*
X5172500Y-7747500D01*
X5172500Y-7717500D02*
X5142500Y-7747500D01*
X5147500Y-9262500D02*
X5177500Y-9292500D01*
X5177500Y-9262500D02*
X5147500Y-9292500D01*
X5152500Y-7237500D02*
X5182500Y-7267500D01*
X5182500Y-7237500D02*
X5152500Y-7267500D01*
X5152500Y-7502500D02*
X5182500Y-7532500D01*
X5182500Y-7502500D02*
X5152500Y-7532500D01*
X5167500Y-8312500D02*
X5197500Y-8342500D01*
X5197500Y-8312500D02*
X5167500Y-8342500D01*
X5167500Y-8667500D02*
X5197500Y-8697500D01*
X5197500Y-8667500D02*
X5167500Y-8697500D01*
X5177500Y-9057500D02*
X5207500Y-9087500D01*
X5207500Y-9057500D02*
X5177500Y-9087500D01*
X5192500Y-8787500D02*
X5222500Y-8817500D01*
X5222500Y-8787500D02*
X5192500Y-8817500D01*
X5217500Y-9232500D02*
X5247500Y-9262500D01*
X5247500Y-9232500D02*
X5217500Y-9262500D01*
X5222500Y-8917500D02*
X5252500Y-8947500D01*
X5252500Y-8917500D02*
X5222500Y-8947500D01*
X5247500Y-7337500D02*
X5277500Y-7367500D01*
X5277500Y-7337500D02*
X5247500Y-7367500D01*
X5257500Y-9317500D02*
X5287500Y-9347500D01*
X5287500Y-9317500D02*
X5257500Y-9347500D01*
X5272500Y-7752500D02*
X5302500Y-7782500D01*
X5302500Y-7752500D02*
X5272500Y-7782500D01*
X5282500Y-7077500D02*
X5312500Y-7107500D01*
X5312500Y-7077500D02*
X5282500Y-7107500D01*
X5287500Y-8067500D02*
X5317500Y-8097500D01*
X5317500Y-8067500D02*
X5287500Y-8097500D01*
X5302500Y-7992500D02*
X5332500Y-8022500D01*
X5332500Y-7992500D02*
X5302500Y-8022500D01*
X5312500Y-8187500D02*
X5342500Y-8217500D01*
X5342500Y-8187500D02*
X5312500Y-8217500D01*
X5332500Y-8787500D02*
X5362500Y-8817500D01*
X5362500Y-8787500D02*
X5332500Y-8817500D01*
X5342500Y-7437500D02*
X5372500Y-7467500D01*
X5372500Y-7437500D02*
X5342500Y-7467500D01*
X5352500Y-7752500D02*
X5382500Y-7782500D01*
X5382500Y-7752500D02*
X5352500Y-7782500D01*
X5372500Y-8072500D02*
X5402500Y-8102500D01*
X5402500Y-8072500D02*
X5372500Y-8102500D01*
X5372500Y-8537500D02*
X5402500Y-8567500D01*
X5402500Y-8537500D02*
X5372500Y-8567500D01*
X5397500Y-9302500D02*
X5427500Y-9332500D01*
X5427500Y-9302500D02*
X5397500Y-9332500D01*
X5402500Y-8957500D02*
X5432500Y-8987500D01*
X5432500Y-8957500D02*
X5402500Y-8987500D01*
X5407500Y-7062500D02*
X5437500Y-7092500D01*
X5437500Y-7062500D02*
X5407500Y-7092500D01*
X5427500Y-8277500D02*
X5457500Y-8307500D01*
X5457500Y-8277500D02*
X5427500Y-8307500D01*
X5427500Y-9052500D02*
X5457500Y-9082500D01*
X5457500Y-9052500D02*
X5427500Y-9082500D01*
X5437500Y-8907500D02*
X5467500Y-8937500D01*
X5467500Y-8907500D02*
X5437500Y-8937500D01*
X5457500Y-9262500D02*
X5487500Y-9292500D01*
X5487500Y-9262500D02*
X5457500Y-9292500D01*
X5467500Y-7547500D02*
X5497500Y-7577500D01*
X5497500Y-7547500D02*
X5467500Y-7577500D01*
X5497500Y-7072500D02*
X5527500Y-7102500D01*
X5527500Y-7072500D02*
X5497500Y-7102500D01*
X5497500Y-8777500D02*
X5527500Y-8807500D01*
X5527500Y-8777500D02*
X5497500Y-8807500D01*
X5522500Y-7697500D02*
X5552500Y-7727500D01*
X5552500Y-7697500D02*
X5522500Y-7727500D01*
X5527500Y-7277500D02*
X5557500Y-7307500D01*
X5557500Y-7277500D02*
X5527500Y-7307500D01*
X5567500Y-9407500D02*
X5597500Y-9437500D01*
X5597500Y-9407500D02*
X5567500Y-9437500D01*
X5577500Y-8002500D02*
X5607500Y-8032500D01*
X5607500Y-8002500D02*
X5577500Y-8032500D01*
X5577500Y-9227500D02*
X5607500Y-9257500D01*
X5607500Y-9227500D02*
X5577500Y-9257500D01*
X5592500Y-7742500D02*
X5622500Y-7772500D01*
X5622500Y-7742500D02*
X5592500Y-7772500D01*
X5597500Y-7052500D02*
X5627500Y-7082500D01*
X5627500Y-7052500D02*
X5597500Y-7082500D01*
X5597500Y-7862500D02*
X5627500Y-7892500D01*
X5627500Y-7862500D02*
X5597500Y-7892500D01*
X5632500Y-8832500D02*
X5662500Y-8862500D01*
X5662500Y-8832500D02*
X5632500Y-8862500D01*
X5632500Y-9002500D02*
X5662500Y-9032500D01*
X5662500Y-9002500D02*
X5632500Y-9032500D01*
X5637500Y-8462500D02*
X5667500Y-8492500D01*
X5667500Y-8462500D02*
X5637500Y-8492500D01*
X5642500Y-8752500D02*
X5672500Y-8782500D01*
X5672500Y-8752500D02*
X5642500Y-8782500D01*
X5647500Y-7192500D02*
X5677500Y-7222500D01*
X5677500Y-7192500D02*
X5647500Y-7222500D01*
X5647500Y-8047500D02*
X5677500Y-8077500D01*
X5677500Y-8047500D02*
X5647500Y-8077500D01*
X5662500Y-8257500D02*
X5692500Y-8287500D01*
X5692500Y-8257500D02*
X5662500Y-8287500D01*
X5662500Y-9252500D02*
X5692500Y-9282500D01*
X5692500Y-9252500D02*
X5662500Y-9282500D01*
X5662500Y-10212500D02*
X5692500Y-10242500D01*
X5692500Y-10212500D02*
X5662500Y-10242500D01*
X5672500Y-7437500D02*
X5702500Y-7467500D01*
X5702500Y-7437500D02*
X5672500Y-7467500D01*
X5692500Y-7317500D02*
X5722500Y-7347500D01*
X5722500Y-7317500D02*
X5692500Y-7347500D01*
X5692500Y-8862500D02*
X5722500Y-8892500D01*
X5722500Y-8862500D02*
X5692500Y-8892500D01*
X5712500Y-9307500D02*
X5742500Y-9337500D01*
X5742500Y-9307500D02*
X5712500Y-9337500D01*
X5717500Y-7177500D02*
X5747500Y-7207500D01*
X5747500Y-7177500D02*
X5717500Y-7207500D01*
X5757500Y-8267500D02*
X5787500Y-8297500D01*
X5787500Y-8267500D02*
X5757500Y-8297500D01*
X5807500Y-8792500D02*
X5837500Y-8822500D01*
X5837500Y-8792500D02*
X5807500Y-8822500D01*
X5827500Y-9247500D02*
X5857500Y-9277500D01*
X5857500Y-9247500D02*
X5827500Y-9277500D01*
X5837500Y-8462500D02*
X5867500Y-8492500D01*
X5867500Y-8462500D02*
X5837500Y-8492500D01*
X5862500Y-9357500D02*
X5892500Y-9387500D01*
X5892500Y-9357500D02*
X5862500Y-9387500D01*
X5867500Y-8097500D02*
X5897500Y-8127500D01*
X5897500Y-8097500D02*
X5867500Y-8127500D01*
X5872500Y-7107500D02*
X5902500Y-7137500D01*
X5902500Y-7107500D02*
X5872500Y-7137500D01*
X5882500Y-8677500D02*
X5912500Y-8707500D01*
X5912500Y-8677500D02*
X5882500Y-8707500D01*
X5882500Y-8967500D02*
X5912500Y-8997500D01*
X5912500Y-8967500D02*
X5882500Y-8997500D01*
X5887500Y-7267500D02*
X5917500Y-7297500D01*
X5917500Y-7267500D02*
X5887500Y-7297500D01*
X5902500Y-9042500D02*
X5932500Y-9072500D01*
X5932500Y-9042500D02*
X5902500Y-9072500D01*
X5922500Y-9317500D02*
X5952500Y-9347500D01*
X5952500Y-9317500D02*
X5922500Y-9347500D01*
X5952500Y-8977500D02*
X5982500Y-9007500D01*
X5982500Y-8977500D02*
X5952500Y-9007500D01*
X5952500Y-10147500D02*
X5982500Y-10177500D01*
X5982500Y-10147500D02*
X5952500Y-10177500D01*
X5982500Y-7147500D02*
X6012500Y-7177500D01*
X6012500Y-7147500D02*
X5982500Y-7177500D01*
X5987500Y-7217500D02*
X6017500Y-7247500D01*
X6017500Y-7217500D02*
X5987500Y-7247500D01*
X5997500Y-10447500D02*
X6027500Y-10477500D01*
X6027500Y-10447500D02*
X5997500Y-10477500D01*
X6022500Y-9247500D02*
X6052500Y-9277500D01*
X6052500Y-9247500D02*
X6022500Y-9277500D01*
X6032500Y-8457500D02*
X6062500Y-8487500D01*
X6062500Y-8457500D02*
X6032500Y-8487500D01*
X6047500Y-8847500D02*
X6077500Y-8877500D01*
X6077500Y-8847500D02*
X6047500Y-8877500D01*
X6052500Y-8682500D02*
X6082500Y-8712500D01*
X6082500Y-8682500D02*
X6052500Y-8712500D01*
X6062500Y-9997500D02*
X6092500Y-10027500D01*
X6092500Y-9997500D02*
X6062500Y-10027500D01*
X6092500Y-8892500D02*
X6122500Y-8922500D01*
X6122500Y-8892500D02*
X6092500Y-8922500D01*
X6102500Y-8097500D02*
X6132500Y-8127500D01*
X6132500Y-8097500D02*
X6102500Y-8127500D01*
X6137500Y-8532500D02*
X6167500Y-8562500D01*
X6167500Y-8532500D02*
X6137500Y-8562500D01*
X6147500Y-10362500D02*
X6177500Y-10392500D01*
X6177500Y-10362500D02*
X6147500Y-10392500D01*
X6192500Y-8797500D02*
X6222500Y-8827500D01*
X6222500Y-8797500D02*
X6192500Y-8827500D01*
X6232500Y-8727500D02*
X6262500Y-8757500D01*
X6262500Y-8727500D02*
X6232500Y-8757500D01*
X6232500Y-10007500D02*
X6262500Y-10037500D01*
X6262500Y-10007500D02*
X6232500Y-10037500D01*
X6252500Y-9052500D02*
X6282500Y-9082500D01*
X6282500Y-9052500D02*
X6252500Y-9082500D01*
X6272500Y-10207500D02*
X6302500Y-10237500D01*
X6302500Y-10207500D02*
X6272500Y-10237500D01*
X6277500Y-9142500D02*
X6307500Y-9172500D01*
X6307500Y-9142500D02*
X6277500Y-9172500D01*
X6277500Y-10547500D02*
X6307500Y-10577500D01*
X6307500Y-10547500D02*
X6277500Y-10577500D01*
X6292500Y-8742500D02*
X6322500Y-8772500D01*
X6322500Y-8742500D02*
X6292500Y-8772500D01*
X6297500Y-9437500D02*
X6327500Y-9467500D01*
X6327500Y-9437500D02*
X6297500Y-9467500D01*
X6302500Y-8152500D02*
X6332500Y-8182500D01*
X6332500Y-8152500D02*
X6302500Y-8182500D01*
X6302500Y-8387500D02*
X6332500Y-8417500D01*
X6332500Y-8387500D02*
X6302500Y-8417500D01*
X6307500Y-8552500D02*
X6337500Y-8582500D01*
X6337500Y-8552500D02*
X6307500Y-8582500D01*
X6322500Y-9092500D02*
X6352500Y-9122500D01*
X6352500Y-9092500D02*
X6322500Y-9122500D01*
X6332500Y-7942500D02*
X6362500Y-7972500D01*
X6362500Y-7942500D02*
X6332500Y-7972500D01*
X6342500Y-10322500D02*
X6372500Y-10352500D01*
X6372500Y-10322500D02*
X6342500Y-10352500D01*
X6352500Y-9197500D02*
X6382500Y-9227500D01*
X6382500Y-9197500D02*
X6352500Y-9227500D01*
X6362500Y-8192500D02*
X6392500Y-8222500D01*
X6392500Y-8192500D02*
X6362500Y-8222500D01*
X6372500Y-8882500D02*
X6402500Y-8912500D01*
X6402500Y-8882500D02*
X6372500Y-8912500D01*
X6382500Y-10102500D02*
X6412500Y-10132500D01*
X6412500Y-10102500D02*
X6382500Y-10132500D01*
X6387500Y-8322500D02*
X6417500Y-8352500D01*
X6417500Y-8322500D02*
X6387500Y-8352500D01*
X6392500Y-9147500D02*
X6422500Y-9177500D01*
X6422500Y-9147500D02*
X6392500Y-9177500D01*
X6392500Y-9742500D02*
X6422500Y-9772500D01*
X6422500Y-9742500D02*
X6392500Y-9772500D01*
X6392500Y-10382500D02*
X6422500Y-10412500D01*
X6422500Y-10382500D02*
X6392500Y-10412500D01*
X6392500Y-10682500D02*
X6422500Y-10712500D01*
X6422500Y-10682500D02*
X6392500Y-10712500D01*
X6402500Y-8487500D02*
X6432500Y-8517500D01*
X6432500Y-8487500D02*
X6402500Y-8517500D01*
X6407500Y-8677500D02*
X6437500Y-8707500D01*
X6437500Y-8677500D02*
X6407500Y-8707500D01*
X6442500Y-8967500D02*
X6472500Y-8997500D01*
X6472500Y-8967500D02*
X6442500Y-8997500D01*
X6447500Y-10152500D02*
X6477500Y-10182500D01*
X6477500Y-10152500D02*
X6447500Y-10182500D01*
X6462500Y-8457500D02*
X6492500Y-8487500D01*
X6492500Y-8457500D02*
X6462500Y-8487500D01*
X6467500Y-10622500D02*
X6497500Y-10652500D01*
X6497500Y-10622500D02*
X6467500Y-10652500D01*
X6472500Y-8047500D02*
X6502500Y-8077500D01*
X6502500Y-8047500D02*
X6472500Y-8077500D01*
X6472500Y-8282500D02*
X6502500Y-8312500D01*
X6502500Y-8282500D02*
X6472500Y-8312500D01*
X6482500Y-7437500D02*
X6512500Y-7467500D01*
X6512500Y-7437500D02*
X6482500Y-7467500D01*
X6552500Y-11222500D02*
X6582500Y-11252500D01*
X6582500Y-11222500D02*
X6552500Y-11252500D01*
X6602500Y-8792500D02*
X6632500Y-8822500D01*
X6632500Y-8792500D02*
X6602500Y-8822500D01*
X6602500Y-9312500D02*
X6632500Y-9342500D01*
X6632500Y-9312500D02*
X6602500Y-9342500D01*
X6672500Y-7202500D02*
X6702500Y-7232500D01*
X6702500Y-7202500D02*
X6672500Y-7232500D01*
X6702500Y-7047500D02*
X6732500Y-7077500D01*
X6732500Y-7047500D02*
X6702500Y-7077500D01*
X6797500Y-7147500D02*
X6827500Y-7177500D01*
X6827500Y-7147500D02*
X6797500Y-7177500D01*
X6797500Y-10522500D02*
X6827500Y-10552500D01*
X6827500Y-10522500D02*
X6797500Y-10552500D01*
X6802500Y-8477500D02*
X6832500Y-8507500D01*
X6832500Y-8477500D02*
X6802500Y-8507500D01*
X6802500Y-9112500D02*
X6832500Y-9142500D01*
X6832500Y-9112500D02*
X6802500Y-9142500D01*
X6802500Y-9817500D02*
X6832500Y-9847500D01*
X6832500Y-9817500D02*
X6802500Y-9847500D01*
X6807500Y-8737500D02*
X6837500Y-8767500D01*
X6837500Y-8737500D02*
X6807500Y-8767500D01*
X6807500Y-9367500D02*
X6837500Y-9397500D01*
X6837500Y-9367500D02*
X6807500Y-9397500D01*
X6807500Y-9747500D02*
X6837500Y-9777500D01*
X6837500Y-9747500D02*
X6807500Y-9777500D01*
X6812500Y-8852500D02*
X6842500Y-8882500D01*
X6842500Y-8852500D02*
X6812500Y-8882500D01*
X6822500Y-7992500D02*
X6852500Y-8022500D01*
X6852500Y-7992500D02*
X6822500Y-8022500D01*
X6847500Y-7077500D02*
X6877500Y-7107500D01*
X6877500Y-7077500D02*
X6847500Y-7107500D01*
X6887500Y-11302500D02*
X6917500Y-11332500D01*
X6917500Y-11302500D02*
X6887500Y-11332500D01*
X6942500Y-11422500D02*
X6972500Y-11452500D01*
X6972500Y-11422500D02*
X6942500Y-11452500D01*
X6977500Y-7047500D02*
X7007500Y-7077500D01*
X7007500Y-7047500D02*
X6977500Y-7077500D01*
X6997500Y-10067500D02*
X7027500Y-10097500D01*
X7027500Y-10067500D02*
X6997500Y-10097500D01*
X7027500Y-11082500D02*
X7057500Y-11112500D01*
X7057500Y-11082500D02*
X7027500Y-11112500D01*
X7032500Y-11157500D02*
X7062500Y-11187500D01*
X7062500Y-11157500D02*
X7032500Y-11187500D01*
X7042500Y-9852500D02*
X7072500Y-9882500D01*
X7072500Y-9852500D02*
X7042500Y-9882500D01*
X7042500Y-11297500D02*
X7072500Y-11327500D01*
X7072500Y-11297500D02*
X7042500Y-11327500D01*
X7062500Y-9122500D02*
X7092500Y-9152500D01*
X7092500Y-9122500D02*
X7062500Y-9152500D01*
X7072500Y-10852500D02*
X7102500Y-10882500D01*
X7102500Y-10852500D02*
X7072500Y-10882500D01*
X7082500Y-10302500D02*
X7112500Y-10332500D01*
X7112500Y-10302500D02*
X7082500Y-10332500D01*
X7102500Y-10782500D02*
X7132500Y-10812500D01*
X7132500Y-10782500D02*
X7102500Y-10812500D01*
X7107500Y-7242500D02*
X7137500Y-7272500D01*
X7137500Y-7242500D02*
X7107500Y-7272500D01*
X7107500Y-9587500D02*
X7137500Y-9617500D01*
X7137500Y-9587500D02*
X7107500Y-9617500D01*
X7107500Y-9787500D02*
X7137500Y-9817500D01*
X7137500Y-9787500D02*
X7107500Y-9817500D01*
X7107500Y-10647500D02*
X7137500Y-10677500D01*
X7137500Y-10647500D02*
X7107500Y-10677500D01*
X7107500Y-11422500D02*
X7137500Y-11452500D01*
X7137500Y-11422500D02*
X7107500Y-11452500D01*
X7125000Y-7055000D02*
X7155000Y-7085000D01*
X7155000Y-7055000D02*
X7125000Y-7085000D01*
X7132500Y-7322500D02*
X7162500Y-7352500D01*
X7162500Y-7322500D02*
X7132500Y-7352500D01*
X7132500Y-9702500D02*
X7162500Y-9732500D01*
X7162500Y-9702500D02*
X7132500Y-9732500D01*
X7137500Y-8622500D02*
X7167500Y-8652500D01*
X7167500Y-8622500D02*
X7137500Y-8652500D01*
X7142500Y-8282500D02*
X7172500Y-8312500D01*
X7172500Y-8282500D02*
X7142500Y-8312500D01*
X7162500Y-9022500D02*
X7192500Y-9052500D01*
X7192500Y-9022500D02*
X7162500Y-9052500D01*
X7167500Y-9197500D02*
X7197500Y-9227500D01*
X7197500Y-9197500D02*
X7167500Y-9227500D01*
X7177500Y-10922500D02*
X7207500Y-10952500D01*
X7207500Y-10922500D02*
X7177500Y-10952500D01*
X7182500Y-7927500D02*
X7212500Y-7957500D01*
X7212500Y-7927500D02*
X7182500Y-7957500D01*
X7192500Y-8677500D02*
X7222500Y-8707500D01*
X7222500Y-8677500D02*
X7192500Y-8707500D01*
X7192500Y-9317500D02*
X7222500Y-9347500D01*
X7222500Y-9317500D02*
X7192500Y-9347500D01*
X7192500Y-9892500D02*
X7222500Y-9922500D01*
X7222500Y-9892500D02*
X7192500Y-9922500D01*
X7192500Y-10682500D02*
X7222500Y-10712500D01*
X7222500Y-10682500D02*
X7192500Y-10712500D01*
X7192500Y-11067500D02*
X7222500Y-11097500D01*
X7222500Y-11067500D02*
X7192500Y-11097500D01*
X7212500Y-11417500D02*
X7242500Y-11447500D01*
X7242500Y-11417500D02*
X7212500Y-11447500D01*
X7227500Y-7102500D02*
X7257500Y-7132500D01*
X7257500Y-7102500D02*
X7227500Y-7132500D01*
X7242500Y-8187500D02*
X7272500Y-8217500D01*
X7272500Y-8187500D02*
X7242500Y-8217500D01*
X7242500Y-10637500D02*
X7272500Y-10667500D01*
X7272500Y-10637500D02*
X7242500Y-10667500D01*
X7252500Y-8737500D02*
X7282500Y-8767500D01*
X7282500Y-8737500D02*
X7252500Y-8767500D01*
X7277500Y-7067500D02*
X7307500Y-7097500D01*
X7307500Y-7067500D02*
X7277500Y-7097500D01*
X7292500Y-9717500D02*
X7322500Y-9747500D01*
X7322500Y-9717500D02*
X7292500Y-9747500D01*
X7297500Y-11107500D02*
X7327500Y-11137500D01*
X7327500Y-11107500D02*
X7297500Y-11137500D01*
X7302500Y-10957500D02*
X7332500Y-10987500D01*
X7332500Y-10957500D02*
X7302500Y-10987500D01*
X7312500Y-8257500D02*
X7342500Y-8287500D01*
X7342500Y-8257500D02*
X7312500Y-8287500D01*
X7317500Y-9637500D02*
X7347500Y-9667500D01*
X7347500Y-9637500D02*
X7317500Y-9667500D01*
X7327500Y-7972500D02*
X7357500Y-8002500D01*
X7357500Y-7972500D02*
X7327500Y-8002500D01*
X7327500Y-9542500D02*
X7357500Y-9572500D01*
X7357500Y-9542500D02*
X7327500Y-9572500D01*
X7327500Y-10452500D02*
X7357500Y-10482500D01*
X7357500Y-10452500D02*
X7327500Y-10482500D01*
X7337500Y-9322500D02*
X7367500Y-9352500D01*
X7367500Y-9322500D02*
X7337500Y-9352500D01*
X7337500Y-10222500D02*
X7367500Y-10252500D01*
X7367500Y-10222500D02*
X7337500Y-10252500D01*
X7342500Y-9192500D02*
X7372500Y-9222500D01*
X7372500Y-9192500D02*
X7342500Y-9222500D01*
X7342500Y-9887500D02*
X7372500Y-9917500D01*
X7372500Y-9887500D02*
X7342500Y-9917500D01*
X7347500Y-11067500D02*
X7377500Y-11097500D01*
X7377500Y-11067500D02*
X7347500Y-11097500D01*
X7377500Y-9062500D02*
X7407500Y-9092500D01*
X7407500Y-9062500D02*
X7377500Y-9092500D01*
X7382500Y-11422500D02*
X7412500Y-11452500D01*
X7412500Y-11422500D02*
X7382500Y-11452500D01*
X7422500Y-8887500D02*
X7452500Y-8917500D01*
X7452500Y-8887500D02*
X7422500Y-8917500D01*
X7427500Y-10922500D02*
X7457500Y-10952500D01*
X7457500Y-10922500D02*
X7427500Y-10952500D01*
X7437500Y-8452500D02*
X7467500Y-8482500D01*
X7467500Y-8452500D02*
X7437500Y-8482500D01*
X7442500Y-8067500D02*
X7472500Y-8097500D01*
X7472500Y-8067500D02*
X7442500Y-8097500D01*
X7447500Y-10052500D02*
X7477500Y-10082500D01*
X7477500Y-10052500D02*
X7447500Y-10082500D01*
X7457500Y-11002500D02*
X7487500Y-11032500D01*
X7487500Y-11002500D02*
X7457500Y-11032500D01*
X7467500Y-7987500D02*
X7497500Y-8017500D01*
X7497500Y-7987500D02*
X7467500Y-8017500D01*
X7477500Y-9047500D02*
X7507500Y-9077500D01*
X7507500Y-9047500D02*
X7477500Y-9077500D01*
X7477500Y-9207500D02*
X7507500Y-9237500D01*
X7507500Y-9207500D02*
X7477500Y-9237500D01*
X7482500Y-9697500D02*
X7512500Y-9727500D01*
X7512500Y-9697500D02*
X7482500Y-9727500D01*
X7492500Y-9887500D02*
X7522500Y-9917500D01*
X7522500Y-9887500D02*
X7492500Y-9917500D01*
X7497500Y-9487500D02*
X7527500Y-9517500D01*
X7527500Y-9487500D02*
X7497500Y-9517500D01*
X7507500Y-10182500D02*
X7537500Y-10212500D01*
X7537500Y-10182500D02*
X7507500Y-10212500D01*
X7517500Y-8992500D02*
X7547500Y-9022500D01*
X7547500Y-8992500D02*
X7517500Y-9022500D01*
X7517500Y-10637500D02*
X7547500Y-10667500D01*
X7547500Y-10637500D02*
X7517500Y-10667500D01*
X7532500Y-9142500D02*
X7562500Y-9172500D01*
X7562500Y-9142500D02*
X7532500Y-9172500D01*
X7547500Y-9647500D02*
X7577500Y-9677500D01*
X7577500Y-9647500D02*
X7547500Y-9677500D01*
X7552500Y-7957500D02*
X7582500Y-7987500D01*
X7582500Y-7957500D02*
X7552500Y-7987500D01*
X7562500Y-11387500D02*
X7592500Y-11417500D01*
X7592500Y-11387500D02*
X7562500Y-11417500D01*
X7577500Y-8732500D02*
X7607500Y-8762500D01*
X7607500Y-8732500D02*
X7577500Y-8762500D01*
X7582500Y-8212500D02*
X7612500Y-8242500D01*
X7612500Y-8212500D02*
X7582500Y-8242500D01*
X7607500Y-11257500D02*
X7637500Y-11287500D01*
X7637500Y-11257500D02*
X7607500Y-11287500D01*
X7647500Y-8002500D02*
X7677500Y-8032500D01*
X7677500Y-8002500D02*
X7647500Y-8032500D01*
X7647500Y-8822500D02*
X7677500Y-8852500D01*
X7677500Y-8822500D02*
X7647500Y-8852500D01*
X7662500Y-9197500D02*
X7692500Y-9227500D01*
X7692500Y-9197500D02*
X7662500Y-9227500D01*
X7662500Y-11027500D02*
X7692500Y-11057500D01*
X7692500Y-11027500D02*
X7662500Y-11057500D01*
X7667500Y-10782500D02*
X7697500Y-10812500D01*
X7697500Y-10782500D02*
X7667500Y-10812500D01*
X7677500Y-9607500D02*
X7707500Y-9637500D01*
X7707500Y-9607500D02*
X7677500Y-9637500D01*
X7687500Y-8892500D02*
X7717500Y-8922500D01*
X7717500Y-8892500D02*
X7687500Y-8922500D01*
X7692500Y-8977500D02*
X7722500Y-9007500D01*
X7722500Y-8977500D02*
X7692500Y-9007500D01*
X7697500Y-8622500D02*
X7727500Y-8652500D01*
X7727500Y-8622500D02*
X7697500Y-8652500D01*
X7702500Y-8127500D02*
X7732500Y-8157500D01*
X7732500Y-8127500D02*
X7702500Y-8157500D01*
X7707500Y-8552500D02*
X7737500Y-8582500D01*
X7737500Y-8552500D02*
X7707500Y-8582500D01*
X7707500Y-9262500D02*
X7737500Y-9292500D01*
X7737500Y-9262500D02*
X7707500Y-9292500D01*
X7710000Y-9385000D02*
X7740000Y-9415000D01*
X7740000Y-9385000D02*
X7710000Y-9415000D01*
X7712500Y-10597500D02*
X7742500Y-10627500D01*
X7742500Y-10597500D02*
X7712500Y-10627500D01*
X7717500Y-7957500D02*
X7747500Y-7987500D01*
X7747500Y-7957500D02*
X7717500Y-7987500D01*
X7717500Y-10017500D02*
X7747500Y-10047500D01*
X7747500Y-10017500D02*
X7717500Y-10047500D01*
X7742500Y-9677500D02*
X7772500Y-9707500D01*
X7772500Y-9677500D02*
X7742500Y-9707500D01*
X7742500Y-10317500D02*
X7772500Y-10347500D01*
X7772500Y-10317500D02*
X7742500Y-10347500D01*
X7762500Y-8342500D02*
X7792500Y-8372500D01*
X7792500Y-8342500D02*
X7762500Y-8372500D01*
X7762500Y-9777500D02*
X7792500Y-9807500D01*
X7792500Y-9777500D02*
X7762500Y-9807500D01*
X7767500Y-11357500D02*
X7797500Y-11387500D01*
X7797500Y-11357500D02*
X7767500Y-11387500D01*
X7782500Y-7847500D02*
X7812500Y-7877500D01*
X7812500Y-7847500D02*
X7782500Y-7877500D01*
X7787500Y-10087500D02*
X7817500Y-10117500D01*
X7817500Y-10087500D02*
X7787500Y-10117500D01*
X7820000Y-8505000D02*
X7850000Y-8535000D01*
X7850000Y-8505000D02*
X7820000Y-8535000D01*
X7827500Y-10027500D02*
X7857500Y-10057500D01*
X7857500Y-10027500D02*
X7827500Y-10057500D01*
X7827500Y-10902500D02*
X7857500Y-10932500D01*
X7857500Y-10902500D02*
X7827500Y-10932500D01*
X7827500Y-11377500D02*
X7857500Y-11407500D01*
X7857500Y-11377500D02*
X7827500Y-11407500D01*
X7842500Y-8932500D02*
X7872500Y-8962500D01*
X7872500Y-8932500D02*
X7842500Y-8962500D01*
X7857500Y-10722500D02*
X7887500Y-10752500D01*
X7887500Y-10722500D02*
X7857500Y-10752500D01*
X7857500Y-11062500D02*
X7887500Y-11092500D01*
X7887500Y-11062500D02*
X7857500Y-11092500D01*
X7862500Y-9287500D02*
X7892500Y-9317500D01*
X7892500Y-9287500D02*
X7862500Y-9317500D01*
X7877500Y-11342500D02*
X7907500Y-11372500D01*
X7907500Y-11342500D02*
X7877500Y-11372500D01*
X7882500Y-9702500D02*
X7912500Y-9732500D01*
X7912500Y-9702500D02*
X7882500Y-9732500D01*
X7882500Y-10487500D02*
X7912500Y-10517500D01*
X7912500Y-10487500D02*
X7882500Y-10517500D01*
X7887500Y-7207500D02*
X7917500Y-7237500D01*
X7917500Y-7207500D02*
X7887500Y-7237500D01*
X7902500Y-11197500D02*
X7932500Y-11227500D01*
X7932500Y-11197500D02*
X7902500Y-11227500D01*
X7907500Y-7707500D02*
X7937500Y-7737500D01*
X7937500Y-7707500D02*
X7907500Y-7737500D01*
X7907500Y-9117500D02*
X7937500Y-9147500D01*
X7937500Y-9117500D02*
X7907500Y-9147500D01*
X7912500Y-10412500D02*
X7942500Y-10442500D01*
X7942500Y-10412500D02*
X7912500Y-10442500D01*
X7915000Y-9245000D02*
X7945000Y-9275000D01*
X7945000Y-9245000D02*
X7915000Y-9275000D01*
X7922500Y-8357500D02*
X7952500Y-8387500D01*
X7952500Y-8357500D02*
X7922500Y-8387500D01*
X7922500Y-8427500D02*
X7952500Y-8457500D01*
X7952500Y-8427500D02*
X7922500Y-8457500D01*
X7922500Y-10782500D02*
X7952500Y-10812500D01*
X7952500Y-10782500D02*
X7922500Y-10812500D01*
X7942500Y-9012500D02*
X7972500Y-9042500D01*
X7972500Y-9012500D02*
X7942500Y-9042500D01*
X7952500Y-7392500D02*
X7982500Y-7422500D01*
X7982500Y-7392500D02*
X7952500Y-7422500D01*
X7952500Y-9912500D02*
X7982500Y-9942500D01*
X7982500Y-9912500D02*
X7952500Y-9942500D01*
X7952500Y-11052500D02*
X7982500Y-11082500D01*
X7982500Y-11052500D02*
X7952500Y-11082500D01*
X7957500Y-7567500D02*
X7987500Y-7597500D01*
X7987500Y-7567500D02*
X7957500Y-7597500D01*
X7967500Y-7887500D02*
X7997500Y-7917500D01*
X7997500Y-7887500D02*
X7967500Y-7917500D01*
X7967500Y-8562500D02*
X7997500Y-8592500D01*
X7997500Y-8562500D02*
X7967500Y-8592500D01*
X7977500Y-9347500D02*
X8007500Y-9377500D01*
X8007500Y-9347500D02*
X7977500Y-9377500D01*
X7982500Y-10667500D02*
X8012500Y-10697500D01*
X8012500Y-10667500D02*
X7982500Y-10697500D01*
X7987500Y-7637500D02*
X8017500Y-7667500D01*
X8017500Y-7637500D02*
X7987500Y-7667500D01*
X7987500Y-10897500D02*
X8017500Y-10927500D01*
X8017500Y-10897500D02*
X7987500Y-10927500D01*
X8007500Y-7417500D02*
X8037500Y-7447500D01*
X8037500Y-7417500D02*
X8007500Y-7447500D01*
X8012500Y-9742500D02*
X8042500Y-9772500D01*
X8042500Y-9742500D02*
X8012500Y-9772500D01*
X8017500Y-8822500D02*
X8047500Y-8852500D01*
X8047500Y-8822500D02*
X8017500Y-8852500D01*
X8017500Y-11127500D02*
X8047500Y-11157500D01*
X8047500Y-11127500D02*
X8017500Y-11157500D01*
X8042500Y-9412500D02*
X8072500Y-9442500D01*
X8072500Y-9412500D02*
X8042500Y-9442500D01*
X8052500Y-10517500D02*
X8082500Y-10547500D01*
X8082500Y-10517500D02*
X8052500Y-10547500D01*
X8057500Y-9197500D02*
X8087500Y-9227500D01*
X8087500Y-9197500D02*
X8057500Y-9227500D01*
X8067500Y-7267500D02*
X8097500Y-7297500D01*
X8097500Y-7267500D02*
X8067500Y-7297500D01*
X8067500Y-10272500D02*
X8097500Y-10302500D01*
X8097500Y-10272500D02*
X8067500Y-10302500D01*
X8080000Y-9277500D02*
X8110000Y-9307500D01*
X8110000Y-9277500D02*
X8080000Y-9307500D01*
X8087500Y-9562500D02*
X8117500Y-9592500D01*
X8117500Y-9562500D02*
X8087500Y-9592500D01*
X8092500Y-8422500D02*
X8122500Y-8452500D01*
X8122500Y-8422500D02*
X8092500Y-8452500D01*
X8107500Y-7322500D02*
X8137500Y-7352500D01*
X8137500Y-7322500D02*
X8107500Y-7352500D01*
X8107500Y-7702500D02*
X8137500Y-7732500D01*
X8137500Y-7702500D02*
X8107500Y-7732500D01*
X8112500Y-10352500D02*
X8142500Y-10382500D01*
X8142500Y-10352500D02*
X8112500Y-10382500D01*
X8112500Y-11372500D02*
X8142500Y-11402500D01*
X8142500Y-11372500D02*
X8112500Y-11402500D01*
X8117500Y-10617500D02*
X8147500Y-10647500D01*
X8147500Y-10617500D02*
X8117500Y-10647500D01*
X8127500Y-7827500D02*
X8157500Y-7857500D01*
X8157500Y-7827500D02*
X8127500Y-7857500D01*
X8127500Y-8057500D02*
X8157500Y-8087500D01*
X8157500Y-8057500D02*
X8127500Y-8087500D01*
X8132500Y-7952500D02*
X8162500Y-7982500D01*
X8162500Y-7952500D02*
X8132500Y-7982500D01*
X8147500Y-9017500D02*
X8177500Y-9047500D01*
X8177500Y-9017500D02*
X8147500Y-9047500D01*
X8157500Y-9222500D02*
X8187500Y-9252500D01*
X8187500Y-9222500D02*
X8157500Y-9252500D01*
X8162500Y-8557500D02*
X8192500Y-8587500D01*
X8192500Y-8557500D02*
X8162500Y-8587500D01*
X8167500Y-8397500D02*
X8197500Y-8427500D01*
X8197500Y-8397500D02*
X8167500Y-8427500D01*
X8197500Y-9542500D02*
X8227500Y-9572500D01*
X8227500Y-9542500D02*
X8197500Y-9572500D01*
X8197500Y-10292500D02*
X8227500Y-10322500D01*
X8227500Y-10292500D02*
X8197500Y-10322500D01*
X8202500Y-8877500D02*
X8232500Y-8907500D01*
X8232500Y-8877500D02*
X8202500Y-8907500D01*
X8217500Y-8622500D02*
X8247500Y-8652500D01*
X8247500Y-8622500D02*
X8217500Y-8652500D01*
X8217500Y-9337500D02*
X8247500Y-9367500D01*
X8247500Y-9337500D02*
X8217500Y-9367500D01*
X8247500Y-9587500D02*
X8277500Y-9617500D01*
X8277500Y-9587500D02*
X8247500Y-9617500D01*
X8257500Y-8967500D02*
X8287500Y-8997500D01*
X8287500Y-8967500D02*
X8257500Y-8997500D01*
X8287500Y-8322500D02*
X8317500Y-8352500D01*
X8317500Y-8322500D02*
X8287500Y-8352500D01*
X8287500Y-8462500D02*
X8317500Y-8492500D01*
X8317500Y-8462500D02*
X8287500Y-8492500D01*
X8287500Y-8707500D02*
X8317500Y-8737500D01*
X8317500Y-8707500D02*
X8287500Y-8737500D01*
X8297500Y-7187500D02*
X8327500Y-7217500D01*
X8327500Y-7187500D02*
X8297500Y-7217500D01*
X8317500Y-10577500D02*
X8347500Y-10607500D01*
X8347500Y-10577500D02*
X8317500Y-10607500D01*
X8372500Y-9587500D02*
X8402500Y-9617500D01*
X8402500Y-9587500D02*
X8372500Y-9617500D01*
X8382500Y-7797500D02*
X8412500Y-7827500D01*
X8412500Y-7797500D02*
X8382500Y-7827500D01*
X8382500Y-7997500D02*
X8412500Y-8027500D01*
X8412500Y-7997500D02*
X8382500Y-8027500D01*
X8402500Y-9917500D02*
X8432500Y-9947500D01*
X8432500Y-9917500D02*
X8402500Y-9947500D01*
X8412500Y-10337500D02*
X8442500Y-10367500D01*
X8442500Y-10337500D02*
X8412500Y-10367500D01*
X8442500Y-9297500D02*
X8472500Y-9327500D01*
X8472500Y-9297500D02*
X8442500Y-9327500D01*
X8452500Y-7947500D02*
X8482500Y-7977500D01*
X8482500Y-7947500D02*
X8452500Y-7977500D01*
X8457500Y-8102500D02*
X8487500Y-8132500D01*
X8487500Y-8102500D02*
X8457500Y-8132500D01*
X8457500Y-8497500D02*
X8487500Y-8527500D01*
X8487500Y-8497500D02*
X8457500Y-8527500D01*
X8457500Y-9222500D02*
X8487500Y-9252500D01*
X8487500Y-9222500D02*
X8457500Y-9252500D01*
X8467500Y-8022500D02*
X8497500Y-8052500D01*
X8497500Y-8022500D02*
X8467500Y-8052500D01*
X8497500Y-8152500D02*
X8527500Y-8182500D01*
X8527500Y-8152500D02*
X8497500Y-8182500D01*
X8502500Y-8882500D02*
X8532500Y-8912500D01*
X8532500Y-8882500D02*
X8502500Y-8912500D01*
X8502500Y-9762500D02*
X8532500Y-9792500D01*
X8532500Y-9762500D02*
X8502500Y-9792500D01*
X8552500Y-8817500D02*
X8582500Y-8847500D01*
X8582500Y-8817500D02*
X8552500Y-8847500D01*
X8557500Y-8707500D02*
X8587500Y-8737500D01*
X8587500Y-8707500D02*
X8557500Y-8737500D01*
X8562500Y-8977500D02*
X8592500Y-9007500D01*
X8592500Y-8977500D02*
X8562500Y-9007500D01*
X8567500Y-8482500D02*
X8597500Y-8512500D01*
X8597500Y-8482500D02*
X8567500Y-8512500D01*
X8577500Y-9112500D02*
X8607500Y-9142500D01*
X8607500Y-9112500D02*
X8577500Y-9142500D01*
X8592500Y-10397500D02*
X8622500Y-10427500D01*
X8622500Y-10397500D02*
X8592500Y-10427500D01*
X8602500Y-7192500D02*
X8632500Y-7222500D01*
X8632500Y-7192500D02*
X8602500Y-7222500D01*
X8602500Y-7622500D02*
X8632500Y-7652500D01*
X8632500Y-7622500D02*
X8602500Y-7652500D01*
X8602500Y-9327500D02*
X8632500Y-9357500D01*
X8632500Y-9327500D02*
X8602500Y-9357500D01*
X8602500Y-9922500D02*
X8632500Y-9952500D01*
X8632500Y-9922500D02*
X8602500Y-9952500D01*
X8607500Y-7317500D02*
X8637500Y-7347500D01*
X8637500Y-7317500D02*
X8607500Y-7347500D01*
X8607500Y-7952500D02*
X8637500Y-7982500D01*
X8637500Y-7952500D02*
X8607500Y-7982500D01*
X8607500Y-10012500D02*
X8637500Y-10042500D01*
X8637500Y-10012500D02*
X8607500Y-10042500D01*
X8632500Y-7757500D02*
X8662500Y-7787500D01*
X8662500Y-7757500D02*
X8632500Y-7787500D01*
X8687500Y-10022500D02*
X8717500Y-10052500D01*
X8717500Y-10022500D02*
X8687500Y-10052500D01*
X8732500Y-7852500D02*
X8762500Y-7882500D01*
X8762500Y-7852500D02*
X8732500Y-7882500D01*
X8742500Y-9352500D02*
X8772500Y-9382500D01*
X8772500Y-9352500D02*
X8742500Y-9382500D01*
X8752500Y-9477500D02*
X8782500Y-9507500D01*
X8782500Y-9477500D02*
X8752500Y-9507500D01*
X8752500Y-10397500D02*
X8782500Y-10427500D01*
X8782500Y-10397500D02*
X8752500Y-10427500D01*
X8757500Y-8482500D02*
X8787500Y-8512500D01*
X8787500Y-8482500D02*
X8757500Y-8512500D01*
X8757500Y-10082500D02*
X8787500Y-10112500D01*
X8787500Y-10082500D02*
X8757500Y-10112500D01*
X8767500Y-8392500D02*
X8797500Y-8422500D01*
X8797500Y-8392500D02*
X8767500Y-8422500D01*
X8792500Y-7067500D02*
X8822500Y-7097500D01*
X8822500Y-7067500D02*
X8792500Y-7097500D01*
X8802500Y-9812500D02*
X8832500Y-9842500D01*
X8832500Y-9812500D02*
X8802500Y-9842500D01*
X8812500Y-9562500D02*
X8842500Y-9592500D01*
X8842500Y-9562500D02*
X8812500Y-9592500D01*
X8832500Y-7527500D02*
X8862500Y-7557500D01*
X8862500Y-7527500D02*
X8832500Y-7557500D01*
X8852500Y-8117500D02*
X8882500Y-8147500D01*
X8882500Y-8117500D02*
X8852500Y-8147500D01*
X8872500Y-7922500D02*
X8902500Y-7952500D01*
X8902500Y-7922500D02*
X8872500Y-7952500D01*
X8882500Y-7732500D02*
X8912500Y-7762500D01*
X8912500Y-7732500D02*
X8882500Y-7762500D01*
X8907500Y-10132500D02*
X8937500Y-10162500D01*
X8937500Y-10132500D02*
X8907500Y-10162500D01*
X8917500Y-10702500D02*
X8947500Y-10732500D01*
X8947500Y-10702500D02*
X8917500Y-10732500D01*
X8922500Y-10857500D02*
X8952500Y-10887500D01*
X8952500Y-10857500D02*
X8922500Y-10887500D01*
X8942500Y-7967500D02*
X8972500Y-7997500D01*
X8972500Y-7967500D02*
X8942500Y-7997500D01*
X8942500Y-9052500D02*
X8972500Y-9082500D01*
X8972500Y-9052500D02*
X8942500Y-9082500D01*
X8957500Y-7127500D02*
X8987500Y-7157500D01*
X8987500Y-7127500D02*
X8957500Y-7157500D01*
X8957500Y-7547500D02*
X8987500Y-7577500D01*
X8987500Y-7547500D02*
X8957500Y-7577500D01*
X8982500Y-7392500D02*
X9012500Y-7422500D01*
X9012500Y-7392500D02*
X8982500Y-7422500D01*
X8982500Y-9552500D02*
X9012500Y-9582500D01*
X9012500Y-9552500D02*
X8982500Y-9582500D01*
X8992500Y-7602500D02*
X9022500Y-7632500D01*
X9022500Y-7602500D02*
X8992500Y-7632500D01*
X8992500Y-9692500D02*
X9022500Y-9722500D01*
X9022500Y-9692500D02*
X8992500Y-9722500D01*
X8992500Y-9852500D02*
X9022500Y-9882500D01*
X9022500Y-9852500D02*
X8992500Y-9882500D01*
X9002500Y-10077500D02*
X9032500Y-10107500D01*
X9032500Y-10077500D02*
X9002500Y-10107500D01*
X5156500Y-9590000D02*
G75*
G02*
X5056500Y-9590000I-50000J0D01*
G01*
X5056500Y-9590000D02*
G75*
G02*
X5156500Y-9590000I50000J0D01*
G01*
X5283500Y-9844000D02*
G75*
G02*
X5183500Y-9844000I-50000J0D01*
G01*
X5183500Y-9844000D02*
G75*
G02*
X5283500Y-9844000I50000J0D01*
G01*
X5410500Y-9590000D02*
G75*
G02*
X5310500Y-9590000I-50000J0D01*
G01*
X5310500Y-9590000D02*
G75*
G02*
X5410500Y-9590000I50000J0D01*
G01*
X5537500Y-9844000D02*
G75*
G02*
X5437500Y-9844000I-50000J0D01*
G01*
X5437500Y-9844000D02*
G75*
G02*
X5537500Y-9844000I50000J0D01*
G01*
X5664500Y-9590000D02*
G75*
G02*
X5564500Y-9590000I-50000J0D01*
G01*
X5564500Y-9590000D02*
G75*
G02*
X5664500Y-9590000I50000J0D01*
G01*
X5791500Y-9844000D02*
G75*
G02*
X5691500Y-9844000I-50000J0D01*
G01*
X5691500Y-9844000D02*
G75*
G02*
X5791500Y-9844000I50000J0D01*
G01*
X5918500Y-9590000D02*
G75*
G02*
X5818500Y-9590000I-50000J0D01*
G01*
X5818500Y-9590000D02*
G75*
G02*
X5918500Y-9590000I50000J0D01*
G01*
X6045500Y-9844000D02*
G75*
G02*
X5945500Y-9844000I-50000J0D01*
G01*
X5945500Y-9844000D02*
G75*
G02*
X6045500Y-9844000I50000J0D01*
G01*
X6172500Y-9590000D02*
G75*
G02*
X6072500Y-9590000I-50000J0D01*
G01*
X6072500Y-9590000D02*
G75*
G02*
X6172500Y-9590000I50000J0D01*
G01*
X6299500Y-9844000D02*
G75*
G02*
X6199500Y-9844000I-50000J0D01*
G01*
X6199500Y-9844000D02*
G75*
G02*
X6299500Y-9844000I50000J0D01*
G01*
X6426500Y-9590000D02*
G75*
G02*
X6326500Y-9590000I-50000J0D01*
G01*
X6326500Y-9590000D02*
G75*
G02*
X6426500Y-9590000I50000J0D01*
G01*
D12*
X6693654Y-7363301D02*
X6693654Y-7468301D01*
X6641154Y-7415801D02*
X6746154Y-7415801D01*
X6693654Y-7617301D02*
X6693654Y-7722301D01*
X6641154Y-7669801D02*
X6746154Y-7669801D01*
X6693654Y-7871301D02*
X6693654Y-7976301D01*
X6641154Y-7923801D02*
X6746154Y-7923801D01*
X6693654Y-8125301D02*
X6693654Y-8230301D01*
X6641154Y-8177801D02*
X6746154Y-8177801D01*
X6693654Y-8379301D02*
X6693654Y-8484301D01*
X6641154Y-8431801D02*
X6746154Y-8431801D01*
X6693654Y-8633301D02*
X6693654Y-8738301D01*
X6641154Y-8685801D02*
X6746154Y-8685801D01*
X6693654Y-8887301D02*
X6693654Y-8992301D01*
X6641154Y-8939801D02*
X6746154Y-8939801D01*
X6693654Y-9141301D02*
X6693654Y-9246301D01*
X6641154Y-9193801D02*
X6746154Y-9193801D01*
X6693654Y-9395301D02*
X6693654Y-9500301D01*
X6641154Y-9447801D02*
X6746154Y-9447801D01*
X6693654Y-9649301D02*
X6693654Y-9754301D01*
X6641154Y-9701801D02*
X6746154Y-9701801D01*
X6693654Y-9903301D02*
X6693654Y-10008301D01*
X6641154Y-9955801D02*
X6746154Y-9955801D01*
X6693654Y-10157301D02*
X6693654Y-10262301D01*
X6641154Y-10209801D02*
X6746154Y-10209801D01*
X6693654Y-10411301D02*
X6693654Y-10516301D01*
X6641154Y-10463801D02*
X6746154Y-10463801D01*
X6693654Y-10665301D02*
X6693654Y-10770301D01*
X6641154Y-10717801D02*
X6746154Y-10717801D01*
X6693654Y-10919301D02*
X6693654Y-11024301D01*
X6641154Y-10971801D02*
X6746154Y-10971801D01*
X6947654Y-7363301D02*
X6947654Y-7468301D01*
X6895154Y-7415801D02*
X7000154Y-7415801D01*
X6947654Y-7617301D02*
X6947654Y-7722301D01*
X6895154Y-7669801D02*
X7000154Y-7669801D01*
X6947654Y-7871301D02*
X6947654Y-7976301D01*
X6895154Y-7923801D02*
X7000154Y-7923801D01*
X6947654Y-8125301D02*
X6947654Y-8230301D01*
X6895154Y-8177801D02*
X7000154Y-8177801D01*
X6947654Y-8379301D02*
X6947654Y-8484301D01*
X6895154Y-8431801D02*
X7000154Y-8431801D01*
X6947654Y-8633301D02*
X6947654Y-8738301D01*
X6895154Y-8685801D02*
X7000154Y-8685801D01*
X6947654Y-8887301D02*
X6947654Y-8992301D01*
X6895154Y-8939801D02*
X7000154Y-8939801D01*
X6947654Y-9141301D02*
X6947654Y-9246301D01*
X6895154Y-9193801D02*
X7000154Y-9193801D01*
X6947654Y-9395301D02*
X6947654Y-9500301D01*
X6895154Y-9447801D02*
X7000154Y-9447801D01*
X6947654Y-9649301D02*
X6947654Y-9754301D01*
X6895154Y-9701801D02*
X7000154Y-9701801D01*
X6947654Y-9903301D02*
X6947654Y-10008301D01*
X6895154Y-9955801D02*
X7000154Y-9955801D01*
X6947654Y-10157301D02*
X6947654Y-10262301D01*
X6895154Y-10209801D02*
X7000154Y-10209801D01*
X6947654Y-10411301D02*
X6947654Y-10516301D01*
X6895154Y-10463801D02*
X7000154Y-10463801D01*
X6947654Y-10665301D02*
X6947654Y-10770301D01*
X6895154Y-10717801D02*
X7000154Y-10717801D01*
X6947654Y-10919301D02*
X6947654Y-11024301D01*
X6895154Y-10971801D02*
X7000154Y-10971801D01*
D11*
X4844827Y-11818744D02*
X4844827Y-11618744D01*
X4844827Y-11618744D02*
X4892446Y-11618744D01*
X4892446Y-11618744D02*
X4921017Y-11628268D01*
X4921017Y-11628268D02*
X4940065Y-11647315D01*
X4940065Y-11647315D02*
X4949589Y-11666363D01*
X4949589Y-11666363D02*
X4959113Y-11704458D01*
X4959113Y-11704458D02*
X4959113Y-11733029D01*
X4959113Y-11733029D02*
X4949589Y-11771125D01*
X4949589Y-11771125D02*
X4940065Y-11790172D01*
X4940065Y-11790172D02*
X4921017Y-11809220D01*
X4921017Y-11809220D02*
X4892446Y-11818744D01*
X4892446Y-11818744D02*
X4844827Y-11818744D01*
X5044827Y-11818744D02*
X5044827Y-11685410D01*
X5044827Y-11723506D02*
X5054351Y-11704458D01*
X5054351Y-11704458D02*
X5063874Y-11694934D01*
X5063874Y-11694934D02*
X5082922Y-11685410D01*
X5082922Y-11685410D02*
X5101970Y-11685410D01*
X5168636Y-11818744D02*
X5168636Y-11685410D01*
X5168636Y-11618744D02*
X5159113Y-11628268D01*
X5159113Y-11628268D02*
X5168636Y-11637791D01*
X5168636Y-11637791D02*
X5178160Y-11628268D01*
X5178160Y-11628268D02*
X5168636Y-11618744D01*
X5168636Y-11618744D02*
X5168636Y-11637791D01*
X5292446Y-11818744D02*
X5273398Y-11809220D01*
X5273398Y-11809220D02*
X5263874Y-11790172D01*
X5263874Y-11790172D02*
X5263874Y-11618744D01*
X5397208Y-11818744D02*
X5378160Y-11809220D01*
X5378160Y-11809220D02*
X5368636Y-11790172D01*
X5368636Y-11790172D02*
X5368636Y-11618744D01*
X5625779Y-11818744D02*
X5625779Y-11618744D01*
X5625779Y-11618744D02*
X5692446Y-11761601D01*
X5692446Y-11761601D02*
X5759112Y-11618744D01*
X5759112Y-11618744D02*
X5759112Y-11818744D01*
X5940065Y-11818744D02*
X5940065Y-11713982D01*
X5940065Y-11713982D02*
X5930541Y-11694934D01*
X5930541Y-11694934D02*
X5911493Y-11685410D01*
X5911493Y-11685410D02*
X5873398Y-11685410D01*
X5873398Y-11685410D02*
X5854351Y-11694934D01*
X5940065Y-11809220D02*
X5921017Y-11818744D01*
X5921017Y-11818744D02*
X5873398Y-11818744D01*
X5873398Y-11818744D02*
X5854351Y-11809220D01*
X5854351Y-11809220D02*
X5844827Y-11790172D01*
X5844827Y-11790172D02*
X5844827Y-11771125D01*
X5844827Y-11771125D02*
X5854351Y-11752077D01*
X5854351Y-11752077D02*
X5873398Y-11742553D01*
X5873398Y-11742553D02*
X5921017Y-11742553D01*
X5921017Y-11742553D02*
X5940065Y-11733029D01*
X6035303Y-11685410D02*
X6035303Y-11885410D01*
X6035303Y-11694934D02*
X6054351Y-11685410D01*
X6054351Y-11685410D02*
X6092446Y-11685410D01*
X6092446Y-11685410D02*
X6111493Y-11694934D01*
X6111493Y-11694934D02*
X6121017Y-11704458D01*
X6121017Y-11704458D02*
X6130541Y-11723506D01*
X6130541Y-11723506D02*
X6130541Y-11780648D01*
X6130541Y-11780648D02*
X6121017Y-11799696D01*
X6121017Y-11799696D02*
X6111493Y-11809220D01*
X6111493Y-11809220D02*
X6092446Y-11818744D01*
X6092446Y-11818744D02*
X6054351Y-11818744D01*
X6054351Y-11818744D02*
X6035303Y-11809220D01*
X6216255Y-11799696D02*
X6225779Y-11809220D01*
X6225779Y-11809220D02*
X6216255Y-11818744D01*
X6216255Y-11818744D02*
X6206732Y-11809220D01*
X6206732Y-11809220D02*
X6216255Y-11799696D01*
X6216255Y-11799696D02*
X6216255Y-11818744D01*
X6216255Y-11694934D02*
X6225779Y-11704458D01*
X6225779Y-11704458D02*
X6216255Y-11713982D01*
X6216255Y-11713982D02*
X6206732Y-11704458D01*
X6206732Y-11704458D02*
X6216255Y-11694934D01*
X6216255Y-11694934D02*
X6216255Y-11713982D01*
D10*
X4554050Y-12132260D02*
X4584050Y-12162260D01*
X4584050Y-12132260D02*
X4554050Y-12162260D01*
D11*
X4882922Y-12038744D02*
X4901970Y-12038744D01*
X4901970Y-12038744D02*
X4921017Y-12048268D01*
X4921017Y-12048268D02*
X4930541Y-12057791D01*
X4930541Y-12057791D02*
X4940065Y-12076839D01*
X4940065Y-12076839D02*
X4949589Y-12114934D01*
X4949589Y-12114934D02*
X4949589Y-12162553D01*
X4949589Y-12162553D02*
X4940065Y-12200648D01*
X4940065Y-12200648D02*
X4930541Y-12219696D01*
X4930541Y-12219696D02*
X4921017Y-12229220D01*
X4921017Y-12229220D02*
X4901970Y-12238744D01*
X4901970Y-12238744D02*
X4882922Y-12238744D01*
X4882922Y-12238744D02*
X4863874Y-12229220D01*
X4863874Y-12229220D02*
X4854351Y-12219696D01*
X4854351Y-12219696D02*
X4844827Y-12200648D01*
X4844827Y-12200648D02*
X4835303Y-12162553D01*
X4835303Y-12162553D02*
X4835303Y-12114934D01*
X4835303Y-12114934D02*
X4844827Y-12076839D01*
X4844827Y-12076839D02*
X4854351Y-12057791D01*
X4854351Y-12057791D02*
X4863874Y-12048268D01*
X4863874Y-12048268D02*
X4882922Y-12038744D01*
X5035303Y-12219696D02*
X5044827Y-12229220D01*
X5044827Y-12229220D02*
X5035303Y-12238744D01*
X5035303Y-12238744D02*
X5025779Y-12229220D01*
X5025779Y-12229220D02*
X5035303Y-12219696D01*
X5035303Y-12219696D02*
X5035303Y-12238744D01*
X5111494Y-12038744D02*
X5235303Y-12038744D01*
X5235303Y-12038744D02*
X5168636Y-12114934D01*
X5168636Y-12114934D02*
X5197208Y-12114934D01*
X5197208Y-12114934D02*
X5216255Y-12124458D01*
X5216255Y-12124458D02*
X5225779Y-12133982D01*
X5225779Y-12133982D02*
X5235303Y-12153029D01*
X5235303Y-12153029D02*
X5235303Y-12200648D01*
X5235303Y-12200648D02*
X5225779Y-12219696D01*
X5225779Y-12219696D02*
X5216255Y-12229220D01*
X5216255Y-12229220D02*
X5197208Y-12238744D01*
X5197208Y-12238744D02*
X5140065Y-12238744D01*
X5140065Y-12238744D02*
X5121017Y-12229220D01*
X5121017Y-12229220D02*
X5111494Y-12219696D01*
X5359113Y-12038744D02*
X5378160Y-12038744D01*
X5378160Y-12038744D02*
X5397208Y-12048268D01*
X5397208Y-12048268D02*
X5406732Y-12057791D01*
X5406732Y-12057791D02*
X5416255Y-12076839D01*
X5416255Y-12076839D02*
X5425779Y-12114934D01*
X5425779Y-12114934D02*
X5425779Y-12162553D01*
X5425779Y-12162553D02*
X5416255Y-12200648D01*
X5416255Y-12200648D02*
X5406732Y-12219696D01*
X5406732Y-12219696D02*
X5397208Y-12229220D01*
X5397208Y-12229220D02*
X5378160Y-12238744D01*
X5378160Y-12238744D02*
X5359113Y-12238744D01*
X5359113Y-12238744D02*
X5340065Y-12229220D01*
X5340065Y-12229220D02*
X5330541Y-12219696D01*
X5330541Y-12219696D02*
X5321017Y-12200648D01*
X5321017Y-12200648D02*
X5311494Y-12162553D01*
X5311494Y-12162553D02*
X5311494Y-12114934D01*
X5311494Y-12114934D02*
X5321017Y-12076839D01*
X5321017Y-12076839D02*
X5330541Y-12057791D01*
X5330541Y-12057791D02*
X5340065Y-12048268D01*
X5340065Y-12048268D02*
X5359113Y-12038744D01*
X5549589Y-12038744D02*
X5568636Y-12038744D01*
X5568636Y-12038744D02*
X5587684Y-12048268D01*
X5587684Y-12048268D02*
X5597208Y-12057791D01*
X5597208Y-12057791D02*
X5606732Y-12076839D01*
X5606732Y-12076839D02*
X5616255Y-12114934D01*
X5616255Y-12114934D02*
X5616255Y-12162553D01*
X5616255Y-12162553D02*
X5606732Y-12200648D01*
X5606732Y-12200648D02*
X5597208Y-12219696D01*
X5597208Y-12219696D02*
X5587684Y-12229220D01*
X5587684Y-12229220D02*
X5568636Y-12238744D01*
X5568636Y-12238744D02*
X5549589Y-12238744D01*
X5549589Y-12238744D02*
X5530541Y-12229220D01*
X5530541Y-12229220D02*
X5521017Y-12219696D01*
X5521017Y-12219696D02*
X5511494Y-12200648D01*
X5511494Y-12200648D02*
X5501970Y-12162553D01*
X5501970Y-12162553D02*
X5501970Y-12114934D01*
X5501970Y-12114934D02*
X5511494Y-12076839D01*
X5511494Y-12076839D02*
X5521017Y-12057791D01*
X5521017Y-12057791D02*
X5530541Y-12048268D01*
X5530541Y-12048268D02*
X5549589Y-12038744D01*
X5701970Y-12238744D02*
X5701970Y-12105410D01*
X5701970Y-12124458D02*
X5711493Y-12114934D01*
X5711493Y-12114934D02*
X5730541Y-12105410D01*
X5730541Y-12105410D02*
X5759113Y-12105410D01*
X5759113Y-12105410D02*
X5778160Y-12114934D01*
X5778160Y-12114934D02*
X5787684Y-12133982D01*
X5787684Y-12133982D02*
X5787684Y-12238744D01*
X5787684Y-12133982D02*
X5797208Y-12114934D01*
X5797208Y-12114934D02*
X5816255Y-12105410D01*
X5816255Y-12105410D02*
X5844827Y-12105410D01*
X5844827Y-12105410D02*
X5863874Y-12114934D01*
X5863874Y-12114934D02*
X5873398Y-12133982D01*
X5873398Y-12133982D02*
X5873398Y-12238744D01*
X5968636Y-12238744D02*
X5968636Y-12105410D01*
X5968636Y-12124458D02*
X5978160Y-12114934D01*
X5978160Y-12114934D02*
X5997208Y-12105410D01*
X5997208Y-12105410D02*
X6025779Y-12105410D01*
X6025779Y-12105410D02*
X6044827Y-12114934D01*
X6044827Y-12114934D02*
X6054351Y-12133982D01*
X6054351Y-12133982D02*
X6054351Y-12238744D01*
X6054351Y-12133982D02*
X6063874Y-12114934D01*
X6063874Y-12114934D02*
X6082922Y-12105410D01*
X6082922Y-12105410D02*
X6111493Y-12105410D01*
X6111493Y-12105410D02*
X6130541Y-12114934D01*
X6130541Y-12114934D02*
X6140065Y-12133982D01*
X6140065Y-12133982D02*
X6140065Y-12238744D01*
X6530541Y-12029220D02*
X6359113Y-12286363D01*
X6787684Y-12038744D02*
X6806732Y-12038744D01*
X6806732Y-12038744D02*
X6825779Y-12048268D01*
X6825779Y-12048268D02*
X6835303Y-12057791D01*
X6835303Y-12057791D02*
X6844827Y-12076839D01*
X6844827Y-12076839D02*
X6854351Y-12114934D01*
X6854351Y-12114934D02*
X6854351Y-12162553D01*
X6854351Y-12162553D02*
X6844827Y-12200648D01*
X6844827Y-12200648D02*
X6835303Y-12219696D01*
X6835303Y-12219696D02*
X6825779Y-12229220D01*
X6825779Y-12229220D02*
X6806732Y-12238744D01*
X6806732Y-12238744D02*
X6787684Y-12238744D01*
X6787684Y-12238744D02*
X6768636Y-12229220D01*
X6768636Y-12229220D02*
X6759113Y-12219696D01*
X6759113Y-12219696D02*
X6749589Y-12200648D01*
X6749589Y-12200648D02*
X6740065Y-12162553D01*
X6740065Y-12162553D02*
X6740065Y-12114934D01*
X6740065Y-12114934D02*
X6749589Y-12076839D01*
X6749589Y-12076839D02*
X6759113Y-12057791D01*
X6759113Y-12057791D02*
X6768636Y-12048268D01*
X6768636Y-12048268D02*
X6787684Y-12038744D01*
X6940065Y-12219696D02*
X6949589Y-12229220D01*
X6949589Y-12229220D02*
X6940065Y-12238744D01*
X6940065Y-12238744D02*
X6930541Y-12229220D01*
X6930541Y-12229220D02*
X6940065Y-12219696D01*
X6940065Y-12219696D02*
X6940065Y-12238744D01*
X7073398Y-12038744D02*
X7092446Y-12038744D01*
X7092446Y-12038744D02*
X7111494Y-12048268D01*
X7111494Y-12048268D02*
X7121017Y-12057791D01*
X7121017Y-12057791D02*
X7130541Y-12076839D01*
X7130541Y-12076839D02*
X7140065Y-12114934D01*
X7140065Y-12114934D02*
X7140065Y-12162553D01*
X7140065Y-12162553D02*
X7130541Y-12200648D01*
X7130541Y-12200648D02*
X7121017Y-12219696D01*
X7121017Y-12219696D02*
X7111494Y-12229220D01*
X7111494Y-12229220D02*
X7092446Y-12238744D01*
X7092446Y-12238744D02*
X7073398Y-12238744D01*
X7073398Y-12238744D02*
X7054351Y-12229220D01*
X7054351Y-12229220D02*
X7044827Y-12219696D01*
X7044827Y-12219696D02*
X7035303Y-12200648D01*
X7035303Y-12200648D02*
X7025779Y-12162553D01*
X7025779Y-12162553D02*
X7025779Y-12114934D01*
X7025779Y-12114934D02*
X7035303Y-12076839D01*
X7035303Y-12076839D02*
X7044827Y-12057791D01*
X7044827Y-12057791D02*
X7054351Y-12048268D01*
X7054351Y-12048268D02*
X7073398Y-12038744D01*
X7330541Y-12238744D02*
X7216256Y-12238744D01*
X7273398Y-12238744D02*
X7273398Y-12038744D01*
X7273398Y-12038744D02*
X7254351Y-12067315D01*
X7254351Y-12067315D02*
X7235303Y-12086363D01*
X7235303Y-12086363D02*
X7216256Y-12095887D01*
X7521017Y-12238744D02*
X7406732Y-12238744D01*
X7463875Y-12238744D02*
X7463875Y-12038744D01*
X7463875Y-12038744D02*
X7444827Y-12067315D01*
X7444827Y-12067315D02*
X7425779Y-12086363D01*
X7425779Y-12086363D02*
X7406732Y-12095887D01*
X7635303Y-12124458D02*
X7616256Y-12114934D01*
X7616256Y-12114934D02*
X7606732Y-12105410D01*
X7606732Y-12105410D02*
X7597208Y-12086363D01*
X7597208Y-12086363D02*
X7597208Y-12076839D01*
X7597208Y-12076839D02*
X7606732Y-12057791D01*
X7606732Y-12057791D02*
X7616256Y-12048268D01*
X7616256Y-12048268D02*
X7635303Y-12038744D01*
X7635303Y-12038744D02*
X7673398Y-12038744D01*
X7673398Y-12038744D02*
X7692446Y-12048268D01*
X7692446Y-12048268D02*
X7701970Y-12057791D01*
X7701970Y-12057791D02*
X7711494Y-12076839D01*
X7711494Y-12076839D02*
X7711494Y-12086363D01*
X7711494Y-12086363D02*
X7701970Y-12105410D01*
X7701970Y-12105410D02*
X7692446Y-12114934D01*
X7692446Y-12114934D02*
X7673398Y-12124458D01*
X7673398Y-12124458D02*
X7635303Y-12124458D01*
X7635303Y-12124458D02*
X7616256Y-12133982D01*
X7616256Y-12133982D02*
X7606732Y-12143506D01*
X7606732Y-12143506D02*
X7597208Y-12162553D01*
X7597208Y-12162553D02*
X7597208Y-12200648D01*
X7597208Y-12200648D02*
X7606732Y-12219696D01*
X7606732Y-12219696D02*
X7616256Y-12229220D01*
X7616256Y-12229220D02*
X7635303Y-12238744D01*
X7635303Y-12238744D02*
X7673398Y-12238744D01*
X7673398Y-12238744D02*
X7692446Y-12229220D01*
X7692446Y-12229220D02*
X7701970Y-12219696D01*
X7701970Y-12219696D02*
X7711494Y-12200648D01*
X7711494Y-12200648D02*
X7711494Y-12162553D01*
X7711494Y-12162553D02*
X7701970Y-12143506D01*
X7701970Y-12143506D02*
X7692446Y-12133982D01*
X7692446Y-12133982D02*
X7673398Y-12124458D01*
X7787684Y-12038744D02*
X7787684Y-12076839D01*
X7863875Y-12038744D02*
X7863875Y-12076839D01*
X8159113Y-12314934D02*
X8149589Y-12305410D01*
X8149589Y-12305410D02*
X8130541Y-12276839D01*
X8130541Y-12276839D02*
X8121018Y-12257791D01*
X8121018Y-12257791D02*
X8111494Y-12229220D01*
X8111494Y-12229220D02*
X8101970Y-12181601D01*
X8101970Y-12181601D02*
X8101970Y-12143506D01*
X8101970Y-12143506D02*
X8111494Y-12095887D01*
X8111494Y-12095887D02*
X8121018Y-12067315D01*
X8121018Y-12067315D02*
X8130541Y-12048268D01*
X8130541Y-12048268D02*
X8149589Y-12019696D01*
X8149589Y-12019696D02*
X8159113Y-12010172D01*
X8216256Y-12038744D02*
X8340065Y-12038744D01*
X8340065Y-12038744D02*
X8273398Y-12114934D01*
X8273398Y-12114934D02*
X8301970Y-12114934D01*
X8301970Y-12114934D02*
X8321018Y-12124458D01*
X8321018Y-12124458D02*
X8330541Y-12133982D01*
X8330541Y-12133982D02*
X8340065Y-12153029D01*
X8340065Y-12153029D02*
X8340065Y-12200648D01*
X8340065Y-12200648D02*
X8330541Y-12219696D01*
X8330541Y-12219696D02*
X8321018Y-12229220D01*
X8321018Y-12229220D02*
X8301970Y-12238744D01*
X8301970Y-12238744D02*
X8244827Y-12238744D01*
X8244827Y-12238744D02*
X8225779Y-12229220D01*
X8225779Y-12229220D02*
X8216256Y-12219696D01*
X8435303Y-12238744D02*
X8473399Y-12238744D01*
X8473399Y-12238744D02*
X8492446Y-12229220D01*
X8492446Y-12229220D02*
X8501970Y-12219696D01*
X8501970Y-12219696D02*
X8521018Y-12191125D01*
X8521018Y-12191125D02*
X8530541Y-12153029D01*
X8530541Y-12153029D02*
X8530541Y-12076839D01*
X8530541Y-12076839D02*
X8521018Y-12057791D01*
X8521018Y-12057791D02*
X8511494Y-12048268D01*
X8511494Y-12048268D02*
X8492446Y-12038744D01*
X8492446Y-12038744D02*
X8454351Y-12038744D01*
X8454351Y-12038744D02*
X8435303Y-12048268D01*
X8435303Y-12048268D02*
X8425780Y-12057791D01*
X8425780Y-12057791D02*
X8416256Y-12076839D01*
X8416256Y-12076839D02*
X8416256Y-12124458D01*
X8416256Y-12124458D02*
X8425780Y-12143506D01*
X8425780Y-12143506D02*
X8435303Y-12153029D01*
X8435303Y-12153029D02*
X8454351Y-12162553D01*
X8454351Y-12162553D02*
X8492446Y-12162553D01*
X8492446Y-12162553D02*
X8511494Y-12153029D01*
X8511494Y-12153029D02*
X8521018Y-12143506D01*
X8521018Y-12143506D02*
X8530541Y-12124458D01*
X8597208Y-12038744D02*
X8721018Y-12038744D01*
X8721018Y-12038744D02*
X8654351Y-12114934D01*
X8654351Y-12114934D02*
X8682922Y-12114934D01*
X8682922Y-12114934D02*
X8701970Y-12124458D01*
X8701970Y-12124458D02*
X8711494Y-12133982D01*
X8711494Y-12133982D02*
X8721018Y-12153029D01*
X8721018Y-12153029D02*
X8721018Y-12200648D01*
X8721018Y-12200648D02*
X8711494Y-12219696D01*
X8711494Y-12219696D02*
X8701970Y-12229220D01*
X8701970Y-12229220D02*
X8682922Y-12238744D01*
X8682922Y-12238744D02*
X8625780Y-12238744D01*
X8625780Y-12238744D02*
X8606732Y-12229220D01*
X8606732Y-12229220D02*
X8597208Y-12219696D01*
X8959113Y-12238744D02*
X8959113Y-12038744D01*
X9044827Y-12238744D02*
X9044827Y-12133982D01*
X9044827Y-12133982D02*
X9035303Y-12114934D01*
X9035303Y-12114934D02*
X9016256Y-12105410D01*
X9016256Y-12105410D02*
X8987684Y-12105410D01*
X8987684Y-12105410D02*
X8968637Y-12114934D01*
X8968637Y-12114934D02*
X8959113Y-12124458D01*
X9168637Y-12238744D02*
X9149589Y-12229220D01*
X9149589Y-12229220D02*
X9140065Y-12219696D01*
X9140065Y-12219696D02*
X9130542Y-12200648D01*
X9130542Y-12200648D02*
X9130542Y-12143506D01*
X9130542Y-12143506D02*
X9140065Y-12124458D01*
X9140065Y-12124458D02*
X9149589Y-12114934D01*
X9149589Y-12114934D02*
X9168637Y-12105410D01*
X9168637Y-12105410D02*
X9197208Y-12105410D01*
X9197208Y-12105410D02*
X9216256Y-12114934D01*
X9216256Y-12114934D02*
X9225780Y-12124458D01*
X9225780Y-12124458D02*
X9235303Y-12143506D01*
X9235303Y-12143506D02*
X9235303Y-12200648D01*
X9235303Y-12200648D02*
X9225780Y-12219696D01*
X9225780Y-12219696D02*
X9216256Y-12229220D01*
X9216256Y-12229220D02*
X9197208Y-12238744D01*
X9197208Y-12238744D02*
X9168637Y-12238744D01*
X9349589Y-12238744D02*
X9330542Y-12229220D01*
X9330542Y-12229220D02*
X9321018Y-12210172D01*
X9321018Y-12210172D02*
X9321018Y-12038744D01*
X9501970Y-12229220D02*
X9482923Y-12238744D01*
X9482923Y-12238744D02*
X9444827Y-12238744D01*
X9444827Y-12238744D02*
X9425780Y-12229220D01*
X9425780Y-12229220D02*
X9416256Y-12210172D01*
X9416256Y-12210172D02*
X9416256Y-12133982D01*
X9416256Y-12133982D02*
X9425780Y-12114934D01*
X9425780Y-12114934D02*
X9444827Y-12105410D01*
X9444827Y-12105410D02*
X9482923Y-12105410D01*
X9482923Y-12105410D02*
X9501970Y-12114934D01*
X9501970Y-12114934D02*
X9511494Y-12133982D01*
X9511494Y-12133982D02*
X9511494Y-12153029D01*
X9511494Y-12153029D02*
X9416256Y-12172077D01*
X9587684Y-12229220D02*
X9606732Y-12238744D01*
X9606732Y-12238744D02*
X9644827Y-12238744D01*
X9644827Y-12238744D02*
X9663875Y-12229220D01*
X9663875Y-12229220D02*
X9673399Y-12210172D01*
X9673399Y-12210172D02*
X9673399Y-12200648D01*
X9673399Y-12200648D02*
X9663875Y-12181601D01*
X9663875Y-12181601D02*
X9644827Y-12172077D01*
X9644827Y-12172077D02*
X9616256Y-12172077D01*
X9616256Y-12172077D02*
X9597208Y-12162553D01*
X9597208Y-12162553D02*
X9587684Y-12143506D01*
X9587684Y-12143506D02*
X9587684Y-12133982D01*
X9587684Y-12133982D02*
X9597208Y-12114934D01*
X9597208Y-12114934D02*
X9616256Y-12105410D01*
X9616256Y-12105410D02*
X9644827Y-12105410D01*
X9644827Y-12105410D02*
X9663875Y-12114934D01*
X9740065Y-12314934D02*
X9749589Y-12305410D01*
X9749589Y-12305410D02*
X9768637Y-12276839D01*
X9768637Y-12276839D02*
X9778161Y-12257791D01*
X9778161Y-12257791D02*
X9787684Y-12229220D01*
X9787684Y-12229220D02*
X9797208Y-12181601D01*
X9797208Y-12181601D02*
X9797208Y-12143506D01*
X9797208Y-12143506D02*
X9787684Y-12095887D01*
X9787684Y-12095887D02*
X9778161Y-12067315D01*
X9778161Y-12067315D02*
X9768637Y-12048268D01*
X9768637Y-12048268D02*
X9749589Y-12019696D01*
X9749589Y-12019696D02*
X9740065Y-12010172D01*
D10*
X4584050Y-12411260D02*
G75*
G02*
X4484050Y-12411260I-50000J0D01*
G01*
X4484050Y-12411260D02*
G75*
G02*
X4584050Y-12411260I50000J0D01*
G01*
D11*
X4949589Y-12502744D02*
X4835303Y-12502744D01*
X4892446Y-12502744D02*
X4892446Y-12302744D01*
X4892446Y-12302744D02*
X4873398Y-12331315D01*
X4873398Y-12331315D02*
X4854351Y-12350363D01*
X4854351Y-12350363D02*
X4835303Y-12359887D01*
X5035303Y-12483696D02*
X5044827Y-12493220D01*
X5044827Y-12493220D02*
X5035303Y-12502744D01*
X5035303Y-12502744D02*
X5025779Y-12493220D01*
X5025779Y-12493220D02*
X5035303Y-12483696D01*
X5035303Y-12483696D02*
X5035303Y-12502744D01*
X5168636Y-12302744D02*
X5187684Y-12302744D01*
X5187684Y-12302744D02*
X5206732Y-12312268D01*
X5206732Y-12312268D02*
X5216255Y-12321791D01*
X5216255Y-12321791D02*
X5225779Y-12340839D01*
X5225779Y-12340839D02*
X5235303Y-12378934D01*
X5235303Y-12378934D02*
X5235303Y-12426553D01*
X5235303Y-12426553D02*
X5225779Y-12464648D01*
X5225779Y-12464648D02*
X5216255Y-12483696D01*
X5216255Y-12483696D02*
X5206732Y-12493220D01*
X5206732Y-12493220D02*
X5187684Y-12502744D01*
X5187684Y-12502744D02*
X5168636Y-12502744D01*
X5168636Y-12502744D02*
X5149589Y-12493220D01*
X5149589Y-12493220D02*
X5140065Y-12483696D01*
X5140065Y-12483696D02*
X5130541Y-12464648D01*
X5130541Y-12464648D02*
X5121017Y-12426553D01*
X5121017Y-12426553D02*
X5121017Y-12378934D01*
X5121017Y-12378934D02*
X5130541Y-12340839D01*
X5130541Y-12340839D02*
X5140065Y-12321791D01*
X5140065Y-12321791D02*
X5149589Y-12312268D01*
X5149589Y-12312268D02*
X5168636Y-12302744D01*
X5359113Y-12302744D02*
X5378160Y-12302744D01*
X5378160Y-12302744D02*
X5397208Y-12312268D01*
X5397208Y-12312268D02*
X5406732Y-12321791D01*
X5406732Y-12321791D02*
X5416255Y-12340839D01*
X5416255Y-12340839D02*
X5425779Y-12378934D01*
X5425779Y-12378934D02*
X5425779Y-12426553D01*
X5425779Y-12426553D02*
X5416255Y-12464648D01*
X5416255Y-12464648D02*
X5406732Y-12483696D01*
X5406732Y-12483696D02*
X5397208Y-12493220D01*
X5397208Y-12493220D02*
X5378160Y-12502744D01*
X5378160Y-12502744D02*
X5359113Y-12502744D01*
X5359113Y-12502744D02*
X5340065Y-12493220D01*
X5340065Y-12493220D02*
X5330541Y-12483696D01*
X5330541Y-12483696D02*
X5321017Y-12464648D01*
X5321017Y-12464648D02*
X5311494Y-12426553D01*
X5311494Y-12426553D02*
X5311494Y-12378934D01*
X5311494Y-12378934D02*
X5321017Y-12340839D01*
X5321017Y-12340839D02*
X5330541Y-12321791D01*
X5330541Y-12321791D02*
X5340065Y-12312268D01*
X5340065Y-12312268D02*
X5359113Y-12302744D01*
X5549589Y-12302744D02*
X5568636Y-12302744D01*
X5568636Y-12302744D02*
X5587684Y-12312268D01*
X5587684Y-12312268D02*
X5597208Y-12321791D01*
X5597208Y-12321791D02*
X5606732Y-12340839D01*
X5606732Y-12340839D02*
X5616255Y-12378934D01*
X5616255Y-12378934D02*
X5616255Y-12426553D01*
X5616255Y-12426553D02*
X5606732Y-12464648D01*
X5606732Y-12464648D02*
X5597208Y-12483696D01*
X5597208Y-12483696D02*
X5587684Y-12493220D01*
X5587684Y-12493220D02*
X5568636Y-12502744D01*
X5568636Y-12502744D02*
X5549589Y-12502744D01*
X5549589Y-12502744D02*
X5530541Y-12493220D01*
X5530541Y-12493220D02*
X5521017Y-12483696D01*
X5521017Y-12483696D02*
X5511494Y-12464648D01*
X5511494Y-12464648D02*
X5501970Y-12426553D01*
X5501970Y-12426553D02*
X5501970Y-12378934D01*
X5501970Y-12378934D02*
X5511494Y-12340839D01*
X5511494Y-12340839D02*
X5521017Y-12321791D01*
X5521017Y-12321791D02*
X5530541Y-12312268D01*
X5530541Y-12312268D02*
X5549589Y-12302744D01*
X5701970Y-12502744D02*
X5701970Y-12369410D01*
X5701970Y-12388458D02*
X5711493Y-12378934D01*
X5711493Y-12378934D02*
X5730541Y-12369410D01*
X5730541Y-12369410D02*
X5759113Y-12369410D01*
X5759113Y-12369410D02*
X5778160Y-12378934D01*
X5778160Y-12378934D02*
X5787684Y-12397982D01*
X5787684Y-12397982D02*
X5787684Y-12502744D01*
X5787684Y-12397982D02*
X5797208Y-12378934D01*
X5797208Y-12378934D02*
X5816255Y-12369410D01*
X5816255Y-12369410D02*
X5844827Y-12369410D01*
X5844827Y-12369410D02*
X5863874Y-12378934D01*
X5863874Y-12378934D02*
X5873398Y-12397982D01*
X5873398Y-12397982D02*
X5873398Y-12502744D01*
X5968636Y-12502744D02*
X5968636Y-12369410D01*
X5968636Y-12388458D02*
X5978160Y-12378934D01*
X5978160Y-12378934D02*
X5997208Y-12369410D01*
X5997208Y-12369410D02*
X6025779Y-12369410D01*
X6025779Y-12369410D02*
X6044827Y-12378934D01*
X6044827Y-12378934D02*
X6054351Y-12397982D01*
X6054351Y-12397982D02*
X6054351Y-12502744D01*
X6054351Y-12397982D02*
X6063874Y-12378934D01*
X6063874Y-12378934D02*
X6082922Y-12369410D01*
X6082922Y-12369410D02*
X6111493Y-12369410D01*
X6111493Y-12369410D02*
X6130541Y-12378934D01*
X6130541Y-12378934D02*
X6140065Y-12397982D01*
X6140065Y-12397982D02*
X6140065Y-12502744D01*
X6530541Y-12293220D02*
X6359113Y-12550363D01*
X6787684Y-12302744D02*
X6806732Y-12302744D01*
X6806732Y-12302744D02*
X6825779Y-12312268D01*
X6825779Y-12312268D02*
X6835303Y-12321791D01*
X6835303Y-12321791D02*
X6844827Y-12340839D01*
X6844827Y-12340839D02*
X6854351Y-12378934D01*
X6854351Y-12378934D02*
X6854351Y-12426553D01*
X6854351Y-12426553D02*
X6844827Y-12464648D01*
X6844827Y-12464648D02*
X6835303Y-12483696D01*
X6835303Y-12483696D02*
X6825779Y-12493220D01*
X6825779Y-12493220D02*
X6806732Y-12502744D01*
X6806732Y-12502744D02*
X6787684Y-12502744D01*
X6787684Y-12502744D02*
X6768636Y-12493220D01*
X6768636Y-12493220D02*
X6759113Y-12483696D01*
X6759113Y-12483696D02*
X6749589Y-12464648D01*
X6749589Y-12464648D02*
X6740065Y-12426553D01*
X6740065Y-12426553D02*
X6740065Y-12378934D01*
X6740065Y-12378934D02*
X6749589Y-12340839D01*
X6749589Y-12340839D02*
X6759113Y-12321791D01*
X6759113Y-12321791D02*
X6768636Y-12312268D01*
X6768636Y-12312268D02*
X6787684Y-12302744D01*
X6940065Y-12483696D02*
X6949589Y-12493220D01*
X6949589Y-12493220D02*
X6940065Y-12502744D01*
X6940065Y-12502744D02*
X6930541Y-12493220D01*
X6930541Y-12493220D02*
X6940065Y-12483696D01*
X6940065Y-12483696D02*
X6940065Y-12502744D01*
X7073398Y-12302744D02*
X7092446Y-12302744D01*
X7092446Y-12302744D02*
X7111494Y-12312268D01*
X7111494Y-12312268D02*
X7121017Y-12321791D01*
X7121017Y-12321791D02*
X7130541Y-12340839D01*
X7130541Y-12340839D02*
X7140065Y-12378934D01*
X7140065Y-12378934D02*
X7140065Y-12426553D01*
X7140065Y-12426553D02*
X7130541Y-12464648D01*
X7130541Y-12464648D02*
X7121017Y-12483696D01*
X7121017Y-12483696D02*
X7111494Y-12493220D01*
X7111494Y-12493220D02*
X7092446Y-12502744D01*
X7092446Y-12502744D02*
X7073398Y-12502744D01*
X7073398Y-12502744D02*
X7054351Y-12493220D01*
X7054351Y-12493220D02*
X7044827Y-12483696D01*
X7044827Y-12483696D02*
X7035303Y-12464648D01*
X7035303Y-12464648D02*
X7025779Y-12426553D01*
X7025779Y-12426553D02*
X7025779Y-12378934D01*
X7025779Y-12378934D02*
X7035303Y-12340839D01*
X7035303Y-12340839D02*
X7044827Y-12321791D01*
X7044827Y-12321791D02*
X7054351Y-12312268D01*
X7054351Y-12312268D02*
X7073398Y-12302744D01*
X7206732Y-12302744D02*
X7330541Y-12302744D01*
X7330541Y-12302744D02*
X7263875Y-12378934D01*
X7263875Y-12378934D02*
X7292446Y-12378934D01*
X7292446Y-12378934D02*
X7311494Y-12388458D01*
X7311494Y-12388458D02*
X7321017Y-12397982D01*
X7321017Y-12397982D02*
X7330541Y-12417029D01*
X7330541Y-12417029D02*
X7330541Y-12464648D01*
X7330541Y-12464648D02*
X7321017Y-12483696D01*
X7321017Y-12483696D02*
X7311494Y-12493220D01*
X7311494Y-12493220D02*
X7292446Y-12502744D01*
X7292446Y-12502744D02*
X7235303Y-12502744D01*
X7235303Y-12502744D02*
X7216256Y-12493220D01*
X7216256Y-12493220D02*
X7206732Y-12483696D01*
X7425779Y-12502744D02*
X7463875Y-12502744D01*
X7463875Y-12502744D02*
X7482922Y-12493220D01*
X7482922Y-12493220D02*
X7492446Y-12483696D01*
X7492446Y-12483696D02*
X7511494Y-12455125D01*
X7511494Y-12455125D02*
X7521017Y-12417029D01*
X7521017Y-12417029D02*
X7521017Y-12340839D01*
X7521017Y-12340839D02*
X7511494Y-12321791D01*
X7511494Y-12321791D02*
X7501970Y-12312268D01*
X7501970Y-12312268D02*
X7482922Y-12302744D01*
X7482922Y-12302744D02*
X7444827Y-12302744D01*
X7444827Y-12302744D02*
X7425779Y-12312268D01*
X7425779Y-12312268D02*
X7416256Y-12321791D01*
X7416256Y-12321791D02*
X7406732Y-12340839D01*
X7406732Y-12340839D02*
X7406732Y-12388458D01*
X7406732Y-12388458D02*
X7416256Y-12407506D01*
X7416256Y-12407506D02*
X7425779Y-12417029D01*
X7425779Y-12417029D02*
X7444827Y-12426553D01*
X7444827Y-12426553D02*
X7482922Y-12426553D01*
X7482922Y-12426553D02*
X7501970Y-12417029D01*
X7501970Y-12417029D02*
X7511494Y-12407506D01*
X7511494Y-12407506D02*
X7521017Y-12388458D01*
X7692446Y-12369410D02*
X7692446Y-12502744D01*
X7644827Y-12293220D02*
X7597208Y-12436077D01*
X7597208Y-12436077D02*
X7721017Y-12436077D01*
X7787684Y-12302744D02*
X7787684Y-12340839D01*
X7863875Y-12302744D02*
X7863875Y-12340839D01*
X8159113Y-12578934D02*
X8149589Y-12569410D01*
X8149589Y-12569410D02*
X8130541Y-12540839D01*
X8130541Y-12540839D02*
X8121018Y-12521791D01*
X8121018Y-12521791D02*
X8111494Y-12493220D01*
X8111494Y-12493220D02*
X8101970Y-12445601D01*
X8101970Y-12445601D02*
X8101970Y-12407506D01*
X8101970Y-12407506D02*
X8111494Y-12359887D01*
X8111494Y-12359887D02*
X8121018Y-12331315D01*
X8121018Y-12331315D02*
X8130541Y-12312268D01*
X8130541Y-12312268D02*
X8149589Y-12283696D01*
X8149589Y-12283696D02*
X8159113Y-12274172D01*
X8340065Y-12502744D02*
X8225779Y-12502744D01*
X8282922Y-12502744D02*
X8282922Y-12302744D01*
X8282922Y-12302744D02*
X8263875Y-12331315D01*
X8263875Y-12331315D02*
X8244827Y-12350363D01*
X8244827Y-12350363D02*
X8225779Y-12359887D01*
X8530541Y-12502744D02*
X8416256Y-12502744D01*
X8473399Y-12502744D02*
X8473399Y-12302744D01*
X8473399Y-12302744D02*
X8454351Y-12331315D01*
X8454351Y-12331315D02*
X8435303Y-12350363D01*
X8435303Y-12350363D02*
X8416256Y-12359887D01*
X8768637Y-12502744D02*
X8768637Y-12302744D01*
X8854351Y-12502744D02*
X8854351Y-12397982D01*
X8854351Y-12397982D02*
X8844827Y-12378934D01*
X8844827Y-12378934D02*
X8825780Y-12369410D01*
X8825780Y-12369410D02*
X8797208Y-12369410D01*
X8797208Y-12369410D02*
X8778161Y-12378934D01*
X8778161Y-12378934D02*
X8768637Y-12388458D01*
X8978161Y-12502744D02*
X8959113Y-12493220D01*
X8959113Y-12493220D02*
X8949589Y-12483696D01*
X8949589Y-12483696D02*
X8940065Y-12464648D01*
X8940065Y-12464648D02*
X8940065Y-12407506D01*
X8940065Y-12407506D02*
X8949589Y-12388458D01*
X8949589Y-12388458D02*
X8959113Y-12378934D01*
X8959113Y-12378934D02*
X8978161Y-12369410D01*
X8978161Y-12369410D02*
X9006732Y-12369410D01*
X9006732Y-12369410D02*
X9025780Y-12378934D01*
X9025780Y-12378934D02*
X9035303Y-12388458D01*
X9035303Y-12388458D02*
X9044827Y-12407506D01*
X9044827Y-12407506D02*
X9044827Y-12464648D01*
X9044827Y-12464648D02*
X9035303Y-12483696D01*
X9035303Y-12483696D02*
X9025780Y-12493220D01*
X9025780Y-12493220D02*
X9006732Y-12502744D01*
X9006732Y-12502744D02*
X8978161Y-12502744D01*
X9159113Y-12502744D02*
X9140065Y-12493220D01*
X9140065Y-12493220D02*
X9130542Y-12474172D01*
X9130542Y-12474172D02*
X9130542Y-12302744D01*
X9311494Y-12493220D02*
X9292446Y-12502744D01*
X9292446Y-12502744D02*
X9254351Y-12502744D01*
X9254351Y-12502744D02*
X9235303Y-12493220D01*
X9235303Y-12493220D02*
X9225780Y-12474172D01*
X9225780Y-12474172D02*
X9225780Y-12397982D01*
X9225780Y-12397982D02*
X9235303Y-12378934D01*
X9235303Y-12378934D02*
X9254351Y-12369410D01*
X9254351Y-12369410D02*
X9292446Y-12369410D01*
X9292446Y-12369410D02*
X9311494Y-12378934D01*
X9311494Y-12378934D02*
X9321018Y-12397982D01*
X9321018Y-12397982D02*
X9321018Y-12417029D01*
X9321018Y-12417029D02*
X9225780Y-12436077D01*
X9397208Y-12493220D02*
X9416256Y-12502744D01*
X9416256Y-12502744D02*
X9454351Y-12502744D01*
X9454351Y-12502744D02*
X9473399Y-12493220D01*
X9473399Y-12493220D02*
X9482923Y-12474172D01*
X9482923Y-12474172D02*
X9482923Y-12464648D01*
X9482923Y-12464648D02*
X9473399Y-12445601D01*
X9473399Y-12445601D02*
X9454351Y-12436077D01*
X9454351Y-12436077D02*
X9425780Y-12436077D01*
X9425780Y-12436077D02*
X9406732Y-12426553D01*
X9406732Y-12426553D02*
X9397208Y-12407506D01*
X9397208Y-12407506D02*
X9397208Y-12397982D01*
X9397208Y-12397982D02*
X9406732Y-12378934D01*
X9406732Y-12378934D02*
X9425780Y-12369410D01*
X9425780Y-12369410D02*
X9454351Y-12369410D01*
X9454351Y-12369410D02*
X9473399Y-12378934D01*
X9549589Y-12578934D02*
X9559113Y-12569410D01*
X9559113Y-12569410D02*
X9578161Y-12540839D01*
X9578161Y-12540839D02*
X9587684Y-12521791D01*
X9587684Y-12521791D02*
X9597208Y-12493220D01*
X9597208Y-12493220D02*
X9606732Y-12445601D01*
X9606732Y-12445601D02*
X9606732Y-12407506D01*
X9606732Y-12407506D02*
X9597208Y-12359887D01*
X9597208Y-12359887D02*
X9587684Y-12331315D01*
X9587684Y-12331315D02*
X9578161Y-12312268D01*
X9578161Y-12312268D02*
X9559113Y-12283696D01*
X9559113Y-12283696D02*
X9549589Y-12274172D01*
D12*
X4531550Y-12622760D02*
X4531550Y-12727760D01*
X4479050Y-12675260D02*
X4584050Y-12675260D01*
D11*
X4949589Y-12766744D02*
X4835303Y-12766744D01*
X4892446Y-12766744D02*
X4892446Y-12566744D01*
X4892446Y-12566744D02*
X4873398Y-12595315D01*
X4873398Y-12595315D02*
X4854351Y-12614363D01*
X4854351Y-12614363D02*
X4835303Y-12623887D01*
X5035303Y-12747696D02*
X5044827Y-12757220D01*
X5044827Y-12757220D02*
X5035303Y-12766744D01*
X5035303Y-12766744D02*
X5025779Y-12757220D01*
X5025779Y-12757220D02*
X5035303Y-12747696D01*
X5035303Y-12747696D02*
X5035303Y-12766744D01*
X5168636Y-12566744D02*
X5187684Y-12566744D01*
X5187684Y-12566744D02*
X5206732Y-12576268D01*
X5206732Y-12576268D02*
X5216255Y-12585791D01*
X5216255Y-12585791D02*
X5225779Y-12604839D01*
X5225779Y-12604839D02*
X5235303Y-12642934D01*
X5235303Y-12642934D02*
X5235303Y-12690553D01*
X5235303Y-12690553D02*
X5225779Y-12728648D01*
X5225779Y-12728648D02*
X5216255Y-12747696D01*
X5216255Y-12747696D02*
X5206732Y-12757220D01*
X5206732Y-12757220D02*
X5187684Y-12766744D01*
X5187684Y-12766744D02*
X5168636Y-12766744D01*
X5168636Y-12766744D02*
X5149589Y-12757220D01*
X5149589Y-12757220D02*
X5140065Y-12747696D01*
X5140065Y-12747696D02*
X5130541Y-12728648D01*
X5130541Y-12728648D02*
X5121017Y-12690553D01*
X5121017Y-12690553D02*
X5121017Y-12642934D01*
X5121017Y-12642934D02*
X5130541Y-12604839D01*
X5130541Y-12604839D02*
X5140065Y-12585791D01*
X5140065Y-12585791D02*
X5149589Y-12576268D01*
X5149589Y-12576268D02*
X5168636Y-12566744D01*
X5416255Y-12566744D02*
X5321017Y-12566744D01*
X5321017Y-12566744D02*
X5311494Y-12661982D01*
X5311494Y-12661982D02*
X5321017Y-12652458D01*
X5321017Y-12652458D02*
X5340065Y-12642934D01*
X5340065Y-12642934D02*
X5387684Y-12642934D01*
X5387684Y-12642934D02*
X5406732Y-12652458D01*
X5406732Y-12652458D02*
X5416255Y-12661982D01*
X5416255Y-12661982D02*
X5425779Y-12681029D01*
X5425779Y-12681029D02*
X5425779Y-12728648D01*
X5425779Y-12728648D02*
X5416255Y-12747696D01*
X5416255Y-12747696D02*
X5406732Y-12757220D01*
X5406732Y-12757220D02*
X5387684Y-12766744D01*
X5387684Y-12766744D02*
X5340065Y-12766744D01*
X5340065Y-12766744D02*
X5321017Y-12757220D01*
X5321017Y-12757220D02*
X5311494Y-12747696D01*
X5549589Y-12566744D02*
X5568636Y-12566744D01*
X5568636Y-12566744D02*
X5587684Y-12576268D01*
X5587684Y-12576268D02*
X5597208Y-12585791D01*
X5597208Y-12585791D02*
X5606732Y-12604839D01*
X5606732Y-12604839D02*
X5616255Y-12642934D01*
X5616255Y-12642934D02*
X5616255Y-12690553D01*
X5616255Y-12690553D02*
X5606732Y-12728648D01*
X5606732Y-12728648D02*
X5597208Y-12747696D01*
X5597208Y-12747696D02*
X5587684Y-12757220D01*
X5587684Y-12757220D02*
X5568636Y-12766744D01*
X5568636Y-12766744D02*
X5549589Y-12766744D01*
X5549589Y-12766744D02*
X5530541Y-12757220D01*
X5530541Y-12757220D02*
X5521017Y-12747696D01*
X5521017Y-12747696D02*
X5511494Y-12728648D01*
X5511494Y-12728648D02*
X5501970Y-12690553D01*
X5501970Y-12690553D02*
X5501970Y-12642934D01*
X5501970Y-12642934D02*
X5511494Y-12604839D01*
X5511494Y-12604839D02*
X5521017Y-12585791D01*
X5521017Y-12585791D02*
X5530541Y-12576268D01*
X5530541Y-12576268D02*
X5549589Y-12566744D01*
X5701970Y-12766744D02*
X5701970Y-12633410D01*
X5701970Y-12652458D02*
X5711493Y-12642934D01*
X5711493Y-12642934D02*
X5730541Y-12633410D01*
X5730541Y-12633410D02*
X5759113Y-12633410D01*
X5759113Y-12633410D02*
X5778160Y-12642934D01*
X5778160Y-12642934D02*
X5787684Y-12661982D01*
X5787684Y-12661982D02*
X5787684Y-12766744D01*
X5787684Y-12661982D02*
X5797208Y-12642934D01*
X5797208Y-12642934D02*
X5816255Y-12633410D01*
X5816255Y-12633410D02*
X5844827Y-12633410D01*
X5844827Y-12633410D02*
X5863874Y-12642934D01*
X5863874Y-12642934D02*
X5873398Y-12661982D01*
X5873398Y-12661982D02*
X5873398Y-12766744D01*
X5968636Y-12766744D02*
X5968636Y-12633410D01*
X5968636Y-12652458D02*
X5978160Y-12642934D01*
X5978160Y-12642934D02*
X5997208Y-12633410D01*
X5997208Y-12633410D02*
X6025779Y-12633410D01*
X6025779Y-12633410D02*
X6044827Y-12642934D01*
X6044827Y-12642934D02*
X6054351Y-12661982D01*
X6054351Y-12661982D02*
X6054351Y-12766744D01*
X6054351Y-12661982D02*
X6063874Y-12642934D01*
X6063874Y-12642934D02*
X6082922Y-12633410D01*
X6082922Y-12633410D02*
X6111493Y-12633410D01*
X6111493Y-12633410D02*
X6130541Y-12642934D01*
X6130541Y-12642934D02*
X6140065Y-12661982D01*
X6140065Y-12661982D02*
X6140065Y-12766744D01*
X6530541Y-12557220D02*
X6359113Y-12814363D01*
X6787684Y-12566744D02*
X6806732Y-12566744D01*
X6806732Y-12566744D02*
X6825779Y-12576268D01*
X6825779Y-12576268D02*
X6835303Y-12585791D01*
X6835303Y-12585791D02*
X6844827Y-12604839D01*
X6844827Y-12604839D02*
X6854351Y-12642934D01*
X6854351Y-12642934D02*
X6854351Y-12690553D01*
X6854351Y-12690553D02*
X6844827Y-12728648D01*
X6844827Y-12728648D02*
X6835303Y-12747696D01*
X6835303Y-12747696D02*
X6825779Y-12757220D01*
X6825779Y-12757220D02*
X6806732Y-12766744D01*
X6806732Y-12766744D02*
X6787684Y-12766744D01*
X6787684Y-12766744D02*
X6768636Y-12757220D01*
X6768636Y-12757220D02*
X6759113Y-12747696D01*
X6759113Y-12747696D02*
X6749589Y-12728648D01*
X6749589Y-12728648D02*
X6740065Y-12690553D01*
X6740065Y-12690553D02*
X6740065Y-12642934D01*
X6740065Y-12642934D02*
X6749589Y-12604839D01*
X6749589Y-12604839D02*
X6759113Y-12585791D01*
X6759113Y-12585791D02*
X6768636Y-12576268D01*
X6768636Y-12576268D02*
X6787684Y-12566744D01*
X6940065Y-12747696D02*
X6949589Y-12757220D01*
X6949589Y-12757220D02*
X6940065Y-12766744D01*
X6940065Y-12766744D02*
X6930541Y-12757220D01*
X6930541Y-12757220D02*
X6940065Y-12747696D01*
X6940065Y-12747696D02*
X6940065Y-12766744D01*
X7073398Y-12566744D02*
X7092446Y-12566744D01*
X7092446Y-12566744D02*
X7111494Y-12576268D01*
X7111494Y-12576268D02*
X7121017Y-12585791D01*
X7121017Y-12585791D02*
X7130541Y-12604839D01*
X7130541Y-12604839D02*
X7140065Y-12642934D01*
X7140065Y-12642934D02*
X7140065Y-12690553D01*
X7140065Y-12690553D02*
X7130541Y-12728648D01*
X7130541Y-12728648D02*
X7121017Y-12747696D01*
X7121017Y-12747696D02*
X7111494Y-12757220D01*
X7111494Y-12757220D02*
X7092446Y-12766744D01*
X7092446Y-12766744D02*
X7073398Y-12766744D01*
X7073398Y-12766744D02*
X7054351Y-12757220D01*
X7054351Y-12757220D02*
X7044827Y-12747696D01*
X7044827Y-12747696D02*
X7035303Y-12728648D01*
X7035303Y-12728648D02*
X7025779Y-12690553D01*
X7025779Y-12690553D02*
X7025779Y-12642934D01*
X7025779Y-12642934D02*
X7035303Y-12604839D01*
X7035303Y-12604839D02*
X7044827Y-12585791D01*
X7044827Y-12585791D02*
X7054351Y-12576268D01*
X7054351Y-12576268D02*
X7073398Y-12566744D01*
X7311494Y-12633410D02*
X7311494Y-12766744D01*
X7263875Y-12557220D02*
X7216256Y-12700077D01*
X7216256Y-12700077D02*
X7340065Y-12700077D01*
X7521017Y-12766744D02*
X7406732Y-12766744D01*
X7463875Y-12766744D02*
X7463875Y-12566744D01*
X7463875Y-12566744D02*
X7444827Y-12595315D01*
X7444827Y-12595315D02*
X7425779Y-12614363D01*
X7425779Y-12614363D02*
X7406732Y-12623887D01*
X7587684Y-12566744D02*
X7711494Y-12566744D01*
X7711494Y-12566744D02*
X7644827Y-12642934D01*
X7644827Y-12642934D02*
X7673398Y-12642934D01*
X7673398Y-12642934D02*
X7692446Y-12652458D01*
X7692446Y-12652458D02*
X7701970Y-12661982D01*
X7701970Y-12661982D02*
X7711494Y-12681029D01*
X7711494Y-12681029D02*
X7711494Y-12728648D01*
X7711494Y-12728648D02*
X7701970Y-12747696D01*
X7701970Y-12747696D02*
X7692446Y-12757220D01*
X7692446Y-12757220D02*
X7673398Y-12766744D01*
X7673398Y-12766744D02*
X7616256Y-12766744D01*
X7616256Y-12766744D02*
X7597208Y-12757220D01*
X7597208Y-12757220D02*
X7587684Y-12747696D01*
X7787684Y-12566744D02*
X7787684Y-12604839D01*
X7863875Y-12566744D02*
X7863875Y-12604839D01*
X8159113Y-12842934D02*
X8149589Y-12833410D01*
X8149589Y-12833410D02*
X8130541Y-12804839D01*
X8130541Y-12804839D02*
X8121018Y-12785791D01*
X8121018Y-12785791D02*
X8111494Y-12757220D01*
X8111494Y-12757220D02*
X8101970Y-12709601D01*
X8101970Y-12709601D02*
X8101970Y-12671506D01*
X8101970Y-12671506D02*
X8111494Y-12623887D01*
X8111494Y-12623887D02*
X8121018Y-12595315D01*
X8121018Y-12595315D02*
X8130541Y-12576268D01*
X8130541Y-12576268D02*
X8149589Y-12547696D01*
X8149589Y-12547696D02*
X8159113Y-12538172D01*
X8216256Y-12566744D02*
X8340065Y-12566744D01*
X8340065Y-12566744D02*
X8273398Y-12642934D01*
X8273398Y-12642934D02*
X8301970Y-12642934D01*
X8301970Y-12642934D02*
X8321018Y-12652458D01*
X8321018Y-12652458D02*
X8330541Y-12661982D01*
X8330541Y-12661982D02*
X8340065Y-12681029D01*
X8340065Y-12681029D02*
X8340065Y-12728648D01*
X8340065Y-12728648D02*
X8330541Y-12747696D01*
X8330541Y-12747696D02*
X8321018Y-12757220D01*
X8321018Y-12757220D02*
X8301970Y-12766744D01*
X8301970Y-12766744D02*
X8244827Y-12766744D01*
X8244827Y-12766744D02*
X8225779Y-12757220D01*
X8225779Y-12757220D02*
X8216256Y-12747696D01*
X8463875Y-12566744D02*
X8482922Y-12566744D01*
X8482922Y-12566744D02*
X8501970Y-12576268D01*
X8501970Y-12576268D02*
X8511494Y-12585791D01*
X8511494Y-12585791D02*
X8521018Y-12604839D01*
X8521018Y-12604839D02*
X8530541Y-12642934D01*
X8530541Y-12642934D02*
X8530541Y-12690553D01*
X8530541Y-12690553D02*
X8521018Y-12728648D01*
X8521018Y-12728648D02*
X8511494Y-12747696D01*
X8511494Y-12747696D02*
X8501970Y-12757220D01*
X8501970Y-12757220D02*
X8482922Y-12766744D01*
X8482922Y-12766744D02*
X8463875Y-12766744D01*
X8463875Y-12766744D02*
X8444827Y-12757220D01*
X8444827Y-12757220D02*
X8435303Y-12747696D01*
X8435303Y-12747696D02*
X8425780Y-12728648D01*
X8425780Y-12728648D02*
X8416256Y-12690553D01*
X8416256Y-12690553D02*
X8416256Y-12642934D01*
X8416256Y-12642934D02*
X8425780Y-12604839D01*
X8425780Y-12604839D02*
X8435303Y-12585791D01*
X8435303Y-12585791D02*
X8444827Y-12576268D01*
X8444827Y-12576268D02*
X8463875Y-12566744D01*
X8768637Y-12766744D02*
X8768637Y-12566744D01*
X8854351Y-12766744D02*
X8854351Y-12661982D01*
X8854351Y-12661982D02*
X8844827Y-12642934D01*
X8844827Y-12642934D02*
X8825780Y-12633410D01*
X8825780Y-12633410D02*
X8797208Y-12633410D01*
X8797208Y-12633410D02*
X8778161Y-12642934D01*
X8778161Y-12642934D02*
X8768637Y-12652458D01*
X8978161Y-12766744D02*
X8959113Y-12757220D01*
X8959113Y-12757220D02*
X8949589Y-12747696D01*
X8949589Y-12747696D02*
X8940065Y-12728648D01*
X8940065Y-12728648D02*
X8940065Y-12671506D01*
X8940065Y-12671506D02*
X8949589Y-12652458D01*
X8949589Y-12652458D02*
X8959113Y-12642934D01*
X8959113Y-12642934D02*
X8978161Y-12633410D01*
X8978161Y-12633410D02*
X9006732Y-12633410D01*
X9006732Y-12633410D02*
X9025780Y-12642934D01*
X9025780Y-12642934D02*
X9035303Y-12652458D01*
X9035303Y-12652458D02*
X9044827Y-12671506D01*
X9044827Y-12671506D02*
X9044827Y-12728648D01*
X9044827Y-12728648D02*
X9035303Y-12747696D01*
X9035303Y-12747696D02*
X9025780Y-12757220D01*
X9025780Y-12757220D02*
X9006732Y-12766744D01*
X9006732Y-12766744D02*
X8978161Y-12766744D01*
X9159113Y-12766744D02*
X9140065Y-12757220D01*
X9140065Y-12757220D02*
X9130542Y-12738172D01*
X9130542Y-12738172D02*
X9130542Y-12566744D01*
X9311494Y-12757220D02*
X9292446Y-12766744D01*
X9292446Y-12766744D02*
X9254351Y-12766744D01*
X9254351Y-12766744D02*
X9235303Y-12757220D01*
X9235303Y-12757220D02*
X9225780Y-12738172D01*
X9225780Y-12738172D02*
X9225780Y-12661982D01*
X9225780Y-12661982D02*
X9235303Y-12642934D01*
X9235303Y-12642934D02*
X9254351Y-12633410D01*
X9254351Y-12633410D02*
X9292446Y-12633410D01*
X9292446Y-12633410D02*
X9311494Y-12642934D01*
X9311494Y-12642934D02*
X9321018Y-12661982D01*
X9321018Y-12661982D02*
X9321018Y-12681029D01*
X9321018Y-12681029D02*
X9225780Y-12700077D01*
X9397208Y-12757220D02*
X9416256Y-12766744D01*
X9416256Y-12766744D02*
X9454351Y-12766744D01*
X9454351Y-12766744D02*
X9473399Y-12757220D01*
X9473399Y-12757220D02*
X9482923Y-12738172D01*
X9482923Y-12738172D02*
X9482923Y-12728648D01*
X9482923Y-12728648D02*
X9473399Y-12709601D01*
X9473399Y-12709601D02*
X9454351Y-12700077D01*
X9454351Y-12700077D02*
X9425780Y-12700077D01*
X9425780Y-12700077D02*
X9406732Y-12690553D01*
X9406732Y-12690553D02*
X9397208Y-12671506D01*
X9397208Y-12671506D02*
X9397208Y-12661982D01*
X9397208Y-12661982D02*
X9406732Y-12642934D01*
X9406732Y-12642934D02*
X9425780Y-12633410D01*
X9425780Y-12633410D02*
X9454351Y-12633410D01*
X9454351Y-12633410D02*
X9473399Y-12642934D01*
X9549589Y-12842934D02*
X9559113Y-12833410D01*
X9559113Y-12833410D02*
X9578161Y-12804839D01*
X9578161Y-12804839D02*
X9587684Y-12785791D01*
X9587684Y-12785791D02*
X9597208Y-12757220D01*
X9597208Y-12757220D02*
X9606732Y-12709601D01*
X9606732Y-12709601D02*
X9606732Y-12671506D01*
X9606732Y-12671506D02*
X9597208Y-12623887D01*
X9597208Y-12623887D02*
X9587684Y-12595315D01*
X9587684Y-12595315D02*
X9578161Y-12576268D01*
X9578161Y-12576268D02*
X9559113Y-12547696D01*
X9559113Y-12547696D02*
X9549589Y-12538172D01*
M02*
