M48
; DRILL file KiCad 10.0.0 date 2026-10-01T11:46:00
; FORMAT={-:-/ absolute / metric / decimal}
; #@! TF.CreationDate,2026-10-01T11:46:00-07:00
; #@! TF.GenerationSoftware,Kicad,Pcbnew,10.0.0
; #@! TF.FileFunction,Plated,1,6,PTH
FMAT,2
METRIC
; #@! TA.AperFunction,Plated,PTH,ViaDrill
T1C0.300
; #@! TA.AperFunction,Plated,PTH,ComponentDrill
T2C1.000
; #@! TA.AperFunction,Plated,PTH,ComponentDrill
T3C1.050
%
G90
G05
T1
X46.575Y-86.425
X46.725Y-76.575
X46.775Y-80.025
X46.775Y-90.875
X47.225Y-85.175
X47.325Y-79.775
X47.375Y-103.875
X47.625Y-84.225
X47.825Y-92.075
X48.625Y-91.625
X48.775Y-83.625
X48.825Y-86.725
X48.975Y-78.575
X48.975Y-79.825
X48.975Y-87.825
X49.075Y-88.675
X49.075Y-102.325
X49.125Y-71.925
X49.125Y-99.325
X49.125Y-104.825
X49.225Y-73.475
X49.425Y-90.825
X49.525Y-75.075
X49.525Y-109.725
X49.625Y-89.325
X49.675Y-104.125
X49.775Y-86.375
X49.875Y-85.275
X49.975Y-106.375
X50.025Y-83.775
X50.075Y-77.675
X50.175Y-90.525
X50.175Y-97.625
X50.525Y-87.225
X50.675Y-102.275
X50.775Y-98.875
X50.775Y-99.575
X50.875Y-94.375
X51.025Y-104.975
X51.175Y-87.825
X51.275Y-79.275
X51.375Y-78.575
X51.525Y-70.875
X51.525Y-81.125
X51.575Y-77.325
X51.625Y-92.775
X51.675Y-72.525
X51.675Y-75.175
X51.825Y-83.275
X51.825Y-86.825
X51.925Y-90.725
X52.075Y-88.025
X52.325Y-92.475
X52.375Y-89.325
X52.625Y-73.525
X52.725Y-93.325
X52.875Y-77.675
X52.975Y-70.925
X53.025Y-80.825
X53.175Y-80.075
X53.275Y-82.025
X53.475Y-88.025
X53.575Y-74.525
X53.675Y-77.675
X53.875Y-80.875
X53.875Y-85.525
X54.125Y-93.175
X54.175Y-89.725
X54.225Y-70.775
X54.425Y-82.925
X54.425Y-90.675
X54.525Y-89.225
X54.725Y-92.775
X54.825Y-75.625
X55.125Y-70.875
X55.125Y-87.925
X55.375Y-77.125
X55.425Y-72.925
X55.825Y-94.225
X55.925Y-80.175
X55.925Y-92.425
X56.075Y-77.575
X56.125Y-70.675
X56.125Y-78.775
X56.475Y-88.475
X56.475Y-90.175
X56.525Y-84.775
X56.575Y-87.675
X56.625Y-72.075
X56.625Y-80.625
X56.775Y-82.725
X56.775Y-92.675
X56.775Y-102.275
X56.875Y-74.525
X57.075Y-73.325
X57.075Y-88.775
X57.275Y-93.225
X57.325Y-71.925
X57.725Y-82.825
X58.225Y-88.075
X58.425Y-92.625
X58.525Y-84.775
X58.775Y-93.725
X58.825Y-81.125
X58.875Y-71.225
X58.975Y-86.925
X58.975Y-89.825
X59.025Y-72.825
X59.175Y-90.575
X59.375Y-93.325
X59.675Y-89.925
X59.675Y-101.625
X59.975Y-71.625
X60.025Y-72.325
X60.125Y-104.625
X60.375Y-92.625
X60.475Y-84.725
X60.625Y-88.625
X60.675Y-86.975
X60.775Y-100.125
X61.075Y-89.075
X61.175Y-81.125
X61.525Y-85.475
X61.625Y-103.775
X62.075Y-88.125
X62.475Y-87.425
X62.475Y-100.225
X62.675Y-90.675
X62.875Y-102.225
X62.925Y-91.575
X62.925Y-105.625
X63.075Y-87.575
X63.125Y-94.525
X63.175Y-81.675
X63.175Y-84.025
X63.225Y-85.675
X63.375Y-91.075
X63.475Y-79.575
X63.575Y-103.375
X63.675Y-92.125
X63.775Y-82.075
X63.875Y-88.975
X63.975Y-101.175
X64.025Y-83.375
X64.075Y-91.625
X64.075Y-97.575
X64.075Y-103.975
X64.075Y-106.975
X64.175Y-85.025
X64.225Y-86.925
X64.575Y-89.825
X64.625Y-101.675
X64.775Y-84.725
X64.825Y-106.375
X64.875Y-80.625
X64.875Y-82.975
X64.975Y-74.525
X65.675Y-112.375
X66.175Y-88.075
X66.175Y-93.275
X66.875Y-72.175
X67.175Y-70.625
X68.125Y-71.625
X68.125Y-105.375
X68.175Y-84.925
X68.175Y-91.275
X68.175Y-98.325
X68.225Y-87.525
X68.225Y-93.825
X68.225Y-97.625
X68.275Y-88.675
X68.375Y-80.075
X68.625Y-70.925
X69.025Y-113.175
X69.575Y-114.375
X69.925Y-70.625
X70.125Y-100.825
X70.425Y-110.975
X70.475Y-111.725
X70.575Y-98.675
X70.575Y-113.125
X70.775Y-91.375
X70.875Y-108.675
X70.975Y-103.175
X71.175Y-107.975
X71.225Y-72.575
X71.225Y-96.025
X71.225Y-98.025
X71.225Y-106.625
X71.225Y-114.375
X71.4Y-70.7
X71.475Y-73.375
X71.475Y-97.175
X71.525Y-86.375
X71.575Y-82.975
X71.775Y-90.375
X71.825Y-92.125
X71.925Y-109.375
X71.975Y-79.425
X72.075Y-86.925
X72.075Y-93.325
X72.075Y-99.075
X72.075Y-106.975
X72.075Y-110.825
X72.275Y-114.325
X72.425Y-71.175
X72.575Y-82.025
X72.575Y-106.525
X72.675Y-87.525
X72.925Y-70.825
X73.075Y-97.325
X73.125Y-111.225
X73.175Y-109.725
X73.275Y-82.725
X73.325Y-96.525
X73.425Y-79.875
X73.425Y-95.575
X73.425Y-104.675
X73.525Y-93.375
X73.525Y-102.375
X73.575Y-92.075
X73.575Y-99.025
X73.625Y-110.825
X73.925Y-90.775
X73.975Y-114.375
X74.375Y-89.025
X74.425Y-109.375
X74.525Y-84.675
X74.575Y-80.825
X74.625Y-100.675
X74.725Y-110.175
X74.825Y-80.025
X74.925Y-90.625
X74.925Y-92.225
X74.975Y-97.125
X75.075Y-99.025
X75.125Y-95.025
X75.225Y-101.975
X75.325Y-90.075
X75.325Y-106.525
X75.475Y-91.575
X75.625Y-96.625
X75.675Y-79.725
X75.775Y-114.025
X75.925Y-87.475
X75.975Y-82.275
X76.225Y-112.725
X76.625Y-80.175
X76.625Y-88.375
X76.775Y-92.125
X76.775Y-110.425
X76.825Y-107.975
X76.925Y-96.225
X77.025Y-89.075
X77.075Y-89.925
X77.125Y-86.375
X77.175Y-81.425
X77.225Y-85.675
X77.225Y-92.775
X77.25Y-94.0
X77.275Y-106.125
X77.325Y-79.725
X77.325Y-100.325
X77.575Y-96.925
X77.575Y-103.325
X77.775Y-83.575
X77.775Y-97.925
X77.825Y-113.725
X77.975Y-78.625
X78.025Y-101.025
X78.35Y-85.2
X78.425Y-100.425
X78.425Y-109.175
X78.425Y-113.925
X78.575Y-89.475
X78.725Y-107.375
X78.725Y-110.775
X78.775Y-93.025
X78.925Y-113.575
X78.975Y-97.175
X78.975Y-105.025
X79.025Y-72.225
X79.175Y-112.125
X79.225Y-77.225
X79.225Y-91.325
X79.275Y-104.275
X79.3Y-92.6
X79.375Y-83.725
X79.375Y-84.425
X79.375Y-107.975
X79.575Y-90.275
X79.675Y-74.075
X79.675Y-99.275
X79.675Y-110.675
X79.725Y-75.825
X79.825Y-79.025
X79.825Y-85.775
X79.925Y-93.625
X79.975Y-106.825
X80.025Y-76.525
X80.025Y-109.125
X80.225Y-74.325
X80.275Y-97.575
X80.325Y-88.375
X80.325Y-111.425
X80.575Y-94.275
X80.675Y-105.325
X80.725Y-92.125
X80.825Y-72.825
X80.825Y-102.875
X80.95Y-92.925
X81.025Y-95.775
X81.075Y-84.375
X81.225Y-73.375
X81.225Y-77.175
X81.275Y-103.675
X81.275Y-113.875
X81.325Y-106.325
X81.425Y-78.425
X81.425Y-80.725
X81.475Y-79.675
X81.625Y-90.325
X81.725Y-92.375
X81.775Y-85.725
X81.825Y-84.125
X82.125Y-95.575
X82.125Y-103.075
X82.175Y-88.925
X82.325Y-86.375
X82.325Y-93.525
X82.625Y-96.025
X82.725Y-89.825
X83.025Y-83.375
X83.025Y-84.775
X83.025Y-87.225
X83.125Y-72.025
X83.325Y-105.925
X83.875Y-96.025
X83.975Y-78.125
X83.975Y-80.125
X84.175Y-99.325
X84.275Y-103.525
X84.575Y-93.125
X84.675Y-79.625
X84.725Y-81.175
X84.725Y-85.125
X84.725Y-92.375
X84.825Y-80.375
X85.125Y-81.675
X85.175Y-88.975
X85.175Y-97.775
X85.675Y-88.325
X85.725Y-87.225
X85.775Y-89.925
X85.825Y-84.975
X85.925Y-91.275
X86.075Y-104.125
X86.175Y-72.075
X86.175Y-76.375
X86.175Y-93.425
X86.175Y-99.375
X86.225Y-73.325
X86.225Y-79.675
X86.225Y-100.275
X86.475Y-77.725
X87.025Y-100.375
X87.475Y-78.675
X87.575Y-93.675
X87.675Y-94.925
X87.675Y-104.125
X87.725Y-84.975
X87.725Y-100.975
X87.825Y-84.075
X88.075Y-70.825
X88.175Y-98.275
X88.275Y-95.775
X88.475Y-75.425
X88.675Y-81.325
X88.875Y-79.375
X88.975Y-77.475
X89.225Y-101.475
X89.325Y-107.175
X89.375Y-108.725
X89.575Y-79.825
X89.575Y-90.675
X89.725Y-71.425
X89.725Y-75.625
X89.975Y-74.075
X89.975Y-95.675
X90.075Y-76.175
X90.075Y-97.075
X90.075Y-98.675
X90.175Y-100.925
T2
X51.065Y-95.9
X52.335Y-98.44
X53.605Y-95.9
X54.875Y-98.44
X56.145Y-95.9
X57.415Y-98.44
X58.685Y-95.9
X59.955Y-98.44
X61.225Y-95.9
X62.495Y-98.44
X63.765Y-95.9
T3
X66.937Y-74.158
X66.937Y-76.698
X66.937Y-79.238
X66.937Y-81.778
X66.937Y-84.318
X66.937Y-86.858
X66.937Y-89.398
X66.937Y-91.938
X66.937Y-94.478
X66.937Y-97.018
X66.937Y-99.558
X66.937Y-102.098
X66.937Y-104.638
X66.937Y-107.178
X66.937Y-109.718
X69.477Y-74.158
X69.477Y-76.698
X69.477Y-79.238
X69.477Y-81.778
X69.477Y-84.318
X69.477Y-86.858
X69.477Y-89.398
X69.477Y-91.938
X69.477Y-94.478
X69.477Y-97.018
X69.477Y-99.558
X69.477Y-102.098
X69.477Y-104.638
X69.477Y-107.178
X69.477Y-109.718
M30
