G04 #@! TF.GenerationSoftware,KiCad,Pcbnew,10.0.0*
G04 #@! TF.CreationDate,2026-10-01T11:45:59-07:00*
G04 #@! TF.ProjectId,BOOST_control_RC2,424f4f53-545f-4636-9f6e-74726f6c5f52,rev?*
G04 #@! TF.SameCoordinates,Original*
G04 #@! TF.FileFunction,Legend,Top*
G04 #@! TF.FilePolarity,Positive*
%FSLAX46Y46*%
G04 Gerber Fmt 4.6, Leading zero omitted, Abs format (unit mm)*
G04 Created by KiCad (PCBNEW 10.0.0) date 2026-10-01 11:45:59*
%MOMM*%
%LPD*%
G01*
G04 APERTURE LIST*
G04 Aperture macros list*
%AMRoundRect*
0 Rectangle with rounded corners*
0 $1 Rounding radius*
0 $2 $3 $4 $5 $6 $7 $8 $9 X,Y pos of 4 corners*
0 Add a 4 corners polygon primitive as box body*
4,1,4,$2,$3,$4,$5,$6,$7,$8,$9,$2,$3,0*
0 Add four circle primitives for the rounded corners*
1,1,$1+$1,$2,$3*
1,1,$1+$1,$4,$5*
1,1,$1+$1,$6,$7*
1,1,$1+$1,$8,$9*
0 Add four rect primitives between the rounded corners*
20,1,$1+$1,$2,$3,$4,$5,0*
20,1,$1+$1,$4,$5,$6,$7,0*
20,1,$1+$1,$6,$7,$8,$9,0*
20,1,$1+$1,$8,$9,$2,$3,0*%
G04 Aperture macros list end*
%ADD10C,0.150000*%
%ADD11C,0.120000*%
%ADD12C,0.000000*%
%ADD13C,0.300000*%
%ADD14RoundRect,0.200000X0.200000X0.275000X-0.200000X0.275000X-0.200000X-0.275000X0.200000X-0.275000X0*%
%ADD15RoundRect,0.225000X-0.250000X0.225000X-0.250000X-0.225000X0.250000X-0.225000X0.250000X0.225000X0*%
%ADD16RoundRect,0.150000X-0.512500X-0.150000X0.512500X-0.150000X0.512500X0.150000X-0.512500X0.150000X0*%
%ADD17RoundRect,0.150000X-0.825000X-0.150000X0.825000X-0.150000X0.825000X0.150000X-0.825000X0.150000X0*%
%ADD18RoundRect,0.200000X-0.200000X-0.275000X0.200000X-0.275000X0.200000X0.275000X-0.200000X0.275000X0*%
%ADD19RoundRect,0.150000X0.150000X-0.825000X0.150000X0.825000X-0.150000X0.825000X-0.150000X-0.825000X0*%
%ADD20RoundRect,0.225000X0.225000X0.250000X-0.225000X0.250000X-0.225000X-0.250000X0.225000X-0.250000X0*%
%ADD21RoundRect,0.250000X0.450000X-0.262500X0.450000X0.262500X-0.450000X0.262500X-0.450000X-0.262500X0*%
%ADD22RoundRect,0.250000X-0.262500X-0.450000X0.262500X-0.450000X0.262500X0.450000X-0.262500X0.450000X0*%
%ADD23RoundRect,0.200000X0.275000X-0.200000X0.275000X0.200000X-0.275000X0.200000X-0.275000X-0.200000X0*%
%ADD24RoundRect,0.200000X-0.275000X0.200000X-0.275000X-0.200000X0.275000X-0.200000X0.275000X0.200000X0*%
%ADD25RoundRect,0.225000X-0.375000X0.225000X-0.375000X-0.225000X0.375000X-0.225000X0.375000X0.225000X0*%
%ADD26RoundRect,0.225000X0.250000X-0.225000X0.250000X0.225000X-0.250000X0.225000X-0.250000X-0.225000X0*%
%ADD27RoundRect,0.150000X-0.150000X0.825000X-0.150000X-0.825000X0.150000X-0.825000X0.150000X0.825000X0*%
%ADD28RoundRect,0.225000X-0.225000X-0.375000X0.225000X-0.375000X0.225000X0.375000X-0.225000X0.375000X0*%
%ADD29RoundRect,0.225000X-0.225000X-0.250000X0.225000X-0.250000X0.225000X0.250000X-0.225000X0.250000X0*%
%ADD30RoundRect,0.112500X-0.187500X-0.112500X0.187500X-0.112500X0.187500X0.112500X-0.187500X0.112500X0*%
%ADD31C,3.200000*%
%ADD32RoundRect,0.225000X0.375000X-0.225000X0.375000X0.225000X-0.375000X0.225000X-0.375000X-0.225000X0*%
%ADD33RoundRect,0.150000X0.150000X-0.512500X0.150000X0.512500X-0.150000X0.512500X-0.150000X-0.512500X0*%
%ADD34RoundRect,0.250000X0.475000X-0.250000X0.475000X0.250000X-0.475000X0.250000X-0.475000X-0.250000X0*%
%ADD35RoundRect,0.250000X-0.450000X0.262500X-0.450000X-0.262500X0.450000X-0.262500X0.450000X0.262500X0*%
%ADD36RoundRect,0.250000X0.262500X0.450000X-0.262500X0.450000X-0.262500X-0.450000X0.262500X-0.450000X0*%
%ADD37RoundRect,0.150000X-0.150000X0.512500X-0.150000X-0.512500X0.150000X-0.512500X0.150000X0.512500X0*%
%ADD38RoundRect,0.150000X0.825000X0.150000X-0.825000X0.150000X-0.825000X-0.150000X0.825000X-0.150000X0*%
%ADD39O,2.800000X1.400000*%
%ADD40R,2.000000X2.000000*%
%ADD41C,2.000000*%
%ADD42R,1.700000X1.700000*%
%ADD43C,1.700000*%
G04 APERTURE END LIST*
D10*
X48951314Y-76221469D02*
X48951314Y-75221469D01*
X48951314Y-75221469D02*
X49189409Y-75221469D01*
X49189409Y-75221469D02*
X49332266Y-75269088D01*
X49332266Y-75269088D02*
X49427504Y-75364326D01*
X49427504Y-75364326D02*
X49475123Y-75459564D01*
X49475123Y-75459564D02*
X49522742Y-75650040D01*
X49522742Y-75650040D02*
X49522742Y-75792897D01*
X49522742Y-75792897D02*
X49475123Y-75983373D01*
X49475123Y-75983373D02*
X49427504Y-76078611D01*
X49427504Y-76078611D02*
X49332266Y-76173850D01*
X49332266Y-76173850D02*
X49189409Y-76221469D01*
X49189409Y-76221469D02*
X48951314Y-76221469D01*
X49903695Y-75316707D02*
X49951314Y-75269088D01*
X49951314Y-75269088D02*
X50046552Y-75221469D01*
X50046552Y-75221469D02*
X50284647Y-75221469D01*
X50284647Y-75221469D02*
X50379885Y-75269088D01*
X50379885Y-75269088D02*
X50427504Y-75316707D01*
X50427504Y-75316707D02*
X50475123Y-75411945D01*
X50475123Y-75411945D02*
X50475123Y-75507183D01*
X50475123Y-75507183D02*
X50427504Y-75650040D01*
X50427504Y-75650040D02*
X49856076Y-76221469D01*
X49856076Y-76221469D02*
X50475123Y-76221469D01*
X50808457Y-75221469D02*
X51475123Y-75221469D01*
X51475123Y-75221469D02*
X51046552Y-76221469D01*
X53694780Y-102768564D02*
X53694780Y-101768564D01*
X53694780Y-102244754D02*
X54266208Y-102244754D01*
X54266208Y-102768564D02*
X54266208Y-101768564D01*
X54647161Y-101768564D02*
X55266208Y-101768564D01*
X55266208Y-101768564D02*
X54932875Y-102149516D01*
X54932875Y-102149516D02*
X55075732Y-102149516D01*
X55075732Y-102149516D02*
X55170970Y-102197135D01*
X55170970Y-102197135D02*
X55218589Y-102244754D01*
X55218589Y-102244754D02*
X55266208Y-102339992D01*
X55266208Y-102339992D02*
X55266208Y-102578087D01*
X55266208Y-102578087D02*
X55218589Y-102673325D01*
X55218589Y-102673325D02*
X55170970Y-102720945D01*
X55170970Y-102720945D02*
X55075732Y-102768564D01*
X55075732Y-102768564D02*
X54790018Y-102768564D01*
X54790018Y-102768564D02*
X54694780Y-102720945D01*
X54694780Y-102720945D02*
X54647161Y-102673325D01*
X79720630Y-76512637D02*
X78720630Y-76512637D01*
X79196820Y-76512637D02*
X79196820Y-75941209D01*
X79720630Y-75941209D02*
X78720630Y-75941209D01*
X78815868Y-75512637D02*
X78768249Y-75465018D01*
X78768249Y-75465018D02*
X78720630Y-75369780D01*
X78720630Y-75369780D02*
X78720630Y-75131685D01*
X78720630Y-75131685D02*
X78768249Y-75036447D01*
X78768249Y-75036447D02*
X78815868Y-74988828D01*
X78815868Y-74988828D02*
X78911106Y-74941209D01*
X78911106Y-74941209D02*
X79006344Y-74941209D01*
X79006344Y-74941209D02*
X79149201Y-74988828D01*
X79149201Y-74988828D02*
X79720630Y-75560256D01*
X79720630Y-75560256D02*
X79720630Y-74941209D01*
X59913385Y-72818514D02*
X59913385Y-71818514D01*
X59913385Y-72294704D02*
X60484813Y-72294704D01*
X60484813Y-72818514D02*
X60484813Y-71818514D01*
X61484813Y-72818514D02*
X60913385Y-72818514D01*
X61199099Y-72818514D02*
X61199099Y-71818514D01*
X61199099Y-71818514D02*
X61103861Y-71961371D01*
X61103861Y-71961371D02*
X61008623Y-72056609D01*
X61008623Y-72056609D02*
X60913385Y-72104228D01*
X84359262Y-105811890D02*
X84359262Y-104811890D01*
X84359262Y-105288080D02*
X84930690Y-105288080D01*
X84930690Y-105811890D02*
X84930690Y-104811890D01*
X85835452Y-105145223D02*
X85835452Y-105811890D01*
X85597357Y-104764271D02*
X85359262Y-105478556D01*
X85359262Y-105478556D02*
X85978309Y-105478556D01*
X47831666Y-96624819D02*
X47831666Y-97339104D01*
X47831666Y-97339104D02*
X47784047Y-97481961D01*
X47784047Y-97481961D02*
X47688809Y-97577200D01*
X47688809Y-97577200D02*
X47545952Y-97624819D01*
X47545952Y-97624819D02*
X47450714Y-97624819D01*
X48355476Y-97624819D02*
X48545952Y-97624819D01*
X48545952Y-97624819D02*
X48641190Y-97577200D01*
X48641190Y-97577200D02*
X48688809Y-97529580D01*
X48688809Y-97529580D02*
X48784047Y-97386723D01*
X48784047Y-97386723D02*
X48831666Y-97196247D01*
X48831666Y-97196247D02*
X48831666Y-96815295D01*
X48831666Y-96815295D02*
X48784047Y-96720057D01*
X48784047Y-96720057D02*
X48736428Y-96672438D01*
X48736428Y-96672438D02*
X48641190Y-96624819D01*
X48641190Y-96624819D02*
X48450714Y-96624819D01*
X48450714Y-96624819D02*
X48355476Y-96672438D01*
X48355476Y-96672438D02*
X48307857Y-96720057D01*
X48307857Y-96720057D02*
X48260238Y-96815295D01*
X48260238Y-96815295D02*
X48260238Y-97053390D01*
X48260238Y-97053390D02*
X48307857Y-97148628D01*
X48307857Y-97148628D02*
X48355476Y-97196247D01*
X48355476Y-97196247D02*
X48450714Y-97243866D01*
X48450714Y-97243866D02*
X48641190Y-97243866D01*
X48641190Y-97243866D02*
X48736428Y-97196247D01*
X48736428Y-97196247D02*
X48784047Y-97148628D01*
X48784047Y-97148628D02*
X48831666Y-97053390D01*
X50255476Y-93529819D02*
X50588809Y-94529819D01*
X50588809Y-94529819D02*
X50922142Y-93529819D01*
X51779285Y-94529819D02*
X51207857Y-94529819D01*
X51493571Y-94529819D02*
X51493571Y-93529819D01*
X51493571Y-93529819D02*
X51398333Y-93672676D01*
X51398333Y-93672676D02*
X51303095Y-93767914D01*
X51303095Y-93767914D02*
X51207857Y-93815533D01*
X51525476Y-99719819D02*
X51858809Y-100719819D01*
X51858809Y-100719819D02*
X52192142Y-99719819D01*
X52477857Y-99815057D02*
X52525476Y-99767438D01*
X52525476Y-99767438D02*
X52620714Y-99719819D01*
X52620714Y-99719819D02*
X52858809Y-99719819D01*
X52858809Y-99719819D02*
X52954047Y-99767438D01*
X52954047Y-99767438D02*
X53001666Y-99815057D01*
X53001666Y-99815057D02*
X53049285Y-99910295D01*
X53049285Y-99910295D02*
X53049285Y-100005533D01*
X53049285Y-100005533D02*
X53001666Y-100148390D01*
X53001666Y-100148390D02*
X52430238Y-100719819D01*
X52430238Y-100719819D02*
X53049285Y-100719819D01*
X52795476Y-93529819D02*
X53128809Y-94529819D01*
X53128809Y-94529819D02*
X53462142Y-93529819D01*
X53700238Y-93529819D02*
X54319285Y-93529819D01*
X54319285Y-93529819D02*
X53985952Y-93910771D01*
X53985952Y-93910771D02*
X54128809Y-93910771D01*
X54128809Y-93910771D02*
X54224047Y-93958390D01*
X54224047Y-93958390D02*
X54271666Y-94006009D01*
X54271666Y-94006009D02*
X54319285Y-94101247D01*
X54319285Y-94101247D02*
X54319285Y-94339342D01*
X54319285Y-94339342D02*
X54271666Y-94434580D01*
X54271666Y-94434580D02*
X54224047Y-94482200D01*
X54224047Y-94482200D02*
X54128809Y-94529819D01*
X54128809Y-94529819D02*
X53843095Y-94529819D01*
X53843095Y-94529819D02*
X53747857Y-94482200D01*
X53747857Y-94482200D02*
X53700238Y-94434580D01*
X54398810Y-100719819D02*
X54398810Y-99719819D01*
X55398809Y-100719819D02*
X54827381Y-100719819D01*
X55113095Y-100719819D02*
X55113095Y-99719819D01*
X55113095Y-99719819D02*
X55017857Y-99862676D01*
X55017857Y-99862676D02*
X54922619Y-99957914D01*
X54922619Y-99957914D02*
X54827381Y-100005533D01*
X55668810Y-94529819D02*
X55668810Y-93529819D01*
X56097381Y-93625057D02*
X56145000Y-93577438D01*
X56145000Y-93577438D02*
X56240238Y-93529819D01*
X56240238Y-93529819D02*
X56478333Y-93529819D01*
X56478333Y-93529819D02*
X56573571Y-93577438D01*
X56573571Y-93577438D02*
X56621190Y-93625057D01*
X56621190Y-93625057D02*
X56668809Y-93720295D01*
X56668809Y-93720295D02*
X56668809Y-93815533D01*
X56668809Y-93815533D02*
X56621190Y-93958390D01*
X56621190Y-93958390D02*
X56049762Y-94529819D01*
X56049762Y-94529819D02*
X56668809Y-94529819D01*
X56938810Y-100719819D02*
X56938810Y-99719819D01*
X57319762Y-99719819D02*
X57938809Y-99719819D01*
X57938809Y-99719819D02*
X57605476Y-100100771D01*
X57605476Y-100100771D02*
X57748333Y-100100771D01*
X57748333Y-100100771D02*
X57843571Y-100148390D01*
X57843571Y-100148390D02*
X57891190Y-100196009D01*
X57891190Y-100196009D02*
X57938809Y-100291247D01*
X57938809Y-100291247D02*
X57938809Y-100529342D01*
X57938809Y-100529342D02*
X57891190Y-100624580D01*
X57891190Y-100624580D02*
X57843571Y-100672200D01*
X57843571Y-100672200D02*
X57748333Y-100719819D01*
X57748333Y-100719819D02*
X57462619Y-100719819D01*
X57462619Y-100719819D02*
X57367381Y-100672200D01*
X57367381Y-100672200D02*
X57319762Y-100624580D01*
X57194524Y-94482200D02*
X57337381Y-94529819D01*
X57337381Y-94529819D02*
X57575476Y-94529819D01*
X57575476Y-94529819D02*
X57670714Y-94482200D01*
X57670714Y-94482200D02*
X57718333Y-94434580D01*
X57718333Y-94434580D02*
X57765952Y-94339342D01*
X57765952Y-94339342D02*
X57765952Y-94244104D01*
X57765952Y-94244104D02*
X57718333Y-94148866D01*
X57718333Y-94148866D02*
X57670714Y-94101247D01*
X57670714Y-94101247D02*
X57575476Y-94053628D01*
X57575476Y-94053628D02*
X57385000Y-94006009D01*
X57385000Y-94006009D02*
X57289762Y-93958390D01*
X57289762Y-93958390D02*
X57242143Y-93910771D01*
X57242143Y-93910771D02*
X57194524Y-93815533D01*
X57194524Y-93815533D02*
X57194524Y-93720295D01*
X57194524Y-93720295D02*
X57242143Y-93625057D01*
X57242143Y-93625057D02*
X57289762Y-93577438D01*
X57289762Y-93577438D02*
X57385000Y-93529819D01*
X57385000Y-93529819D02*
X57623095Y-93529819D01*
X57623095Y-93529819D02*
X57765952Y-93577438D01*
X58765952Y-94434580D02*
X58718333Y-94482200D01*
X58718333Y-94482200D02*
X58575476Y-94529819D01*
X58575476Y-94529819D02*
X58480238Y-94529819D01*
X58480238Y-94529819D02*
X58337381Y-94482200D01*
X58337381Y-94482200D02*
X58242143Y-94386961D01*
X58242143Y-94386961D02*
X58194524Y-94291723D01*
X58194524Y-94291723D02*
X58146905Y-94101247D01*
X58146905Y-94101247D02*
X58146905Y-93958390D01*
X58146905Y-93958390D02*
X58194524Y-93767914D01*
X58194524Y-93767914D02*
X58242143Y-93672676D01*
X58242143Y-93672676D02*
X58337381Y-93577438D01*
X58337381Y-93577438D02*
X58480238Y-93529819D01*
X58480238Y-93529819D02*
X58575476Y-93529819D01*
X58575476Y-93529819D02*
X58718333Y-93577438D01*
X58718333Y-93577438D02*
X58765952Y-93625057D01*
X59670714Y-94529819D02*
X59194524Y-94529819D01*
X59194524Y-94529819D02*
X59194524Y-93529819D01*
X58440714Y-100672200D02*
X58583571Y-100719819D01*
X58583571Y-100719819D02*
X58821666Y-100719819D01*
X58821666Y-100719819D02*
X58916904Y-100672200D01*
X58916904Y-100672200D02*
X58964523Y-100624580D01*
X58964523Y-100624580D02*
X59012142Y-100529342D01*
X59012142Y-100529342D02*
X59012142Y-100434104D01*
X59012142Y-100434104D02*
X58964523Y-100338866D01*
X58964523Y-100338866D02*
X58916904Y-100291247D01*
X58916904Y-100291247D02*
X58821666Y-100243628D01*
X58821666Y-100243628D02*
X58631190Y-100196009D01*
X58631190Y-100196009D02*
X58535952Y-100148390D01*
X58535952Y-100148390D02*
X58488333Y-100100771D01*
X58488333Y-100100771D02*
X58440714Y-100005533D01*
X58440714Y-100005533D02*
X58440714Y-99910295D01*
X58440714Y-99910295D02*
X58488333Y-99815057D01*
X58488333Y-99815057D02*
X58535952Y-99767438D01*
X58535952Y-99767438D02*
X58631190Y-99719819D01*
X58631190Y-99719819D02*
X58869285Y-99719819D01*
X58869285Y-99719819D02*
X59012142Y-99767438D01*
X59440714Y-100719819D02*
X59440714Y-99719819D01*
X59440714Y-99719819D02*
X59678809Y-99719819D01*
X59678809Y-99719819D02*
X59821666Y-99767438D01*
X59821666Y-99767438D02*
X59916904Y-99862676D01*
X59916904Y-99862676D02*
X59964523Y-99957914D01*
X59964523Y-99957914D02*
X60012142Y-100148390D01*
X60012142Y-100148390D02*
X60012142Y-100291247D01*
X60012142Y-100291247D02*
X59964523Y-100481723D01*
X59964523Y-100481723D02*
X59916904Y-100576961D01*
X59916904Y-100576961D02*
X59821666Y-100672200D01*
X59821666Y-100672200D02*
X59678809Y-100719819D01*
X59678809Y-100719819D02*
X59440714Y-100719819D01*
X60393095Y-100434104D02*
X60869285Y-100434104D01*
X60297857Y-100719819D02*
X60631190Y-99719819D01*
X60631190Y-99719819D02*
X60964523Y-100719819D01*
X60705952Y-94529819D02*
X60134524Y-94529819D01*
X60420238Y-94529819D02*
X60420238Y-93529819D01*
X60420238Y-93529819D02*
X60325000Y-93672676D01*
X60325000Y-93672676D02*
X60229762Y-93767914D01*
X60229762Y-93767914D02*
X60134524Y-93815533D01*
X61086905Y-93625057D02*
X61134524Y-93577438D01*
X61134524Y-93577438D02*
X61229762Y-93529819D01*
X61229762Y-93529819D02*
X61467857Y-93529819D01*
X61467857Y-93529819D02*
X61563095Y-93577438D01*
X61563095Y-93577438D02*
X61610714Y-93625057D01*
X61610714Y-93625057D02*
X61658333Y-93720295D01*
X61658333Y-93720295D02*
X61658333Y-93815533D01*
X61658333Y-93815533D02*
X61610714Y-93958390D01*
X61610714Y-93958390D02*
X61039286Y-94529819D01*
X61039286Y-94529819D02*
X61658333Y-94529819D01*
X61944048Y-93529819D02*
X62277381Y-94529819D01*
X62277381Y-94529819D02*
X62610714Y-93529819D01*
X62133095Y-99767438D02*
X62037857Y-99719819D01*
X62037857Y-99719819D02*
X61895000Y-99719819D01*
X61895000Y-99719819D02*
X61752143Y-99767438D01*
X61752143Y-99767438D02*
X61656905Y-99862676D01*
X61656905Y-99862676D02*
X61609286Y-99957914D01*
X61609286Y-99957914D02*
X61561667Y-100148390D01*
X61561667Y-100148390D02*
X61561667Y-100291247D01*
X61561667Y-100291247D02*
X61609286Y-100481723D01*
X61609286Y-100481723D02*
X61656905Y-100576961D01*
X61656905Y-100576961D02*
X61752143Y-100672200D01*
X61752143Y-100672200D02*
X61895000Y-100719819D01*
X61895000Y-100719819D02*
X61990238Y-100719819D01*
X61990238Y-100719819D02*
X62133095Y-100672200D01*
X62133095Y-100672200D02*
X62180714Y-100624580D01*
X62180714Y-100624580D02*
X62180714Y-100291247D01*
X62180714Y-100291247D02*
X61990238Y-100291247D01*
X62609286Y-100719819D02*
X62609286Y-99719819D01*
X62609286Y-99719819D02*
X63180714Y-100719819D01*
X63180714Y-100719819D02*
X63180714Y-99719819D01*
X63656905Y-100719819D02*
X63656905Y-99719819D01*
X63656905Y-99719819D02*
X63895000Y-99719819D01*
X63895000Y-99719819D02*
X64037857Y-99767438D01*
X64037857Y-99767438D02*
X64133095Y-99862676D01*
X64133095Y-99862676D02*
X64180714Y-99957914D01*
X64180714Y-99957914D02*
X64228333Y-100148390D01*
X64228333Y-100148390D02*
X64228333Y-100291247D01*
X64228333Y-100291247D02*
X64180714Y-100481723D01*
X64180714Y-100481723D02*
X64133095Y-100576961D01*
X64133095Y-100576961D02*
X64037857Y-100672200D01*
X64037857Y-100672200D02*
X63895000Y-100719819D01*
X63895000Y-100719819D02*
X63656905Y-100719819D01*
X63067381Y-94529819D02*
X63067381Y-93529819D01*
X63543571Y-94529819D02*
X63543571Y-93529819D01*
X63543571Y-93529819D02*
X64114999Y-94529819D01*
X64114999Y-94529819D02*
X64114999Y-93529819D01*
X64591190Y-94529819D02*
X64591190Y-93529819D01*
X64591190Y-94006009D02*
X65162618Y-94006009D01*
X65162618Y-94529819D02*
X65162618Y-93529819D01*
D11*
X82935858Y-92165000D02*
X82461342Y-92165000D01*
X82935858Y-93210000D02*
X82461342Y-93210000D01*
X73769700Y-96927820D02*
X73769700Y-97208980D01*
X74789700Y-96927820D02*
X74789700Y-97208980D01*
X63595800Y-106339620D02*
X63595800Y-106620780D01*
X64615800Y-106339620D02*
X64615800Y-106620780D01*
X76875558Y-79511300D02*
X76401042Y-79511300D01*
X76875558Y-80556300D02*
X76401042Y-80556300D01*
X75387258Y-99035900D02*
X74912742Y-99035900D01*
X75387258Y-100080900D02*
X74912742Y-100080900D01*
X62078300Y-89218000D02*
X63898300Y-89218000D01*
X62078300Y-89268000D02*
X62078300Y-89218000D01*
X62078300Y-92338000D02*
X62078300Y-92288000D01*
X63898300Y-89218000D02*
X63898300Y-89268000D01*
X63898300Y-90388000D02*
X63898300Y-91168000D01*
X63898300Y-92288000D02*
X63898300Y-92338000D01*
X63898300Y-92338000D02*
X62078300Y-92338000D01*
X61538300Y-89268000D02*
X61298300Y-88938000D01*
X61778300Y-88938000D01*
X61538300Y-89268000D01*
G36*
X61538300Y-89268000D02*
G01*
X61298300Y-88938000D01*
X61778300Y-88938000D01*
X61538300Y-89268000D01*
G37*
X73562900Y-100545600D02*
X77682900Y-100545600D01*
X73562900Y-100600600D02*
X73562900Y-100545600D01*
X73562900Y-110665600D02*
X73562900Y-110610600D01*
X77682900Y-100545600D02*
X77682900Y-100600600D01*
X77682900Y-110610600D02*
X77682900Y-110665600D01*
X77682900Y-110665600D02*
X73562900Y-110665600D01*
X73022900Y-100595600D02*
X72782900Y-100265600D01*
X73262900Y-100265600D01*
X73022900Y-100595600D01*
G36*
X73022900Y-100595600D02*
G01*
X72782900Y-100265600D01*
X73262900Y-100265600D01*
X73022900Y-100595600D01*
G37*
X77417842Y-70935900D02*
X77892358Y-70935900D01*
X77417842Y-71980900D02*
X77892358Y-71980900D01*
X47124000Y-103215820D02*
X47124000Y-103496980D01*
X48144000Y-103215820D02*
X48144000Y-103496980D01*
X53381400Y-81747200D02*
X53446400Y-81747200D01*
X53381400Y-85867200D02*
X53381400Y-81747200D01*
X53446400Y-85867200D02*
X53381400Y-85867200D01*
X62186400Y-81747200D02*
X62251400Y-81747200D01*
X62251400Y-81747200D02*
X62251400Y-85867200D01*
X62251400Y-85867200D02*
X62186400Y-85867200D01*
X53446400Y-86407200D02*
X53116400Y-86647200D01*
X53116400Y-86167200D01*
X53446400Y-86407200D01*
G36*
X53446400Y-86407200D02*
G01*
X53116400Y-86647200D01*
X53116400Y-86167200D01*
X53446400Y-86407200D01*
G37*
X72968880Y-79667500D02*
X72687720Y-79667500D01*
X72968880Y-80687500D02*
X72687720Y-80687500D01*
X62708300Y-87243164D02*
X62708300Y-86789036D01*
X64178300Y-87243164D02*
X64178300Y-86789036D01*
X81910936Y-93722900D02*
X82365064Y-93722900D01*
X81910936Y-95192900D02*
X82365064Y-95192900D01*
X73723336Y-112673700D02*
X74177464Y-112673700D01*
X73723336Y-114143700D02*
X74177464Y-114143700D01*
X77509000Y-113099858D02*
X77509000Y-112625342D01*
X78554000Y-113099858D02*
X78554000Y-112625342D01*
X49550958Y-105141500D02*
X49076442Y-105141500D01*
X49550958Y-106186500D02*
X49076442Y-106186500D01*
X51499000Y-73387642D02*
X51499000Y-73862158D01*
X52544000Y-73387642D02*
X52544000Y-73862158D01*
X51760600Y-75202900D02*
X51760600Y-79212900D01*
X53760600Y-75202900D02*
X51760600Y-75202900D01*
X53760600Y-75202900D02*
X53760600Y-79212900D01*
X79021900Y-90468920D02*
X79021900Y-90750080D01*
X80041900Y-90468920D02*
X80041900Y-90750080D01*
X83638142Y-90395500D02*
X84112658Y-90395500D01*
X83638142Y-91440500D02*
X84112658Y-91440500D01*
X51878600Y-85149558D02*
X51878600Y-84675042D01*
X52923600Y-85149558D02*
X52923600Y-84675042D01*
X50221300Y-77770080D02*
X50221300Y-77488920D01*
X51241300Y-77770080D02*
X51241300Y-77488920D01*
X58259100Y-105117742D02*
X58259100Y-105592258D01*
X59304100Y-105117742D02*
X59304100Y-105592258D01*
X72626942Y-91871900D02*
X73101458Y-91871900D01*
X72626942Y-92916900D02*
X73101458Y-92916900D01*
X79563400Y-97234700D02*
X79628400Y-97234700D01*
X79563400Y-101354700D02*
X79563400Y-97234700D01*
X79628400Y-101354700D02*
X79563400Y-101354700D01*
X88368400Y-97234700D02*
X88433400Y-97234700D01*
X88433400Y-97234700D02*
X88433400Y-101354700D01*
X88433400Y-101354700D02*
X88368400Y-101354700D01*
X88698400Y-96934700D02*
X88368400Y-96694700D01*
X88698400Y-96454700D01*
X88698400Y-96934700D01*
G36*
X88698400Y-96934700D02*
G01*
X88368400Y-96694700D01*
X88698400Y-96454700D01*
X88698400Y-96934700D01*
G37*
X79794200Y-112254442D02*
X79794200Y-112728958D01*
X80839200Y-112254442D02*
X80839200Y-112728958D01*
X85469000Y-90101000D02*
X85469000Y-92101000D01*
X85469000Y-90101000D02*
X89479000Y-90101000D01*
X85469000Y-92101000D02*
X89479000Y-92101000D01*
X79821900Y-108752842D02*
X79821900Y-109227358D01*
X80866900Y-108752842D02*
X80866900Y-109227358D01*
X72780600Y-82642800D02*
X72835600Y-82642800D01*
X72780600Y-86762800D02*
X72780600Y-82642800D01*
X72835600Y-86762800D02*
X72780600Y-86762800D01*
X82845600Y-82642800D02*
X82900600Y-82642800D01*
X82900600Y-82642800D02*
X82900600Y-86762800D01*
X82900600Y-86762800D02*
X82845600Y-86762800D01*
X72830600Y-87302800D02*
X72500600Y-87542800D01*
X72500600Y-87062800D01*
X72830600Y-87302800D01*
G36*
X72830600Y-87302800D02*
G01*
X72500600Y-87542800D01*
X72500600Y-87062800D01*
X72830600Y-87302800D01*
G37*
X54197942Y-89445300D02*
X54672458Y-89445300D01*
X54197942Y-90490300D02*
X54672458Y-90490300D01*
X46206700Y-79358000D02*
X46206700Y-81358000D01*
X46206700Y-79358000D02*
X50216700Y-79358000D01*
X46206700Y-81358000D02*
X50216700Y-81358000D01*
X52628320Y-87821700D02*
X52909480Y-87821700D01*
X52628320Y-88841700D02*
X52909480Y-88841700D01*
X47368600Y-84923200D02*
X49188600Y-84923200D01*
X47368600Y-84973200D02*
X47368600Y-84923200D01*
X47368600Y-88043200D02*
X47368600Y-87993200D01*
X49188600Y-84923200D02*
X49188600Y-84973200D01*
X49188600Y-86093200D02*
X49188600Y-86873200D01*
X49188600Y-87993200D02*
X49188600Y-88043200D01*
X49188600Y-88043200D02*
X47368600Y-88043200D01*
X46828600Y-84973200D02*
X46588600Y-84643200D01*
X47068600Y-84643200D01*
X46828600Y-84973200D01*
G36*
X46828600Y-84973200D02*
G01*
X46588600Y-84643200D01*
X47068600Y-84643200D01*
X46828600Y-84973200D01*
G37*
X66757800Y-70453100D02*
X66757800Y-72153100D01*
X66757800Y-70453100D02*
X69417800Y-70453100D01*
X66757800Y-72153100D02*
X69417800Y-72153100D01*
X88900300Y-101126180D02*
X88900300Y-100845020D01*
X89920300Y-101126180D02*
X89920300Y-100845020D01*
X49245600Y-107991142D02*
X49245600Y-108465658D01*
X50290600Y-107991142D02*
X50290600Y-108465658D01*
X49165642Y-81809000D02*
X49640158Y-81809000D01*
X49165642Y-82854000D02*
X49640158Y-82854000D01*
X76588042Y-93955400D02*
X77062558Y-93955400D01*
X76588042Y-95000400D02*
X77062558Y-95000400D01*
X46578200Y-83446958D02*
X46578200Y-82972442D01*
X47623200Y-83446958D02*
X47623200Y-82972442D01*
D12*
G36*
X57280642Y-110874862D02*
G01*
X57268991Y-110886513D01*
X57257340Y-110874862D01*
X57268991Y-110863210D01*
X57280642Y-110874862D01*
G37*
G36*
X57327248Y-111271008D02*
G01*
X57315596Y-111282660D01*
X57303945Y-111271008D01*
X57315596Y-111259357D01*
X57327248Y-111271008D01*
G37*
G36*
X57327248Y-111364219D02*
G01*
X57315596Y-111375871D01*
X57303945Y-111364219D01*
X57315596Y-111352568D01*
X57327248Y-111364219D01*
G37*
G36*
X57373853Y-111434128D02*
G01*
X57362202Y-111445779D01*
X57350551Y-111434128D01*
X57362202Y-111422476D01*
X57373853Y-111434128D01*
G37*
G36*
X57513670Y-111317614D02*
G01*
X57502018Y-111329265D01*
X57490367Y-111317614D01*
X57502018Y-111305963D01*
X57513670Y-111317614D01*
G37*
G36*
X57606881Y-111480733D02*
G01*
X57595229Y-111492385D01*
X57583578Y-111480733D01*
X57595229Y-111469082D01*
X57606881Y-111480733D01*
G37*
G36*
X57676789Y-111410825D02*
G01*
X57665138Y-111422476D01*
X57653486Y-111410825D01*
X57665138Y-111399174D01*
X57676789Y-111410825D01*
G37*
G36*
X57839908Y-111271008D02*
G01*
X57828257Y-111282660D01*
X57816606Y-111271008D01*
X57828257Y-111259357D01*
X57839908Y-111271008D01*
G37*
G36*
X57956422Y-111294311D02*
G01*
X57944771Y-111305963D01*
X57933119Y-111294311D01*
X57944771Y-111282660D01*
X57956422Y-111294311D01*
G37*
G36*
X58003028Y-111620550D02*
G01*
X57991376Y-111632201D01*
X57979725Y-111620550D01*
X57991376Y-111608898D01*
X58003028Y-111620550D01*
G37*
G36*
X58072936Y-111294311D02*
G01*
X58061284Y-111305963D01*
X58049633Y-111294311D01*
X58061284Y-111282660D01*
X58072936Y-111294311D01*
G37*
G36*
X58305963Y-111527339D02*
G01*
X58294312Y-111538990D01*
X58282661Y-111527339D01*
X58294312Y-111515687D01*
X58305963Y-111527339D01*
G37*
G36*
X58422477Y-111061284D02*
G01*
X58410826Y-111072935D01*
X58399174Y-111061284D01*
X58410826Y-111049632D01*
X58422477Y-111061284D01*
G37*
G36*
X58492385Y-111317614D02*
G01*
X58480734Y-111329265D01*
X58469083Y-111317614D01*
X58480734Y-111305963D01*
X58492385Y-111317614D01*
G37*
G36*
X58515688Y-111154495D02*
G01*
X58504037Y-111166146D01*
X58492385Y-111154495D01*
X58504037Y-111142843D01*
X58515688Y-111154495D01*
G37*
G36*
X58795321Y-111457430D02*
G01*
X58783670Y-111469082D01*
X58772018Y-111457430D01*
X58783670Y-111445779D01*
X58795321Y-111457430D01*
G37*
G36*
X58841927Y-111177797D02*
G01*
X58830275Y-111189449D01*
X58818624Y-111177797D01*
X58830275Y-111166146D01*
X58841927Y-111177797D01*
G37*
G36*
X58888532Y-111340917D02*
G01*
X58876881Y-111352568D01*
X58865229Y-111340917D01*
X58876881Y-111329265D01*
X58888532Y-111340917D01*
G37*
G36*
X58888532Y-111527339D02*
G01*
X58876881Y-111538990D01*
X58865229Y-111527339D01*
X58876881Y-111515687D01*
X58888532Y-111527339D01*
G37*
G36*
X58911835Y-110455412D02*
G01*
X58900184Y-110467063D01*
X58888532Y-110455412D01*
X58900184Y-110443761D01*
X58911835Y-110455412D01*
G37*
G36*
X59005046Y-111853577D02*
G01*
X58993395Y-111865229D01*
X58981743Y-111853577D01*
X58993395Y-111841926D01*
X59005046Y-111853577D01*
G37*
G36*
X59074954Y-111690458D02*
G01*
X59063303Y-111702109D01*
X59051651Y-111690458D01*
X59063303Y-111678807D01*
X59074954Y-111690458D01*
G37*
G36*
X59098257Y-111550641D02*
G01*
X59086606Y-111562293D01*
X59074954Y-111550641D01*
X59086606Y-111538990D01*
X59098257Y-111550641D01*
G37*
G36*
X59191468Y-112575963D02*
G01*
X59179817Y-112587614D01*
X59168165Y-112575963D01*
X59179817Y-112564311D01*
X59191468Y-112575963D01*
G37*
G36*
X59284679Y-112389541D02*
G01*
X59273028Y-112401192D01*
X59261376Y-112389541D01*
X59273028Y-112377889D01*
X59284679Y-112389541D01*
G37*
G36*
X59401193Y-113065320D02*
G01*
X59389541Y-113076972D01*
X59377890Y-113065320D01*
X59389541Y-113053669D01*
X59401193Y-113065320D01*
G37*
G36*
X59564312Y-111876880D02*
G01*
X59552661Y-111888531D01*
X59541009Y-111876880D01*
X59552661Y-111865229D01*
X59564312Y-111876880D01*
G37*
G36*
X59937156Y-112529357D02*
G01*
X59925505Y-112541008D01*
X59913853Y-112529357D01*
X59925505Y-112517706D01*
X59937156Y-112529357D01*
G37*
G36*
X60123578Y-112808990D02*
G01*
X60111927Y-112820641D01*
X60100275Y-112808990D01*
X60111927Y-112797339D01*
X60123578Y-112808990D01*
G37*
G36*
X60170184Y-110292293D02*
G01*
X60158532Y-110303944D01*
X60146881Y-110292293D01*
X60158532Y-110280641D01*
X60170184Y-110292293D01*
G37*
G36*
X60170184Y-113181834D02*
G01*
X60158532Y-113193485D01*
X60146881Y-113181834D01*
X60158532Y-113170183D01*
X60170184Y-113181834D01*
G37*
G36*
X60473119Y-113181834D02*
G01*
X60461468Y-113193485D01*
X60449817Y-113181834D01*
X60461468Y-113170183D01*
X60473119Y-113181834D01*
G37*
G36*
X60752752Y-113298348D02*
G01*
X60741101Y-113309999D01*
X60729450Y-113298348D01*
X60741101Y-113286696D01*
X60752752Y-113298348D01*
G37*
G36*
X60799358Y-111201100D02*
G01*
X60787706Y-111212752D01*
X60776055Y-111201100D01*
X60787706Y-111189449D01*
X60799358Y-111201100D01*
G37*
G36*
X60845963Y-111131192D02*
G01*
X60834312Y-111142843D01*
X60822661Y-111131192D01*
X60834312Y-111119541D01*
X60845963Y-111131192D01*
G37*
G36*
X61335321Y-111737063D02*
G01*
X61323670Y-111748715D01*
X61312018Y-111737063D01*
X61323670Y-111725412D01*
X61335321Y-111737063D01*
G37*
G36*
X61475138Y-111364219D02*
G01*
X61463486Y-111375871D01*
X61451835Y-111364219D01*
X61463486Y-111352568D01*
X61475138Y-111364219D01*
G37*
G36*
X61475138Y-112016696D02*
G01*
X61463486Y-112028348D01*
X61451835Y-112016696D01*
X61463486Y-112005045D01*
X61475138Y-112016696D01*
G37*
G36*
X61545046Y-112179816D02*
G01*
X61533395Y-112191467D01*
X61521743Y-112179816D01*
X61533395Y-112168164D01*
X61545046Y-112179816D01*
G37*
G36*
X61591651Y-111643852D02*
G01*
X61580000Y-111655504D01*
X61568349Y-111643852D01*
X61580000Y-111632201D01*
X61591651Y-111643852D01*
G37*
G36*
X61661560Y-111760366D02*
G01*
X61649908Y-111772018D01*
X61638257Y-111760366D01*
X61649908Y-111748715D01*
X61661560Y-111760366D01*
G37*
G36*
X61684862Y-111643852D02*
G01*
X61673211Y-111655504D01*
X61661560Y-111643852D01*
X61673211Y-111632201D01*
X61684862Y-111643852D01*
G37*
G36*
X61708165Y-111271008D02*
G01*
X61696514Y-111282660D01*
X61684862Y-111271008D01*
X61696514Y-111259357D01*
X61708165Y-111271008D01*
G37*
G36*
X61778073Y-111597247D02*
G01*
X61766422Y-111608898D01*
X61754771Y-111597247D01*
X61766422Y-111585596D01*
X61778073Y-111597247D01*
G37*
G36*
X62034404Y-111876880D02*
G01*
X62022752Y-111888531D01*
X62011101Y-111876880D01*
X62022752Y-111865229D01*
X62034404Y-111876880D01*
G37*
G36*
X62150917Y-111527339D02*
G01*
X62139266Y-111538990D01*
X62127615Y-111527339D01*
X62139266Y-111515687D01*
X62150917Y-111527339D01*
G37*
G36*
X62150917Y-111597247D02*
G01*
X62139266Y-111608898D01*
X62127615Y-111597247D01*
X62139266Y-111585596D01*
X62150917Y-111597247D01*
G37*
G36*
X62150917Y-112086605D02*
G01*
X62139266Y-112098256D01*
X62127615Y-112086605D01*
X62139266Y-112074953D01*
X62150917Y-112086605D01*
G37*
G36*
X57299823Y-111314489D02*
G01*
X57296177Y-111321498D01*
X57268523Y-111324287D01*
X57265107Y-111321498D01*
X57268306Y-111307644D01*
X57280642Y-111305963D01*
X57299823Y-111314489D01*
G37*
G36*
X57486245Y-111454305D02*
G01*
X57482599Y-111461314D01*
X57454945Y-111464103D01*
X57451529Y-111461314D01*
X57454728Y-111447461D01*
X57467064Y-111445779D01*
X57486245Y-111454305D01*
G37*
G36*
X57626062Y-111337791D02*
G01*
X57622416Y-111344800D01*
X57594761Y-111347589D01*
X57591346Y-111344800D01*
X57594544Y-111330947D01*
X57606881Y-111329265D01*
X57626062Y-111337791D01*
G37*
G36*
X57765878Y-111314489D02*
G01*
X57762232Y-111321498D01*
X57734578Y-111324287D01*
X57731162Y-111321498D01*
X57734361Y-111307644D01*
X57746697Y-111305963D01*
X57765878Y-111314489D01*
G37*
G36*
X57835786Y-111197975D02*
G01*
X57832141Y-111204984D01*
X57804486Y-111207773D01*
X57801070Y-111204984D01*
X57804269Y-111191130D01*
X57816606Y-111189449D01*
X57835786Y-111197975D01*
G37*
G36*
X57975603Y-111500911D02*
G01*
X57971957Y-111507920D01*
X57944302Y-111510709D01*
X57940887Y-111507920D01*
X57944086Y-111494066D01*
X57956422Y-111492385D01*
X57975603Y-111500911D01*
G37*
G36*
X58111774Y-111243822D02*
G01*
X58114563Y-111271477D01*
X58111774Y-111274892D01*
X58097920Y-111271693D01*
X58096239Y-111259357D01*
X58104765Y-111240176D01*
X58111774Y-111243822D01*
G37*
G36*
X58115419Y-111617424D02*
G01*
X58111774Y-111624433D01*
X58084119Y-111627222D01*
X58080703Y-111624433D01*
X58083902Y-111610580D01*
X58096239Y-111608898D01*
X58115419Y-111617424D01*
G37*
G36*
X58111774Y-111756482D02*
G01*
X58114563Y-111784137D01*
X58111774Y-111787553D01*
X58097920Y-111784354D01*
X58096239Y-111772018D01*
X58104765Y-111752837D01*
X58111774Y-111756482D01*
G37*
G36*
X58228288Y-111430244D02*
G01*
X58231076Y-111457899D01*
X58228288Y-111461314D01*
X58214434Y-111458115D01*
X58212752Y-111445779D01*
X58221278Y-111426598D01*
X58228288Y-111430244D01*
G37*
G36*
X58301841Y-111267883D02*
G01*
X58298196Y-111274892D01*
X58270541Y-111277681D01*
X58267125Y-111274892D01*
X58270324Y-111261039D01*
X58282661Y-111259357D01*
X58301841Y-111267883D01*
G37*
G36*
X58362347Y-111126882D02*
G01*
X58358395Y-111134973D01*
X58310686Y-111138051D01*
X58300138Y-111134973D01*
X58297210Y-111126468D01*
X58329266Y-111123220D01*
X58362347Y-111126882D01*
G37*
G36*
X58395052Y-111897057D02*
G01*
X58391407Y-111904066D01*
X58363752Y-111906855D01*
X58360336Y-111904066D01*
X58363535Y-111890213D01*
X58375872Y-111888531D01*
X58395052Y-111897057D01*
G37*
G36*
X58414330Y-111266888D02*
G01*
X58403544Y-111275275D01*
X58367124Y-111278053D01*
X58358880Y-111273436D01*
X58365830Y-111262844D01*
X58389465Y-111261197D01*
X58414330Y-111266888D01*
G37*
G36*
X58507541Y-111499915D02*
G01*
X58496755Y-111508303D01*
X58460335Y-111511081D01*
X58452091Y-111506463D01*
X58459041Y-111495872D01*
X58482676Y-111494224D01*
X58507541Y-111499915D01*
G37*
G36*
X58604777Y-111966966D02*
G01*
X58601132Y-111973975D01*
X58573477Y-111976764D01*
X58570061Y-111973975D01*
X58573260Y-111960121D01*
X58585596Y-111958440D01*
X58604777Y-111966966D01*
G37*
G36*
X58624054Y-111896062D02*
G01*
X58613268Y-111904450D01*
X58576849Y-111907228D01*
X58568605Y-111902610D01*
X58575555Y-111892019D01*
X58599190Y-111890371D01*
X58624054Y-111896062D01*
G37*
G36*
X58651383Y-111337791D02*
G01*
X58647737Y-111344800D01*
X58620082Y-111347589D01*
X58616667Y-111344800D01*
X58619865Y-111330947D01*
X58632202Y-111329265D01*
X58651383Y-111337791D01*
G37*
G36*
X58744594Y-111500911D02*
G01*
X58740948Y-111507920D01*
X58713293Y-111510709D01*
X58709878Y-111507920D01*
X58713077Y-111494066D01*
X58725413Y-111492385D01*
X58744594Y-111500911D01*
G37*
G36*
X58810856Y-111243822D02*
G01*
X58813645Y-111271477D01*
X58810856Y-111274892D01*
X58797003Y-111271693D01*
X58795321Y-111259357D01*
X58803847Y-111240176D01*
X58810856Y-111243822D01*
G37*
G36*
X58810856Y-111546758D02*
G01*
X58813645Y-111574413D01*
X58810856Y-111577828D01*
X58797003Y-111574629D01*
X58795321Y-111562293D01*
X58803847Y-111543112D01*
X58810856Y-111546758D01*
G37*
G36*
X58907713Y-111291186D02*
G01*
X58904067Y-111298195D01*
X58876412Y-111300984D01*
X58872997Y-111298195D01*
X58876196Y-111284341D01*
X58888532Y-111282660D01*
X58907713Y-111291186D01*
G37*
G36*
X58954318Y-111710635D02*
G01*
X58950673Y-111717644D01*
X58923018Y-111720433D01*
X58919603Y-111717644D01*
X58922801Y-111703791D01*
X58935138Y-111702109D01*
X58954318Y-111710635D01*
G37*
G36*
X58977621Y-111780544D02*
G01*
X58973976Y-111787553D01*
X58946321Y-111790342D01*
X58942905Y-111787553D01*
X58946104Y-111773699D01*
X58958440Y-111772018D01*
X58977621Y-111780544D01*
G37*
G36*
X59070832Y-111733938D02*
G01*
X59067187Y-111740947D01*
X59039532Y-111743736D01*
X59036116Y-111740947D01*
X59039315Y-111727094D01*
X59051651Y-111725412D01*
X59070832Y-111733938D01*
G37*
G36*
X59140741Y-110638709D02*
G01*
X59137095Y-110645718D01*
X59109440Y-110648507D01*
X59106025Y-110645718D01*
X59109223Y-110631864D01*
X59121560Y-110630183D01*
X59140741Y-110638709D01*
G37*
G36*
X59420374Y-112992287D02*
G01*
X59416728Y-112999296D01*
X59389073Y-113002085D01*
X59385658Y-112999296D01*
X59388856Y-112985442D01*
X59401193Y-112983761D01*
X59420374Y-112992287D01*
G37*
G36*
X59909731Y-110032837D02*
G01*
X59906086Y-110039846D01*
X59878431Y-110042635D01*
X59875015Y-110039846D01*
X59878214Y-110025993D01*
X59890551Y-110024311D01*
X59909731Y-110032837D01*
G37*
G36*
X59906086Y-113061437D02*
G01*
X59908875Y-113089091D01*
X59906086Y-113092507D01*
X59892232Y-113089308D01*
X59890551Y-113076972D01*
X59899077Y-113057791D01*
X59906086Y-113061437D01*
G37*
G36*
X60399089Y-110405681D02*
G01*
X60395443Y-110412690D01*
X60367789Y-110415479D01*
X60364373Y-110412690D01*
X60367572Y-110398837D01*
X60379908Y-110397155D01*
X60399089Y-110405681D01*
G37*
G36*
X60818539Y-113225314D02*
G01*
X60814893Y-113232323D01*
X60787238Y-113235112D01*
X60783823Y-113232323D01*
X60787021Y-113218470D01*
X60799358Y-113216788D01*
X60818539Y-113225314D01*
G37*
G36*
X60935052Y-111710635D02*
G01*
X60931407Y-111717644D01*
X60903752Y-111720433D01*
X60900336Y-111717644D01*
X60903535Y-111703791D01*
X60915872Y-111702109D01*
X60935052Y-111710635D01*
G37*
G36*
X60958355Y-111011553D02*
G01*
X60954710Y-111018562D01*
X60927055Y-111021351D01*
X60923639Y-111018562D01*
X60926838Y-111004708D01*
X60939174Y-111003027D01*
X60958355Y-111011553D01*
G37*
G36*
X61680741Y-112269901D02*
G01*
X61677095Y-112276911D01*
X61649440Y-112279699D01*
X61646025Y-112276911D01*
X61649223Y-112263057D01*
X61661560Y-112261375D01*
X61680741Y-112269901D01*
G37*
G36*
X61816911Y-112991528D02*
G01*
X61819700Y-113019183D01*
X61816911Y-113022599D01*
X61803058Y-113019400D01*
X61801376Y-113007063D01*
X61809902Y-112987883D01*
X61816911Y-112991528D01*
G37*
G36*
X61910122Y-112735198D02*
G01*
X61912911Y-112762853D01*
X61910122Y-112766268D01*
X61896269Y-112763070D01*
X61894587Y-112750733D01*
X61903113Y-112731552D01*
X61910122Y-112735198D01*
G37*
G36*
X62100190Y-111990268D02*
G01*
X62096544Y-111997278D01*
X62068889Y-112000066D01*
X62065474Y-111997278D01*
X62068673Y-111983424D01*
X62081009Y-111981742D01*
X62100190Y-111990268D01*
G37*
G36*
X62123493Y-110731920D02*
G01*
X62119847Y-110738929D01*
X62092192Y-110741718D01*
X62088777Y-110738929D01*
X62091976Y-110725075D01*
X62104312Y-110723394D01*
X62123493Y-110731920D01*
G37*
G36*
X57681053Y-111483368D02*
G01*
X57690505Y-111510388D01*
X57687445Y-111517297D01*
X57668317Y-111537648D01*
X57661392Y-111513671D01*
X57661254Y-111505061D01*
X57671537Y-111481690D01*
X57681053Y-111483368D01*
G37*
G36*
X58197672Y-111184134D02*
G01*
X58205220Y-111220581D01*
X58195200Y-111239625D01*
X58172510Y-111242150D01*
X58159798Y-111214292D01*
X58157516Y-111176296D01*
X58166953Y-111166146D01*
X58197672Y-111184134D01*
G37*
G36*
X58221977Y-111701932D02*
G01*
X58218966Y-111705001D01*
X58188414Y-111723407D01*
X58177182Y-111720912D01*
X58184175Y-111703577D01*
X58205922Y-111691956D01*
X58233146Y-111684861D01*
X58221977Y-111701932D01*
G37*
G36*
X58646409Y-111125980D02*
G01*
X58638546Y-111142134D01*
X58621556Y-111150884D01*
X58588721Y-111156847D01*
X58595094Y-111141193D01*
X58610450Y-111130234D01*
X58640948Y-111123071D01*
X58646409Y-111125980D01*
G37*
G36*
X58818267Y-111648303D02*
G01*
X58801668Y-111685470D01*
X58795321Y-111690458D01*
X58774362Y-111698660D01*
X58782256Y-111676613D01*
X58795321Y-111655504D01*
X58814028Y-111637589D01*
X58818267Y-111648303D01*
G37*
G36*
X58996458Y-112024990D02*
G01*
X58998798Y-112049533D01*
X58988471Y-112081521D01*
X58976906Y-112083615D01*
X58959169Y-112051879D01*
X58978448Y-112018789D01*
X58980333Y-112017568D01*
X58996458Y-112024990D01*
G37*
G36*
X60911076Y-112746193D02*
G01*
X60915872Y-112764326D01*
X60902288Y-112789845D01*
X60874338Y-112785776D01*
X60851304Y-112755102D01*
X60861446Y-112731332D01*
X60878976Y-112727430D01*
X60911076Y-112746193D01*
G37*
G36*
X62098095Y-112060969D02*
G01*
X62101921Y-112084005D01*
X62076156Y-112096155D01*
X62054485Y-112093298D01*
X62036944Y-112080464D01*
X62054579Y-112065235D01*
X62088885Y-112056684D01*
X62098095Y-112060969D01*
G37*
G36*
X57395429Y-111321515D02*
G01*
X57409308Y-111339216D01*
X57432232Y-111380509D01*
X57425818Y-111398106D01*
X57398706Y-111388480D01*
X57377255Y-111354327D01*
X57374594Y-111333716D01*
X57378697Y-111309204D01*
X57395429Y-111321515D01*
G37*
G36*
X57535143Y-111389370D02*
G01*
X57536973Y-111397798D01*
X57520057Y-111421528D01*
X57513670Y-111422476D01*
X57490973Y-111414526D01*
X57490367Y-111412200D01*
X57506696Y-111392305D01*
X57513670Y-111387522D01*
X57535143Y-111389370D01*
G37*
G36*
X57590460Y-111276296D02*
G01*
X57595229Y-111282660D01*
X57589947Y-111302609D01*
X57573302Y-111305963D01*
X57541419Y-111293796D01*
X57536973Y-111282660D01*
X57553698Y-111260024D01*
X57558900Y-111259357D01*
X57590460Y-111276296D01*
G37*
G36*
X57863211Y-111620550D02*
G01*
X57885442Y-111641490D01*
X57886514Y-111645228D01*
X57868485Y-111655237D01*
X57863211Y-111655504D01*
X57840804Y-111637590D01*
X57839908Y-111630826D01*
X57854184Y-111616909D01*
X57863211Y-111620550D01*
G37*
G36*
X57954592Y-111692306D02*
G01*
X57956422Y-111700734D01*
X57939506Y-111724464D01*
X57933119Y-111725412D01*
X57910422Y-111717462D01*
X57909817Y-111715136D01*
X57926146Y-111695241D01*
X57933119Y-111690458D01*
X57954592Y-111692306D01*
G37*
G36*
X58124715Y-111414380D02*
G01*
X58129963Y-111420486D01*
X58127637Y-111450953D01*
X58121532Y-111456200D01*
X58091065Y-111453875D01*
X58085817Y-111447769D01*
X58088143Y-111417303D01*
X58094248Y-111412055D01*
X58124715Y-111414380D01*
G37*
G36*
X58163972Y-111324892D02*
G01*
X58166147Y-111340917D01*
X58155630Y-111371956D01*
X58146728Y-111375871D01*
X58129484Y-111356941D01*
X58127309Y-111340917D01*
X58137825Y-111309877D01*
X58146728Y-111305963D01*
X58163972Y-111324892D01*
G37*
G36*
X58187620Y-111552489D02*
G01*
X58189450Y-111560918D01*
X58172534Y-111584647D01*
X58166147Y-111585596D01*
X58143450Y-111577645D01*
X58142844Y-111575319D01*
X58159173Y-111555424D01*
X58166147Y-111550641D01*
X58187620Y-111552489D01*
G37*
G36*
X58249871Y-111091664D02*
G01*
X58250219Y-111107104D01*
X58237735Y-111145881D01*
X58221681Y-111159706D01*
X58212828Y-111140144D01*
X58212752Y-111136451D01*
X58224368Y-111095910D01*
X58234009Y-111085851D01*
X58249871Y-111091664D01*
G37*
G36*
X58344559Y-111856202D02*
G01*
X58340917Y-111865229D01*
X58319977Y-111887459D01*
X58316239Y-111888531D01*
X58306231Y-111870502D01*
X58305963Y-111865229D01*
X58323877Y-111842821D01*
X58330641Y-111841926D01*
X58344559Y-111856202D01*
G37*
G36*
X58608004Y-111533601D02*
G01*
X58608899Y-111540365D01*
X58594623Y-111554283D01*
X58585596Y-111550641D01*
X58563366Y-111529701D01*
X58562294Y-111525963D01*
X58580323Y-111515954D01*
X58585596Y-111515687D01*
X58608004Y-111533601D01*
G37*
G36*
X58643853Y-111414049D02*
G01*
X58674514Y-111430589D01*
X58678807Y-111436621D01*
X58659779Y-111444767D01*
X58643853Y-111445779D01*
X58612837Y-111433584D01*
X58608899Y-111423208D01*
X58625980Y-111410386D01*
X58643853Y-111414049D01*
G37*
G36*
X58764008Y-111273633D02*
G01*
X58760367Y-111282660D01*
X58739427Y-111304890D01*
X58735689Y-111305963D01*
X58725680Y-111287933D01*
X58725413Y-111282660D01*
X58743327Y-111260252D01*
X58750091Y-111259357D01*
X58764008Y-111273633D01*
G37*
G36*
X58841250Y-111813053D02*
G01*
X58841927Y-111818623D01*
X58824194Y-111841249D01*
X58818624Y-111841926D01*
X58795998Y-111824193D01*
X58795321Y-111818623D01*
X58813054Y-111795997D01*
X58818624Y-111795320D01*
X58841250Y-111813053D01*
G37*
G36*
X58908482Y-111858860D02*
G01*
X58911835Y-111875505D01*
X58899669Y-111907388D01*
X58888532Y-111911834D01*
X58865896Y-111895109D01*
X58865229Y-111889907D01*
X58882168Y-111858347D01*
X58888532Y-111853577D01*
X58908482Y-111858860D01*
G37*
G36*
X58917988Y-112039469D02*
G01*
X58944979Y-112068126D01*
X58943876Y-112102969D01*
X58911135Y-112121276D01*
X58872818Y-112108233D01*
X58856464Y-112085723D01*
X58862111Y-112047871D01*
X58879625Y-112035721D01*
X58917988Y-112039469D01*
G37*
G36*
X58975649Y-111946960D02*
G01*
X58963489Y-111962712D01*
X58933828Y-111980516D01*
X58923875Y-111978247D01*
X58924596Y-111953900D01*
X58927370Y-111950672D01*
X58963244Y-111935308D01*
X58966985Y-111935137D01*
X58975649Y-111946960D01*
G37*
G36*
X59005046Y-111340917D02*
G01*
X59027276Y-111361857D01*
X59028349Y-111365595D01*
X59010320Y-111375604D01*
X59005046Y-111375871D01*
X58982639Y-111357957D01*
X58981743Y-111351193D01*
X58996019Y-111337276D01*
X59005046Y-111340917D01*
G37*
G36*
X59066229Y-111617752D02*
G01*
X59074954Y-111630019D01*
X59056396Y-111642006D01*
X59028349Y-111638953D01*
X58990702Y-111625425D01*
X58981743Y-111617832D01*
X59001353Y-111610561D01*
X59028349Y-111608898D01*
X59066229Y-111617752D01*
G37*
G36*
X61575230Y-111346204D02*
G01*
X61580000Y-111352568D01*
X61574717Y-111372518D01*
X61558073Y-111375871D01*
X61526189Y-111363704D01*
X61521743Y-111352568D01*
X61538468Y-111329932D01*
X61543671Y-111329265D01*
X61575230Y-111346204D01*
G37*
G36*
X61986903Y-111393785D02*
G01*
X61987798Y-111400549D01*
X61973522Y-111414466D01*
X61964495Y-111410825D01*
X61942265Y-111389885D01*
X61941193Y-111386147D01*
X61959222Y-111376138D01*
X61964495Y-111375871D01*
X61986903Y-111393785D01*
G37*
G36*
X61972063Y-110750706D02*
G01*
X61976142Y-110755955D01*
X61996578Y-110799247D01*
X61994683Y-110824317D01*
X61976312Y-110826777D01*
X61962114Y-110803407D01*
X61945310Y-110749622D01*
X61948996Y-110730803D01*
X61972063Y-110750706D01*
G37*
G36*
X57704491Y-111247434D02*
G01*
X57735046Y-111259357D01*
X57767014Y-111274821D01*
X57754653Y-111279990D01*
X57730596Y-111281022D01*
X57683670Y-111272846D01*
X57665138Y-111259357D01*
X57663540Y-111238809D01*
X57669588Y-111237692D01*
X57704491Y-111247434D01*
G37*
G36*
X57889752Y-111551612D02*
G01*
X57909817Y-111562419D01*
X57925074Y-111577849D01*
X57899915Y-111581402D01*
X57880688Y-111580283D01*
X57836803Y-111570188D01*
X57815491Y-111554114D01*
X57824772Y-111541454D01*
X57845734Y-111539347D01*
X57889752Y-111551612D01*
G37*
G36*
X58813155Y-111017363D02*
G01*
X58847807Y-111044871D01*
X58880554Y-111059030D01*
X58925128Y-111083434D01*
X58945458Y-111113778D01*
X58936684Y-111137283D01*
X58912425Y-111142843D01*
X58867655Y-111124101D01*
X58823672Y-111080272D01*
X58797505Y-111029957D01*
X58795678Y-111015319D01*
X58804363Y-111006799D01*
X58813155Y-111017363D01*
G37*
G36*
X59142091Y-111336303D02*
G01*
X59136222Y-111370562D01*
X59123161Y-111416802D01*
X59107260Y-111459105D01*
X59095637Y-111479180D01*
X59071130Y-111495476D01*
X59064908Y-111477333D01*
X59077844Y-111433542D01*
X59088799Y-111410387D01*
X59116638Y-111359884D01*
X59135804Y-111330593D01*
X59136421Y-111329939D01*
X59142091Y-111336303D01*
G37*
G36*
X56001143Y-110836769D02*
G01*
X56045743Y-110877764D01*
X56068177Y-110936533D01*
X56068899Y-110949937D01*
X56049611Y-110994603D01*
X56002479Y-111021330D01*
X55943605Y-111027704D01*
X55889088Y-111011312D01*
X55859994Y-110981256D01*
X55842290Y-110946397D01*
X55840445Y-110921544D01*
X55854440Y-110882552D01*
X55859901Y-110869036D01*
X55895667Y-110827545D01*
X55946933Y-110818410D01*
X56001143Y-110836769D01*
G37*
G36*
X58918348Y-111416407D02*
G01*
X58924468Y-111424065D01*
X58956271Y-111439283D01*
X58972988Y-111436241D01*
X58994086Y-111434224D01*
X58985855Y-111461190D01*
X58981463Y-111469606D01*
X58952428Y-111506241D01*
X58932943Y-111515687D01*
X58920232Y-111501163D01*
X58924445Y-111490834D01*
X58920425Y-111459530D01*
X58896691Y-111433318D01*
X58873812Y-111408597D01*
X58881331Y-111399915D01*
X58918348Y-111416407D01*
G37*
G36*
X58177798Y-110994600D02*
G01*
X58209740Y-111018426D01*
X58196645Y-111048816D01*
X58138112Y-111086678D01*
X58137018Y-111087239D01*
X58083619Y-111117782D01*
X58051098Y-111142258D01*
X58049018Y-111144865D01*
X58022048Y-111151398D01*
X58005865Y-111144597D01*
X57992112Y-111124427D01*
X58016400Y-111096877D01*
X58029142Y-111087570D01*
X58079102Y-111059461D01*
X58113075Y-111049632D01*
X58139587Y-111030927D01*
X58142844Y-111015409D01*
X58158284Y-110991900D01*
X58177798Y-110994600D01*
G37*
G36*
X58804992Y-112082719D02*
G01*
X58819913Y-112100665D01*
X58829110Y-112132307D01*
X58801668Y-112138884D01*
X58796982Y-112138580D01*
X58765285Y-112128205D01*
X58763357Y-112116722D01*
X58755257Y-112100817D01*
X58738440Y-112098256D01*
X58709848Y-112111881D01*
X58707936Y-112125242D01*
X58693224Y-112144035D01*
X58651199Y-112153245D01*
X58600225Y-112152532D01*
X58558667Y-112141558D01*
X58545219Y-112128244D01*
X58553751Y-112109907D01*
X58632202Y-112109907D01*
X58643853Y-112121559D01*
X58655505Y-112109907D01*
X58643853Y-112098256D01*
X58632202Y-112109907D01*
X58553751Y-112109907D01*
X58557088Y-112102735D01*
X58589767Y-112088727D01*
X58643853Y-112079345D01*
X58694954Y-112070481D01*
X58764087Y-112068343D01*
X58804992Y-112082719D01*
G37*
G36*
X58485834Y-110884440D02*
G01*
X58555360Y-110907123D01*
X58558883Y-110908325D01*
X58641819Y-110942817D01*
X58708433Y-110981850D01*
X58750850Y-111019328D01*
X58761195Y-111049154D01*
X58753024Y-111058621D01*
X58723738Y-111052632D01*
X58677840Y-111020336D01*
X58657462Y-111001399D01*
X58614641Y-110963014D01*
X58588923Y-110948522D01*
X58585596Y-110951912D01*
X58565684Y-110972531D01*
X58527340Y-110985427D01*
X58480104Y-110984432D01*
X58469083Y-110964841D01*
X58455418Y-110936164D01*
X58429472Y-110940579D01*
X58417428Y-110959917D01*
X58392183Y-110976478D01*
X58374706Y-110973408D01*
X58358094Y-110961299D01*
X58366485Y-110958261D01*
X58395884Y-110938000D01*
X58413090Y-110911088D01*
X58427219Y-110886185D01*
X58447294Y-110877381D01*
X58485834Y-110884440D01*
G37*
G36*
X58284178Y-111931615D02*
G01*
X58284933Y-111985372D01*
X58283687Y-112007878D01*
X58289895Y-112054728D01*
X58325426Y-112076980D01*
X58344858Y-112081410D01*
X58387956Y-112088141D01*
X58389968Y-112080471D01*
X58365149Y-112061099D01*
X58335090Y-112036644D01*
X58342746Y-112028907D01*
X58362260Y-112028348D01*
X58392495Y-112015719D01*
X58390747Y-111993394D01*
X58390263Y-111963388D01*
X58399906Y-111958440D01*
X58419318Y-111978390D01*
X58427442Y-112025744D01*
X58425237Y-112057476D01*
X58441463Y-112072927D01*
X58457431Y-112074953D01*
X58489418Y-112084597D01*
X58485230Y-112105774D01*
X58449132Y-112126854D01*
X58437102Y-112130382D01*
X58388093Y-112130693D01*
X58330664Y-112115825D01*
X58279587Y-112092101D01*
X58249636Y-112065840D01*
X58248837Y-112049822D01*
X58240738Y-112032886D01*
X58214128Y-112028348D01*
X58175069Y-112013474D01*
X58166147Y-111977288D01*
X58168156Y-111941806D01*
X58180843Y-111947080D01*
X58199495Y-111971463D01*
X58224916Y-112001142D01*
X58240930Y-111993134D01*
X58256275Y-111958440D01*
X58274752Y-111922866D01*
X58284178Y-111931615D01*
G37*
G36*
X61863813Y-110731682D02*
G01*
X61866679Y-110734324D01*
X61875114Y-110764926D01*
X61882695Y-110833229D01*
X61889193Y-110930333D01*
X61894378Y-111047338D01*
X61898020Y-111175344D01*
X61899890Y-111305450D01*
X61899757Y-111428757D01*
X61897391Y-111536364D01*
X61892564Y-111619372D01*
X61890119Y-111641978D01*
X61876934Y-111749246D01*
X61864545Y-111860168D01*
X61857097Y-111935137D01*
X61837320Y-112079511D01*
X61802220Y-112254115D01*
X61754443Y-112446177D01*
X61741117Y-112494403D01*
X61720233Y-112568550D01*
X61704353Y-112625017D01*
X61698509Y-112645871D01*
X61685553Y-112682873D01*
X61665140Y-112734773D01*
X61645936Y-112787351D01*
X61638257Y-112819305D01*
X61622379Y-112848326D01*
X61603303Y-112867247D01*
X61576647Y-112878633D01*
X61570959Y-112854374D01*
X61585400Y-112800014D01*
X61619130Y-112721098D01*
X61628242Y-112702607D01*
X61666312Y-112598846D01*
X61691458Y-112472488D01*
X61695520Y-112434626D01*
X61703822Y-112348154D01*
X61712291Y-112277420D01*
X61719023Y-112238073D01*
X61729174Y-112191796D01*
X61740674Y-112126647D01*
X61741476Y-112121559D01*
X61760898Y-112006339D01*
X61777487Y-111926649D01*
X61790076Y-111887963D01*
X61797937Y-111854171D01*
X61805640Y-111783812D01*
X61812905Y-111685321D01*
X61819454Y-111567133D01*
X61825007Y-111437685D01*
X61829285Y-111305412D01*
X61832007Y-111178749D01*
X61832896Y-111066133D01*
X61831670Y-110975998D01*
X61828052Y-110916781D01*
X61822894Y-110897061D01*
X61812108Y-110869912D01*
X61806516Y-110817841D01*
X61813996Y-110760080D01*
X61835483Y-110728044D01*
X61863813Y-110731682D01*
G37*
G36*
X60055844Y-110573847D02*
G01*
X60071610Y-110598552D01*
X60084095Y-110641199D01*
X60098055Y-110717140D01*
X60111579Y-110813187D01*
X60122756Y-110916151D01*
X60128533Y-110991375D01*
X60127319Y-111037957D01*
X60121407Y-111119576D01*
X60111905Y-111225026D01*
X60099920Y-111343103D01*
X60086562Y-111462601D01*
X60072938Y-111572315D01*
X60066295Y-111620550D01*
X60043603Y-111757896D01*
X60014421Y-111904949D01*
X59981613Y-112049547D01*
X59948042Y-112179532D01*
X59916572Y-112282743D01*
X59900109Y-112326249D01*
X59877554Y-112390967D01*
X59867305Y-112444452D01*
X59867248Y-112447213D01*
X59855581Y-112492026D01*
X59842356Y-112507036D01*
X59826865Y-112538908D01*
X59829687Y-112554271D01*
X59828081Y-112590735D01*
X59819625Y-112599894D01*
X59801863Y-112631730D01*
X59797340Y-112666095D01*
X59787012Y-112719755D01*
X59762300Y-112765621D01*
X59732609Y-112790854D01*
X59709734Y-112785687D01*
X59706195Y-112750834D01*
X59722754Y-112684671D01*
X59742925Y-112630410D01*
X59775463Y-112541569D01*
X59801304Y-112454393D01*
X59811132Y-112409034D01*
X59825214Y-112341209D01*
X59841546Y-112289812D01*
X59844229Y-112284216D01*
X59857636Y-112245571D01*
X59876249Y-112174801D01*
X59896546Y-112085566D01*
X59901293Y-112062840D01*
X59924519Y-111953484D01*
X59949436Y-111842178D01*
X59970829Y-111752187D01*
X59971700Y-111748715D01*
X59997664Y-111620344D01*
X60019048Y-111465891D01*
X60035114Y-111297523D01*
X60045125Y-111127406D01*
X60048344Y-110967707D01*
X60044034Y-110830592D01*
X60033053Y-110736270D01*
X60022269Y-110653604D01*
X60023629Y-110594847D01*
X60035399Y-110566196D01*
X60055844Y-110573847D01*
G37*
G36*
X58408622Y-111569846D02*
G01*
X58421582Y-111580207D01*
X58422477Y-111586971D01*
X58436782Y-111600826D01*
X58445988Y-111597118D01*
X58484679Y-111592335D01*
X58521722Y-111599854D01*
X58573945Y-111617121D01*
X58515688Y-111635621D01*
X58486700Y-111646685D01*
X58497968Y-111650135D01*
X58527340Y-111648600D01*
X58547191Y-111647563D01*
X58601493Y-111645779D01*
X58615494Y-111653053D01*
X58600433Y-111667708D01*
X58578611Y-111699052D01*
X58584615Y-111715737D01*
X58596034Y-111752548D01*
X58593265Y-111798392D01*
X58575014Y-111843014D01*
X58540939Y-111849163D01*
X58538926Y-111848661D01*
X58499370Y-111855633D01*
X58486817Y-111880544D01*
X58477060Y-111904028D01*
X58461900Y-111890014D01*
X58445997Y-111859403D01*
X58415046Y-111814011D01*
X58384602Y-111795320D01*
X58350844Y-111775977D01*
X58340092Y-111760366D01*
X58422477Y-111760366D01*
X58434129Y-111772018D01*
X58445780Y-111760366D01*
X58434129Y-111748715D01*
X58422477Y-111760366D01*
X58340092Y-111760366D01*
X58320093Y-111731328D01*
X58315126Y-111713761D01*
X58515688Y-111713761D01*
X58527340Y-111725412D01*
X58538991Y-111713761D01*
X58527340Y-111702109D01*
X58515688Y-111713761D01*
X58315126Y-111713761D01*
X58305988Y-111681445D01*
X58305982Y-111680988D01*
X58399174Y-111680988D01*
X58418711Y-111698155D01*
X58434129Y-111700407D01*
X58445780Y-111702109D01*
X58483713Y-111698350D01*
X58492385Y-111693176D01*
X58473172Y-111680935D01*
X58445780Y-111672055D01*
X58408622Y-111670748D01*
X58399174Y-111680988D01*
X58305982Y-111680988D01*
X58305963Y-111679607D01*
X58324620Y-111649850D01*
X58340917Y-111640628D01*
X58371887Y-111611288D01*
X58375872Y-111594754D01*
X58389288Y-111565378D01*
X58399174Y-111562293D01*
X58408622Y-111569846D01*
G37*
G36*
X61067773Y-110673786D02*
G01*
X61093607Y-110725098D01*
X61119284Y-110793036D01*
X61139455Y-110863216D01*
X61148765Y-110921252D01*
X61148899Y-110927011D01*
X61159508Y-110975484D01*
X61170238Y-110992541D01*
X61184927Y-111027679D01*
X61196083Y-111085741D01*
X61199978Y-111143044D01*
X61197557Y-111166146D01*
X61196022Y-111192328D01*
X61193716Y-111256691D01*
X61190901Y-111350819D01*
X61187837Y-111466299D01*
X61186343Y-111527339D01*
X61182244Y-111661312D01*
X61176713Y-111788825D01*
X61170387Y-111897824D01*
X61163898Y-111976257D01*
X61161826Y-111993394D01*
X61147866Y-112064411D01*
X61124035Y-112157302D01*
X61093941Y-112260716D01*
X61061192Y-112363309D01*
X61029395Y-112453730D01*
X61002158Y-112520634D01*
X60984395Y-112551495D01*
X60964822Y-112592816D01*
X60962477Y-112612724D01*
X60945623Y-112658469D01*
X60923160Y-112683797D01*
X60895143Y-112703274D01*
X60894425Y-112688318D01*
X60899417Y-112674241D01*
X60913519Y-112632236D01*
X60936139Y-112560330D01*
X60962628Y-112473331D01*
X60965268Y-112464517D01*
X60992150Y-112379713D01*
X61016569Y-112311539D01*
X61033732Y-112273254D01*
X61035166Y-112271182D01*
X61049296Y-112232804D01*
X61065054Y-112157111D01*
X61081456Y-112053317D01*
X61097520Y-111930641D01*
X61112262Y-111798297D01*
X61124699Y-111665502D01*
X61133849Y-111541474D01*
X61138728Y-111435426D01*
X61138353Y-111356578D01*
X61135672Y-111328864D01*
X61124810Y-111255701D01*
X61117998Y-111197031D01*
X61117093Y-111183623D01*
X61108729Y-111148966D01*
X61100644Y-111142843D01*
X61092288Y-111165149D01*
X61082357Y-111228178D01*
X61071453Y-111326099D01*
X61060176Y-111453082D01*
X61049130Y-111603295D01*
X61042824Y-111702817D01*
X61034103Y-111788066D01*
X61020331Y-111863580D01*
X61011500Y-111893824D01*
X60997724Y-111945171D01*
X60981623Y-112027768D01*
X60966026Y-112126546D01*
X60961346Y-112161097D01*
X60947962Y-112257444D01*
X60935029Y-112338396D01*
X60924673Y-112391051D01*
X60921770Y-112401192D01*
X60908021Y-112446641D01*
X60905512Y-112459449D01*
X60893655Y-112514843D01*
X60872811Y-112589867D01*
X60848887Y-112665146D01*
X60827791Y-112721308D01*
X60822125Y-112732940D01*
X60801682Y-112777271D01*
X60810761Y-112794938D01*
X60834312Y-112797339D01*
X60863042Y-112809853D01*
X60862365Y-112849884D01*
X60831996Y-112921168D01*
X60823596Y-112937155D01*
X60779879Y-113018715D01*
X60754664Y-112953115D01*
X60734019Y-112887108D01*
X60735211Y-112834475D01*
X60759307Y-112769729D01*
X60762659Y-112762385D01*
X60795173Y-112675485D01*
X60826916Y-112563688D01*
X60852045Y-112448423D01*
X60857955Y-112412843D01*
X60878587Y-112276416D01*
X60901502Y-112126899D01*
X60924511Y-111978406D01*
X60945426Y-111845052D01*
X60962055Y-111740952D01*
X60964588Y-111725412D01*
X60986375Y-111588888D01*
X61001678Y-111479978D01*
X61011630Y-111384233D01*
X61017361Y-111287206D01*
X61020002Y-111174446D01*
X61020685Y-111031507D01*
X61020689Y-111008852D01*
X61021972Y-110857914D01*
X61026010Y-110750599D01*
X61033020Y-110683997D01*
X61043218Y-110655195D01*
X61047135Y-110653485D01*
X61067773Y-110673786D01*
G37*
G36*
X59322269Y-110431895D02*
G01*
X59331284Y-110444990D01*
X59358512Y-110484541D01*
X59377230Y-110516737D01*
X59391073Y-110549372D01*
X59400774Y-110589774D01*
X59407067Y-110645271D01*
X59410684Y-110723191D01*
X59412361Y-110830863D01*
X59412829Y-110975614D01*
X59412844Y-111027339D01*
X59413432Y-111190441D01*
X59415513Y-111313524D01*
X59419565Y-111403165D01*
X59419816Y-111405588D01*
X59426067Y-111465937D01*
X59435497Y-111508417D01*
X59448332Y-111537180D01*
X59450108Y-111539999D01*
X59480345Y-111603476D01*
X59502464Y-111678677D01*
X59503129Y-111682144D01*
X59508048Y-111747013D01*
X59488480Y-111799096D01*
X59457967Y-111839438D01*
X59412316Y-111885377D01*
X59373905Y-111910333D01*
X59366447Y-111911834D01*
X59352239Y-111914677D01*
X59338343Y-111927791D01*
X59321443Y-111958057D01*
X59298222Y-112012354D01*
X59265363Y-112097563D01*
X59226011Y-112203118D01*
X59192809Y-112292568D01*
X59161168Y-112377597D01*
X59143660Y-112424495D01*
X59112445Y-112494174D01*
X59068746Y-112576256D01*
X59048174Y-112610917D01*
X58999019Y-112692368D01*
X58951166Y-112774899D01*
X58935403Y-112803164D01*
X58901093Y-112856963D01*
X58872025Y-112887742D01*
X58864756Y-112890550D01*
X58848422Y-112870169D01*
X58845975Y-112816774D01*
X58857888Y-112741984D01*
X58858580Y-112739082D01*
X58875990Y-112684045D01*
X58900124Y-112622568D01*
X58912732Y-112587614D01*
X58984573Y-112587614D01*
X58993829Y-112585736D01*
X59017231Y-112548874D01*
X59050067Y-112484667D01*
X59056473Y-112471100D01*
X59092126Y-112393135D01*
X59119206Y-112330916D01*
X59132167Y-112297210D01*
X59132384Y-112296329D01*
X59141305Y-112257798D01*
X59152870Y-112208944D01*
X59174556Y-112115180D01*
X59184993Y-112059812D01*
X59184733Y-112036152D01*
X59174327Y-112037508D01*
X59166425Y-112044554D01*
X59139540Y-112087180D01*
X59108749Y-112158740D01*
X59079841Y-112242583D01*
X59058607Y-112322057D01*
X59050826Y-112376995D01*
X59038325Y-112442944D01*
X59016697Y-112494403D01*
X58992383Y-112549196D01*
X58984573Y-112587614D01*
X58912732Y-112587614D01*
X58931921Y-112534413D01*
X58967416Y-112410386D01*
X58995511Y-112296329D01*
X59009402Y-112223242D01*
X59022678Y-112131972D01*
X59033401Y-112039036D01*
X59039638Y-111960952D01*
X59039819Y-111928693D01*
X59161953Y-111928693D01*
X59164575Y-111966484D01*
X59179011Y-111971312D01*
X59184733Y-111963816D01*
X59196963Y-111947793D01*
X59219425Y-111890564D01*
X59227015Y-111857416D01*
X59227703Y-111853288D01*
X59336119Y-111853288D01*
X59353207Y-111854913D01*
X59383743Y-111836074D01*
X59423639Y-111791569D01*
X59434266Y-111722720D01*
X59434226Y-111720828D01*
X59428266Y-111658124D01*
X59416390Y-111614773D01*
X59415373Y-111612991D01*
X59410004Y-111570060D01*
X59415205Y-111556467D01*
X59419816Y-111540450D01*
X59410924Y-111546588D01*
X59392251Y-111581482D01*
X59370958Y-111646403D01*
X59351470Y-111725303D01*
X59338213Y-111802141D01*
X59336721Y-111815622D01*
X59336119Y-111853288D01*
X59227703Y-111853288D01*
X59236532Y-111800335D01*
X59249552Y-111727869D01*
X59251096Y-111719586D01*
X59257147Y-111655682D01*
X59243397Y-111632366D01*
X59241122Y-111632201D01*
X59215361Y-111650708D01*
X59212829Y-111661329D01*
X59199279Y-111752747D01*
X59173239Y-111865229D01*
X59161953Y-111928693D01*
X59039819Y-111928693D01*
X59039881Y-111917660D01*
X59042772Y-111876886D01*
X59053185Y-111865229D01*
X59067129Y-111844365D01*
X59084446Y-111790273D01*
X59097945Y-111731238D01*
X59116625Y-111643206D01*
X59136024Y-111562490D01*
X59141420Y-111543013D01*
X59242781Y-111543013D01*
X59242914Y-111590397D01*
X59261376Y-111608898D01*
X59275964Y-111588339D01*
X59282952Y-111537353D01*
X59283041Y-111521513D01*
X59280142Y-111469682D01*
X59272676Y-111460003D01*
X59261376Y-111480733D01*
X59242781Y-111543013D01*
X59141420Y-111543013D01*
X59146221Y-111525684D01*
X59166702Y-111421036D01*
X59157718Y-111342775D01*
X59120667Y-111295370D01*
X59070294Y-111282660D01*
X59042670Y-111271008D01*
X59289648Y-111271008D01*
X59290844Y-111345794D01*
X59297180Y-111375150D01*
X59306457Y-111364219D01*
X59317922Y-111318046D01*
X59327454Y-111248627D01*
X59334255Y-111169247D01*
X59337529Y-111093192D01*
X59336481Y-111033747D01*
X59330313Y-111004198D01*
X59328111Y-111003027D01*
X59311180Y-111025834D01*
X59298834Y-111092657D01*
X59291414Y-111201100D01*
X59289648Y-111271008D01*
X59042670Y-111271008D01*
X59035114Y-111267821D01*
X59028349Y-111250199D01*
X59009402Y-111215082D01*
X58989498Y-111202829D01*
X58964264Y-111184280D01*
X58979105Y-111159556D01*
X59006759Y-111146509D01*
X59038209Y-111170364D01*
X59047084Y-111181141D01*
X59095645Y-111225030D01*
X59136332Y-111245936D01*
X59177462Y-111247233D01*
X59197972Y-111211649D01*
X59198988Y-111207638D01*
X59211122Y-111138528D01*
X59223690Y-111034145D01*
X59235374Y-110909816D01*
X59307982Y-110909816D01*
X59314732Y-110958901D01*
X59328111Y-110976027D01*
X59330995Y-110979719D01*
X59331284Y-110979724D01*
X59347646Y-110959475D01*
X59354585Y-110910685D01*
X59354587Y-110909816D01*
X59347837Y-110860731D01*
X59331574Y-110839913D01*
X59331284Y-110839907D01*
X59314923Y-110860157D01*
X59307984Y-110908946D01*
X59307982Y-110909816D01*
X59235374Y-110909816D01*
X59235752Y-110905799D01*
X59241122Y-110834504D01*
X59246372Y-110764802D01*
X59254612Y-110622465D01*
X59259533Y-110490100D01*
X59259906Y-110472889D01*
X59267527Y-110415586D01*
X59272676Y-110412137D01*
X59287984Y-110401883D01*
X59322269Y-110431895D01*
G37*
G36*
X51713263Y-108483652D02*
G01*
X51857953Y-108485021D01*
X51914055Y-108485552D01*
X52079683Y-108488225D01*
X52215865Y-108492139D01*
X52328323Y-108497762D01*
X52422776Y-108505563D01*
X52504944Y-108516010D01*
X52580548Y-108529572D01*
X52655308Y-108546717D01*
X52734943Y-108567913D01*
X52821620Y-108592604D01*
X53049609Y-108666674D01*
X53268503Y-108756028D01*
X53487457Y-108865361D01*
X53715626Y-108999368D01*
X53962163Y-109162744D01*
X54040335Y-109217660D01*
X54149013Y-109291176D01*
X54264818Y-109363489D01*
X54371038Y-109424422D01*
X54426958Y-109453075D01*
X54548930Y-109504428D01*
X54684329Y-109550859D01*
X54820181Y-109588853D01*
X54943512Y-109614898D01*
X55041350Y-109625481D01*
X55062480Y-109625190D01*
X55157023Y-109625434D01*
X55214756Y-109643253D01*
X55244179Y-109685310D01*
X55253790Y-109758267D01*
X55254073Y-109775377D01*
X55254844Y-109896146D01*
X55389663Y-109956966D01*
X55524482Y-110017785D01*
X55638071Y-109960058D01*
X55705214Y-109929515D01*
X55765967Y-109913569D01*
X55823792Y-109910124D01*
X55838534Y-109909246D01*
X55927757Y-109912763D01*
X56104472Y-109937847D01*
X56254431Y-109993428D01*
X56389894Y-110084516D01*
X56426144Y-110116371D01*
X56529537Y-110231619D01*
X56588387Y-110346931D01*
X56604862Y-110452716D01*
X56608392Y-110501623D01*
X56625742Y-110535379D01*
X56667056Y-110566019D01*
X56727202Y-110597905D01*
X56817042Y-110647114D01*
X56908154Y-110702967D01*
X56947373Y-110729547D01*
X57045205Y-110799472D01*
X57118106Y-110738130D01*
X57195473Y-110687773D01*
X57210734Y-110685951D01*
X57261060Y-110679942D01*
X57266498Y-110683320D01*
X57318952Y-110715901D01*
X57373235Y-110796910D01*
X57384927Y-110820540D01*
X57440009Y-110906210D01*
X57512314Y-110956621D01*
X57612133Y-110977772D01*
X57657524Y-110979380D01*
X57733636Y-110971935D01*
X57799205Y-110945378D01*
X57860011Y-110894165D01*
X57921835Y-110812751D01*
X57990455Y-110695591D01*
X58028077Y-110623911D01*
X58100700Y-110485905D01*
X58161088Y-110382268D01*
X58215764Y-110304706D01*
X58271249Y-110244923D01*
X58334066Y-110194624D01*
X58398330Y-110152989D01*
X58541763Y-110083246D01*
X58715104Y-110031494D01*
X58924566Y-109996038D01*
X59005046Y-109987400D01*
X59159266Y-109961251D01*
X59327127Y-109913030D01*
X59382837Y-109892763D01*
X59483993Y-109857521D01*
X59579802Y-109830532D01*
X59654612Y-109815984D01*
X59675020Y-109814586D01*
X59716326Y-109816324D01*
X59756347Y-109823931D01*
X59803642Y-109840995D01*
X59866767Y-109871105D01*
X59954282Y-109917851D01*
X60056211Y-109974449D01*
X60113237Y-110004179D01*
X60168763Y-110026499D01*
X60233010Y-110043766D01*
X60316195Y-110058338D01*
X60428540Y-110072570D01*
X60528910Y-110083479D01*
X60870901Y-110119402D01*
X61009875Y-110057034D01*
X61092509Y-110024579D01*
X61168039Y-110008337D01*
X61248295Y-110008652D01*
X61345106Y-110025869D01*
X61470302Y-110060331D01*
X61506809Y-110071492D01*
X61615787Y-110112075D01*
X61698473Y-110161900D01*
X61764115Y-110221255D01*
X61824763Y-110278913D01*
X61877673Y-110311792D01*
X61943015Y-110329641D01*
X62006252Y-110338335D01*
X62085171Y-110348606D01*
X62128445Y-110360426D01*
X62146776Y-110380237D01*
X62150866Y-110414479D01*
X62150917Y-110425392D01*
X62148792Y-110468017D01*
X62134120Y-110486310D01*
X62094452Y-110486711D01*
X62045653Y-110479873D01*
X61931162Y-110453494D01*
X61828083Y-110413039D01*
X61748024Y-110364196D01*
X61702597Y-110312655D01*
X61702065Y-110311513D01*
X61657480Y-110260150D01*
X61577374Y-110210910D01*
X61472753Y-110168611D01*
X61354624Y-110138067D01*
X61281026Y-110127304D01*
X61191804Y-110121691D01*
X61124776Y-110129362D01*
X61056427Y-110154502D01*
X61014974Y-110174645D01*
X60955332Y-110203131D01*
X60904964Y-110220213D01*
X60850122Y-110227701D01*
X60777062Y-110227407D01*
X60672037Y-110221140D01*
X60665433Y-110220684D01*
X60550153Y-110213152D01*
X60436684Y-110206500D01*
X60343569Y-110201790D01*
X60315645Y-110200668D01*
X60240678Y-110193217D01*
X60183522Y-110178866D01*
X60165343Y-110168608D01*
X60119976Y-110143699D01*
X60100924Y-110140825D01*
X60062025Y-110126784D01*
X60005832Y-110091265D01*
X59978668Y-110070249D01*
X59856861Y-109991187D01*
X59725067Y-109941972D01*
X59593763Y-109924340D01*
X59473426Y-109940027D01*
X59397719Y-109974030D01*
X59298919Y-110032504D01*
X59210926Y-110075822D01*
X59143130Y-110099854D01*
X59107412Y-110101689D01*
X59061332Y-110101972D01*
X59049000Y-110107509D01*
X59013829Y-110115851D01*
X58944963Y-110122768D01*
X58855315Y-110127097D01*
X58824657Y-110127741D01*
X58725766Y-110130577D01*
X58662220Y-110137331D01*
X58622778Y-110150543D01*
X58596200Y-110172753D01*
X58589571Y-110180882D01*
X58537458Y-110224230D01*
X58483465Y-110247578D01*
X58419821Y-110279520D01*
X58342042Y-110343005D01*
X58258584Y-110428813D01*
X58177902Y-110527724D01*
X58108454Y-110630516D01*
X58073648Y-110694414D01*
X58013459Y-110817826D01*
X57968899Y-110905767D01*
X57935872Y-110964988D01*
X57910281Y-111002243D01*
X57888030Y-111024284D01*
X57865414Y-111037681D01*
X57822765Y-111067059D01*
X57822832Y-111089806D01*
X57861736Y-111100166D01*
X57905797Y-111097562D01*
X57936205Y-111113180D01*
X57948274Y-111137506D01*
X57976942Y-111178611D01*
X58022202Y-111208438D01*
X58060515Y-111225752D01*
X58059668Y-111230556D01*
X58016501Y-111225366D01*
X58003340Y-111223470D01*
X57939794Y-111207463D01*
X57894944Y-111184413D01*
X57892849Y-111182468D01*
X57859282Y-111168056D01*
X57806608Y-111162074D01*
X57750274Y-111163805D01*
X57705724Y-111172532D01*
X57688404Y-111187539D01*
X57689945Y-111191884D01*
X57685698Y-111211534D01*
X57678164Y-111212752D01*
X57656279Y-111193899D01*
X57653486Y-111177797D01*
X57634775Y-111147078D01*
X57617801Y-111142843D01*
X57578919Y-111161696D01*
X57568702Y-111177797D01*
X57543692Y-111205225D01*
X57510787Y-111212045D01*
X57490937Y-111195141D01*
X57490367Y-111189449D01*
X57508800Y-111167557D01*
X57519495Y-111165789D01*
X57531626Y-111157733D01*
X57513670Y-111142843D01*
X57467328Y-111121548D01*
X57445803Y-111136932D01*
X57442539Y-111160320D01*
X57437662Y-111183670D01*
X57420510Y-111170253D01*
X57404743Y-111148669D01*
X57364667Y-111109642D01*
X57330231Y-111096595D01*
X57307617Y-111102346D01*
X57320493Y-111114872D01*
X57330940Y-111136036D01*
X57300979Y-111162590D01*
X57267066Y-111180313D01*
X57262344Y-111166001D01*
X57268525Y-111144313D01*
X57271397Y-111105747D01*
X57259078Y-111096238D01*
X57243983Y-111116767D01*
X57237517Y-111167740D01*
X57237714Y-111183623D01*
X57235494Y-111257133D01*
X57225607Y-111319129D01*
X57224325Y-111323440D01*
X57219261Y-111364261D01*
X57243819Y-111375870D01*
X57244118Y-111375871D01*
X57276123Y-111387980D01*
X57280642Y-111399174D01*
X57261768Y-111419847D01*
X57245688Y-111422476D01*
X57214452Y-111434306D01*
X57216616Y-111457078D01*
X57249931Y-111471719D01*
X57251514Y-111471841D01*
X57298573Y-111472173D01*
X57313423Y-111470624D01*
X57349509Y-111473673D01*
X57412786Y-111486265D01*
X57485935Y-111504126D01*
X57551638Y-111522982D01*
X57592574Y-111538561D01*
X57595229Y-111540160D01*
X57634246Y-111557132D01*
X57680286Y-111570591D01*
X57739373Y-111606526D01*
X57767369Y-111657973D01*
X57795975Y-111710437D01*
X57826251Y-111717755D01*
X57867520Y-111722502D01*
X57887663Y-111738449D01*
X57933543Y-111767237D01*
X57960651Y-111772018D01*
X57991035Y-111781464D01*
X57991376Y-111795320D01*
X57998511Y-111813662D01*
X58024955Y-111818623D01*
X58064782Y-111833851D01*
X58072936Y-111856070D01*
X58087370Y-111882646D01*
X58104252Y-111881501D01*
X58125908Y-111885368D01*
X58124890Y-111925341D01*
X58106431Y-111963707D01*
X58083980Y-111961389D01*
X58072937Y-111920084D01*
X58072936Y-111919617D01*
X58058254Y-111894444D01*
X58037339Y-111897205D01*
X57996045Y-111891206D01*
X57961605Y-111862909D01*
X57921751Y-111825886D01*
X57869175Y-111789025D01*
X57818701Y-111761296D01*
X57785155Y-111751667D01*
X57780762Y-111753488D01*
X57783898Y-111777768D01*
X57799733Y-111834336D01*
X57824997Y-111911696D01*
X57829317Y-111924152D01*
X57856502Y-112003358D01*
X57876058Y-112063037D01*
X57884278Y-112091825D01*
X57884307Y-112092767D01*
X57885800Y-112137856D01*
X57902474Y-112210041D01*
X57929702Y-112294230D01*
X57962855Y-112375335D01*
X57983306Y-112415600D01*
X58049915Y-112503895D01*
X58149450Y-112599189D01*
X58270641Y-112693692D01*
X58402217Y-112779612D01*
X58532908Y-112849157D01*
X58651443Y-112894538D01*
X58689032Y-112903471D01*
X58767934Y-112935179D01*
X58806765Y-112980683D01*
X58888083Y-113084794D01*
X58998750Y-113153389D01*
X59040666Y-113167533D01*
X59148595Y-113189626D01*
X59231841Y-113190659D01*
X59283349Y-113170969D01*
X59294329Y-113155344D01*
X59312230Y-113132930D01*
X59350605Y-113125434D01*
X59421733Y-113130561D01*
X59424987Y-113130943D01*
X59494634Y-113136921D01*
X59529647Y-113131725D01*
X59541180Y-113112874D01*
X59541718Y-113105002D01*
X59544677Y-113078188D01*
X59557757Y-113091940D01*
X59566179Y-113106100D01*
X59606438Y-113138270D01*
X59645513Y-113146880D01*
X59711769Y-113155467D01*
X59760043Y-113169292D01*
X59814529Y-113179413D01*
X59834382Y-113166804D01*
X59855060Y-113156248D01*
X59866883Y-113169593D01*
X59899055Y-113188862D01*
X59958998Y-113203759D01*
X59983023Y-113206820D01*
X60070598Y-113218832D01*
X60156164Y-113235847D01*
X60166896Y-113238538D01*
X60241069Y-113253759D01*
X60333769Y-113267399D01*
X60379908Y-113272382D01*
X60525424Y-113293378D01*
X60643905Y-113330044D01*
X60747754Y-113384199D01*
X60804863Y-113415652D01*
X60845998Y-113431200D01*
X60854242Y-113431376D01*
X60887101Y-113438827D01*
X60906127Y-113451398D01*
X60948366Y-113464808D01*
X61019409Y-113468770D01*
X61102671Y-113464432D01*
X61181572Y-113452943D01*
X61239529Y-113435450D01*
X61252688Y-113427404D01*
X61296477Y-113412681D01*
X61383457Y-113403843D01*
X61510549Y-113401185D01*
X61526109Y-113401276D01*
X61685939Y-113397994D01*
X61803319Y-113384743D01*
X61881472Y-113360831D01*
X61923621Y-113325565D01*
X61928985Y-113314698D01*
X61941613Y-113278905D01*
X61943697Y-113270190D01*
X61957853Y-113252062D01*
X61994346Y-113211576D01*
X62017927Y-113186389D01*
X62069845Y-113128336D01*
X62111029Y-113076780D01*
X62120419Y-113063079D01*
X62137983Y-113040604D01*
X62146293Y-113051908D01*
X62148878Y-113103032D01*
X62148969Y-113111926D01*
X62140087Y-113184916D01*
X62107412Y-113257916D01*
X62067046Y-113317902D01*
X61990285Y-113406139D01*
X61905527Y-113466062D01*
X61802871Y-113501575D01*
X61672420Y-113516580D01*
X61561934Y-113517039D01*
X61417481Y-113518389D01*
X61306348Y-113531543D01*
X61235470Y-113550642D01*
X61078002Y-113587641D01*
X60928780Y-113582710D01*
X60777709Y-113534998D01*
X60721258Y-113507361D01*
X60562326Y-113440456D01*
X60362533Y-113385678D01*
X60126200Y-113343724D01*
X59857647Y-113315293D01*
X59561197Y-113301085D01*
X59436147Y-113299542D01*
X59281387Y-113298863D01*
X59165952Y-113297268D01*
X59082561Y-113293989D01*
X59023933Y-113288260D01*
X58982787Y-113279312D01*
X58951844Y-113266379D01*
X58923821Y-113248693D01*
X58918587Y-113244990D01*
X58852893Y-113188342D01*
X58795355Y-113123556D01*
X58792599Y-113119754D01*
X58734728Y-113063459D01*
X58648840Y-113009608D01*
X58611076Y-112991740D01*
X58406489Y-112896665D01*
X58242042Y-112802377D01*
X58111828Y-112702459D01*
X58009941Y-112590496D01*
X57930474Y-112460075D01*
X57867522Y-112304780D01*
X57818166Y-112130546D01*
X57779322Y-111988457D01*
X57739486Y-111884573D01*
X57693710Y-111810663D01*
X57637042Y-111758494D01*
X57573594Y-111723749D01*
X57441335Y-111680985D01*
X57328774Y-111677700D01*
X57238199Y-111713835D01*
X57214743Y-111733222D01*
X57145098Y-111783129D01*
X57081101Y-111788835D01*
X57014963Y-111750067D01*
X56989358Y-111725412D01*
X56930594Y-111678429D01*
X57030982Y-111678429D01*
X57069174Y-111672511D01*
X57101784Y-111672225D01*
X57101635Y-111693095D01*
X57097131Y-111723705D01*
X57113518Y-111724552D01*
X57141177Y-111701103D01*
X57170489Y-111658826D01*
X57174073Y-111651924D01*
X57198431Y-111601237D01*
X57210462Y-111572551D01*
X57210734Y-111571115D01*
X57193279Y-111571698D01*
X57150765Y-111589758D01*
X57097968Y-111618584D01*
X57076743Y-111631981D01*
X57032792Y-111665123D01*
X57030982Y-111678429D01*
X56930594Y-111678429D01*
X56924857Y-111673842D01*
X56854221Y-111655938D01*
X56837612Y-111655504D01*
X56768442Y-111662649D01*
X56677539Y-111684731D01*
X56562680Y-111722718D01*
X56421642Y-111777579D01*
X56252205Y-111850285D01*
X56052145Y-111941803D01*
X55819240Y-112053103D01*
X55551268Y-112185153D01*
X55246006Y-112338924D01*
X55101835Y-112412420D01*
X54757264Y-112585188D01*
X54443683Y-112734222D01*
X54153470Y-112861883D01*
X53879004Y-112970536D01*
X53612660Y-113062545D01*
X53346818Y-113140271D01*
X53073855Y-113206079D01*
X52786149Y-113262332D01*
X52476076Y-113311393D01*
X52136016Y-113355626D01*
X52014220Y-113369758D01*
X51745393Y-113394019D01*
X51517912Y-113401109D01*
X51329764Y-113390935D01*
X51178933Y-113363410D01*
X51082110Y-113328032D01*
X50979510Y-113275948D01*
X50912425Y-113230936D01*
X50873362Y-113182121D01*
X50854825Y-113118627D01*
X50849318Y-113029579D01*
X50849083Y-112989913D01*
X50850632Y-112894315D01*
X50857134Y-112833084D01*
X50871371Y-112794032D01*
X50896125Y-112764969D01*
X50901514Y-112760202D01*
X50994346Y-112687707D01*
X51099785Y-112622101D01*
X51232466Y-112554482D01*
X51263908Y-112539772D01*
X51434054Y-112461071D01*
X51418594Y-112367049D01*
X51400488Y-112285115D01*
X51376597Y-112208764D01*
X51373513Y-112200971D01*
X51355731Y-112140575D01*
X51334905Y-112042301D01*
X51312202Y-111914686D01*
X51288788Y-111766264D01*
X51265827Y-111605575D01*
X51244486Y-111441153D01*
X51225931Y-111281535D01*
X51211327Y-111135259D01*
X51201839Y-111010860D01*
X51198627Y-110920252D01*
X51198624Y-110779220D01*
X51029679Y-110745481D01*
X50860734Y-110711742D01*
X50859899Y-110600720D01*
X51282637Y-110600720D01*
X51284348Y-110665137D01*
X51287182Y-110725080D01*
X51291456Y-110818592D01*
X51296580Y-110932681D01*
X51301760Y-111049632D01*
X51311962Y-111209353D01*
X51328548Y-111385424D01*
X51349975Y-111566525D01*
X51374703Y-111741335D01*
X51401189Y-111898533D01*
X51427891Y-112026799D01*
X51442280Y-112081484D01*
X51468593Y-112174073D01*
X51493676Y-112267621D01*
X51502404Y-112302155D01*
X51523437Y-112364021D01*
X51546029Y-112397485D01*
X51564074Y-112397523D01*
X51571468Y-112359110D01*
X51571468Y-112358993D01*
X51565982Y-112320821D01*
X51551040Y-112247967D01*
X51528916Y-112150853D01*
X51501885Y-112039903D01*
X51501553Y-112038581D01*
X51472271Y-111902300D01*
X51442992Y-111730581D01*
X51414986Y-111534570D01*
X51389525Y-111325417D01*
X51367879Y-111114272D01*
X51351319Y-110912281D01*
X51341115Y-110730595D01*
X51340977Y-110724348D01*
X55396810Y-110724348D01*
X55433899Y-110824699D01*
X55439041Y-110833377D01*
X55518771Y-110928300D01*
X55629431Y-111010522D01*
X55762252Y-111078036D01*
X55908462Y-111128834D01*
X56059289Y-111160907D01*
X56205964Y-111172247D01*
X56339715Y-111160846D01*
X56451771Y-111124696D01*
X56516392Y-111080045D01*
X56568613Y-111003164D01*
X56579752Y-110917218D01*
X56568348Y-110878244D01*
X57234787Y-110878244D01*
X57245373Y-110926626D01*
X57262000Y-110951761D01*
X57296346Y-110973535D01*
X57328827Y-110978871D01*
X57342656Y-110966830D01*
X57338664Y-110956041D01*
X57309429Y-110944134D01*
X57296509Y-110948863D01*
X57283338Y-110951256D01*
X57298521Y-110928894D01*
X57315933Y-110882385D01*
X57304877Y-110838548D01*
X57270895Y-110816814D01*
X57266498Y-110816605D01*
X57242040Y-110835200D01*
X57234787Y-110878244D01*
X56568348Y-110878244D01*
X56553291Y-110826784D01*
X56492710Y-110736436D01*
X56401493Y-110650752D01*
X56283122Y-110574306D01*
X56141078Y-110511674D01*
X56065828Y-110487949D01*
X55966873Y-110465886D01*
X55862338Y-110451264D01*
X55763482Y-110444602D01*
X55681565Y-110446423D01*
X55627845Y-110457246D01*
X55614495Y-110467063D01*
X55581402Y-110487117D01*
X55558041Y-110490366D01*
X55514443Y-110506007D01*
X55462265Y-110544396D01*
X55454554Y-110551801D01*
X55403774Y-110631955D01*
X55396810Y-110724348D01*
X51340977Y-110724348D01*
X51338382Y-110606880D01*
X51347237Y-110414475D01*
X51370388Y-110209321D01*
X55559723Y-110209321D01*
X55583282Y-110291196D01*
X55603952Y-110325530D01*
X55634857Y-110343381D01*
X55689947Y-110350041D01*
X55740575Y-110350868D01*
X55763482Y-110351635D01*
X55824290Y-110353671D01*
X55896562Y-110360498D01*
X55925910Y-110365931D01*
X55964954Y-110371479D01*
X55970847Y-110351130D01*
X55965899Y-110333114D01*
X55969653Y-110278415D01*
X56006023Y-110232279D01*
X56061646Y-110210891D01*
X56066952Y-110210733D01*
X56125174Y-110231308D01*
X56166309Y-110283138D01*
X56180149Y-110351387D01*
X56177686Y-110371705D01*
X56173196Y-110419118D01*
X56192221Y-110445928D01*
X56245147Y-110467551D01*
X56321377Y-110502606D01*
X56392429Y-110549927D01*
X56393731Y-110551016D01*
X56461050Y-110607660D01*
X56509653Y-110545871D01*
X56545662Y-110492437D01*
X56555478Y-110445523D01*
X56540602Y-110386020D01*
X56525211Y-110347570D01*
X56458649Y-110244856D01*
X56354735Y-110154083D01*
X56222253Y-110080562D01*
X56069982Y-110029606D01*
X55970156Y-110011756D01*
X55823792Y-110005866D01*
X55706358Y-110024996D01*
X55621062Y-110066827D01*
X55571114Y-110129041D01*
X55559723Y-110209321D01*
X51370388Y-110209321D01*
X51372203Y-110193234D01*
X51410644Y-109956989D01*
X51459922Y-109719571D01*
X51517397Y-109494810D01*
X51580434Y-109296540D01*
X51596519Y-109253337D01*
X51628176Y-109169563D01*
X51652013Y-109103281D01*
X51663996Y-109065814D01*
X51664679Y-109061982D01*
X51673976Y-109036106D01*
X51699125Y-108977489D01*
X51736013Y-108895502D01*
X51770092Y-108821779D01*
X51818659Y-108714343D01*
X51849792Y-108638105D01*
X51863041Y-108595347D01*
X51857953Y-108588353D01*
X51834078Y-108619406D01*
X51798614Y-108677525D01*
X51740356Y-108782541D01*
X51687048Y-108890078D01*
X51636353Y-109006511D01*
X51585932Y-109138213D01*
X51533448Y-109291558D01*
X51476563Y-109472920D01*
X51412939Y-109688673D01*
X51361727Y-109868596D01*
X51336442Y-109983135D01*
X51314403Y-110128932D01*
X51297097Y-110290672D01*
X51286012Y-110453039D01*
X51282637Y-110600720D01*
X50859899Y-110600720D01*
X50854765Y-109918335D01*
X50848796Y-109124928D01*
X51000407Y-109134582D01*
X51077468Y-109137170D01*
X51132051Y-109134576D01*
X51152018Y-109127641D01*
X51139695Y-109099190D01*
X51109547Y-109051486D01*
X51104752Y-109044668D01*
X51058785Y-108949435D01*
X51055008Y-108859120D01*
X51089011Y-108778060D01*
X51156382Y-108710591D01*
X51252712Y-108661049D01*
X51373588Y-108633770D01*
X51514601Y-108633090D01*
X51522616Y-108633886D01*
X51602584Y-108639940D01*
X51651670Y-108635153D01*
X51684919Y-108616595D01*
X51702455Y-108598842D01*
X51746239Y-108549579D01*
X51558932Y-108562017D01*
X51394459Y-108584053D01*
X51213457Y-108630886D01*
X51129577Y-108658558D01*
X51029927Y-108692607D01*
X50946487Y-108720041D01*
X50889082Y-108737696D01*
X50868306Y-108742660D01*
X50853483Y-108722818D01*
X50849083Y-108688306D01*
X50853364Y-108662930D01*
X50871310Y-108641564D01*
X50910578Y-108620104D01*
X50978822Y-108594445D01*
X51083697Y-108560486D01*
X51092916Y-108557595D01*
X51272508Y-108508517D01*
X51417101Y-108484524D01*
X51471585Y-108482056D01*
X51713263Y-108483652D01*
G37*
D11*
X52998000Y-75032200D02*
X52998000Y-71022200D01*
X52998000Y-75032200D02*
X54998000Y-75032200D01*
X54998000Y-75032200D02*
X54998000Y-71022200D01*
X71776100Y-97017220D02*
X71776100Y-97298380D01*
X72796100Y-97017220D02*
X72796100Y-97298380D01*
X74833558Y-70863500D02*
X74359042Y-70863500D01*
X74833558Y-71908500D02*
X74359042Y-71908500D01*
X57939900Y-89365058D02*
X57939900Y-88890542D01*
X58984900Y-89365058D02*
X58984900Y-88890542D01*
X79439600Y-73512358D02*
X79439600Y-73037842D01*
X80484600Y-73512358D02*
X80484600Y-73037842D01*
X71985200Y-90318558D02*
X71985200Y-89844042D01*
X73030200Y-90318558D02*
X73030200Y-89844042D01*
X75806600Y-96563842D02*
X75806600Y-97038358D01*
X76851600Y-96563842D02*
X76851600Y-97038358D01*
X73848342Y-111112700D02*
X74322858Y-111112700D01*
X73848342Y-112157700D02*
X74322858Y-112157700D01*
X88935200Y-108107120D02*
X88935200Y-108388280D01*
X89955200Y-108107120D02*
X89955200Y-108388280D01*
X85155742Y-93836000D02*
X85630258Y-93836000D01*
X85155742Y-94881000D02*
X85630258Y-94881000D01*
X46454100Y-90217420D02*
X46454100Y-90498580D01*
X47474100Y-90217420D02*
X47474100Y-90498580D01*
X47936200Y-89477000D02*
X47986200Y-89477000D01*
X47936200Y-91297000D02*
X47936200Y-89477000D01*
X47986200Y-91297000D02*
X47936200Y-91297000D01*
X49106200Y-89477000D02*
X49886200Y-89477000D01*
X51006200Y-89477000D02*
X51056200Y-89477000D01*
X51056200Y-89477000D02*
X51056200Y-91297000D01*
X51056200Y-91297000D02*
X51006200Y-91297000D01*
X47986200Y-91837000D02*
X47656200Y-92077000D01*
X47656200Y-91597000D01*
X47986200Y-91837000D01*
G36*
X47986200Y-91837000D02*
G01*
X47656200Y-92077000D01*
X47656200Y-91597000D01*
X47986200Y-91837000D01*
G37*
X78893000Y-78755052D02*
X78893000Y-78232548D01*
X80363000Y-78755052D02*
X80363000Y-78232548D01*
X51889200Y-81436442D02*
X51889200Y-81910958D01*
X52934200Y-81436442D02*
X52934200Y-81910958D01*
X55448000Y-73077658D02*
X55448000Y-72603142D01*
X56493000Y-73077658D02*
X56493000Y-72603142D01*
X56334700Y-91074980D02*
X56334700Y-90793820D01*
X57354700Y-91074980D02*
X57354700Y-90793820D01*
X54154100Y-75204000D02*
X54154100Y-79214000D01*
X56154100Y-75204000D02*
X54154100Y-75204000D01*
X56154100Y-75204000D02*
X56154100Y-79214000D01*
X88517100Y-78400580D02*
X88517100Y-78119420D01*
X89537100Y-78400580D02*
X89537100Y-78119420D01*
X88890500Y-96887720D02*
X88890500Y-97168880D01*
X89910500Y-96887720D02*
X89910500Y-97168880D01*
X53605942Y-91189900D02*
X54080458Y-91189900D01*
X53605942Y-92234900D02*
X54080458Y-92234900D01*
X84834900Y-80834400D02*
X88954900Y-80834400D01*
X84834900Y-80899400D02*
X84834900Y-80834400D01*
X84834900Y-89704400D02*
X84834900Y-89639400D01*
X88954900Y-80834400D02*
X88954900Y-80899400D01*
X88954900Y-89639400D02*
X88954900Y-89704400D01*
X88954900Y-89704400D02*
X84834900Y-89704400D01*
X84294900Y-80899400D02*
X84054900Y-80569400D01*
X84534900Y-80569400D01*
X84294900Y-80899400D01*
G36*
X84294900Y-80899400D02*
G01*
X84054900Y-80569400D01*
X84534900Y-80569400D01*
X84294900Y-80899400D01*
G37*
X49553380Y-83431800D02*
X49272220Y-83431800D01*
X49553380Y-84451800D02*
X49272220Y-84451800D01*
X58508758Y-71579700D02*
X58034242Y-71579700D01*
X58508758Y-72624700D02*
X58034242Y-72624700D01*
X59005520Y-91034800D02*
X59286680Y-91034800D01*
X59005520Y-92054800D02*
X59286680Y-92054800D01*
X48794300Y-103118142D02*
X48794300Y-103592658D01*
X49839300Y-103118142D02*
X49839300Y-103592658D01*
X80608400Y-89959336D02*
X80608400Y-90413464D01*
X82078400Y-89959336D02*
X82078400Y-90413464D01*
X70905858Y-111816500D02*
X70431342Y-111816500D01*
X70905858Y-112861500D02*
X70431342Y-112861500D01*
X82252358Y-104439000D02*
X81777842Y-104439000D01*
X82252358Y-105484000D02*
X81777842Y-105484000D01*
X89334300Y-75254680D02*
X89334300Y-74973520D01*
X90354300Y-75254680D02*
X90354300Y-74973520D01*
X59943264Y-102097900D02*
X59489136Y-102097900D01*
X59943264Y-103567900D02*
X59489136Y-103567900D01*
X73490564Y-93746300D02*
X73036436Y-93746300D01*
X73490564Y-95216300D02*
X73036436Y-95216300D01*
X61517742Y-104083300D02*
X61992258Y-104083300D01*
X61517742Y-105128300D02*
X61992258Y-105128300D01*
X71780558Y-70853900D02*
X71306042Y-70853900D01*
X71780558Y-71898900D02*
X71306042Y-71898900D01*
X63788300Y-103135242D02*
X63788300Y-103609758D01*
X64833300Y-103135242D02*
X64833300Y-103609758D01*
X77921500Y-97345858D02*
X77921500Y-96871342D01*
X78966500Y-97345858D02*
X78966500Y-96871342D01*
X79012700Y-93445342D02*
X79012700Y-93919858D01*
X80057700Y-93445342D02*
X80057700Y-93919858D01*
X70885958Y-113369400D02*
X70411442Y-113369400D01*
X70885958Y-114414400D02*
X70411442Y-114414400D01*
X75447200Y-90534600D02*
X75497200Y-90534600D01*
X75447200Y-92354600D02*
X75447200Y-90534600D01*
X75497200Y-92354600D02*
X75447200Y-92354600D01*
X77397200Y-92354600D02*
X76617200Y-92354600D01*
X78517200Y-90534600D02*
X78567200Y-90534600D01*
X78567200Y-90534600D02*
X78567200Y-92354600D01*
X78567200Y-92354600D02*
X78517200Y-92354600D01*
X78847200Y-90234600D02*
X78517200Y-89994600D01*
X78847200Y-89754600D01*
X78847200Y-90234600D01*
G36*
X78847200Y-90234600D02*
G01*
X78517200Y-89994600D01*
X78847200Y-89754600D01*
X78847200Y-90234600D01*
G37*
X82427500Y-71575300D02*
X86547500Y-71575300D01*
X82427500Y-71640300D02*
X82427500Y-71575300D01*
X82427500Y-80445300D02*
X82427500Y-80380300D01*
X86547500Y-71575300D02*
X86547500Y-71640300D01*
X86547500Y-80380300D02*
X86547500Y-80445300D01*
X86547500Y-80445300D02*
X82427500Y-80445300D01*
X87327500Y-80710300D02*
X86847500Y-80710300D01*
X87087500Y-80380300D01*
X87327500Y-80710300D01*
G36*
X87327500Y-80710300D02*
G01*
X86847500Y-80710300D01*
X87087500Y-80380300D01*
X87327500Y-80710300D01*
G37*
X75951400Y-112812258D02*
X75951400Y-112337742D01*
X76996400Y-112812258D02*
X76996400Y-112337742D01*
D13*
X49915000Y-97500000D02*
G75*
G02*
X49615000Y-97500000I-150000J0D01*
G01*
X49615000Y-97500000D02*
G75*
G02*
X49915000Y-97500000I150000J0D01*
G01*
D11*
X46439000Y-77756080D02*
X46439000Y-77474920D01*
X47459000Y-77756080D02*
X47459000Y-77474920D01*
%LPC*%
D14*
X83523600Y-92687500D03*
X81873600Y-92687500D03*
D15*
X74279700Y-96293400D03*
X74279700Y-97843400D03*
X64105800Y-105705200D03*
X64105800Y-107255200D03*
D14*
X77463300Y-80033800D03*
X75813300Y-80033800D03*
X75975000Y-99558400D03*
X74325000Y-99558400D03*
D16*
X61850800Y-89828000D03*
X61850800Y-90778000D03*
X61850800Y-91728000D03*
X64125800Y-91728000D03*
X64125800Y-89828000D03*
D17*
X73147900Y-101160600D03*
X73147900Y-102430600D03*
X73147900Y-103700600D03*
X73147900Y-104970600D03*
X73147900Y-106240600D03*
X73147900Y-107510600D03*
X73147900Y-108780600D03*
X73147900Y-110050600D03*
X78097900Y-110050600D03*
X78097900Y-108780600D03*
X78097900Y-107510600D03*
X78097900Y-106240600D03*
X78097900Y-104970600D03*
X78097900Y-103700600D03*
X78097900Y-102430600D03*
X78097900Y-101160600D03*
D18*
X76830100Y-71458400D03*
X78480100Y-71458400D03*
D15*
X47634000Y-102581400D03*
X47634000Y-104131400D03*
D19*
X54006400Y-86282200D03*
X55276400Y-86282200D03*
X56546400Y-86282200D03*
X57816400Y-86282200D03*
X59086400Y-86282200D03*
X60356400Y-86282200D03*
X61626400Y-86282200D03*
X61626400Y-81332200D03*
X60356400Y-81332200D03*
X59086400Y-81332200D03*
X57816400Y-81332200D03*
X56546400Y-81332200D03*
X55276400Y-81332200D03*
X54006400Y-81332200D03*
D20*
X73603300Y-80177500D03*
X72053300Y-80177500D03*
D21*
X63443300Y-87928600D03*
X63443300Y-86103600D03*
D22*
X81225500Y-94457900D03*
X83050500Y-94457900D03*
X73037900Y-113408700D03*
X74862900Y-113408700D03*
D23*
X78031500Y-113687600D03*
X78031500Y-112037600D03*
D14*
X50138700Y-105664000D03*
X48488700Y-105664000D03*
D24*
X52021500Y-72799900D03*
X52021500Y-74449900D03*
D25*
X52760600Y-75912900D03*
X52760600Y-79212900D03*
D15*
X79531900Y-89834500D03*
X79531900Y-91384500D03*
D18*
X83050400Y-90918000D03*
X84700400Y-90918000D03*
D23*
X52401100Y-85737300D03*
X52401100Y-84087300D03*
D26*
X50731300Y-78404500D03*
X50731300Y-76854500D03*
D24*
X58781600Y-104530000D03*
X58781600Y-106180000D03*
D18*
X72039200Y-92394400D03*
X73689200Y-92394400D03*
D27*
X87808400Y-96819700D03*
X86538400Y-96819700D03*
X85268400Y-96819700D03*
X83998400Y-96819700D03*
X82728400Y-96819700D03*
X81458400Y-96819700D03*
X80188400Y-96819700D03*
X80188400Y-101769700D03*
X81458400Y-101769700D03*
X82728400Y-101769700D03*
X83998400Y-101769700D03*
X85268400Y-101769700D03*
X86538400Y-101769700D03*
X87808400Y-101769700D03*
D24*
X80316700Y-111666700D03*
X80316700Y-113316700D03*
D28*
X86179000Y-91101000D03*
X89479000Y-91101000D03*
D24*
X80344400Y-108165100D03*
X80344400Y-109815100D03*
D19*
X73395600Y-87177800D03*
X74665600Y-87177800D03*
X75935600Y-87177800D03*
X77205600Y-87177800D03*
X78475600Y-87177800D03*
X79745600Y-87177800D03*
X81015600Y-87177800D03*
X82285600Y-87177800D03*
X82285600Y-82227800D03*
X81015600Y-82227800D03*
X79745600Y-82227800D03*
X78475600Y-82227800D03*
X77205600Y-82227800D03*
X75935600Y-82227800D03*
X74665600Y-82227800D03*
X73395600Y-82227800D03*
D18*
X53610200Y-89967800D03*
X55260200Y-89967800D03*
D28*
X46916700Y-80358000D03*
X50216700Y-80358000D03*
D29*
X51993900Y-88331700D03*
X53543900Y-88331700D03*
D16*
X47141100Y-85533200D03*
X47141100Y-86483200D03*
X47141100Y-87433200D03*
X49416100Y-87433200D03*
X49416100Y-85533200D03*
D30*
X67317800Y-71303100D03*
X69417800Y-71303100D03*
D26*
X89410300Y-101760600D03*
X89410300Y-100210600D03*
D24*
X49768100Y-107403400D03*
X49768100Y-109053400D03*
D31*
X54456685Y-106463745D03*
D18*
X48577900Y-82331500D03*
X50227900Y-82331500D03*
X76000300Y-94477900D03*
X77650300Y-94477900D03*
D23*
X47100700Y-84034700D03*
X47100700Y-82384700D03*
D32*
X53998000Y-74322200D03*
X53998000Y-71022200D03*
D15*
X72286100Y-96382800D03*
X72286100Y-97932800D03*
D14*
X75421300Y-71386000D03*
X73771300Y-71386000D03*
D23*
X58462400Y-89952800D03*
X58462400Y-88302800D03*
X79962100Y-74100100D03*
X79962100Y-72450100D03*
X72507700Y-90906300D03*
X72507700Y-89256300D03*
D24*
X76329100Y-95976100D03*
X76329100Y-97626100D03*
D18*
X73260600Y-111635200D03*
X74910600Y-111635200D03*
D15*
X89445200Y-107472700D03*
X89445200Y-109022700D03*
D18*
X84568000Y-94358500D03*
X86218000Y-94358500D03*
D15*
X46964100Y-89583000D03*
X46964100Y-91133000D03*
D33*
X48546200Y-91524500D03*
X49496200Y-91524500D03*
X50446200Y-91524500D03*
X50446200Y-89249500D03*
X48546200Y-89249500D03*
D34*
X79628000Y-79443800D03*
X79628000Y-77543800D03*
D24*
X52411700Y-80848700D03*
X52411700Y-82498700D03*
D23*
X55970500Y-73665400D03*
X55970500Y-72015400D03*
D26*
X56844700Y-91709400D03*
X56844700Y-90159400D03*
D25*
X55154100Y-75914000D03*
X55154100Y-79214000D03*
D31*
X75070812Y-75750733D03*
D26*
X89027100Y-79035000D03*
X89027100Y-77485000D03*
D15*
X89400500Y-96253300D03*
X89400500Y-97803300D03*
D31*
X60675290Y-76513695D03*
D18*
X53018200Y-91712400D03*
X54668200Y-91712400D03*
D17*
X84419900Y-81459400D03*
X84419900Y-82729400D03*
X84419900Y-83999400D03*
X84419900Y-85269400D03*
X84419900Y-86539400D03*
X84419900Y-87809400D03*
X84419900Y-89079400D03*
X89369900Y-89079400D03*
X89369900Y-87809400D03*
X89369900Y-86539400D03*
X89369900Y-85269400D03*
X89369900Y-83999400D03*
X89369900Y-82729400D03*
X89369900Y-81459400D03*
D20*
X50187800Y-83941800D03*
X48637800Y-83941800D03*
D14*
X59096500Y-72102200D03*
X57446500Y-72102200D03*
D29*
X58371100Y-91544800D03*
X59921100Y-91544800D03*
D24*
X49316800Y-102530400D03*
X49316800Y-104180400D03*
D35*
X81343400Y-89273900D03*
X81343400Y-91098900D03*
D14*
X71493600Y-112339000D03*
X69843600Y-112339000D03*
X82840100Y-104961500D03*
X81190100Y-104961500D03*
D26*
X89844300Y-75889100D03*
X89844300Y-74339100D03*
D36*
X60628700Y-102832900D03*
X58803700Y-102832900D03*
X74176000Y-94481300D03*
X72351000Y-94481300D03*
D18*
X60930000Y-104605800D03*
X62580000Y-104605800D03*
D14*
X72368300Y-71376400D03*
X70718300Y-71376400D03*
D24*
X64310800Y-102547500D03*
X64310800Y-104197500D03*
D23*
X78444000Y-97933600D03*
X78444000Y-96283600D03*
D31*
X85121167Y-109507071D03*
D24*
X79535200Y-92857600D03*
X79535200Y-94507600D03*
D14*
X71473700Y-113891900D03*
X69823700Y-113891900D03*
D37*
X77957200Y-90307100D03*
X77007200Y-90307100D03*
X76057200Y-90307100D03*
X76057200Y-92582100D03*
X77957200Y-92582100D03*
D38*
X86962500Y-79820300D03*
X86962500Y-78550300D03*
X86962500Y-77280300D03*
X86962500Y-76010300D03*
X86962500Y-74740300D03*
X86962500Y-73470300D03*
X86962500Y-72200300D03*
X82012500Y-72200300D03*
X82012500Y-73470300D03*
X82012500Y-74740300D03*
X82012500Y-76010300D03*
X82012500Y-77280300D03*
X82012500Y-78550300D03*
X82012500Y-79820300D03*
D23*
X76473900Y-113400000D03*
X76473900Y-111750000D03*
D39*
X48165000Y-93470000D03*
X48165000Y-100870000D03*
D40*
X51065000Y-95900000D03*
D41*
X52335000Y-98440000D03*
X53605000Y-95900000D03*
X54875000Y-98440000D03*
X56145000Y-95900000D03*
X57415000Y-98440000D03*
X58685000Y-95900000D03*
X59955000Y-98440000D03*
X61225000Y-95900000D03*
X62495000Y-98440000D03*
X63765000Y-95900000D03*
D26*
X46949000Y-78390500D03*
X46949000Y-76840500D03*
D42*
X69476545Y-74158008D03*
D43*
X66936545Y-74158008D03*
X69476545Y-76698008D03*
X66936545Y-76698008D03*
X69476545Y-79238008D03*
X66936545Y-79238008D03*
X69476545Y-81778008D03*
X66936545Y-81778008D03*
X69476545Y-84318008D03*
X66936545Y-84318008D03*
X69476545Y-86858008D03*
X66936545Y-86858008D03*
X69476545Y-89398008D03*
X66936545Y-89398008D03*
X69476545Y-91938008D03*
X66936545Y-91938008D03*
X69476545Y-94478008D03*
X66936545Y-94478008D03*
X69476545Y-97018008D03*
X66936545Y-97018008D03*
X69476545Y-99558008D03*
X66936545Y-99558008D03*
X69476545Y-102098008D03*
X66936545Y-102098008D03*
X69476545Y-104638008D03*
X66936545Y-104638008D03*
X69476545Y-107178008D03*
X66936545Y-107178008D03*
X69476545Y-109718008D03*
X66936545Y-109718008D03*
%LPD*%
M02*
