G04 #@! TF.GenerationSoftware,KiCad,Pcbnew,10.0.0*
G04 #@! TF.CreationDate,2026-10-01T11:45:59-07:00*
G04 #@! TF.ProjectId,BOOST_control_RC2,424f4f53-545f-4636-9f6e-74726f6c5f52,rev?*
G04 #@! TF.SameCoordinates,Original*
G04 #@! TF.FileFunction,Legend,Bot*
G04 #@! TF.FilePolarity,Positive*
%FSLAX46Y46*%
G04 Gerber Fmt 4.6, Leading zero omitted, Abs format (unit mm)*
G04 Created by KiCad (PCBNEW 10.0.0) date 2026-10-01 11:45:59*
%MOMM*%
%LPD*%
G01*
G04 APERTURE LIST*
G04 Aperture macros list*
%AMRoundRect*
0 Rectangle with rounded corners*
0 $1 Rounding radius*
0 $2 $3 $4 $5 $6 $7 $8 $9 X,Y pos of 4 corners*
0 Add a 4 corners polygon primitive as box body*
4,1,4,$2,$3,$4,$5,$6,$7,$8,$9,$2,$3,0*
0 Add four circle primitives for the rounded corners*
1,1,$1+$1,$2,$3*
1,1,$1+$1,$4,$5*
1,1,$1+$1,$6,$7*
1,1,$1+$1,$8,$9*
0 Add four rect primitives between the rounded corners*
20,1,$1+$1,$2,$3,$4,$5,0*
20,1,$1+$1,$4,$5,$6,$7,0*
20,1,$1+$1,$6,$7,$8,$9,0*
20,1,$1+$1,$8,$9,$2,$3,0*%
G04 Aperture macros list end*
%ADD10C,0.150000*%
%ADD11C,0.300000*%
%ADD12C,0.120000*%
%ADD13C,0.000000*%
%ADD14C,3.200000*%
%ADD15O,2.800000X1.400000*%
%ADD16R,2.000000X2.000000*%
%ADD17C,2.000000*%
%ADD18RoundRect,0.150000X-0.825000X-0.150000X0.825000X-0.150000X0.825000X0.150000X-0.825000X0.150000X0*%
%ADD19RoundRect,0.250000X-0.262500X-0.450000X0.262500X-0.450000X0.262500X0.450000X-0.262500X0.450000X0*%
%ADD20RoundRect,0.250000X0.450000X-0.262500X0.450000X0.262500X-0.450000X0.262500X-0.450000X-0.262500X0*%
%ADD21RoundRect,0.225000X0.225000X0.375000X-0.225000X0.375000X-0.225000X-0.375000X0.225000X-0.375000X0*%
%ADD22RoundRect,0.225000X0.225000X0.250000X-0.225000X0.250000X-0.225000X-0.250000X0.225000X-0.250000X0*%
%ADD23RoundRect,0.200000X-0.275000X0.200000X-0.275000X-0.200000X0.275000X-0.200000X0.275000X0.200000X0*%
%ADD24RoundRect,0.225000X0.250000X-0.225000X0.250000X0.225000X-0.250000X0.225000X-0.250000X-0.225000X0*%
%ADD25RoundRect,0.150000X-0.512500X-0.150000X0.512500X-0.150000X0.512500X0.150000X-0.512500X0.150000X0*%
%ADD26RoundRect,0.200000X0.275000X-0.200000X0.275000X0.200000X-0.275000X0.200000X-0.275000X-0.200000X0*%
%ADD27RoundRect,0.112500X-0.112500X0.187500X-0.112500X-0.187500X0.112500X-0.187500X0.112500X0.187500X0*%
%ADD28RoundRect,0.200000X-0.200000X-0.275000X0.200000X-0.275000X0.200000X0.275000X-0.200000X0.275000X0*%
%ADD29RoundRect,0.225000X-0.225000X-0.250000X0.225000X-0.250000X0.225000X0.250000X-0.225000X0.250000X0*%
%ADD30RoundRect,0.250000X0.262500X0.450000X-0.262500X0.450000X-0.262500X-0.450000X0.262500X-0.450000X0*%
%ADD31RoundRect,0.150000X0.512500X0.150000X-0.512500X0.150000X-0.512500X-0.150000X0.512500X-0.150000X0*%
%ADD32RoundRect,0.250000X0.650000X-0.325000X0.650000X0.325000X-0.650000X0.325000X-0.650000X-0.325000X0*%
%ADD33RoundRect,0.200000X0.200000X0.275000X-0.200000X0.275000X-0.200000X-0.275000X0.200000X-0.275000X0*%
%ADD34RoundRect,0.150000X0.150000X-0.512500X0.150000X0.512500X-0.150000X0.512500X-0.150000X-0.512500X0*%
%ADD35RoundRect,0.225000X-0.225000X-0.375000X0.225000X-0.375000X0.225000X0.375000X-0.225000X0.375000X0*%
%ADD36RoundRect,0.225000X-0.250000X0.225000X-0.250000X-0.225000X0.250000X-0.225000X0.250000X0.225000X0*%
%ADD37RoundRect,0.150000X0.587500X0.150000X-0.587500X0.150000X-0.587500X-0.150000X0.587500X-0.150000X0*%
%ADD38RoundRect,0.225000X-0.375000X0.225000X-0.375000X-0.225000X0.375000X-0.225000X0.375000X0.225000X0*%
%ADD39RoundRect,0.250000X-0.475000X0.250000X-0.475000X-0.250000X0.475000X-0.250000X0.475000X0.250000X0*%
%ADD40RoundRect,0.150000X-0.150000X0.512500X-0.150000X-0.512500X0.150000X-0.512500X0.150000X0.512500X0*%
%ADD41RoundRect,0.250000X-0.650000X0.325000X-0.650000X-0.325000X0.650000X-0.325000X0.650000X0.325000X0*%
%ADD42RoundRect,0.100000X-0.100000X0.637500X-0.100000X-0.637500X0.100000X-0.637500X0.100000X0.637500X0*%
%ADD43RoundRect,0.250000X0.325000X0.650000X-0.325000X0.650000X-0.325000X-0.650000X0.325000X-0.650000X0*%
%ADD44RoundRect,0.150000X0.825000X0.150000X-0.825000X0.150000X-0.825000X-0.150000X0.825000X-0.150000X0*%
%ADD45R,1.700000X1.700000*%
%ADD46C,1.700000*%
G04 APERTURE END LIST*
D10*
X51874523Y-93529819D02*
X51541190Y-94529819D01*
X51541190Y-94529819D02*
X51207857Y-93529819D01*
X50350714Y-94529819D02*
X50922142Y-94529819D01*
X50636428Y-94529819D02*
X50636428Y-93529819D01*
X50636428Y-93529819D02*
X50731666Y-93672676D01*
X50731666Y-93672676D02*
X50826904Y-93767914D01*
X50826904Y-93767914D02*
X50922142Y-93815533D01*
X53144523Y-99719819D02*
X52811190Y-100719819D01*
X52811190Y-100719819D02*
X52477857Y-99719819D01*
X52192142Y-99815057D02*
X52144523Y-99767438D01*
X52144523Y-99767438D02*
X52049285Y-99719819D01*
X52049285Y-99719819D02*
X51811190Y-99719819D01*
X51811190Y-99719819D02*
X51715952Y-99767438D01*
X51715952Y-99767438D02*
X51668333Y-99815057D01*
X51668333Y-99815057D02*
X51620714Y-99910295D01*
X51620714Y-99910295D02*
X51620714Y-100005533D01*
X51620714Y-100005533D02*
X51668333Y-100148390D01*
X51668333Y-100148390D02*
X52239761Y-100719819D01*
X52239761Y-100719819D02*
X51620714Y-100719819D01*
X54414523Y-93529819D02*
X54081190Y-94529819D01*
X54081190Y-94529819D02*
X53747857Y-93529819D01*
X53509761Y-93529819D02*
X52890714Y-93529819D01*
X52890714Y-93529819D02*
X53224047Y-93910771D01*
X53224047Y-93910771D02*
X53081190Y-93910771D01*
X53081190Y-93910771D02*
X52985952Y-93958390D01*
X52985952Y-93958390D02*
X52938333Y-94006009D01*
X52938333Y-94006009D02*
X52890714Y-94101247D01*
X52890714Y-94101247D02*
X52890714Y-94339342D01*
X52890714Y-94339342D02*
X52938333Y-94434580D01*
X52938333Y-94434580D02*
X52985952Y-94482200D01*
X52985952Y-94482200D02*
X53081190Y-94529819D01*
X53081190Y-94529819D02*
X53366904Y-94529819D01*
X53366904Y-94529819D02*
X53462142Y-94482200D01*
X53462142Y-94482200D02*
X53509761Y-94434580D01*
X55351189Y-100719819D02*
X55351189Y-99719819D01*
X54351190Y-100719819D02*
X54922618Y-100719819D01*
X54636904Y-100719819D02*
X54636904Y-99719819D01*
X54636904Y-99719819D02*
X54732142Y-99862676D01*
X54732142Y-99862676D02*
X54827380Y-99957914D01*
X54827380Y-99957914D02*
X54922618Y-100005533D01*
X56621189Y-94529819D02*
X56621189Y-93529819D01*
X56192618Y-93625057D02*
X56144999Y-93577438D01*
X56144999Y-93577438D02*
X56049761Y-93529819D01*
X56049761Y-93529819D02*
X55811666Y-93529819D01*
X55811666Y-93529819D02*
X55716428Y-93577438D01*
X55716428Y-93577438D02*
X55668809Y-93625057D01*
X55668809Y-93625057D02*
X55621190Y-93720295D01*
X55621190Y-93720295D02*
X55621190Y-93815533D01*
X55621190Y-93815533D02*
X55668809Y-93958390D01*
X55668809Y-93958390D02*
X56240237Y-94529819D01*
X56240237Y-94529819D02*
X55621190Y-94529819D01*
X57891189Y-100719819D02*
X57891189Y-99719819D01*
X57510237Y-99719819D02*
X56891190Y-99719819D01*
X56891190Y-99719819D02*
X57224523Y-100100771D01*
X57224523Y-100100771D02*
X57081666Y-100100771D01*
X57081666Y-100100771D02*
X56986428Y-100148390D01*
X56986428Y-100148390D02*
X56938809Y-100196009D01*
X56938809Y-100196009D02*
X56891190Y-100291247D01*
X56891190Y-100291247D02*
X56891190Y-100529342D01*
X56891190Y-100529342D02*
X56938809Y-100624580D01*
X56938809Y-100624580D02*
X56986428Y-100672200D01*
X56986428Y-100672200D02*
X57081666Y-100719819D01*
X57081666Y-100719819D02*
X57367380Y-100719819D01*
X57367380Y-100719819D02*
X57462618Y-100672200D01*
X57462618Y-100672200D02*
X57510237Y-100624580D01*
X59575475Y-94482200D02*
X59432618Y-94529819D01*
X59432618Y-94529819D02*
X59194523Y-94529819D01*
X59194523Y-94529819D02*
X59099285Y-94482200D01*
X59099285Y-94482200D02*
X59051666Y-94434580D01*
X59051666Y-94434580D02*
X59004047Y-94339342D01*
X59004047Y-94339342D02*
X59004047Y-94244104D01*
X59004047Y-94244104D02*
X59051666Y-94148866D01*
X59051666Y-94148866D02*
X59099285Y-94101247D01*
X59099285Y-94101247D02*
X59194523Y-94053628D01*
X59194523Y-94053628D02*
X59384999Y-94006009D01*
X59384999Y-94006009D02*
X59480237Y-93958390D01*
X59480237Y-93958390D02*
X59527856Y-93910771D01*
X59527856Y-93910771D02*
X59575475Y-93815533D01*
X59575475Y-93815533D02*
X59575475Y-93720295D01*
X59575475Y-93720295D02*
X59527856Y-93625057D01*
X59527856Y-93625057D02*
X59480237Y-93577438D01*
X59480237Y-93577438D02*
X59384999Y-93529819D01*
X59384999Y-93529819D02*
X59146904Y-93529819D01*
X59146904Y-93529819D02*
X59004047Y-93577438D01*
X58004047Y-94434580D02*
X58051666Y-94482200D01*
X58051666Y-94482200D02*
X58194523Y-94529819D01*
X58194523Y-94529819D02*
X58289761Y-94529819D01*
X58289761Y-94529819D02*
X58432618Y-94482200D01*
X58432618Y-94482200D02*
X58527856Y-94386961D01*
X58527856Y-94386961D02*
X58575475Y-94291723D01*
X58575475Y-94291723D02*
X58623094Y-94101247D01*
X58623094Y-94101247D02*
X58623094Y-93958390D01*
X58623094Y-93958390D02*
X58575475Y-93767914D01*
X58575475Y-93767914D02*
X58527856Y-93672676D01*
X58527856Y-93672676D02*
X58432618Y-93577438D01*
X58432618Y-93577438D02*
X58289761Y-93529819D01*
X58289761Y-93529819D02*
X58194523Y-93529819D01*
X58194523Y-93529819D02*
X58051666Y-93577438D01*
X58051666Y-93577438D02*
X58004047Y-93625057D01*
X57099285Y-94529819D02*
X57575475Y-94529819D01*
X57575475Y-94529819D02*
X57575475Y-93529819D01*
X60869285Y-100672200D02*
X60726428Y-100719819D01*
X60726428Y-100719819D02*
X60488333Y-100719819D01*
X60488333Y-100719819D02*
X60393095Y-100672200D01*
X60393095Y-100672200D02*
X60345476Y-100624580D01*
X60345476Y-100624580D02*
X60297857Y-100529342D01*
X60297857Y-100529342D02*
X60297857Y-100434104D01*
X60297857Y-100434104D02*
X60345476Y-100338866D01*
X60345476Y-100338866D02*
X60393095Y-100291247D01*
X60393095Y-100291247D02*
X60488333Y-100243628D01*
X60488333Y-100243628D02*
X60678809Y-100196009D01*
X60678809Y-100196009D02*
X60774047Y-100148390D01*
X60774047Y-100148390D02*
X60821666Y-100100771D01*
X60821666Y-100100771D02*
X60869285Y-100005533D01*
X60869285Y-100005533D02*
X60869285Y-99910295D01*
X60869285Y-99910295D02*
X60821666Y-99815057D01*
X60821666Y-99815057D02*
X60774047Y-99767438D01*
X60774047Y-99767438D02*
X60678809Y-99719819D01*
X60678809Y-99719819D02*
X60440714Y-99719819D01*
X60440714Y-99719819D02*
X60297857Y-99767438D01*
X59869285Y-100719819D02*
X59869285Y-99719819D01*
X59869285Y-99719819D02*
X59631190Y-99719819D01*
X59631190Y-99719819D02*
X59488333Y-99767438D01*
X59488333Y-99767438D02*
X59393095Y-99862676D01*
X59393095Y-99862676D02*
X59345476Y-99957914D01*
X59345476Y-99957914D02*
X59297857Y-100148390D01*
X59297857Y-100148390D02*
X59297857Y-100291247D01*
X59297857Y-100291247D02*
X59345476Y-100481723D01*
X59345476Y-100481723D02*
X59393095Y-100576961D01*
X59393095Y-100576961D02*
X59488333Y-100672200D01*
X59488333Y-100672200D02*
X59631190Y-100719819D01*
X59631190Y-100719819D02*
X59869285Y-100719819D01*
X58916904Y-100434104D02*
X58440714Y-100434104D01*
X59012142Y-100719819D02*
X58678809Y-99719819D01*
X58678809Y-99719819D02*
X58345476Y-100719819D01*
X61944047Y-94529819D02*
X62515475Y-94529819D01*
X62229761Y-94529819D02*
X62229761Y-93529819D01*
X62229761Y-93529819D02*
X62324999Y-93672676D01*
X62324999Y-93672676D02*
X62420237Y-93767914D01*
X62420237Y-93767914D02*
X62515475Y-93815533D01*
X61563094Y-93625057D02*
X61515475Y-93577438D01*
X61515475Y-93577438D02*
X61420237Y-93529819D01*
X61420237Y-93529819D02*
X61182142Y-93529819D01*
X61182142Y-93529819D02*
X61086904Y-93577438D01*
X61086904Y-93577438D02*
X61039285Y-93625057D01*
X61039285Y-93625057D02*
X60991666Y-93720295D01*
X60991666Y-93720295D02*
X60991666Y-93815533D01*
X60991666Y-93815533D02*
X61039285Y-93958390D01*
X61039285Y-93958390D02*
X61610713Y-94529819D01*
X61610713Y-94529819D02*
X60991666Y-94529819D01*
X60705951Y-93529819D02*
X60372618Y-94529819D01*
X60372618Y-94529819D02*
X60039285Y-93529819D01*
X63656904Y-99767438D02*
X63752142Y-99719819D01*
X63752142Y-99719819D02*
X63894999Y-99719819D01*
X63894999Y-99719819D02*
X64037856Y-99767438D01*
X64037856Y-99767438D02*
X64133094Y-99862676D01*
X64133094Y-99862676D02*
X64180713Y-99957914D01*
X64180713Y-99957914D02*
X64228332Y-100148390D01*
X64228332Y-100148390D02*
X64228332Y-100291247D01*
X64228332Y-100291247D02*
X64180713Y-100481723D01*
X64180713Y-100481723D02*
X64133094Y-100576961D01*
X64133094Y-100576961D02*
X64037856Y-100672200D01*
X64037856Y-100672200D02*
X63894999Y-100719819D01*
X63894999Y-100719819D02*
X63799761Y-100719819D01*
X63799761Y-100719819D02*
X63656904Y-100672200D01*
X63656904Y-100672200D02*
X63609285Y-100624580D01*
X63609285Y-100624580D02*
X63609285Y-100291247D01*
X63609285Y-100291247D02*
X63799761Y-100291247D01*
X63180713Y-100719819D02*
X63180713Y-99719819D01*
X63180713Y-99719819D02*
X62609285Y-100719819D01*
X62609285Y-100719819D02*
X62609285Y-99719819D01*
X62133094Y-100719819D02*
X62133094Y-99719819D01*
X62133094Y-99719819D02*
X61894999Y-99719819D01*
X61894999Y-99719819D02*
X61752142Y-99767438D01*
X61752142Y-99767438D02*
X61656904Y-99862676D01*
X61656904Y-99862676D02*
X61609285Y-99957914D01*
X61609285Y-99957914D02*
X61561666Y-100148390D01*
X61561666Y-100148390D02*
X61561666Y-100291247D01*
X61561666Y-100291247D02*
X61609285Y-100481723D01*
X61609285Y-100481723D02*
X61656904Y-100576961D01*
X61656904Y-100576961D02*
X61752142Y-100672200D01*
X61752142Y-100672200D02*
X61894999Y-100719819D01*
X61894999Y-100719819D02*
X62133094Y-100719819D01*
X65162618Y-94529819D02*
X65162618Y-93529819D01*
X64686428Y-94529819D02*
X64686428Y-93529819D01*
X64686428Y-93529819D02*
X64115000Y-94529819D01*
X64115000Y-94529819D02*
X64115000Y-93529819D01*
X63638809Y-94529819D02*
X63638809Y-93529819D01*
X63638809Y-94006009D02*
X63067381Y-94006009D01*
X63067381Y-94529819D02*
X63067381Y-93529819D01*
X79386057Y-97269219D02*
X79719390Y-96793028D01*
X79957485Y-97269219D02*
X79957485Y-96269219D01*
X79957485Y-96269219D02*
X79576533Y-96269219D01*
X79576533Y-96269219D02*
X79481295Y-96316838D01*
X79481295Y-96316838D02*
X79433676Y-96364457D01*
X79433676Y-96364457D02*
X79386057Y-96459695D01*
X79386057Y-96459695D02*
X79386057Y-96602552D01*
X79386057Y-96602552D02*
X79433676Y-96697790D01*
X79433676Y-96697790D02*
X79481295Y-96745409D01*
X79481295Y-96745409D02*
X79576533Y-96793028D01*
X79576533Y-96793028D02*
X79957485Y-96793028D01*
X78814628Y-96697790D02*
X78909866Y-96650171D01*
X78909866Y-96650171D02*
X78957485Y-96602552D01*
X78957485Y-96602552D02*
X79005104Y-96507314D01*
X79005104Y-96507314D02*
X79005104Y-96459695D01*
X79005104Y-96459695D02*
X78957485Y-96364457D01*
X78957485Y-96364457D02*
X78909866Y-96316838D01*
X78909866Y-96316838D02*
X78814628Y-96269219D01*
X78814628Y-96269219D02*
X78624152Y-96269219D01*
X78624152Y-96269219D02*
X78528914Y-96316838D01*
X78528914Y-96316838D02*
X78481295Y-96364457D01*
X78481295Y-96364457D02*
X78433676Y-96459695D01*
X78433676Y-96459695D02*
X78433676Y-96507314D01*
X78433676Y-96507314D02*
X78481295Y-96602552D01*
X78481295Y-96602552D02*
X78528914Y-96650171D01*
X78528914Y-96650171D02*
X78624152Y-96697790D01*
X78624152Y-96697790D02*
X78814628Y-96697790D01*
X78814628Y-96697790D02*
X78909866Y-96745409D01*
X78909866Y-96745409D02*
X78957485Y-96793028D01*
X78957485Y-96793028D02*
X79005104Y-96888266D01*
X79005104Y-96888266D02*
X79005104Y-97078742D01*
X79005104Y-97078742D02*
X78957485Y-97173980D01*
X78957485Y-97173980D02*
X78909866Y-97221600D01*
X78909866Y-97221600D02*
X78814628Y-97269219D01*
X78814628Y-97269219D02*
X78624152Y-97269219D01*
X78624152Y-97269219D02*
X78528914Y-97221600D01*
X78528914Y-97221600D02*
X78481295Y-97173980D01*
X78481295Y-97173980D02*
X78433676Y-97078742D01*
X78433676Y-97078742D02*
X78433676Y-96888266D01*
X78433676Y-96888266D02*
X78481295Y-96793028D01*
X78481295Y-96793028D02*
X78528914Y-96745409D01*
X78528914Y-96745409D02*
X78624152Y-96697790D01*
X78100342Y-96269219D02*
X77433676Y-96269219D01*
X77433676Y-96269219D02*
X77862247Y-97269219D01*
X73790066Y-88337419D02*
X74123399Y-87861228D01*
X74361494Y-88337419D02*
X74361494Y-87337419D01*
X74361494Y-87337419D02*
X73980542Y-87337419D01*
X73980542Y-87337419D02*
X73885304Y-87385038D01*
X73885304Y-87385038D02*
X73837685Y-87432657D01*
X73837685Y-87432657D02*
X73790066Y-87527895D01*
X73790066Y-87527895D02*
X73790066Y-87670752D01*
X73790066Y-87670752D02*
X73837685Y-87765990D01*
X73837685Y-87765990D02*
X73885304Y-87813609D01*
X73885304Y-87813609D02*
X73980542Y-87861228D01*
X73980542Y-87861228D02*
X74361494Y-87861228D01*
X73313875Y-88337419D02*
X73123399Y-88337419D01*
X73123399Y-88337419D02*
X73028161Y-88289800D01*
X73028161Y-88289800D02*
X72980542Y-88242180D01*
X72980542Y-88242180D02*
X72885304Y-88099323D01*
X72885304Y-88099323D02*
X72837685Y-87908847D01*
X72837685Y-87908847D02*
X72837685Y-87527895D01*
X72837685Y-87527895D02*
X72885304Y-87432657D01*
X72885304Y-87432657D02*
X72932923Y-87385038D01*
X72932923Y-87385038D02*
X73028161Y-87337419D01*
X73028161Y-87337419D02*
X73218637Y-87337419D01*
X73218637Y-87337419D02*
X73313875Y-87385038D01*
X73313875Y-87385038D02*
X73361494Y-87432657D01*
X73361494Y-87432657D02*
X73409113Y-87527895D01*
X73409113Y-87527895D02*
X73409113Y-87765990D01*
X73409113Y-87765990D02*
X73361494Y-87861228D01*
X73361494Y-87861228D02*
X73313875Y-87908847D01*
X73313875Y-87908847D02*
X73218637Y-87956466D01*
X73218637Y-87956466D02*
X73028161Y-87956466D01*
X73028161Y-87956466D02*
X72932923Y-87908847D01*
X72932923Y-87908847D02*
X72885304Y-87861228D01*
X72885304Y-87861228D02*
X72837685Y-87765990D01*
X76767757Y-73324319D02*
X77101090Y-72848128D01*
X77339185Y-73324319D02*
X77339185Y-72324319D01*
X77339185Y-72324319D02*
X76958233Y-72324319D01*
X76958233Y-72324319D02*
X76862995Y-72371938D01*
X76862995Y-72371938D02*
X76815376Y-72419557D01*
X76815376Y-72419557D02*
X76767757Y-72514795D01*
X76767757Y-72514795D02*
X76767757Y-72657652D01*
X76767757Y-72657652D02*
X76815376Y-72752890D01*
X76815376Y-72752890D02*
X76862995Y-72800509D01*
X76862995Y-72800509D02*
X76958233Y-72848128D01*
X76958233Y-72848128D02*
X77339185Y-72848128D01*
X76291566Y-73324319D02*
X76101090Y-73324319D01*
X76101090Y-73324319D02*
X76005852Y-73276700D01*
X76005852Y-73276700D02*
X75958233Y-73229080D01*
X75958233Y-73229080D02*
X75862995Y-73086223D01*
X75862995Y-73086223D02*
X75815376Y-72895747D01*
X75815376Y-72895747D02*
X75815376Y-72514795D01*
X75815376Y-72514795D02*
X75862995Y-72419557D01*
X75862995Y-72419557D02*
X75910614Y-72371938D01*
X75910614Y-72371938D02*
X76005852Y-72324319D01*
X76005852Y-72324319D02*
X76196328Y-72324319D01*
X76196328Y-72324319D02*
X76291566Y-72371938D01*
X76291566Y-72371938D02*
X76339185Y-72419557D01*
X76339185Y-72419557D02*
X76386804Y-72514795D01*
X76386804Y-72514795D02*
X76386804Y-72752890D01*
X76386804Y-72752890D02*
X76339185Y-72848128D01*
X76339185Y-72848128D02*
X76291566Y-72895747D01*
X76291566Y-72895747D02*
X76196328Y-72943366D01*
X76196328Y-72943366D02*
X76005852Y-72943366D01*
X76005852Y-72943366D02*
X75910614Y-72895747D01*
X75910614Y-72895747D02*
X75862995Y-72848128D01*
X75862995Y-72848128D02*
X75815376Y-72752890D01*
X74958233Y-72657652D02*
X74958233Y-73324319D01*
X75196328Y-72276700D02*
X75434423Y-72990985D01*
X75434423Y-72990985D02*
X74815376Y-72990985D01*
X71446364Y-86227234D02*
X72160649Y-86227234D01*
X72160649Y-86227234D02*
X72303506Y-86179615D01*
X72303506Y-86179615D02*
X72398745Y-86084377D01*
X72398745Y-86084377D02*
X72446364Y-85941520D01*
X72446364Y-85941520D02*
X72446364Y-85846282D01*
X72446364Y-87227234D02*
X72446364Y-86655806D01*
X72446364Y-86941520D02*
X71446364Y-86941520D01*
X71446364Y-86941520D02*
X71589221Y-86846282D01*
X71589221Y-86846282D02*
X71684459Y-86751044D01*
X71684459Y-86751044D02*
X71732078Y-86655806D01*
X72446364Y-88179615D02*
X72446364Y-87608187D01*
X72446364Y-87893901D02*
X71446364Y-87893901D01*
X71446364Y-87893901D02*
X71589221Y-87798663D01*
X71589221Y-87798663D02*
X71684459Y-87703425D01*
X71684459Y-87703425D02*
X71732078Y-87608187D01*
D11*
X49915000Y-97500000D02*
G75*
G02*
X49615000Y-97500000I-150000J0D01*
G01*
X49615000Y-97500000D02*
G75*
G02*
X49915000Y-97500000I150000J0D01*
G01*
D12*
X83846500Y-86809700D02*
X83846500Y-86874700D01*
X83846500Y-95614700D02*
X83846500Y-95679700D01*
X83846500Y-95679700D02*
X87966500Y-95679700D01*
X87966500Y-86809700D02*
X83846500Y-86809700D01*
X87966500Y-86874700D02*
X87966500Y-86809700D01*
X87966500Y-95679700D02*
X87966500Y-95614700D01*
X83546500Y-95944700D02*
X83066500Y-95944700D01*
X83306500Y-95614700D01*
X83546500Y-95944700D01*
G36*
X83546500Y-95944700D02*
G01*
X83066500Y-95944700D01*
X83306500Y-95614700D01*
X83546500Y-95944700D01*
G37*
X78516136Y-94429400D02*
X78970264Y-94429400D01*
X78516136Y-95899400D02*
X78970264Y-95899400D01*
X71893400Y-90534664D02*
X71893400Y-90080536D01*
X73363400Y-90534664D02*
X73363400Y-90080536D01*
X63075000Y-70811500D02*
X59065000Y-70811500D01*
X63075000Y-70811500D02*
X63075000Y-72811500D01*
X63075000Y-72811500D02*
X59065000Y-72811500D01*
X89255280Y-75224500D02*
X88974120Y-75224500D01*
X89255280Y-76244500D02*
X88974120Y-76244500D01*
X63159680Y-87890200D02*
X62878520Y-87890200D01*
X63159680Y-88910200D02*
X62878520Y-88910200D01*
X78667000Y-99878242D02*
X78667000Y-100352758D01*
X79712000Y-99878242D02*
X79712000Y-100352758D01*
X88506500Y-73520080D02*
X88506500Y-73238920D01*
X89526500Y-73520080D02*
X89526500Y-73238920D01*
X73088880Y-106256600D02*
X72807720Y-106256600D01*
X73088880Y-107276600D02*
X72807720Y-107276600D01*
X72486800Y-102685100D02*
X72486800Y-102735100D01*
X72486800Y-105755100D02*
X72486800Y-105805100D01*
X72486800Y-105805100D02*
X74306800Y-105805100D01*
X74306800Y-102685100D02*
X72486800Y-102685100D01*
X74306800Y-102735100D02*
X74306800Y-102685100D01*
X74306800Y-104635100D02*
X74306800Y-103855100D01*
X74306800Y-105805100D02*
X74306800Y-105755100D01*
X72186800Y-106085100D02*
X71706800Y-106085100D01*
X71946800Y-105755100D01*
X72186800Y-106085100D01*
G36*
X72186800Y-106085100D02*
G01*
X71706800Y-106085100D01*
X71946800Y-105755100D01*
X72186800Y-106085100D01*
G37*
X52694900Y-90931358D02*
X52694900Y-90456842D01*
X53739900Y-90931358D02*
X53739900Y-90456842D01*
X75066900Y-94936600D02*
X75066900Y-97596600D01*
X75066900Y-94936600D02*
X76766900Y-94936600D01*
X76766900Y-94936600D02*
X76766900Y-97596600D01*
X75526780Y-88795800D02*
X75245620Y-88795800D01*
X75526780Y-89815800D02*
X75245620Y-89815800D01*
X63188942Y-103628800D02*
X63663458Y-103628800D01*
X63188942Y-104673800D02*
X63663458Y-104673800D01*
X63114142Y-91188000D02*
X63588658Y-91188000D01*
X63114142Y-92233000D02*
X63588658Y-92233000D01*
X57791880Y-102084600D02*
X57510720Y-102084600D01*
X57791880Y-103104600D02*
X57510720Y-103104600D01*
X78455500Y-79108380D02*
X78455500Y-78827220D01*
X79475500Y-79108380D02*
X79475500Y-78827220D01*
X71061880Y-113016200D02*
X70780720Y-113016200D01*
X71061880Y-114036200D02*
X70780720Y-114036200D01*
X75622680Y-93475900D02*
X75341520Y-93475900D01*
X75622680Y-94495900D02*
X75341520Y-94495900D01*
X79144720Y-88938900D02*
X79425880Y-88938900D01*
X79144720Y-89958900D02*
X79425880Y-89958900D01*
X69354299Y-111738600D02*
X65344299Y-111738600D01*
X69354299Y-111738600D02*
X69354299Y-113738600D01*
X69354299Y-113738600D02*
X65344299Y-113738600D01*
X72100264Y-70575200D02*
X71646136Y-70575200D01*
X72100264Y-72045200D02*
X71646136Y-72045200D01*
X50992300Y-85825142D02*
X50992300Y-86299658D01*
X52037300Y-85825142D02*
X52037300Y-86299658D01*
X72302900Y-93336942D02*
X72302900Y-93811458D01*
X73347900Y-93336942D02*
X73347900Y-93811458D01*
X60643942Y-102078800D02*
X61118458Y-102078800D01*
X60643942Y-103123800D02*
X61118458Y-103123800D01*
X75191300Y-111060100D02*
X75191300Y-111110100D01*
X75191300Y-114130100D02*
X75191300Y-114180100D01*
X75191300Y-114180100D02*
X77011300Y-114180100D01*
X77011300Y-111060100D02*
X75191300Y-111060100D01*
X77011300Y-111110100D02*
X77011300Y-111060100D01*
X77011300Y-113010100D02*
X77011300Y-112230100D01*
X77011300Y-114180100D02*
X77011300Y-114130100D01*
X74891300Y-114460100D02*
X74411300Y-114460100D01*
X74651300Y-114130100D01*
X74891300Y-114460100D01*
G36*
X74891300Y-114460100D02*
G01*
X74411300Y-114460100D01*
X74651300Y-114130100D01*
X74891300Y-114460100D01*
G37*
X86478000Y-82606200D02*
X86478000Y-82656200D01*
X86478000Y-83776200D02*
X86478000Y-84556200D01*
X86478000Y-85676200D02*
X86478000Y-85726200D01*
X86478000Y-85726200D02*
X88298000Y-85726200D01*
X88298000Y-82606200D02*
X86478000Y-82606200D01*
X88298000Y-82656200D02*
X88298000Y-82606200D01*
X88298000Y-85726200D02*
X88298000Y-85676200D01*
X88838000Y-82656200D02*
X88598000Y-82326200D01*
X89078000Y-82326200D01*
X88838000Y-82656200D01*
G36*
X88838000Y-82656200D02*
G01*
X88598000Y-82326200D01*
X89078000Y-82326200D01*
X88838000Y-82656200D01*
G37*
X88462800Y-101996152D02*
X88462800Y-100573648D01*
X90282800Y-101996152D02*
X90282800Y-100573648D01*
X79721642Y-101901000D02*
X80196158Y-101901000D01*
X79721642Y-102946000D02*
X80196158Y-102946000D01*
X75709558Y-91912500D02*
X75235042Y-91912500D01*
X75709558Y-92957500D02*
X75235042Y-92957500D01*
X75678000Y-104406800D02*
X75678000Y-106226800D01*
X75678000Y-106226800D02*
X75728000Y-106226800D01*
X75728000Y-104406800D02*
X75678000Y-104406800D01*
X77628000Y-104406800D02*
X76848000Y-104406800D01*
X78748000Y-106226800D02*
X78798000Y-106226800D01*
X78798000Y-104406800D02*
X78748000Y-104406800D01*
X78798000Y-106226800D02*
X78798000Y-104406800D01*
X79078000Y-107006800D02*
X78748000Y-106766800D01*
X79078000Y-106526800D01*
X79078000Y-107006800D01*
G36*
X79078000Y-107006800D02*
G01*
X78748000Y-106766800D01*
X79078000Y-106526800D01*
X79078000Y-107006800D01*
G37*
X77456200Y-85666000D02*
X77456200Y-87486000D01*
X77456200Y-87486000D02*
X77506200Y-87486000D01*
X77506200Y-85666000D02*
X77456200Y-85666000D01*
X79406200Y-85666000D02*
X78626200Y-85666000D01*
X80526200Y-87486000D02*
X80576200Y-87486000D01*
X80576200Y-85666000D02*
X80526200Y-85666000D01*
X80576200Y-87486000D02*
X80576200Y-85666000D01*
X80856200Y-88266000D02*
X80526200Y-88026000D01*
X80856200Y-87786000D01*
X80856200Y-88266000D01*
G36*
X80856200Y-88266000D02*
G01*
X80526200Y-88026000D01*
X80856200Y-87786000D01*
X80856200Y-88266000D01*
G37*
X80286100Y-70474600D02*
X84296100Y-70474600D01*
X80286100Y-72474600D02*
X80286100Y-70474600D01*
X80286100Y-72474600D02*
X84296100Y-72474600D01*
X63340120Y-105232100D02*
X63621280Y-105232100D01*
X63340120Y-106252100D02*
X63621280Y-106252100D01*
X88993900Y-97272820D02*
X88993900Y-97553980D01*
X90013900Y-97272820D02*
X90013900Y-97553980D01*
X50610442Y-91224300D02*
X51084958Y-91224300D01*
X50610442Y-92269300D02*
X51084958Y-92269300D01*
X60223720Y-103959200D02*
X60504880Y-103959200D01*
X60223720Y-104979200D02*
X60504880Y-104979200D01*
X47686200Y-85427900D02*
X47686200Y-86427900D01*
X47686200Y-87547900D02*
X47686200Y-88547900D01*
X47686200Y-88547900D02*
X49206200Y-88547900D01*
X49206200Y-85427900D02*
X47686200Y-85427900D01*
X49206200Y-85477900D02*
X49206200Y-85427900D01*
X49206200Y-87377900D02*
X49206200Y-86597900D01*
X49206200Y-88547900D02*
X49206200Y-88497900D01*
X49986200Y-86937900D02*
X49506200Y-86937900D01*
X49746200Y-86607900D01*
X49986200Y-86937900D01*
G36*
X49986200Y-86937900D02*
G01*
X49506200Y-86937900D01*
X49746200Y-86607900D01*
X49986200Y-86937900D01*
G37*
X48712300Y-106543600D02*
X48712300Y-110553600D01*
X48712300Y-106543600D02*
X50712300Y-106543600D01*
X50712300Y-106543600D02*
X50712300Y-110553600D01*
X79166058Y-92869200D02*
X78691542Y-92869200D01*
X79166058Y-93914200D02*
X78691542Y-93914200D01*
X46504500Y-80336042D02*
X46504500Y-80810558D01*
X47549500Y-80336042D02*
X47549500Y-80810558D01*
X75310220Y-90373800D02*
X75591380Y-90373800D01*
X75310220Y-91393800D02*
X75591380Y-91393800D01*
X68461320Y-71041800D02*
X68742480Y-71041800D01*
X68461320Y-72061800D02*
X68742480Y-72061800D01*
X72484300Y-99194200D02*
X72484300Y-99244200D01*
X72484300Y-100364200D02*
X72484300Y-101144200D01*
X72484300Y-102264200D02*
X72484300Y-102314200D01*
X72484300Y-102314200D02*
X74304300Y-102314200D01*
X74304300Y-99194200D02*
X72484300Y-99194200D01*
X74304300Y-99244200D02*
X74304300Y-99194200D01*
X74304300Y-102314200D02*
X74304300Y-102264200D01*
X74844300Y-99244200D02*
X74604300Y-98914200D01*
X75084300Y-98914200D01*
X74844300Y-99244200D01*
G36*
X74844300Y-99244200D02*
G01*
X74604300Y-98914200D01*
X75084300Y-98914200D01*
X74844300Y-99244200D01*
G37*
X47488700Y-83427142D02*
X47488700Y-83901658D01*
X48533700Y-83427142D02*
X48533700Y-83901658D01*
X75897836Y-70484500D02*
X76351964Y-70484500D01*
X75897836Y-71954500D02*
X76351964Y-71954500D01*
X80738800Y-94377258D02*
X80738800Y-93902742D01*
X81783800Y-94377258D02*
X81783800Y-93902742D01*
X87227180Y-103895100D02*
X86946020Y-103895100D01*
X87227180Y-104915100D02*
X86946020Y-104915100D01*
X88556300Y-78363748D02*
X88556300Y-78886252D01*
X90026300Y-78363748D02*
X90026300Y-78886252D01*
X52578680Y-70658700D02*
X52297520Y-70658700D01*
X52578680Y-71678700D02*
X52297520Y-71678700D01*
X80217800Y-100353058D02*
X80217800Y-99878542D01*
X81262800Y-100353058D02*
X81262800Y-99878542D01*
X48840300Y-73109380D02*
X48840300Y-72828220D01*
X49860300Y-73109380D02*
X49860300Y-72828220D01*
X72704700Y-111603342D02*
X72704700Y-112077858D01*
X73749700Y-111603342D02*
X73749700Y-112077858D01*
X71735400Y-97420680D02*
X71735400Y-97139520D01*
X72755400Y-97420680D02*
X72755400Y-97139520D01*
X81517958Y-112618300D02*
X81043442Y-112618300D01*
X81517958Y-113663300D02*
X81043442Y-113663300D01*
X78465200Y-112945420D02*
X78465200Y-113226580D01*
X79485200Y-112945420D02*
X79485200Y-113226580D01*
X79995300Y-78656742D02*
X79995300Y-79131258D01*
X81040300Y-78656742D02*
X81040300Y-79131258D01*
X81489620Y-80684400D02*
X81770780Y-80684400D01*
X81489620Y-81704400D02*
X81770780Y-81704400D01*
X50583900Y-87633600D02*
X50583900Y-90293600D01*
X50583900Y-87633600D02*
X52283900Y-87633600D01*
X52283900Y-87633600D02*
X52283900Y-90293600D01*
X88868742Y-70544700D02*
X89343258Y-70544700D01*
X88868742Y-71589700D02*
X89343258Y-71589700D01*
X62490220Y-89443400D02*
X62771380Y-89443400D01*
X62490220Y-90463400D02*
X62771380Y-90463400D01*
X73918500Y-81498200D02*
X73918500Y-83318200D01*
X73918500Y-83318200D02*
X73968500Y-83318200D01*
X73968500Y-81498200D02*
X73918500Y-81498200D01*
X75088500Y-83318200D02*
X75868500Y-83318200D01*
X76988500Y-83318200D02*
X77038500Y-83318200D01*
X77038500Y-81498200D02*
X76988500Y-81498200D01*
X77038500Y-83318200D02*
X77038500Y-81498200D01*
X73968500Y-80958200D02*
X73638500Y-81198200D01*
X73638500Y-80718200D01*
X73968500Y-80958200D01*
G36*
X73968500Y-80958200D02*
G01*
X73638500Y-81198200D01*
X73638500Y-80718200D01*
X73968500Y-80958200D01*
G37*
X47532500Y-103450248D02*
X47532500Y-104872752D01*
X49352500Y-103450248D02*
X49352500Y-104872752D01*
X54163100Y-86307400D02*
X54163100Y-90927400D01*
X60933100Y-90927400D02*
X60933100Y-86307400D01*
X54618100Y-84757400D02*
X54378100Y-84427400D01*
X54858100Y-84427400D01*
X54618100Y-84757400D01*
G36*
X54618100Y-84757400D02*
G01*
X54378100Y-84427400D01*
X54858100Y-84427400D01*
X54618100Y-84757400D01*
G37*
X73564300Y-97127020D02*
X73564300Y-97408180D01*
X74584300Y-97127020D02*
X74584300Y-97408180D01*
X51628000Y-72350100D02*
X55638000Y-72350100D01*
X51628000Y-74350100D02*
X51628000Y-72350100D01*
X51628000Y-74350100D02*
X55638000Y-74350100D01*
X80059352Y-90510000D02*
X78636848Y-90510000D01*
X80059352Y-92330000D02*
X78636848Y-92330000D01*
X49143658Y-89121400D02*
X48669142Y-89121400D01*
X49143658Y-90166400D02*
X48669142Y-90166400D01*
D13*
G36*
X54823223Y-109783683D02*
G01*
X54857201Y-109809080D01*
X54857617Y-109809799D01*
X54877707Y-109872750D01*
X54867342Y-109928389D01*
X54830736Y-109968095D01*
X54772100Y-109983246D01*
X54746254Y-109981008D01*
X54692048Y-109957230D01*
X54660237Y-109914791D01*
X54655559Y-109862848D01*
X54682754Y-109810563D01*
X54718460Y-109787016D01*
X54771804Y-109776372D01*
X54823223Y-109783683D01*
G37*
G36*
X54956493Y-109386190D02*
G01*
X55010971Y-109420015D01*
X55028805Y-109444794D01*
X55038937Y-109497932D01*
X55023401Y-109550483D01*
X54987019Y-109590659D01*
X54934615Y-109606671D01*
X54934027Y-109606669D01*
X54879631Y-109589736D01*
X54837788Y-109548020D01*
X54821052Y-109493976D01*
X54825585Y-109458674D01*
X54854226Y-109409248D01*
X54901053Y-109383844D01*
X54956493Y-109386190D01*
G37*
G36*
X59810895Y-107526359D02*
G01*
X59823191Y-107552888D01*
X59825312Y-107599224D01*
X59823849Y-107628438D01*
X59840962Y-107644547D01*
X59886391Y-107653677D01*
X59958032Y-107672238D01*
X60037302Y-107722775D01*
X60091232Y-107799610D01*
X60123639Y-107854308D01*
X60185185Y-107921654D01*
X60257009Y-107973632D01*
X60327393Y-108000285D01*
X60348081Y-108004157D01*
X60386123Y-108019168D01*
X60388522Y-108042043D01*
X60356708Y-108076496D01*
X60338019Y-108093728D01*
X60321719Y-108120093D01*
X60339329Y-108133982D01*
X60392374Y-108138027D01*
X60412961Y-108136480D01*
X60483877Y-108111882D01*
X60547041Y-108065104D01*
X60587527Y-108006226D01*
X60589451Y-108001462D01*
X60600989Y-107987484D01*
X60618589Y-108006226D01*
X60630340Y-108031226D01*
X60638851Y-108078848D01*
X60638900Y-108082222D01*
X60646371Y-108111561D01*
X60670585Y-108111161D01*
X60709098Y-108098305D01*
X60794753Y-108079852D01*
X60882379Y-108071720D01*
X60962440Y-108073946D01*
X61025401Y-108086568D01*
X61061725Y-108109622D01*
X61064580Y-108113263D01*
X61083240Y-108121890D01*
X61116200Y-108114028D01*
X61172279Y-108087948D01*
X61223404Y-108064826D01*
X61268334Y-108056113D01*
X61293143Y-108072919D01*
X61303111Y-108116392D01*
X61303576Y-108121447D01*
X61309912Y-108140695D01*
X61329008Y-108151501D01*
X61369158Y-108156410D01*
X61438661Y-108157968D01*
X61462669Y-108158627D01*
X61563612Y-108171455D01*
X61651918Y-108198116D01*
X61719329Y-108235445D01*
X61757590Y-108280275D01*
X61766893Y-108295285D01*
X61813734Y-108332439D01*
X61885854Y-108363535D01*
X61974301Y-108385304D01*
X62070125Y-108394476D01*
X62105206Y-108395337D01*
X62159601Y-108400317D01*
X62185282Y-108414144D01*
X62188432Y-108442499D01*
X62175236Y-108491067D01*
X62171091Y-108523864D01*
X62190588Y-108533431D01*
X62200754Y-108535528D01*
X62238651Y-108555557D01*
X62283779Y-108589918D01*
X62302357Y-108605361D01*
X62344962Y-108634701D01*
X62373871Y-108646299D01*
X62451580Y-108632492D01*
X62535573Y-108595100D01*
X62606413Y-108541922D01*
X62612332Y-108536041D01*
X62651355Y-108501318D01*
X62676061Y-108491415D01*
X62695041Y-108502509D01*
X62709834Y-108514610D01*
X62736709Y-108517155D01*
X62782309Y-108501424D01*
X62808135Y-108492195D01*
X62870240Y-108480384D01*
X62926443Y-108481574D01*
X62966635Y-108494853D01*
X62980705Y-108519310D01*
X62985151Y-108535861D01*
X63013081Y-108551390D01*
X63056048Y-108552780D01*
X63101858Y-108540396D01*
X63138319Y-108514603D01*
X63170679Y-108483582D01*
X63195457Y-108483130D01*
X63219394Y-108515937D01*
X63228694Y-108541714D01*
X63222770Y-108605374D01*
X63217897Y-108619959D01*
X63214959Y-108644981D01*
X63233207Y-108655841D01*
X63280865Y-108660316D01*
X63335119Y-108668277D01*
X63393634Y-108690390D01*
X63429887Y-108721320D01*
X63436184Y-108756310D01*
X63435331Y-108759308D01*
X63441998Y-108787271D01*
X63481504Y-108809806D01*
X63506502Y-108818502D01*
X63530822Y-108818842D01*
X63548238Y-108797769D01*
X63568648Y-108748299D01*
X63586841Y-108684547D01*
X63587720Y-108588013D01*
X63583872Y-108563011D01*
X63581704Y-108527730D01*
X63592495Y-108516871D01*
X63620617Y-108521611D01*
X63645385Y-108525493D01*
X63665781Y-108513565D01*
X63677949Y-108473001D01*
X63700424Y-108402628D01*
X63747361Y-108342516D01*
X63818692Y-108308162D01*
X63863063Y-108293056D01*
X63928180Y-108257749D01*
X63973597Y-108215924D01*
X63990659Y-108174318D01*
X63996807Y-108151734D01*
X64022849Y-108138473D01*
X64059288Y-108148240D01*
X64095102Y-108180392D01*
X64120122Y-108206009D01*
X64135396Y-108199221D01*
X64152786Y-108180758D01*
X64184948Y-108184059D01*
X64222354Y-108209495D01*
X64257338Y-108251556D01*
X64282229Y-108304732D01*
X64283810Y-108309346D01*
X64309181Y-108353768D01*
X64347645Y-108398876D01*
X64370992Y-108425258D01*
X64417901Y-108499843D01*
X64458952Y-108590413D01*
X64488105Y-108682525D01*
X64499321Y-108761731D01*
X64499852Y-108778758D01*
X64509132Y-108855418D01*
X64526245Y-108928835D01*
X64527910Y-108934459D01*
X64539835Y-109001171D01*
X64547213Y-109093118D01*
X64550261Y-109201333D01*
X64549199Y-109316848D01*
X64544242Y-109430697D01*
X64535610Y-109533913D01*
X64523519Y-109617526D01*
X64508188Y-109672572D01*
X64492543Y-109715953D01*
X64473077Y-109791748D01*
X64459504Y-109870274D01*
X64451380Y-109927080D01*
X64433938Y-110025572D01*
X64414715Y-110115047D01*
X64401644Y-110172760D01*
X64382859Y-110267588D01*
X64368918Y-110351782D01*
X64363195Y-110385474D01*
X64345219Y-110467458D01*
X64320671Y-110562845D01*
X64293134Y-110657196D01*
X64282376Y-110690723D01*
X64244222Y-110792035D01*
X64205469Y-110861327D01*
X64162128Y-110902827D01*
X64110212Y-110920759D01*
X64045731Y-110919351D01*
X64019189Y-110916491D01*
X63982529Y-110919055D01*
X63971830Y-110935228D01*
X63971810Y-110935982D01*
X63956178Y-110962496D01*
X63923124Y-110988361D01*
X63889835Y-110999999D01*
X63880082Y-110984720D01*
X63868952Y-110946611D01*
X63855464Y-110915973D01*
X63809186Y-110872306D01*
X63741714Y-110841931D01*
X63663144Y-110830540D01*
X63645571Y-110829686D01*
X63605649Y-110820507D01*
X63558102Y-110798274D01*
X63495830Y-110759300D01*
X63411736Y-110699894D01*
X63405519Y-110695512D01*
X63349298Y-110662034D01*
X63287732Y-110632481D01*
X63265446Y-110623413D01*
X63232223Y-110612231D01*
X63222136Y-110617134D01*
X63227060Y-110638994D01*
X63230097Y-110658366D01*
X63218479Y-110669312D01*
X63184430Y-110673795D01*
X63120350Y-110674329D01*
X63113005Y-110674309D01*
X63005206Y-110684683D01*
X62920019Y-110717724D01*
X62848052Y-110776972D01*
X62845926Y-110779256D01*
X62824122Y-110805267D01*
X62816420Y-110829169D01*
X62822186Y-110863540D01*
X62840784Y-110920960D01*
X62874641Y-111020794D01*
X62820864Y-111031549D01*
X62816052Y-111032529D01*
X62783793Y-111043345D01*
X62773432Y-111065373D01*
X62778133Y-111111379D01*
X62780681Y-111136186D01*
X62777910Y-111202035D01*
X62765022Y-111267002D01*
X62745015Y-111318833D01*
X62720889Y-111345276D01*
X62700322Y-111365804D01*
X62672869Y-111410154D01*
X62645527Y-111465395D01*
X62624542Y-111518849D01*
X62616159Y-111557841D01*
X62606432Y-111574265D01*
X62572095Y-111583691D01*
X62555247Y-111585147D01*
X62534913Y-111597753D01*
X62519842Y-111630501D01*
X62504705Y-111691956D01*
X62490475Y-111745477D01*
X62460232Y-111832947D01*
X62425658Y-111913194D01*
X62369935Y-112026167D01*
X62418998Y-112032247D01*
X62449699Y-112037749D01*
X62456860Y-112051348D01*
X62438118Y-112084026D01*
X62408175Y-112129725D01*
X62495379Y-112129725D01*
X62530823Y-112130066D01*
X62565082Y-112134495D01*
X62575461Y-112148501D01*
X62570577Y-112177566D01*
X62558570Y-112225406D01*
X62620315Y-112193606D01*
X62621483Y-112192999D01*
X62676283Y-112157080D01*
X62721992Y-112115573D01*
X62761924Y-112069340D01*
X62792600Y-112113137D01*
X62812887Y-112150157D01*
X62823276Y-112188963D01*
X62827790Y-112206116D01*
X62851416Y-112216866D01*
X62903298Y-112218035D01*
X62915019Y-112217827D01*
X62982907Y-112224414D01*
X63044223Y-112241507D01*
X63088610Y-112265316D01*
X63105707Y-112292054D01*
X63103562Y-112302997D01*
X63082171Y-112319631D01*
X63080488Y-112319808D01*
X63082327Y-112326020D01*
X63112891Y-112337494D01*
X63146533Y-112343984D01*
X63204787Y-112344267D01*
X63256373Y-112334158D01*
X63286083Y-112315581D01*
X63307341Y-112298476D01*
X63324586Y-112313449D01*
X63331652Y-112355670D01*
X63332590Y-112378207D01*
X63344224Y-112405521D01*
X63376185Y-112412156D01*
X63377498Y-112412173D01*
X63419805Y-112423374D01*
X63466541Y-112449219D01*
X63504367Y-112480729D01*
X63519940Y-112508923D01*
X63521038Y-112514378D01*
X63537360Y-112546273D01*
X63567012Y-112589356D01*
X63596468Y-112638798D01*
X63613940Y-112724608D01*
X63613639Y-112735381D01*
X63605047Y-112801194D01*
X63587279Y-112879968D01*
X63563948Y-112959140D01*
X63538668Y-113026150D01*
X63515052Y-113068435D01*
X63508933Y-113076687D01*
X63484276Y-113120808D01*
X63460115Y-113176470D01*
X63448211Y-113205187D01*
X63415874Y-113269451D01*
X63377334Y-113334483D01*
X63338286Y-113391639D01*
X63304424Y-113432273D01*
X63281444Y-113447738D01*
X63266032Y-113454820D01*
X63246982Y-113485208D01*
X63244462Y-113491773D01*
X63220956Y-113530761D01*
X63183890Y-113578385D01*
X63142039Y-113624765D01*
X63104178Y-113660019D01*
X63079082Y-113674266D01*
X63064319Y-113682652D01*
X63032072Y-113714370D01*
X62993309Y-113761514D01*
X62966446Y-113794015D01*
X62910087Y-113854781D01*
X62840968Y-113923817D01*
X62768416Y-113991584D01*
X62728232Y-114028041D01*
X62637948Y-114111682D01*
X62546659Y-114198124D01*
X62469027Y-114273556D01*
X62456837Y-114285563D01*
X62364856Y-114369278D01*
X62282651Y-114427272D01*
X62199935Y-114464309D01*
X62106423Y-114485154D01*
X61991828Y-114494569D01*
X61926485Y-114496922D01*
X61871399Y-114496945D01*
X61840999Y-114492432D01*
X61828059Y-114482083D01*
X61825351Y-114464596D01*
X61824126Y-114449727D01*
X61809783Y-114435125D01*
X61770748Y-114438696D01*
X61716144Y-114449617D01*
X61716144Y-114336947D01*
X61713994Y-114287102D01*
X61705061Y-114222809D01*
X61691550Y-114179633D01*
X61687390Y-114170105D01*
X61675765Y-114116355D01*
X61667529Y-114031866D01*
X61663255Y-113921857D01*
X61661344Y-113844977D01*
X61658246Y-113772155D01*
X61654570Y-113721170D01*
X61650759Y-113699932D01*
X61632091Y-113696071D01*
X61581482Y-113693258D01*
X61505978Y-113692129D01*
X61412308Y-113692776D01*
X61307199Y-113695289D01*
X61305435Y-113695336D01*
X61229541Y-113685507D01*
X61152612Y-113657455D01*
X61130426Y-113646930D01*
X61072949Y-113625658D01*
X61029070Y-113617197D01*
X61007624Y-113614269D01*
X60954082Y-113597700D01*
X60893940Y-113571381D01*
X60853656Y-113551645D01*
X60814905Y-113537653D01*
X60787406Y-113539317D01*
X60758360Y-113555102D01*
X60736606Y-113567753D01*
X60706686Y-113572529D01*
X60693071Y-113547066D01*
X60692850Y-113488399D01*
X60693659Y-113452719D01*
X60682924Y-113417038D01*
X60651798Y-113392989D01*
X60617801Y-113367194D01*
X60585811Y-113324763D01*
X60564595Y-113295586D01*
X60528857Y-113290949D01*
X60503309Y-113290583D01*
X60472848Y-113264152D01*
X60456012Y-113212805D01*
X60456359Y-113143764D01*
X60457309Y-113136551D01*
X60460180Y-113093169D01*
X60450181Y-113074901D01*
X60422357Y-113071163D01*
X60383733Y-113069739D01*
X60344786Y-113058863D01*
X60337304Y-113033595D01*
X60357855Y-112989594D01*
X60380319Y-112949785D01*
X60391085Y-112911552D01*
X60374626Y-112887607D01*
X60328801Y-112869071D01*
X60322877Y-112867261D01*
X60284100Y-112857178D01*
X60272828Y-112861842D01*
X60281729Y-112883503D01*
X60292332Y-112905254D01*
X60300221Y-112928710D01*
X60288547Y-112936978D01*
X60251457Y-112939518D01*
X60201189Y-112935264D01*
X60150446Y-112925402D01*
X60111934Y-112911119D01*
X60111683Y-112910975D01*
X60065545Y-112888041D01*
X60042742Y-112887752D01*
X60036619Y-112910007D01*
X60036065Y-112920626D01*
X60024783Y-112942523D01*
X59996429Y-112941073D01*
X59947667Y-112915334D01*
X59875164Y-112864364D01*
X59864397Y-112856394D01*
X59788171Y-112805337D01*
X59729645Y-112776076D01*
X59692115Y-112769894D01*
X59678872Y-112788069D01*
X59669094Y-112804992D01*
X59637454Y-112828402D01*
X59636194Y-112829072D01*
X59606766Y-112839084D01*
X59581089Y-112828228D01*
X59546647Y-112791407D01*
X59501479Y-112750027D01*
X59449244Y-112732245D01*
X59433435Y-112732874D01*
X59411295Y-112741833D01*
X59399597Y-112769112D01*
X59392380Y-112824366D01*
X59391478Y-112832636D01*
X59373407Y-112909052D01*
X59342913Y-112968120D01*
X59340665Y-112971032D01*
X59313492Y-113016492D01*
X59302297Y-113054874D01*
X59290979Y-113094595D01*
X59262947Y-113130222D01*
X59228980Y-113151074D01*
X59199860Y-113147409D01*
X59192300Y-113142305D01*
X59169421Y-113144941D01*
X59141352Y-113178739D01*
X59112521Y-113217727D01*
X59046594Y-113277889D01*
X58955409Y-113328556D01*
X58923104Y-113342202D01*
X58888298Y-113350090D01*
X58873773Y-113338964D01*
X58871977Y-113334845D01*
X58853778Y-113329469D01*
X58815843Y-113350397D01*
X58792721Y-113365710D01*
X58742367Y-113392270D01*
X58683161Y-113411856D01*
X58600787Y-113429750D01*
X58577240Y-113435153D01*
X58509531Y-113458654D01*
X58456223Y-113487471D01*
X58437780Y-113499561D01*
X58390316Y-113516193D01*
X58355534Y-113508257D01*
X58342030Y-113476572D01*
X58341944Y-113471311D01*
X58337434Y-113454569D01*
X58320434Y-113449766D01*
X58283184Y-113456852D01*
X58217929Y-113475778D01*
X58199772Y-113481001D01*
X58095255Y-113500293D01*
X58001553Y-113500153D01*
X57929284Y-113480411D01*
X57909818Y-113468955D01*
X57881182Y-113441643D01*
X57877203Y-113419320D01*
X57901123Y-113410081D01*
X57917526Y-113408146D01*
X57922713Y-113398720D01*
X57918843Y-113397530D01*
X57886669Y-113398935D01*
X57830755Y-113406146D01*
X57760761Y-113417514D01*
X57686349Y-113431393D01*
X57617177Y-113446134D01*
X57562907Y-113460089D01*
X57544700Y-113463493D01*
X57533312Y-113451709D01*
X57536110Y-113412123D01*
X57536562Y-113408936D01*
X57538941Y-113369936D01*
X57533840Y-113354211D01*
X57533787Y-113354214D01*
X57510666Y-113356801D01*
X57460972Y-113362927D01*
X57395382Y-113371276D01*
X57306964Y-113378772D01*
X57229518Y-113374866D01*
X57182226Y-113357853D01*
X57167848Y-113328256D01*
X57167983Y-113312525D01*
X57161858Y-113297108D01*
X57146032Y-113298986D01*
X57099553Y-113305355D01*
X57030465Y-113315165D01*
X56946677Y-113327307D01*
X56921106Y-113330924D01*
X56790174Y-113344521D01*
X56692168Y-113345166D01*
X56627917Y-113332906D01*
X56598250Y-113307788D01*
X56592078Y-113300000D01*
X56555581Y-113283984D01*
X56497809Y-113272861D01*
X56430248Y-113267745D01*
X56364386Y-113269750D01*
X56311709Y-113279991D01*
X56286346Y-113287914D01*
X56246611Y-113290948D01*
X56234262Y-113269498D01*
X56246545Y-113221075D01*
X56246660Y-113220770D01*
X56258618Y-113182470D01*
X56249086Y-113167726D01*
X56210883Y-113165307D01*
X56188838Y-113164192D01*
X56108375Y-113141866D01*
X56020787Y-113089236D01*
X55922216Y-113004148D01*
X55888378Y-112972308D01*
X55834063Y-112928573D01*
X55785972Y-112903780D01*
X55732581Y-112891056D01*
X55681120Y-112885957D01*
X55635315Y-112893009D01*
X55592216Y-112918158D01*
X55585332Y-112923188D01*
X55548336Y-112948064D01*
X55527893Y-112958190D01*
X55518313Y-112944272D01*
X55516581Y-112905909D01*
X55522310Y-112855587D01*
X55534012Y-112805885D01*
X55550202Y-112769385D01*
X55616626Y-112689091D01*
X55694587Y-112622061D01*
X55770398Y-112582112D01*
X55841025Y-112558803D01*
X55781763Y-112509016D01*
X55737002Y-112453854D01*
X55717013Y-112374217D01*
X55729958Y-112276451D01*
X55732979Y-112264780D01*
X55734221Y-112236652D01*
X55715195Y-112219168D01*
X55667722Y-112202629D01*
X55646764Y-112195789D01*
X55607820Y-112175259D01*
X55601894Y-112152616D01*
X55603006Y-112141211D01*
X55588505Y-112132602D01*
X55549806Y-112130192D01*
X55480288Y-112132910D01*
X55418649Y-112134817D01*
X55366625Y-112129324D01*
X55348183Y-112112253D01*
X55361378Y-112081052D01*
X55404262Y-112033166D01*
X55460266Y-111977161D01*
X55423091Y-111907799D01*
X55419097Y-111899898D01*
X55395536Y-111830608D01*
X55385915Y-111760435D01*
X55385774Y-111752324D01*
X55376658Y-111680659D01*
X55357671Y-111614838D01*
X55332867Y-111528982D01*
X55337976Y-111449420D01*
X55376730Y-111379735D01*
X55386051Y-111367828D01*
X55423310Y-111307376D01*
X55452776Y-111242049D01*
X55454587Y-111237031D01*
X55505405Y-111142333D01*
X55577277Y-111067261D01*
X55662724Y-111017815D01*
X55754271Y-110999999D01*
X55758265Y-110999878D01*
X55808727Y-110986994D01*
X55860840Y-110959347D01*
X55893940Y-110939302D01*
X55987940Y-110910775D01*
X56088808Y-110914415D01*
X56187008Y-110950479D01*
X56215846Y-110965615D01*
X56288446Y-110998050D01*
X56352959Y-111020411D01*
X56429532Y-111048841D01*
X56481248Y-111091392D01*
X56517337Y-111156698D01*
X56521645Y-111166615D01*
X56553877Y-111223397D01*
X56594373Y-111278379D01*
X56607643Y-111294424D01*
X56636100Y-111333987D01*
X56647442Y-111358401D01*
X56663425Y-111367353D01*
X56707505Y-111374025D01*
X56769829Y-111376574D01*
X56830108Y-111378701D01*
X56875042Y-111384568D01*
X56892216Y-111392864D01*
X56882283Y-111417022D01*
X56857365Y-111454057D01*
X56829181Y-111493750D01*
X56799620Y-111542441D01*
X56789931Y-111562099D01*
X56788251Y-111580137D01*
X56810934Y-111580098D01*
X56827657Y-111579775D01*
X56840998Y-111595354D01*
X56834746Y-111634853D01*
X56808829Y-111702348D01*
X56800486Y-111721873D01*
X56787897Y-111756709D01*
X56791458Y-111769235D01*
X56811532Y-111768248D01*
X56817159Y-111767576D01*
X56840560Y-111778283D01*
X56851517Y-111819050D01*
X56858382Y-111858067D01*
X56878337Y-111896009D01*
X56918252Y-111921194D01*
X56986910Y-111941569D01*
X56994154Y-111943366D01*
X57074948Y-111976029D01*
X57139912Y-112032660D01*
X57185653Y-112079999D01*
X57244894Y-112119910D01*
X57305794Y-112130579D01*
X57377764Y-112115276D01*
X57398956Y-112108821D01*
X57455351Y-112097583D01*
X57495443Y-112097708D01*
X57518532Y-112099425D01*
X57532393Y-112080890D01*
X57532426Y-112079711D01*
X57550226Y-112060623D01*
X57601893Y-112054410D01*
X57613750Y-112054386D01*
X57650562Y-112052462D01*
X57655888Y-112044185D01*
X57634843Y-112024984D01*
X57613439Y-112001956D01*
X57620928Y-111986058D01*
X57624061Y-111984698D01*
X57666383Y-111961053D01*
X57713389Y-111928412D01*
X57752654Y-111896064D01*
X57771755Y-111873298D01*
X57765110Y-111860608D01*
X57728119Y-111861892D01*
X57696476Y-111865971D01*
X57684812Y-111854651D01*
X57692373Y-111817059D01*
X57695784Y-111802478D01*
X57702020Y-111738565D01*
X57698811Y-111668395D01*
X57687958Y-111600750D01*
X57671260Y-111544413D01*
X57650518Y-111508166D01*
X57627534Y-111500792D01*
X57601790Y-111509943D01*
X57553836Y-111522807D01*
X57544118Y-111524791D01*
X57521375Y-111524620D01*
X57515204Y-111505813D01*
X57520846Y-111459192D01*
X57522065Y-111390780D01*
X57496221Y-111310674D01*
X57475099Y-111270124D01*
X57462856Y-111258267D01*
X57458603Y-111276612D01*
X57454749Y-111302953D01*
X57442124Y-111327108D01*
X57420736Y-111328347D01*
X57376228Y-111313585D01*
X57322899Y-111286261D01*
X57272263Y-111252451D01*
X57235839Y-111218236D01*
X57235658Y-111218005D01*
X57208618Y-111186319D01*
X57194676Y-111182685D01*
X57184823Y-111204716D01*
X57167649Y-111233558D01*
X57133313Y-111256320D01*
X57099767Y-111254457D01*
X57097065Y-111251899D01*
X57083701Y-111222455D01*
X57071538Y-111174373D01*
X57061038Y-111128054D01*
X57041341Y-111082947D01*
X57017060Y-111073424D01*
X56986819Y-111098251D01*
X56953608Y-111139264D01*
X56940472Y-111097875D01*
X56926250Y-111073229D01*
X56887894Y-111056486D01*
X56869729Y-111053602D01*
X56820502Y-111035776D01*
X56764129Y-111007069D01*
X56735594Y-110990694D01*
X56697409Y-110972542D01*
X56676313Y-110972319D01*
X56662688Y-110988240D01*
X56638535Y-111015295D01*
X56612332Y-111008201D01*
X56582697Y-110964577D01*
X56555615Y-110928501D01*
X56502191Y-110900646D01*
X56460803Y-110889203D01*
X56397304Y-110866820D01*
X56327353Y-110838793D01*
X56285281Y-110822127D01*
X56158834Y-110787078D01*
X56042102Y-110776759D01*
X55943473Y-110792186D01*
X55906373Y-110806899D01*
X55881441Y-110830496D01*
X55875462Y-110869383D01*
X55875462Y-110924135D01*
X55776611Y-110884978D01*
X55738673Y-110871154D01*
X55662714Y-110854891D01*
X55583617Y-110857462D01*
X55486314Y-110869227D01*
X55409478Y-110877391D01*
X55356689Y-110880798D01*
X55321019Y-110879592D01*
X55295537Y-110873916D01*
X55273313Y-110863915D01*
X55254157Y-110854618D01*
X55222962Y-110850655D01*
X55193291Y-110872534D01*
X55186718Y-110878845D01*
X55153315Y-110901987D01*
X55133369Y-110901737D01*
X55134387Y-110877467D01*
X55134596Y-110876897D01*
X55132336Y-110845170D01*
X55115467Y-110804665D01*
X55092058Y-110770444D01*
X55070177Y-110757574D01*
X55038829Y-110755638D01*
X54988649Y-110729496D01*
X54949692Y-110684612D01*
X54934024Y-110632105D01*
X54932387Y-110610554D01*
X54916857Y-110590472D01*
X54875524Y-110585766D01*
X54849054Y-110584767D01*
X54827513Y-110575823D01*
X54831213Y-110552816D01*
X54838439Y-110525874D01*
X54847343Y-110469963D01*
X54854250Y-110402186D01*
X54863096Y-110284506D01*
X54775423Y-110284506D01*
X54721595Y-110280699D01*
X54621821Y-110250521D01*
X54541361Y-110194973D01*
X54483859Y-110119737D01*
X54452960Y-110030491D01*
X54452664Y-109986279D01*
X54485442Y-109986279D01*
X54501750Y-110067857D01*
X54540902Y-110140763D01*
X54600886Y-110198508D01*
X54679687Y-110234600D01*
X54775292Y-110242551D01*
X54865632Y-110224158D01*
X54944435Y-110177587D01*
X54999302Y-110102787D01*
X55005511Y-110087980D01*
X55021684Y-110024450D01*
X55028168Y-109956135D01*
X55027999Y-109940668D01*
X55021586Y-109887888D01*
X55000533Y-109844678D01*
X54957560Y-109794361D01*
X54944093Y-109780421D01*
X54897869Y-109740639D01*
X54850362Y-109719879D01*
X54783394Y-109709260D01*
X54715809Y-109705643D01*
X54665284Y-109713897D01*
X54618470Y-109737199D01*
X54593734Y-109754411D01*
X54529421Y-109823066D01*
X54493995Y-109902518D01*
X54485442Y-109986279D01*
X54452664Y-109986279D01*
X54452307Y-109932917D01*
X54485545Y-109832693D01*
X54530172Y-109766795D01*
X54600113Y-109708789D01*
X54671021Y-109669536D01*
X54631136Y-109633441D01*
X54585317Y-109579481D01*
X54546766Y-109490871D01*
X54536407Y-109394154D01*
X54539316Y-109377905D01*
X54567205Y-109377905D01*
X54575709Y-109461563D01*
X54608162Y-109539208D01*
X54661056Y-109604619D01*
X54715809Y-109641440D01*
X54730887Y-109651580D01*
X54814148Y-109673871D01*
X54907334Y-109665274D01*
X54962038Y-109645231D01*
X55041697Y-109587123D01*
X55096144Y-109501051D01*
X55112874Y-109446803D01*
X55115035Y-109358596D01*
X55088647Y-109279489D01*
X55039374Y-109213220D01*
X54972881Y-109163527D01*
X54894833Y-109134149D01*
X54810894Y-109128825D01*
X54726729Y-109151293D01*
X54648003Y-109205292D01*
X54636064Y-109217419D01*
X54586155Y-109294451D01*
X54567205Y-109377905D01*
X54539316Y-109377905D01*
X54553570Y-109298282D01*
X54597583Y-109212207D01*
X54667774Y-109144883D01*
X54686178Y-109133081D01*
X54733877Y-109109443D01*
X54783590Y-109100559D01*
X54810894Y-109101288D01*
X54852837Y-109102407D01*
X54899992Y-109106728D01*
X54958172Y-109115184D01*
X54993544Y-109124339D01*
X54994512Y-109124780D01*
X55013132Y-109129045D01*
X55017204Y-109112623D01*
X55008822Y-109067756D01*
X55004574Y-109047653D01*
X54999982Y-108997673D01*
X55013340Y-108973065D01*
X55047446Y-108966493D01*
X55075443Y-108956657D01*
X55105174Y-108924128D01*
X55125855Y-108890284D01*
X55160386Y-108845871D01*
X55194511Y-108811091D01*
X55218357Y-108797034D01*
X55227049Y-108802060D01*
X55240355Y-108829984D01*
X55244033Y-108841546D01*
X55253854Y-108842465D01*
X55269979Y-108809930D01*
X55284366Y-108762940D01*
X55291771Y-108709038D01*
X55293222Y-108684542D01*
X55306545Y-108668818D01*
X55343550Y-108674105D01*
X55382037Y-108689633D01*
X55410313Y-108713673D01*
X55418103Y-108724687D01*
X55437265Y-108728596D01*
X55472672Y-108709244D01*
X55496337Y-108696231D01*
X55579965Y-108677593D01*
X55679071Y-108689087D01*
X55788775Y-108730387D01*
X55818837Y-108744569D01*
X55908280Y-108775423D01*
X55992685Y-108783913D01*
X56028018Y-108783737D01*
X56065277Y-108787228D01*
X56078243Y-108799002D01*
X56075400Y-108823075D01*
X56074177Y-108849735D01*
X56093297Y-108869125D01*
X56141335Y-108887395D01*
X56152450Y-108891070D01*
X56215722Y-108917847D01*
X56267695Y-108947988D01*
X56287517Y-108961684D01*
X56317766Y-108974331D01*
X56354378Y-108973092D01*
X56412082Y-108959101D01*
X56445944Y-108949886D01*
X56500485Y-108935206D01*
X56534022Y-108926399D01*
X56552682Y-108929639D01*
X56568167Y-108960911D01*
X56570399Y-108974222D01*
X56578573Y-108991414D01*
X56599511Y-108989925D01*
X56643929Y-108971213D01*
X56648192Y-108969269D01*
X56713126Y-108934999D01*
X56773280Y-108896772D01*
X56805809Y-108874499D01*
X56844335Y-108856656D01*
X56866936Y-108864955D01*
X56880866Y-108899587D01*
X56883453Y-108909595D01*
X56893921Y-108932695D01*
X56914603Y-108934644D01*
X56957618Y-108918416D01*
X57030408Y-108895440D01*
X57083551Y-108895322D01*
X57111173Y-108918955D01*
X57120304Y-108933880D01*
X57140389Y-108934841D01*
X57181190Y-108916685D01*
X57251668Y-108874502D01*
X57294794Y-108829773D01*
X57316522Y-108775205D01*
X57329884Y-108741350D01*
X57356014Y-108725406D01*
X57385104Y-108741892D01*
X57410036Y-108789702D01*
X57410601Y-108791424D01*
X57429183Y-108828420D01*
X57447693Y-108830863D01*
X57454345Y-108825048D01*
X57487327Y-108797390D01*
X57531498Y-108761213D01*
X57567175Y-108728698D01*
X57589994Y-108689996D01*
X57594555Y-108639801D01*
X57599304Y-108588592D01*
X57617642Y-108571089D01*
X57618282Y-108571096D01*
X57653747Y-108585881D01*
X57687097Y-108618281D01*
X57701923Y-108652456D01*
X57702874Y-108655875D01*
X57715796Y-108647056D01*
X57738996Y-108613959D01*
X57751497Y-108596185D01*
X57796710Y-108555808D01*
X57846345Y-108535684D01*
X57888268Y-108541689D01*
X57890439Y-108542620D01*
X57911980Y-108531921D01*
X57936390Y-108497363D01*
X57942464Y-108486458D01*
X57982982Y-108434186D01*
X58034582Y-108388673D01*
X58088529Y-108355514D01*
X58136091Y-108340303D01*
X58168533Y-108348637D01*
X58170453Y-108350388D01*
X58191808Y-108350923D01*
X58211025Y-108324193D01*
X58223704Y-108279627D01*
X58225446Y-108226654D01*
X58224025Y-108200825D01*
X58232233Y-108171454D01*
X58260190Y-108160492D01*
X58289150Y-108163631D01*
X58328110Y-108193795D01*
X58337699Y-108206513D01*
X58351340Y-108214944D01*
X58367417Y-108204425D01*
X58391319Y-108170358D01*
X58428430Y-108108143D01*
X58476505Y-108032162D01*
X58539920Y-107955007D01*
X58604077Y-107906558D01*
X58674080Y-107882119D01*
X58694495Y-107877516D01*
X58738747Y-107854154D01*
X58767670Y-107806660D01*
X58786074Y-107743416D01*
X58793921Y-107677327D01*
X58798544Y-107636389D01*
X58817562Y-107612164D01*
X58849034Y-107622146D01*
X58890522Y-107666606D01*
X58931765Y-107722390D01*
X58994242Y-107667535D01*
X59005563Y-107658295D01*
X59066636Y-107621949D01*
X59127728Y-107601623D01*
X59157022Y-107596868D01*
X59228476Y-107584501D01*
X59302297Y-107570997D01*
X59320557Y-107567748D01*
X59400382Y-107560938D01*
X59458860Y-107571710D01*
X59516472Y-107587519D01*
X59611396Y-107584799D01*
X59708174Y-107545296D01*
X59724732Y-107535727D01*
X59767457Y-107514515D01*
X59792647Y-107512043D01*
X59810895Y-107526359D01*
G37*
D12*
X62926700Y-85203980D02*
X62926700Y-84922820D01*
X63946700Y-85203980D02*
X63946700Y-84922820D01*
X50678800Y-74789700D02*
X50678800Y-74854700D01*
X50678800Y-83594700D02*
X50678800Y-83659700D01*
X50678800Y-83659700D02*
X54798800Y-83659700D01*
X54798800Y-74789700D02*
X50678800Y-74789700D01*
X54798800Y-74854700D02*
X54798800Y-74789700D01*
X54798800Y-83659700D02*
X54798800Y-83594700D01*
X55338800Y-74854700D02*
X55098800Y-74524700D01*
X55578800Y-74524700D01*
X55338800Y-74854700D01*
G36*
X55338800Y-74854700D02*
G01*
X55098800Y-74524700D01*
X55578800Y-74524700D01*
X55338800Y-74854700D01*
G37*
X83869658Y-103300200D02*
X83395142Y-103300200D01*
X83869658Y-104345200D02*
X83395142Y-104345200D01*
X80006000Y-110602942D02*
X80006000Y-111077458D01*
X81051000Y-110602942D02*
X81051000Y-111077458D01*
X72883242Y-107840200D02*
X73357758Y-107840200D01*
X72883242Y-108885200D02*
X73357758Y-108885200D01*
X56649600Y-72664120D02*
X56649600Y-72945280D01*
X57669600Y-72664120D02*
X57669600Y-72945280D01*
X65556545Y-72778008D02*
X65556545Y-111098008D01*
X68206545Y-72778008D02*
X65556545Y-72778008D01*
X68206545Y-75428008D02*
X68206545Y-72778008D01*
X70856545Y-72778008D02*
X69476545Y-72778008D01*
X70856545Y-74158008D02*
X70856545Y-72778008D01*
X70856545Y-75428008D02*
X68206545Y-75428008D01*
X70856545Y-75428008D02*
X70856545Y-111098008D01*
X70856545Y-111098008D02*
X65556545Y-111098008D01*
X50038600Y-103105742D02*
X50038600Y-103580258D01*
X51083600Y-103105742D02*
X51083600Y-103580258D01*
X47694500Y-77755958D02*
X47694500Y-77281442D01*
X48739500Y-77755958D02*
X48739500Y-77281442D01*
X79552300Y-106442780D02*
X79552300Y-106161620D01*
X80572300Y-106442780D02*
X80572300Y-106161620D01*
X71561700Y-79883920D02*
X71561700Y-80165080D01*
X72581700Y-79883920D02*
X72581700Y-80165080D01*
X78933100Y-73560158D02*
X78933100Y-73085642D01*
X79978100Y-73560158D02*
X79978100Y-73085642D01*
X80434620Y-103470400D02*
X80715780Y-103470400D01*
X80434620Y-104490400D02*
X80715780Y-104490400D01*
%LPC*%
D14*
X54456685Y-106463745D03*
X75070812Y-75750733D03*
X60675290Y-76513695D03*
X85121167Y-109507071D03*
D15*
X48165000Y-93470000D03*
X48165000Y-100870000D03*
D16*
X51065000Y-95900000D03*
D17*
X52335000Y-98440000D03*
X53605000Y-95900000D03*
X54875000Y-98440000D03*
X56145000Y-95900000D03*
X57415000Y-98440000D03*
X58685000Y-95900000D03*
X59955000Y-98440000D03*
X61225000Y-95900000D03*
X62495000Y-98440000D03*
X63765000Y-95900000D03*
D18*
X83431500Y-95054700D03*
X83431500Y-93784700D03*
X83431500Y-92514700D03*
X83431500Y-91244700D03*
X83431500Y-89974700D03*
X83431500Y-88704700D03*
X83431500Y-87434700D03*
X88381500Y-87434700D03*
X88381500Y-88704700D03*
X88381500Y-89974700D03*
X88381500Y-91244700D03*
X88381500Y-92514700D03*
X88381500Y-93784700D03*
X88381500Y-95054700D03*
D19*
X77830700Y-95164400D03*
X79655700Y-95164400D03*
D20*
X72628400Y-91220100D03*
X72628400Y-89395100D03*
D21*
X62365000Y-71811500D03*
X59065000Y-71811500D03*
D22*
X89889700Y-75734500D03*
X88339700Y-75734500D03*
X63794100Y-88400200D03*
X62244100Y-88400200D03*
D23*
X79189500Y-99290500D03*
X79189500Y-100940500D03*
D24*
X89016500Y-74154500D03*
X89016500Y-72604500D03*
D22*
X73723300Y-106766600D03*
X72173300Y-106766600D03*
D25*
X72259300Y-105195100D03*
X72259300Y-104245100D03*
X72259300Y-103295100D03*
X74534300Y-103295100D03*
X74534300Y-105195100D03*
D26*
X53217400Y-91519100D03*
X53217400Y-89869100D03*
D27*
X75916900Y-95496600D03*
X75916900Y-97596600D03*
D22*
X76161200Y-89305800D03*
X74611200Y-89305800D03*
D28*
X62601200Y-104151300D03*
X64251200Y-104151300D03*
X62526400Y-91710500D03*
X64176400Y-91710500D03*
D22*
X58426300Y-102594600D03*
X56876300Y-102594600D03*
D24*
X78965500Y-79742800D03*
X78965500Y-78192800D03*
D22*
X71696300Y-113526200D03*
X70146300Y-113526200D03*
X76257100Y-93985900D03*
X74707100Y-93985900D03*
D29*
X78510300Y-89448900D03*
X80060300Y-89448900D03*
D21*
X68644299Y-112738600D03*
X65344299Y-112738600D03*
D30*
X72785700Y-71310200D03*
X70960700Y-71310200D03*
D23*
X51514800Y-85237400D03*
X51514800Y-86887400D03*
X72825400Y-92749200D03*
X72825400Y-94399200D03*
D28*
X60056200Y-102601300D03*
X61706200Y-102601300D03*
D25*
X74963800Y-113570100D03*
X74963800Y-112620100D03*
X74963800Y-111670100D03*
X77238800Y-111670100D03*
X77238800Y-113570100D03*
D31*
X88525500Y-83216200D03*
X88525500Y-84166200D03*
X88525500Y-85116200D03*
X86250500Y-85116200D03*
X86250500Y-83216200D03*
D32*
X89372800Y-102759900D03*
X89372800Y-99809900D03*
D28*
X79133900Y-102423500D03*
X80783900Y-102423500D03*
D33*
X76297300Y-92435000D03*
X74647300Y-92435000D03*
D34*
X78188000Y-106454300D03*
X77238000Y-106454300D03*
X76288000Y-106454300D03*
X76288000Y-104179300D03*
X78188000Y-104179300D03*
X79966200Y-87713500D03*
X79016200Y-87713500D03*
X78066200Y-87713500D03*
X78066200Y-85438500D03*
X79966200Y-85438500D03*
D35*
X80996100Y-71474600D03*
X84296100Y-71474600D03*
D29*
X62705700Y-105742100D03*
X64255700Y-105742100D03*
D36*
X89503900Y-96638400D03*
X89503900Y-98188400D03*
D28*
X50022700Y-91746800D03*
X51672700Y-91746800D03*
D29*
X59589300Y-104469200D03*
X61139300Y-104469200D03*
D37*
X49383700Y-86037900D03*
X49383700Y-87937900D03*
X47508700Y-86987900D03*
D38*
X49712300Y-107253600D03*
X49712300Y-110553600D03*
D33*
X79753800Y-93391700D03*
X78103800Y-93391700D03*
D23*
X47027000Y-79748300D03*
X47027000Y-81398300D03*
D29*
X74675800Y-90883800D03*
X76225800Y-90883800D03*
X67826900Y-71551800D03*
X69376900Y-71551800D03*
D31*
X74531800Y-99804200D03*
X74531800Y-100754200D03*
X74531800Y-101704200D03*
X72256800Y-101704200D03*
X72256800Y-99804200D03*
D23*
X48011200Y-82839400D03*
X48011200Y-84489400D03*
D19*
X75212400Y-71219500D03*
X77037400Y-71219500D03*
D26*
X81261300Y-94965000D03*
X81261300Y-93315000D03*
D22*
X87861600Y-104405100D03*
X86311600Y-104405100D03*
D39*
X89291300Y-77675000D03*
X89291300Y-79575000D03*
D22*
X53213100Y-71168700D03*
X51663100Y-71168700D03*
D26*
X80740300Y-100940800D03*
X80740300Y-99290800D03*
D24*
X49350300Y-73743800D03*
X49350300Y-72193800D03*
D23*
X73227200Y-111015600D03*
X73227200Y-112665600D03*
D24*
X72245400Y-98055100D03*
X72245400Y-96505100D03*
D33*
X82105700Y-113140800D03*
X80455700Y-113140800D03*
D36*
X78975200Y-112311000D03*
X78975200Y-113861000D03*
D23*
X80517800Y-78069000D03*
X80517800Y-79719000D03*
D29*
X80855200Y-81194400D03*
X82405200Y-81194400D03*
D27*
X51433900Y-88193600D03*
X51433900Y-90293600D03*
D28*
X88281000Y-71067200D03*
X89931000Y-71067200D03*
D29*
X61855800Y-89953400D03*
X63405800Y-89953400D03*
D40*
X74528500Y-81270700D03*
X75478500Y-81270700D03*
X76428500Y-81270700D03*
X76428500Y-83545700D03*
X74528500Y-83545700D03*
D41*
X48442500Y-102686500D03*
X48442500Y-105636500D03*
D42*
X54623100Y-85754900D03*
X55273100Y-85754900D03*
X55923100Y-85754900D03*
X56573100Y-85754900D03*
X57223100Y-85754900D03*
X57873100Y-85754900D03*
X58523100Y-85754900D03*
X59173100Y-85754900D03*
X59823100Y-85754900D03*
X60473100Y-85754900D03*
X60473100Y-91479900D03*
X59823100Y-91479900D03*
X59173100Y-91479900D03*
X58523100Y-91479900D03*
X57873100Y-91479900D03*
X57223100Y-91479900D03*
X56573100Y-91479900D03*
X55923100Y-91479900D03*
X55273100Y-91479900D03*
X54623100Y-91479900D03*
D36*
X74074300Y-96492600D03*
X74074300Y-98042600D03*
D35*
X52338000Y-73350100D03*
X55638000Y-73350100D03*
D43*
X80823100Y-91420000D03*
X77873100Y-91420000D03*
D33*
X49731400Y-89643900D03*
X48081400Y-89643900D03*
D24*
X63436700Y-85838400D03*
X63436700Y-84288400D03*
D44*
X55213800Y-75414700D03*
X55213800Y-76684700D03*
X55213800Y-77954700D03*
X55213800Y-79224700D03*
X55213800Y-80494700D03*
X55213800Y-81764700D03*
X55213800Y-83034700D03*
X50263800Y-83034700D03*
X50263800Y-81764700D03*
X50263800Y-80494700D03*
X50263800Y-79224700D03*
X50263800Y-77954700D03*
X50263800Y-76684700D03*
X50263800Y-75414700D03*
D33*
X84457400Y-103822700D03*
X82807400Y-103822700D03*
D23*
X80528500Y-110015200D03*
X80528500Y-111665200D03*
D28*
X72295500Y-108362700D03*
X73945500Y-108362700D03*
D36*
X57159600Y-72029700D03*
X57159600Y-73579700D03*
D45*
X69476545Y-74158008D03*
D46*
X66936545Y-74158008D03*
X69476545Y-76698008D03*
X66936545Y-76698008D03*
X69476545Y-79238008D03*
X66936545Y-79238008D03*
X69476545Y-81778008D03*
X66936545Y-81778008D03*
X69476545Y-84318008D03*
X66936545Y-84318008D03*
X69476545Y-86858008D03*
X66936545Y-86858008D03*
X69476545Y-89398008D03*
X66936545Y-89398008D03*
X69476545Y-91938008D03*
X66936545Y-91938008D03*
X69476545Y-94478008D03*
X66936545Y-94478008D03*
X69476545Y-97018008D03*
X66936545Y-97018008D03*
X69476545Y-99558008D03*
X66936545Y-99558008D03*
X69476545Y-102098008D03*
X66936545Y-102098008D03*
X69476545Y-104638008D03*
X66936545Y-104638008D03*
X69476545Y-107178008D03*
X66936545Y-107178008D03*
X69476545Y-109718008D03*
X66936545Y-109718008D03*
D23*
X50561100Y-102518000D03*
X50561100Y-104168000D03*
D26*
X48217000Y-78343700D03*
X48217000Y-76693700D03*
D24*
X80062300Y-107077200D03*
X80062300Y-105527200D03*
D36*
X72071700Y-79249500D03*
X72071700Y-80799500D03*
D26*
X79455600Y-74147900D03*
X79455600Y-72497900D03*
D29*
X79800200Y-103980400D03*
X81350200Y-103980400D03*
%LPD*%
M02*
