%TF.GenerationSoftware,KiCad,Pcbnew,10.0.0*%
%TF.CreationDate,2026-10-01T16:36:57-07:00*%
%TF.ProjectId,BOOST_power_RC2,424f4f53-545f-4706-9f77-65725f524332,rev?*%
%TF.SameCoordinates,Original*%
%TF.FileFunction,Paste,Bot*%
%TF.FilePolarity,Positive*%
%FSLAX46Y46*%
G04 Gerber Fmt 4.6, Leading zero omitted, Abs format (unit mm)*
G04 Created by KiCad (PCBNEW 10.0.0) date 2026-10-01 16:36:57*
%MOMM*%
%LPD*%
G01*
G04 APERTURE LIST*
G04 Aperture macros list*
%AMRoundRect*
0 Rectangle with rounded corners*
0 $1 Rounding radius*
0 $2 $3 $4 $5 $6 $7 $8 $9 X,Y pos of 4 corners*
0 Add a 4 corners polygon primitive as box body*
4,1,4,$2,$3,$4,$5,$6,$7,$8,$9,$2,$3,0*
0 Add four circle primitives for the rounded corners*
1,1,$1+$1,$2,$3*
1,1,$1+$1,$4,$5*
1,1,$1+$1,$6,$7*
1,1,$1+$1,$8,$9*
0 Add four rect primitives between the rounded corners*
20,1,$1+$1,$2,$3,$4,$5,0*
20,1,$1+$1,$4,$5,$6,$7,0*
20,1,$1+$1,$6,$7,$8,$9,0*
20,1,$1+$1,$8,$9,$2,$3,0*%
G04 Aperture macros list end*
%ADD10RoundRect,0.250000X0.450000X-0.262500X0.450000X0.262500X-0.450000X0.262500X-0.450000X-0.262500X0*%
%ADD11RoundRect,0.225000X-0.225000X-0.375000X0.225000X-0.375000X0.225000X0.375000X-0.225000X0.375000X0*%
%ADD12RoundRect,0.250000X-0.325000X-0.650000X0.325000X-0.650000X0.325000X0.650000X-0.325000X0.650000X0*%
%ADD13RoundRect,0.150000X-0.150000X0.875000X-0.150000X-0.875000X0.150000X-0.875000X0.150000X0.875000X0*%
%ADD14RoundRect,0.200000X0.275000X-0.200000X0.275000X0.200000X-0.275000X0.200000X-0.275000X-0.200000X0*%
%ADD15RoundRect,0.250000X-0.262500X-0.450000X0.262500X-0.450000X0.262500X0.450000X-0.262500X0.450000X0*%
%ADD16RoundRect,0.225000X0.375000X-0.225000X0.375000X0.225000X-0.375000X0.225000X-0.375000X-0.225000X0*%
%ADD17RoundRect,0.250000X0.475000X-0.250000X0.475000X0.250000X-0.475000X0.250000X-0.475000X-0.250000X0*%
%ADD18RoundRect,0.150000X0.150000X-0.875000X0.150000X0.875000X-0.150000X0.875000X-0.150000X-0.875000X0*%
%ADD19RoundRect,0.200000X-0.200000X-0.275000X0.200000X-0.275000X0.200000X0.275000X-0.200000X0.275000X0*%
%ADD20RoundRect,0.250000X-0.300000X-0.300000X0.300000X-0.300000X0.300000X0.300000X-0.300000X0.300000X0*%
%ADD21RoundRect,0.200000X-0.275000X0.200000X-0.275000X-0.200000X0.275000X-0.200000X0.275000X0.200000X0*%
%ADD22RoundRect,0.225000X0.250000X-0.225000X0.250000X0.225000X-0.250000X0.225000X-0.250000X-0.225000X0*%
%ADD23RoundRect,0.150000X-0.875000X-0.150000X0.875000X-0.150000X0.875000X0.150000X-0.875000X0.150000X0*%
%ADD24RoundRect,0.225000X0.225000X0.250000X-0.225000X0.250000X-0.225000X-0.250000X0.225000X-0.250000X0*%
%ADD25RoundRect,0.250000X1.400000X1.000000X-1.400000X1.000000X-1.400000X-1.000000X1.400000X-1.000000X0*%
%ADD26RoundRect,0.250000X-0.250000X-0.475000X0.250000X-0.475000X0.250000X0.475000X-0.250000X0.475000X0*%
%ADD27RoundRect,0.250000X0.325000X0.650000X-0.325000X0.650000X-0.325000X-0.650000X0.325000X-0.650000X0*%
%ADD28RoundRect,0.225000X-0.225000X-0.250000X0.225000X-0.250000X0.225000X0.250000X-0.225000X0.250000X0*%
%ADD29RoundRect,0.250000X0.300000X-0.300000X0.300000X0.300000X-0.300000X0.300000X-0.300000X-0.300000X0*%
%ADD30RoundRect,0.250000X0.650000X-0.325000X0.650000X0.325000X-0.650000X0.325000X-0.650000X-0.325000X0*%
G04 APERTURE END LIST*
D10*
%TO.C,R72*%
X81996188Y-85495105D03*
X81996188Y-83670105D03*
%TD*%
D11*
%TO.C,D21*%
X92804628Y-66442132D03*
X96104628Y-66442132D03*
%TD*%
D12*
%TO.C,C16*%
X51570000Y-58395000D03*
X54520000Y-58395000D03*
%TD*%
D13*
%TO.C,U10*%
X47879740Y-45085506D03*
X49149740Y-45085506D03*
X50419740Y-45085506D03*
X51689740Y-45085506D03*
X52959740Y-45085506D03*
X54229740Y-45085506D03*
X55499740Y-45085506D03*
X56769740Y-45085506D03*
X56769740Y-54385506D03*
X55499740Y-54385506D03*
X54229740Y-54385506D03*
X52959740Y-54385506D03*
X51689740Y-54385506D03*
X50419740Y-54385506D03*
X49149740Y-54385506D03*
X47879740Y-54385506D03*
%TD*%
D14*
%TO.C,R61*%
X33157890Y-63211118D03*
X33157890Y-61561118D03*
%TD*%
D15*
%TO.C,R70*%
X54112749Y-65075887D03*
X55937749Y-65075887D03*
%TD*%
D11*
%TO.C,D10*%
X87663592Y-66245795D03*
X90963592Y-66245795D03*
%TD*%
D16*
%TO.C,D13*%
X89423449Y-95026614D03*
X89423449Y-91726614D03*
%TD*%
D17*
%TO.C,C62*%
X56341826Y-59079312D03*
X56341826Y-57179312D03*
%TD*%
D14*
%TO.C,R62*%
X76261381Y-36410792D03*
X76261381Y-34760792D03*
%TD*%
D17*
%TO.C,C31*%
X76025000Y-41545000D03*
X76025000Y-39645000D03*
%TD*%
D11*
%TO.C,D22*%
X80465006Y-89988933D03*
X83765006Y-89988933D03*
%TD*%
D18*
%TO.C,U8*%
X85647748Y-102295742D03*
X84377748Y-102295742D03*
X83107748Y-102295742D03*
X81837748Y-102295742D03*
X80567748Y-102295742D03*
X79297748Y-102295742D03*
X78027748Y-102295742D03*
X76757748Y-102295742D03*
X76757748Y-92995742D03*
X78027748Y-92995742D03*
X79297748Y-92995742D03*
X80567748Y-92995742D03*
X81837748Y-92995742D03*
X83107748Y-92995742D03*
X84377748Y-92995742D03*
X85647748Y-92995742D03*
%TD*%
D19*
%TO.C,R75*%
X79768995Y-73110442D03*
X81418995Y-73110442D03*
%TD*%
D20*
%TO.C,D28*%
X44600000Y-91500000D03*
X47400000Y-91500000D03*
%TD*%
D21*
%TO.C,R47*%
X102850000Y-98675000D03*
X102850000Y-100325000D03*
%TD*%
D22*
%TO.C,C51*%
X70520000Y-57675000D03*
X70520000Y-56125000D03*
%TD*%
D15*
%TO.C,R15*%
X76200319Y-43335509D03*
X78025319Y-43335509D03*
%TD*%
D23*
%TO.C,U19*%
X64461381Y-43205792D03*
X64461381Y-41935792D03*
X64461381Y-40665792D03*
X64461381Y-39395792D03*
X64461381Y-38125792D03*
X64461381Y-36855792D03*
X64461381Y-35585792D03*
X64461381Y-34315792D03*
X73761381Y-34315792D03*
X73761381Y-35585792D03*
X73761381Y-36855792D03*
X73761381Y-38125792D03*
X73761381Y-39395792D03*
X73761381Y-40665792D03*
X73761381Y-41935792D03*
X73761381Y-43205792D03*
%TD*%
D16*
%TO.C,D11*%
X80216066Y-71185731D03*
X80216066Y-67885731D03*
%TD*%
D20*
%TO.C,D29*%
X50600000Y-87250000D03*
X53400000Y-87250000D03*
%TD*%
D16*
%TO.C,D9*%
X81492362Y-78406365D03*
X81492362Y-75106365D03*
%TD*%
D24*
%TO.C,C61*%
X78850000Y-90875000D03*
X77300000Y-90875000D03*
%TD*%
D25*
%TO.C,D19*%
X73157242Y-46212298D03*
X73157242Y-53012298D03*
%TD*%
D10*
%TO.C,R60*%
X72271158Y-58506799D03*
X72271158Y-56681799D03*
%TD*%
D22*
%TO.C,C48*%
X62375000Y-37500000D03*
X62375000Y-35950000D03*
%TD*%
D23*
%TO.C,U15*%
X59132976Y-58930708D03*
X59132976Y-57660708D03*
X59132976Y-56390708D03*
X59132976Y-55120708D03*
X59132976Y-53850708D03*
X59132976Y-52580708D03*
X59132976Y-51310708D03*
X59132976Y-50040708D03*
X68432976Y-50040708D03*
X68432976Y-51310708D03*
X68432976Y-52580708D03*
X68432976Y-53850708D03*
X68432976Y-55120708D03*
X68432976Y-56390708D03*
X68432976Y-57660708D03*
X68432976Y-58930708D03*
%TD*%
D26*
%TO.C,C89*%
X81495000Y-104625000D03*
X83395000Y-104625000D03*
%TD*%
D16*
%TO.C,D2*%
X74762890Y-58991042D03*
X74762890Y-55691042D03*
%TD*%
D27*
%TO.C,C18*%
X65170000Y-47445000D03*
X62220000Y-47445000D03*
%TD*%
D28*
%TO.C,C50*%
X53050000Y-56475000D03*
X54600000Y-56475000D03*
%TD*%
D29*
%TO.C,D30*%
X102850000Y-91000000D03*
X102850000Y-88200000D03*
%TD*%
D14*
%TO.C,R23*%
X35117008Y-63275087D03*
X35117008Y-61625087D03*
%TD*%
D15*
%TO.C,R21*%
X66803893Y-47589237D03*
X68628893Y-47589237D03*
%TD*%
D28*
%TO.C,C90*%
X50250000Y-42975000D03*
X51800000Y-42975000D03*
%TD*%
D11*
%TO.C,D14*%
X33456790Y-65577220D03*
X36756790Y-65577220D03*
%TD*%
D30*
%TO.C,C60*%
X75045000Y-92820000D03*
X75045000Y-89870000D03*
%TD*%
D10*
%TO.C,R48*%
X55830194Y-73446345D03*
X55830194Y-71621345D03*
%TD*%
D11*
%TO.C,D8*%
X49871511Y-62337618D03*
X53171511Y-62337618D03*
%TD*%
M02*
